<?xml version="1.0" encoding="UTF-8" standalone="no"?>
<svg
   width="261.17746mm"
   height="140.02289mm"
   viewBox="0 0 3084.7756 1653.8119"
   version="1.2"
   id="svg158"
   sodipodi:docname="4 bar crank slider linkage.svg"
   inkscape:version="1.3.2 (091e20e, 2023-11-25, custom)"
   xmlns:inkscape="http://www.inkscape.org/namespaces/inkscape"
   xmlns:sodipodi="http://sodipodi.sourceforge.net/DTD/sodipodi-0.dtd"
   xmlns="http://www.w3.org/2000/svg"
   xmlns:svg="http://www.w3.org/2000/svg">
  <sodipodi:namedview
     id="namedview158"
     pagecolor="#ffffff"
     bordercolor="#666666"
     borderopacity="1.0"
     inkscape:showpageshadow="2"
     inkscape:pageopacity="0.0"
     inkscape:pagecheckerboard="0"
     inkscape:deskcolor="#d1d1d1"
     inkscape:document-units="mm"
     inkscape:zoom="1.0242254"
     inkscape:cx="430.08113"
     inkscape:cy="172.32536"
     inkscape:window-width="1920"
     inkscape:window-height="1009"
     inkscape:window-x="1912"
     inkscape:window-y="-8"
     inkscape:window-maximized="1"
     inkscape:current-layer="svg158"
     showgrid="false" />
  <defs
     id="defs1">
    <marker
       style="overflow:visible"
       id="marker2"
       refX="0"
       refY="0"
       orient="auto-start-reverse"
       inkscape:stockid="Dart arrow"
       markerWidth="1"
       markerHeight="1"
       viewBox="0 0 1 1"
       inkscape:isstock="true"
       inkscape:collect="always"
       preserveAspectRatio="xMidYMid">
      <path
         style="fill:context-stroke;fill-rule:evenodd;stroke:none"
         d="M 0,0 5,-5 -12.5,0 5,5 Z"
         transform="scale(-0.5)"
         id="path2" />
    </marker>
    <inkscape:path-effect
       effect="spiro"
       id="path-effect2"
       is_visible="true"
       lpeversion="1" />
    <inkscape:path-effect
       effect="spiro"
       id="path-effect1"
       is_visible="true"
       lpeversion="1" />
    <marker
       style="overflow:visible"
       id="DartArrow"
       refX="0"
       refY="0"
       orient="auto-start-reverse"
       inkscape:stockid="Dart arrow"
       markerWidth="1"
       markerHeight="1"
       viewBox="0 0 1 1"
       inkscape:isstock="true"
       inkscape:collect="always"
       preserveAspectRatio="xMidYMid">
      <path
         style="fill:context-stroke;fill-rule:evenodd;stroke:none"
         d="M 0,0 5,-5 -12.5,0 5,5 Z"
         transform="scale(-0.5)"
         id="path6" />
    </marker>
    <inkscape:path-effect
       effect="spiro"
       id="path-effect162"
       is_visible="true"
       lpeversion="1" />
  </defs>
  <g
     fill="none"
     stroke="#000000"
     stroke-opacity="1"
     stroke-width="1"
     stroke-linecap="square"
     stroke-linejoin="bevel"
     font-family="Arial"
     font-size="12px"
     font-weight="400"
     font-style="normal"
     id="g2"
     style="fill-rule:evenodd"
     transform="translate(-884.75323,-707.79006)" />
  <g
     fill="#000000"
     fill-opacity="1"
     stroke="#000000"
     stroke-opacity="1"
     stroke-width="1"
     stroke-linecap="butt"
     stroke-linejoin="miter"
     stroke-miterlimit="2"
     font-family="Arial"
     font-size="12px"
     font-weight="400"
     font-style="normal"
     id="g3"
     style="fill-rule:evenodd"
     transform="translate(-884.75323,-707.79006)" />
  <g
     fill="#000000"
     fill-opacity="1"
     stroke="#000000"
     stroke-opacity="1"
     stroke-width="2"
     stroke-linecap="round"
     stroke-linejoin="bevel"
     font-family="Arial"
     font-size="12px"
     font-weight="400"
     font-style="normal"
     id="g64"
     style="fill-rule:evenodd"
     transform="translate(-884.75323,-707.79006)">
    <polyline
       fill="none"
       vector-effect="none"
       points="2877.59,1553.12 2875.63,1504.99 2872.38,1478.57 "
       id="polyline3" />
    <polyline
       fill="none"
       vector-effect="none"
       points="2870.55,1463.72 2869.74,1457.17 2868.05,1448.99 "
       id="polyline4" />
    <polyline
       fill="none"
       vector-effect="none"
       points="2865.02,1434.34 2859.98,1409.99 2846.41,1363.76 2845.78,1362.13 "
       id="polyline5" />
    <polyline
       fill="none"
       vector-effect="none"
       points="2840.41,1348.17 2835.04,1334.21 "
       id="polyline6" />
    <polyline
       fill="none"
       vector-effect="none"
       points="2829.67,1320.25 2829.12,1318.8 2808.21,1275.39 2795.53,1253.78 "
       id="polyline7" />
    <polyline
       fill="none"
       vector-effect="none"
       points="2787.97,1240.87 2783.84,1233.83 2779.93,1228.27 "
       id="polyline8" />
    <polyline
       fill="none"
       vector-effect="none"
       points="2771.34,1216.03 2756.16,1194.4 2725.36,1157.36 2725.23,1157.22 "
       id="polyline9" />
    <polyline
       fill="none"
       vector-effect="none"
       points="2714.76,1146.53 2704.29,1135.85 "
       id="polyline10" />
    <polyline
       fill="none"
       vector-effect="none"
       points="2693.82,1125.16 2691.64,1122.94 2655.23,1091.39 2636.27,1077.5 "
       id="polyline11" />
    <polyline
       fill="none"
       vector-effect="none"
       points="2624.21,1068.66 2616.37,1062.92 2611.91,1060.17 "
       id="polyline12" />
    <polyline
       fill="none"
       vector-effect="none"
       points="2599.16,1052.34 2575.32,1037.7 2533.56,1016.53 "
       id="polyline13" />
    <polyline
       fill="none"
       vector-effect="none"
       points="2519.76,1010.78 2505.91,1005.13 "
       id="polyline14" />
    <polyline
       fill="none"
       vector-effect="none"
       points="2492.06,999.471 2487.75,997.709 2441.81,983.196 2420.41,978.311 "
       id="polyline15" />
    <polyline
       fill="none"
       vector-effect="none"
       points="2405.82,974.983 2394.84,972.476 2391.19,971.95 "
       id="polyline16" />
    <polyline
       fill="none"
       vector-effect="none"
       points="2376.38,969.822 2347.15,965.619 2301.97,962.851 "
       id="polyline17" />
    <polyline
       fill="none"
       vector-effect="none"
       points="2287.02,962.918 2272.07,963.224 "
       id="polyline18" />
    <polyline
       fill="none"
       vector-effect="none"
       points="2257.11,963.529 2250.9,963.655 2202.97,968.561 2182.92,972.285 "
       id="polyline19" />
    <polyline
       fill="none"
       vector-effect="none"
       points="2168.21,975.016 2155.6,977.357 2153.54,977.917 "
       id="polyline20" />
    <polyline
       fill="none"
       vector-effect="none"
       points="2139.11,981.837 2109.11,989.984 2068,1004.84 "
       id="polyline21" />
    <polyline
       fill="none"
       vector-effect="none"
       points="2054.26,1010.72 2040.65,1016.93 "
       id="polyline22" />
    <polyline
       fill="none"
       vector-effect="none"
       points="2027.05,1023.14 2019.98,1026.37 1977.93,1049.89 1962.29,1060.4 "
       id="polyline23" />
    <polyline
       fill="none"
       vector-effect="none"
       points="1949.88,1068.74 1937.94,1076.76 1937.49,1077.12 "
       id="polyline24" />
    <polyline
       fill="none"
       vector-effect="none"
       points="1925.79,1086.45 1900.28,1106.8 1869.57,1135.68 "
       id="polyline25" />
    <polyline
       fill="none"
       vector-effect="none"
       points="1859.2,1146.44 1849.17,1157.54 "
       id="polyline26" />
    <polyline
       fill="none"
       vector-effect="none"
       points="1839.15,1168.64 1832.9,1175.56 1803.63,1213.84 1794.29,1228.38 "
       id="polyline27" />
    <polyline
       fill="none"
       vector-effect="none"
       points="1786.2,1240.96 1778.11,1253.55 "
       id="polyline28" />
    <polyline
       fill="none"
       vector-effect="none"
       points="1771.01,1266.71 1754.93,1296.88 1738.82,1334.15 "
       id="polyline29" />
    <polyline
       fill="none"
       vector-effect="none"
       points="1733.45,1348.1 1728.65,1362.27 "
       id="polyline30" />
    <polyline
       fill="none"
       vector-effect="none"
       points="1723.86,1376.43 1720.37,1386.74 1708.69,1433.48 1706.14,1449.01 "
       id="polyline31" />
    <polyline
       fill="none"
       vector-effect="none"
       points="1703.71,1463.77 1701.28,1478.52 "
       id="polyline32" />
    <polyline
       fill="none"
       vector-effect="none"
       points="1699.85,1493.41 1696.94,1529.03 1696.94,1568.08 "
       id="polyline33" />
    <polyline
       fill="none"
       vector-effect="none"
       points="1697.41,1583.02 1698.63,1597.93 "
       id="polyline34" />
    <polyline
       fill="none"
       vector-effect="none"
       points="1699.85,1612.84 1700.86,1625.23 1708.69,1672.76 1712.13,1686.52 "
       id="polyline35" />
    <polyline
       fill="none"
       vector-effect="none"
       points="1715.75,1701.04 1719.38,1715.55 "
       id="polyline36" />
    <polyline
       fill="none"
       vector-effect="none"
       points="1723.86,1729.81 1735.82,1765.14 1750.69,1799.55 "
       id="polyline37" />
    <polyline
       fill="none"
       vector-effect="none"
       points="1756.94,1813.13 1763.98,1826.33 "
       id="polyline38" />
    <polyline
       fill="none"
       vector-effect="none"
       points="1771.01,1839.54 1777.59,1851.88 1803.63,1892.41 1811.3,1902.44 "
       id="polyline39" />
    <polyline
       fill="none"
       vector-effect="none"
       points="1820.39,1914.32 1829.48,1926.2 "
       id="polyline40" />
    <polyline
       fill="none"
       vector-effect="none"
       points="1839.15,1937.6 1865.18,1966.44 1891.36,1991.06 "
       id="polyline41" />
    <polyline
       fill="none"
       vector-effect="none"
       points="1902.4,2001.14 1914.1,2010.47 "
       id="polyline42" />
    <polyline
       fill="none"
       vector-effect="none"
       points="1925.79,2019.8 1937.94,2029.49 1977.93,2056.35 1987.6,2061.76 "
       id="polyline43" />
    <polyline
       fill="none"
       vector-effect="none"
       points="2000.65,2069.06 2013.71,2076.36 "
       id="polyline44" />
    <polyline
       fill="none"
       vector-effect="none"
       points="2027.05,2083.1 2063.8,2099.89 2096.14,2111.57 "
       id="polyline45" />
    <polyline
       fill="none"
       vector-effect="none"
       points="2110.24,2116.57 2124.67,2120.49 "
       id="polyline46" />
    <polyline
       fill="none"
       vector-effect="none"
       points="2139.11,2124.41 2155.6,2128.89 2202.97,2137.68 2212.44,2138.65 "
       id="polyline47" />
    <polyline
       fill="none"
       vector-effect="none"
       points="2227.32,2140.18 2242.2,2141.7 "
       id="polyline48" />
    <polyline
       fill="none"
       vector-effect="none"
       points="2257.11,2142.72 2299.07,2143.57 2331.83,2141.56 "
       id="polyline49" />
    <polyline
       fill="none"
       vector-effect="none"
       points="2346.77,2140.65 2347.15,2140.63 2361.57,2138.55 "
       id="polyline50" />
    <polyline
       fill="none"
       vector-effect="none"
       points="2376.38,2136.42 2394.84,2133.77 2441.81,2123.05 2449.4,2120.65 "
       id="polyline51" />
    <polyline
       fill="none"
       vector-effect="none"
       points="2463.67,2116.14 2477.93,2111.64 "
       id="polyline52" />
    <polyline
       fill="none"
       vector-effect="none"
       points="2492.06,2106.77 2532.35,2090.33 2560.25,2076.18 "
       id="polyline53" />
    <polyline
       fill="none"
       vector-effect="none"
       points="2573.59,2069.42 2575.32,2068.54 2586.41,2061.73 "
       id="polyline54" />
    <polyline
       fill="none"
       vector-effect="none"
       points="2599.16,2053.9 2616.37,2043.33 2655.23,2014.85 2660.08,2010.65 "
       id="polyline55" />
    <polyline
       fill="none"
       vector-effect="none"
       points="2671.38,2000.86 2682.69,1991.06 "
       id="polyline56" />
    <polyline
       fill="none"
       vector-effect="none"
       points="2693.82,1981.08 2725.36,1948.89 2744.36,1926.03 "
       id="polyline57" />
    <polyline
       fill="none"
       vector-effect="none"
       points="2753.93,1914.53 2756.16,1911.84 2762.75,1902.46 "
       id="polyline58" />
    <polyline
       fill="none"
       vector-effect="none"
       points="2771.34,1890.22 2783.84,1872.41 2808.21,1830.85 2810.32,1826.48 "
       id="polyline59" />
    <polyline
       fill="none"
       vector-effect="none"
       points="2816.81,1813 2823.3,1799.52 "
       id="polyline60" />
    <polyline
       fill="none"
       vector-effect="none"
       points="2829.67,1786 2846.41,1742.48 2854.35,1715.45 "
       id="polyline61" />
    <polyline
       fill="none"
       vector-effect="none"
       points="2858.56,1701.1 2859.98,1696.25 2861.99,1686.55 "
       id="polyline62" />
    <polyline
       fill="none"
       vector-effect="none"
       points="2865.02,1671.9 2869.74,1649.08 2875.63,1601.26 2875.76,1597.96 "
       id="polyline63" />
    <polyline
       fill="none"
       vector-effect="none"
       points="2876.37,1583.01 2876.98,1568.07 "
       id="polyline64" />
  </g>
  <g
     fill="#000000"
     fill-opacity="1"
     stroke="#000000"
     stroke-opacity="1"
     stroke-width="5"
     stroke-linecap="round"
     stroke-linejoin="bevel"
     font-family="Arial"
     font-size="12px"
     font-weight="400"
     font-style="normal"
     id="g65"
     style="fill-rule:evenodd"
     transform="translate(-884.75323,-707.79006)">
    <polyline
       fill="none"
       vector-effect="none"
       points="3776.61,1494.06 3599.44,1494.06 "
       id="polyline65" />
  </g>
  <g
     fill="#000000"
     fill-opacity="1"
     stroke="#000000"
     stroke-opacity="1"
     stroke-width="2"
     stroke-linecap="round"
     stroke-linejoin="bevel"
     font-family="Arial"
     font-size="12px"
     font-weight="400"
     font-style="normal"
     id="g90"
     style="fill-rule:evenodd"
     transform="translate(-884.75323,-707.79006)">
    <polyline
       fill="none"
       vector-effect="none"
       points="2287.02,844.618 2287.02,898.295 "
       id="polyline66" />
    <polyline
       fill="none"
       vector-effect="none"
       points="2287.02,913.06 2287.02,927.824 "
       id="polyline67" />
    <polyline
       fill="none"
       vector-effect="none"
       points="2287.02,942.588 2287.02,1016.41 "
       id="polyline68" />
    <polyline
       fill="none"
       vector-effect="none"
       points="2287.02,1031.17 2287.02,1045.94 "
       id="polyline69" />
    <polyline
       fill="none"
       vector-effect="none"
       points="2287.02,1060.7 2287.02,1134.52 "
       id="polyline70" />
    <polyline
       fill="none"
       vector-effect="none"
       points="2287.02,1149.29 2287.02,1164.05 "
       id="polyline71" />
    <polyline
       fill="none"
       vector-effect="none"
       points="2287.02,1178.82 2287.02,1252.64 "
       id="polyline72" />
    <polyline
       fill="none"
       vector-effect="none"
       points="2287.02,1267.4 2287.02,1282.17 "
       id="polyline73" />
    <polyline
       fill="none"
       vector-effect="none"
       points="2287.02,1296.93 2287.02,1370.75 "
       id="polyline74" />
    <polyline
       fill="none"
       vector-effect="none"
       points="2287.02,1385.52 2287.02,1400.28 "
       id="polyline75" />
    <polyline
       fill="none"
       vector-effect="none"
       points="2287.02,1415.05 2287.02,1488.87 "
       id="polyline76" />
    <polyline
       fill="none"
       vector-effect="none"
       points="2287.02,1503.63 2287.02,1518.4 "
       id="polyline77" />
    <polyline
       fill="none"
       vector-effect="none"
       points="2287.02,1533.16 2287.02,1606.98 "
       id="polyline78" />
    <polyline
       fill="none"
       vector-effect="none"
       points="2287.02,1621.75 2287.02,1636.51 "
       id="polyline79" />
    <polyline
       fill="none"
       vector-effect="none"
       points="2287.02,1651.28 2287.02,1725.1 "
       id="polyline80" />
    <polyline
       fill="none"
       vector-effect="none"
       points="2287.02,1739.86 2287.02,1754.63 "
       id="polyline81" />
    <polyline
       fill="none"
       vector-effect="none"
       points="2287.02,1769.39 2287.02,1843.21 "
       id="polyline82" />
    <polyline
       fill="none"
       vector-effect="none"
       points="2287.02,1857.98 2287.02,1872.74 "
       id="polyline83" />
    <polyline
       fill="none"
       vector-effect="none"
       points="2287.02,1887.5 2287.02,1961.33 "
       id="polyline84" />
    <polyline
       fill="none"
       vector-effect="none"
       points="2287.02,1976.09 2287.02,1990.85 "
       id="polyline85" />
    <polyline
       fill="none"
       vector-effect="none"
       points="2287.02,2005.62 2287.02,2079.44 "
       id="polyline86" />
    <polyline
       fill="none"
       vector-effect="none"
       points="2287.02,2094.2 2287.02,2108.97 "
       id="polyline87" />
    <polyline
       fill="none"
       vector-effect="none"
       points="2287.02,2123.73 2287.02,2197.55 "
       id="polyline88" />
    <polyline
       fill="none"
       vector-effect="none"
       points="2287.02,2212.32 2287.02,2227.08 "
       id="polyline89" />
    <polyline
       fill="none"
       vector-effect="none"
       points="2287.02,2241.85 2287.02,2295.52 "
       id="polyline90" />
  </g>
  <g
     fill="#000000"
     fill-opacity="1"
     stroke="#000000"
     stroke-opacity="1"
     stroke-width="5"
     stroke-linecap="round"
     stroke-linejoin="bevel"
     font-family="Arial"
     font-size="12px"
     font-weight="400"
     font-style="normal"
     id="g93"
     style="fill-rule:evenodd"
     transform="translate(-884.75323,-707.79006)">
    <polyline
       fill="none"
       vector-effect="none"
       points="2287.02,1553.12 1991.73,1041.67 "
       id="polyline91" />
    <polyline
       fill="none"
       vector-effect="none"
       points="3776.61,1612.18 3599.44,1612.18 "
       id="polyline92" />
    <polyline
       fill="none"
       vector-effect="none"
       points="3776.61,1494.06 3776.61,1612.18 "
       id="polyline93" />
  </g>
  <g
     fill="#000000"
     fill-opacity="1"
     stroke="#000000"
     stroke-opacity="1"
     stroke-width="2"
     stroke-linecap="round"
     stroke-linejoin="bevel"
     font-family="Arial"
     font-size="12px"
     font-weight="400"
     font-style="normal"
     id="g140"
     style="fill-rule:evenodd"
     transform="translate(-884.75323,-707.79006)">
    <polyline
       fill="none"
       vector-effect="none"
       points="1149.44,1553.12 1209.7,1553.12 "
       id="polyline94" />
    <polyline
       fill="none"
       vector-effect="none"
       points="1224.47,1553.12 1239.23,1553.12 "
       id="polyline95" />
    <polyline
       fill="none"
       vector-effect="none"
       points="1254,1553.12 1327.82,1553.12 "
       id="polyline96" />
    <polyline
       fill="none"
       vector-effect="none"
       points="1342.58,1553.12 1357.35,1553.12 "
       id="polyline97" />
    <polyline
       fill="none"
       vector-effect="none"
       points="1372.11,1553.12 1445.93,1553.12 "
       id="polyline98" />
    <polyline
       fill="none"
       vector-effect="none"
       points="1460.7,1553.12 1475.46,1553.12 "
       id="polyline99" />
    <polyline
       fill="none"
       vector-effect="none"
       points="1490.23,1553.12 1564.05,1553.12 "
       id="polyline100" />
    <polyline
       fill="none"
       vector-effect="none"
       points="1578.81,1553.12 1593.58,1553.12 "
       id="polyline101" />
    <polyline
       fill="none"
       vector-effect="none"
       points="1608.34,1553.12 1682.16,1553.12 "
       id="polyline102" />
    <polyline
       fill="none"
       vector-effect="none"
       points="1696.93,1553.12 1711.69,1553.12 "
       id="polyline103" />
    <polyline
       fill="none"
       vector-effect="none"
       points="1726.46,1553.12 1800.28,1553.12 "
       id="polyline104" />
    <polyline
       fill="none"
       vector-effect="none"
       points="1815.04,1553.12 1829.81,1553.12 "
       id="polyline105" />
    <polyline
       fill="none"
       vector-effect="none"
       points="1844.57,1553.12 1918.39,1553.12 "
       id="polyline106" />
    <polyline
       fill="none"
       vector-effect="none"
       points="1933.16,1553.12 1947.92,1553.12 "
       id="polyline107" />
    <polyline
       fill="none"
       vector-effect="none"
       points="1962.68,1553.12 2036.51,1553.12 "
       id="polyline108" />
    <polyline
       fill="none"
       vector-effect="none"
       points="2051.27,1553.12 2066.03,1553.12 "
       id="polyline109" />
    <polyline
       fill="none"
       vector-effect="none"
       points="2080.8,1553.12 2154.62,1553.12 "
       id="polyline110" />
    <polyline
       fill="none"
       vector-effect="none"
       points="2169.38,1553.12 2184.15,1553.12 "
       id="polyline111" />
    <polyline
       fill="none"
       vector-effect="none"
       points="2198.91,1553.12 2272.73,1553.12 "
       id="polyline112" />
    <polyline
       fill="none"
       vector-effect="none"
       points="2287.5,1553.12 2302.26,1553.12 "
       id="polyline113" />
    <polyline
       fill="none"
       vector-effect="none"
       points="2317.03,1553.12 2390.85,1553.12 "
       id="polyline114" />
    <polyline
       fill="none"
       vector-effect="none"
       points="2405.61,1553.12 2420.38,1553.12 "
       id="polyline115" />
    <polyline
       fill="none"
       vector-effect="none"
       points="2435.14,1553.12 2508.96,1553.12 "
       id="polyline116" />
    <polyline
       fill="none"
       vector-effect="none"
       points="2523.73,1553.12 2538.49,1553.12 "
       id="polyline117" />
    <polyline
       fill="none"
       vector-effect="none"
       points="2553.26,1553.12 2627.08,1553.12 "
       id="polyline118" />
    <polyline
       fill="none"
       vector-effect="none"
       points="2641.84,1553.12 2656.61,1553.12 "
       id="polyline119" />
    <polyline
       fill="none"
       vector-effect="none"
       points="2671.37,1553.12 2745.19,1553.12 "
       id="polyline120" />
    <polyline
       fill="none"
       vector-effect="none"
       points="2759.96,1553.12 2774.72,1553.12 "
       id="polyline121" />
    <polyline
       fill="none"
       vector-effect="none"
       points="2789.49,1553.12 2863.31,1553.12 "
       id="polyline122" />
    <polyline
       fill="none"
       vector-effect="none"
       points="2878.07,1553.12 2892.84,1553.12 "
       id="polyline123" />
    <polyline
       fill="none"
       vector-effect="none"
       points="2907.6,1553.12 2981.42,1553.12 "
       id="polyline124" />
    <polyline
       fill="none"
       vector-effect="none"
       points="2996.19,1553.12 3010.95,1553.12 "
       id="polyline125" />
    <polyline
       fill="none"
       vector-effect="none"
       points="3025.71,1553.12 3099.54,1553.12 "
       id="polyline126" />
    <polyline
       fill="none"
       vector-effect="none"
       points="3114.3,1553.12 3129.06,1553.12 "
       id="polyline127" />
    <polyline
       fill="none"
       vector-effect="none"
       points="3143.83,1553.12 3217.65,1553.12 "
       id="polyline128" />
    <polyline
       fill="none"
       vector-effect="none"
       points="3232.41,1553.12 3247.18,1553.12 "
       id="polyline129" />
    <polyline
       fill="none"
       vector-effect="none"
       points="3261.94,1553.12 3335.76,1553.12 "
       id="polyline130" />
    <polyline
       fill="none"
       vector-effect="none"
       points="3350.53,1553.12 3365.29,1553.12 "
       id="polyline131" />
    <polyline
       fill="none"
       vector-effect="none"
       points="3380.06,1553.12 3453.88,1553.12 "
       id="polyline132" />
    <polyline
       fill="none"
       vector-effect="none"
       points="3468.64,1553.12 3483.41,1553.12 "
       id="polyline133" />
    <polyline
       fill="none"
       vector-effect="none"
       points="3498.17,1553.12 3571.99,1553.12 "
       id="polyline134" />
    <polyline
       fill="none"
       vector-effect="none"
       points="3586.76,1553.12 3601.52,1553.12 "
       id="polyline135" />
    <polyline
       fill="none"
       vector-effect="none"
       points="3616.29,1553.12 3690.11,1553.12 "
       id="polyline136" />
    <polyline
       fill="none"
       vector-effect="none"
       points="3704.87,1553.12 3719.64,1553.12 "
       id="polyline137" />
    <polyline
       fill="none"
       vector-effect="none"
       points="3734.4,1553.12 3808.22,1553.12 "
       id="polyline138" />
    <polyline
       fill="none"
       vector-effect="none"
       points="3822.99,1553.12 3837.75,1553.12 "
       id="polyline139" />
    <polyline
       fill="none"
       vector-effect="none"
       points="3852.52,1553.12 3912.78,1553.12 "
       id="polyline140" />
  </g>
  <g
     fill="#000000"
     fill-opacity="1"
     stroke="#000000"
     stroke-opacity="1"
     stroke-width="5"
     stroke-linecap="round"
     stroke-linejoin="bevel"
     font-family="Arial"
     font-size="12px"
     font-weight="400"
     font-style="normal"
     id="g143"
     style="fill-rule:evenodd"
     transform="translate(-884.75323,-707.79006)">
    <polyline
       fill="none"
       vector-effect="none"
       points="1991.73,1041.67 3688.02,1553.12 "
       id="polyline141" />
    <polyline
       fill="none"
       vector-effect="none"
       points="3599.44,1494.06 3599.44,1612.18 "
       id="polyline142" />
    <polyline
       fill="none"
       vector-effect="none"
       points="3693.93,1553.12 3693.77,1551.76 3693.3,1550.47 3692.55,1549.33 3691.55,1548.39 3690.36,1547.7 3689.05,1547.31 3687.68,1547.23 3686.33,1547.46 3685.07,1548.01 3683.97,1548.83 3683.09,1549.88 3682.47,1551.1 3682.16,1552.44 3682.16,1553.81 3682.47,1555.14 3683.09,1556.37 3683.97,1557.42 3685.07,1558.24 3686.33,1558.78 3687.68,1559.02 3689.05,1558.94 3690.36,1558.54 3691.55,1557.86 3692.55,1556.92 3693.3,1555.77 3693.77,1554.48 3693.93,1553.12 "
       id="polyline143" />
  </g>
  <g
     fill="#000000"
     fill-opacity="1"
     stroke="#000000"
     stroke-opacity="1"
     stroke-width="2"
     stroke-linecap="round"
     stroke-linejoin="bevel"
     font-family="Arial"
     font-size="12px"
     font-weight="400"
     font-style="normal"
     id="g144"
     style="fill-rule:evenodd"
     transform="translate(-884.75323,-707.79006)">
    <polyline
       fill="none"
       vector-effect="none"
       points="2068.28,1233.26 2059.14,1239.71 2050.19,1246.41 2041.43,1253.38 2032.88,1260.59 2024.55,1268.05 2016.43,1275.74 2008.54,1283.66 2000.88,1291.81 1993.46,1300.18 1986.28,1308.76 1979.35,1317.54 1972.68,1326.51 1966.27,1335.68 1960.13,1345.03 1954.26,1354.55 1948.67,1364.23 1943.36,1374.08 1938.33,1384.07 1933.6,1394.2 1929.16,1404.47 1925.02,1414.86 1921.18,1425.36 1917.65,1435.97 1914.42,1446.68 1911.5,1457.48 1908.9,1468.35 1906.61,1479.3 1904.64,1490.31 1902.99,1501.37 1901.65,1512.48 1900.64,1523.62 "
       id="polyline144" />
  </g>
  <g
     fill="#000000"
     fill-opacity="1"
     stroke="#000000"
     stroke-opacity="1"
     stroke-width="3"
     stroke-linecap="round"
     stroke-linejoin="bevel"
     font-family="Arial"
     font-size="12px"
     font-weight="400"
     font-style="normal"
     id="g145"
     style="fill-rule:evenodd"
     transform="translate(-884.75323,-707.79006)" />
  <g
     fill="#000000"
     fill-opacity="1"
     stroke="none"
     font-family="Arial"
     font-size="12px"
     font-weight="400"
     font-style="normal"
     id="g146"
     style="fill-rule:evenodd;stroke-width:1;stroke-linecap:square;stroke-linejoin:bevel"
     transform="translate(-884.75323,-707.79006)">
    <path
       vector-effect="none"
       fill-rule="evenodd"
       d="m 2065.65,1229.1 27.62,-11.57 -22.37,19.9 -5.25,-8.33"
       id="path145" />
  </g>
  <g
     fill="#000000"
     fill-opacity="1"
     stroke="#000000"
     stroke-opacity="1"
     stroke-width="3"
     stroke-linecap="round"
     stroke-linejoin="bevel"
     font-family="Arial"
     font-size="12px"
     font-weight="400"
     font-style="normal"
     id="g147"
     style="fill-rule:evenodd"
     transform="translate(-884.75323,-707.79006)" />
  <g
     fill="#000000"
     fill-opacity="1"
     stroke="none"
     font-family="Arial"
     font-size="12px"
     font-weight="400"
     font-style="normal"
     id="g148"
     style="fill-rule:evenodd;stroke-width:1;stroke-linecap:square;stroke-linejoin:bevel"
     transform="translate(-884.75323,-707.79006)">
    <path
       vector-effect="none"
       fill-rule="evenodd"
       d="m 1905.56,1523.8 -6.05,29.32 -3.79,-29.69 9.84,0.37"
       id="path147" />
  </g>
  <g
     fill="#000000"
     fill-opacity="1"
     stroke="#000000"
     stroke-opacity="1"
     stroke-width="3"
     stroke-linecap="round"
     stroke-linejoin="bevel"
     font-family="Arial"
     font-size="12px"
     font-weight="400"
     font-style="normal"
     id="g149"
     style="fill-rule:evenodd"
     transform="translate(-884.75323,-707.79006)" />
  <g
     fill="#000000"
     fill-opacity="1"
     stroke="none"
     font-family="Arial"
     font-size="12px"
     font-weight="400"
     font-style="normal"
     id="g150"
     style="fill-rule:evenodd;stroke-width:1;stroke-linecap:square;stroke-linejoin:bevel"
     transform="translate(-884.75323,-707.79006)">
    <path
       vector-effect="none"
       fill-rule="evenodd"
       d="m 1886.63,1410.25 2.45,1.21 2.38,0.93 2.32,0.66 2.26,0.37 2.14,0.11 2.03,-0.17 1.89,-0.48 1.76,-0.74 1.61,-1 1.44,-1.25 1.27,-1.49 1.1,-1.74 1.17,-2.62 0.6,-2.57 0.06,-2.52 -0.51,-2.48 -1.04,-2.3 -1.54,-2.08 -2.05,-1.89 -2.56,-1.66 -2.49,-1.12 -2.43,-0.62 -2.34,-0.16 -2.27,0.33 -2.14,0.83 -1.91,1.3 -1.67,1.73 -1.44,2.21 -0.71,1.45 -0.51,1.42 -0.34,1.4 -0.14,1.38 0.05,1.35 0.22,1.33 0.41,1.29 0.6,1.26 -0.16,0.29 -1.77,-1.12 -1.6,-1.13 -1.42,-1.15 -1.24,-1.17 -1.08,-1.19 -0.91,-1.21 -0.72,-1.22 -0.55,-1.24 -0.61,-2.53 0.02,-2.63 0.63,-2.74 1.26,-2.84 1.43,-2.26 1.55,-1.79 -3.78,-2.06 -0.69,0.77 -0.71,0.96 -0.74,1.15 -0.77,1.34 -1.01,2.05 -0.78,2.02 -0.53,1.97 -0.3,1.93 -0.06,1.9 0.17,1.86 0.41,1.81 0.65,1.77 0.87,1.74 1.12,1.7 1.35,1.66 1.58,1.63 1.84,1.57 2.06,1.53 2.29,1.5 2.53,1.46 m 18.89,-5.58 -0.67,1.06 -0.79,0.91 -0.92,0.76 -1.04,0.61 -1.13,0.47 -1.19,0.31 -1.24,0.14 -1.32,-0.03 -2.66,-0.48 -2.53,-1.06 -1.52,-1.15 -1.16,-1.69 -0.73,-2.03 -0.18,-2.19 0.36,-2.26 0.9,-2.18 0.99,-1.52 1.14,-1.2 1.26,-0.86 1.4,-0.55 1.49,-0.19 1.58,0.14 1.69,0.46 1.76,0.81 1.83,1.14 1.47,1.27 1.13,1.36 0.77,1.46 0.4,1.57 0.02,1.59 -0.37,1.65 -0.74,1.68"
       id="path149" />
  </g>
  <g
     fill="#000000"
     fill-opacity="1"
     stroke="none"
     font-family="Arial"
     font-size="12px"
     font-weight="400"
     font-style="normal"
     id="g151"
     style="fill-rule:evenodd;stroke-width:1;stroke-linecap:square;stroke-linejoin:bevel"
     transform="translate(-884.75323,-707.79006)">
    <path
       vector-effect="none"
       fill-rule="evenodd"
       d="m 1912.66,1356.16 -2.23,-1.15 -2.15,-0.99 -2.07,-0.8 -1.99,-0.64 -1.9,-0.47 -1.81,-0.31 -1.73,-0.13 -1.65,0.03 -1.55,0.21 -1.46,0.37 -1.35,0.55 -1.26,0.71 -1.15,0.88 -1.05,1.04 -0.95,1.22 -0.86,1.38 -0.73,1.52 -0.53,1.5 -0.34,1.48 -0.13,1.45 0.05,1.44 0.25,1.42 0.43,1.38 0.65,1.36 0.85,1.35 1.05,1.34 1.25,1.34 1.46,1.33 1.65,1.31 1.85,1.3 2.05,1.3 2.26,1.29 2.25,1.16 2.16,1 2.07,0.83 1.99,0.66 1.9,0.48 1.81,0.3 1.73,0.14 1.65,-0.04 1.55,-0.19 1.44,-0.36 1.35,-0.54 1.25,-0.7 1.15,-0.89 1.05,-1.06 0.94,-1.22 0.86,-1.39 0.73,-1.51 0.53,-1.49 0.34,-1.46 0.14,-1.45 -0.05,-1.44 -0.25,-1.42 -0.45,-1.4 -0.66,-1.39 -0.84,-1.36 -1.05,-1.35 -1.24,-1.34 -1.44,-1.33 -1.65,-1.33 -1.85,-1.32 -2.06,-1.31 -2.26,-1.29 m -10.65,19.53 -3.55,-2.08 -2.91,-2.01 -2.25,-1.94 -1.6,-1.87 -0.98,-1.85 -0.38,-1.9 0.18,-1.93 0.79,-1.97 1.25,-1.7 1.53,-1.21 1.81,-0.68 2.13,-0.19 2.47,0.32 2.86,0.83 3.23,1.32 3.62,1.83 3.53,2.07 2.89,2.01 2.25,1.96 1.62,1.91 0.99,1.89 0.41,1.89 -0.19,1.95 -0.78,1.95 -1.19,1.72 -1.52,1.19 -1.8,0.72 -2.09,0.18 -1.16,-0.1 -1.28,-0.22 -1.38,-0.36 -1.49,-0.48 -1.59,-0.62 -1.7,-0.75 -1.8,-0.87 -1.92,-1.01"
       id="path150" />
  </g>
  <g
     fill="#000000"
     fill-opacity="1"
     stroke="#000000"
     stroke-opacity="1"
     stroke-width="1"
     stroke-linecap="round"
     stroke-linejoin="bevel"
     font-family="Arial"
     font-size="12px"
     font-weight="400"
     font-style="normal"
     id="g152"
     style="fill-rule:evenodd"
     transform="translate(-884.75323,-707.79006)" />
  <g
     fill="#000000"
     fill-opacity="1"
     stroke="none"
     font-family="Arial"
     font-size="12px"
     font-weight="400"
     font-style="normal"
     id="g153"
     style="fill-rule:evenodd;stroke-width:1;stroke-linecap:square;stroke-linejoin:bevel"
     transform="translate(-884.75323,-707.79006)">
    <path
       vector-effect="none"
       fill-rule="evenodd"
       d="m 1931.36,1350.99 -2.6,4.77 5.62,4.48 5.41,4.81 1.8,-3.29 -2.44,-3.14 -2.39,-2.84 -2.35,-2.56 -2.29,-2.27 -0.76,0.04"
       id="path152" />
  </g>
  <g
     fill="#000000"
     fill-opacity="1"
     stroke="#000000"
     stroke-opacity="1"
     stroke-width="1"
     stroke-linecap="round"
     stroke-linejoin="bevel"
     font-family="Arial"
     font-size="12px"
     font-weight="400"
     font-style="normal"
     id="g154"
     style="fill-rule:evenodd"
     transform="translate(-884.75323,-707.79006)" />
  <g
     fill="#000000"
     fill-opacity="1"
     stroke="none"
     font-family="Arial"
     font-size="12px"
     font-weight="400"
     font-style="normal"
     id="g155"
     style="fill-rule:evenodd;stroke-width:1;stroke-linecap:square;stroke-linejoin:bevel"
     transform="translate(-884.75323,-707.79006)">
    <path
       vector-effect="none"
       fill-rule="evenodd"
       d="m 1935.85,1313.63 -2.24,-1.15 -2.15,-0.98 -2.07,-0.81 -1.98,-0.63 -1.9,-0.48 -1.82,-0.3 -1.73,-0.14 -1.64,0.03 -1.56,0.21 -1.45,0.37 -1.36,0.55 -1.26,0.72 -1.15,0.87 -1.05,1.05 -0.95,1.21 -0.85,1.39 -0.73,1.52 -0.54,1.5 -0.33,1.47 -0.14,1.46 0.05,1.43 0.26,1.42 0.43,1.39 0.64,1.35 0.85,1.35 1.06,1.35 1.25,1.34 1.45,1.33 1.65,1.3 1.85,1.3 2.06,1.3 2.26,1.29 2.24,1.16 2.16,1 2.08,0.83 1.98,0.66 1.9,0.48 1.82,0.3 1.73,0.14 1.64,-0.04 1.55,-0.19 1.45,-0.36 1.35,-0.53 1.25,-0.71 1.14,-0.89 1.05,-1.06 0.95,-1.22 0.85,-1.39 0.73,-1.51 0.54,-1.48 0.34,-1.47 0.14,-1.45 -0.05,-1.44 -0.25,-1.42 -0.46,-1.4 -0.65,-1.38 -0.85,-1.37 -1.04,-1.35 -1.24,-1.34 -1.45,-1.32 -1.64,-1.34 -1.86,-1.32 -2.05,-1.3 -2.26,-1.3 m -10.65,19.54 -3.56,-2.09 -2.9,-2.01 -2.26,-1.94 -1.6,-1.87 -0.98,-1.85 -0.37,-1.9 0.18,-1.92 0.79,-1.98 1.24,-1.69 1.53,-1.22 1.82,-0.68 2.12,-0.19 2.48,0.33 2.85,0.82 3.24,1.33 3.62,1.82 3.52,2.07 2.89,2.02 2.26,1.96 1.62,1.9 0.99,1.89 0.41,1.89 -0.2,1.95 -0.77,1.95 -1.2,1.72 -1.51,1.2 -1.81,0.71 -2.08,0.18 -1.17,-0.09 -1.27,-0.23 -1.38,-0.35 -1.49,-0.49 -1.59,-0.62 -1.7,-0.74 -1.81,-0.88 -1.91,-1"
       id="path154" />
  </g>
  <g
     fill="#000000"
     fill-opacity="1"
     stroke="none"
     font-family="Arial"
     font-size="12px"
     font-weight="400"
     font-style="normal"
     id="g156"
     style="fill-rule:evenodd;stroke-width:1;stroke-linecap:square;stroke-linejoin:bevel"
     transform="translate(-884.75323,-707.79006)">
    <path
       vector-effect="none"
       fill-rule="evenodd"
       d="m 1928.12,1302.27 1.67,0.72 1.69,0.37 h 1.7 l 1.72,-0.35 1.63,-0.67 1.4,-0.95 1.2,-1.21 0.98,-1.48 0.72,-1.64 0.38,-1.67 0.01,-1.71 -0.34,-1.75 -0.64,-1.63 -0.93,-1.43 -1.19,-1.21 -1.49,-0.99 -1.65,-0.72 -1.68,-0.36 -1.71,-0.01 -1.74,0.34 -1.65,0.66 -1.43,0.93 -1.21,1.22 -1,1.49 -0.72,1.65 -0.36,1.68 -0.01,1.69 0.33,1.72 0.65,1.64 0.94,1.44 1.22,1.22 1.51,1.01 m 1.66,-3.04 -0.9,-0.61 -0.74,-0.74 -0.58,-0.88 -0.4,-1.03 -0.21,-1.06 0.01,-1.04 0.23,-1.04 0.44,-1 0.61,-0.9 0.75,-0.73 0.87,-0.57 1.01,-0.4 1.05,-0.18 1.03,0.01 1.02,0.22 1,0.43 0.89,0.59 0.73,0.74 0.57,0.86 0.41,0.99 0.22,1.07 0.01,1.04 -0.22,1.02 -0.44,1 -0.6,0.9 -0.74,0.74 -0.87,0.57 -1.02,0.42 -1.07,0.23 h -1.04 l -1.02,-0.22 -1,-0.43"
       id="path155" />
  </g>
  <g
     fill="none"
     stroke="#000000"
     stroke-opacity="1"
     stroke-width="1"
     stroke-linecap="square"
     stroke-linejoin="bevel"
     font-family="Arial"
     font-size="12px"
     font-weight="400"
     font-style="normal"
     id="g157"
     style="fill-rule:evenodd"
     transform="translate(-884.75323,-707.79006)" />
  <circle
     style="fill:#cecece;fill-opacity:1;stroke:#000000;stroke-width:3.14172;stroke-opacity:1"
     id="path161"
     cx="1406.6145"
     cy="845.21094"
     r="28.985344" />
  <circle
     style="fill:#cecece;fill-opacity:1;stroke:#000000;stroke-width:3.14172;stroke-opacity:1"
     id="path161-8"
     cx="1109.3718"
     cy="338.01059"
     r="28.985344" />
  <circle
     style="fill:#cecece;fill-opacity:1;stroke:#000000;stroke-width:3.14172;stroke-opacity:1"
     id="path161-8-5"
     cx="2798.6377"
     cy="843.43604"
     r="28.985344" />
  <text
     xml:space="preserve"
     style="font-style:normal;font-weight:normal;font-size:125px;line-height:1.25;font-family:sans-serif;fill:#000000;fill-opacity:1;stroke:none;stroke-width:3.125"
     x="1443.2278"
     y="820.80237"
     id="text161"><tspan
       sodipodi:role="line"
       id="tspan161"
       style="stroke-width:3.125"
       x="1443.2278"
       y="820.80237">A</tspan></text>
  <text
     xml:space="preserve"
     style="font-style:normal;font-weight:normal;font-size:125px;line-height:1.25;font-family:sans-serif;fill:#000000;fill-opacity:1;stroke:none;stroke-width:3.125"
     x="959.00201"
     y="325.009"
     id="text161-9"><tspan
       sodipodi:role="line"
       id="tspan161-6"
       style="stroke-width:3.125"
       x="959.00201"
       y="325.009">B</tspan></text>
  <text
     xml:space="preserve"
     style="font-style:normal;font-weight:normal;font-size:84.9152px;line-height:1.25;font-family:sans-serif;fill:#000000;fill-opacity:1;stroke:none;stroke-width:2.12288"
     x="1167.2153"
     y="155.619"
     id="text161-9-25"><tspan
       sodipodi:role="line"
       id="tspan161-6-3"
       style="stroke-width:2.12288"
       x="1167.2153"
       y="155.619">V<tspan
   style="font-size:55.1949px;baseline-shift:sub;stroke-width:2.12288"
   id="tspan1">BA</tspan> </tspan></text>
  <text
     xml:space="preserve"
     style="font-style:normal;font-weight:normal;font-size:84.9152px;line-height:1.25;font-family:sans-serif;fill:#000000;fill-opacity:1;stroke:#000000;stroke-width:2.12288;stroke-opacity:1"
     x="297.13177"
     y="615.37939"
     id="text161-9-25-7"><tspan
       sodipodi:role="line"
       id="tspan161-6-3-0"
       style="stroke:#000000;stroke-width:2.12288;stroke-opacity:1"
       x="297.13177"
       y="615.37939">240 rpm </tspan></text>
  <text
     xml:space="preserve"
     style="font-style:normal;font-weight:normal;font-size:125px;line-height:1.25;font-family:sans-serif;fill:#000000;fill-opacity:1;stroke:none;stroke-width:3.125"
     x="2060.8081"
     y="613.41956"
     id="text161-9-6"><tspan
       sodipodi:role="line"
       id="tspan161-6-0"
       style="stroke-width:3.125"
       x="2060.8081"
       y="613.41956">D</tspan></text>
  <text
     xml:space="preserve"
     style="font-style:normal;font-weight:normal;font-size:125px;line-height:1.25;font-family:sans-serif;fill:#000000;fill-opacity:1;stroke:none;stroke-width:3.125"
     x="2749.9175"
     y="742.46423"
     id="text161-9-2"><tspan
       sodipodi:role="line"
       id="tspan161-6-5"
       style="stroke-width:3.125"
       x="2749.9175"
       y="742.46423">C</tspan></text>
  <path
     style="fill:none;stroke:#000000;stroke-width:3.12992;stroke-linecap:butt;stroke-linejoin:miter;stroke-dasharray:none;stroke-opacity:1;marker-end:url(#DartArrow)"
     d="M 2030.1563,1005.3665 2226.4838,860.81765"
     id="path162"
     inkscape:path-effect="#path-effect162"
     inkscape:original-d="m 2030.1563,1005.3665 c 62.5659,-49.62125 129.4467,-97.08506 196.3275,-144.54885"
     transform="translate(-884.75323,-707.79006)" />
  <path
     style="fill:none;stroke:#000000;stroke-width:3.1274;stroke-linecap:butt;stroke-linejoin:miter;stroke-dasharray:none;stroke-opacity:1;marker-end:url(#marker2)"
     d="m 1359.1907,1434.6981 c -48.0535,-66.944 -73.2714,-149.9742 -70.5647,-232.3351 2.7067,-82.3609 33.3216,-163.5562 85.6668,-227.20076 10.6724,-12.97615 22.213,-25.23807 34.5191,-36.67659"
     id="path1"
     inkscape:path-effect="#path-effect2"
     inkscape:original-d="m 1359.1907,1434.6981 c 0.7191,-152.4595 10.068,-304.919 15.1021,-459.53586 5.034,-154.61693 21.5744,-25.17021 34.5191,-36.67659"
     transform="matrix(0.94524795,0,0,1.2084693,-557.42732,-659.56374)" />
  <rect
     style="fill:none;stroke:none;stroke-width:3.21753;stroke-dasharray:none;stroke-opacity:1"
     id="rect4"
     width="3084.7756"
     height="1653.8149"
     x="1.1368684e-13"
     y="-0.0031353051" />
</svg>
