<svg xmlns="http://www.w3.org/2000/svg" xmlns:xlink="http://www.w3.org/1999/xlink" x="0" y="0" width="317" height="188.796875" style="
        width:317px;
        height:188.796875px;
        background: #FFF;
        fill: none;
">
        
        
        <svg xmlns="http://www.w3.org/2000/svg" class="role-diagram-draw-area"><g class="shapes-region" style="stroke: black; fill: none;"><g class="composite-shape"><path class="real" d=" M134.46,121.4 L40.34,121.4 C26.35,121.4 15,107.97 15,91.4 C15,74.83 26.35,61.4 40.34,61.4 L134.46,61.4 M159.8,91.4 C159.8,107.97 148.45,121.4 134.46,121.4 C120.47,121.4 109.12,107.97 109.12,91.4 C109.12,74.83 120.47,61.4 134.46,61.4 C148.45,61.4 159.8,74.83 159.8,91.4" style="stroke-width: 1; stroke: rgb(0, 0, 0); fill: none; fill-opacity: 1;"/></g><g class="composite-shape"><path class="real" d=" M284.95,151.6 L239.45,151.6 C232.68,151.6 227.2,121.02 227.2,83.3 C227.2,45.58 232.68,15 239.45,15 L284.95,15 M297.2,83.3 C297.2,121.02 291.72,151.6 284.95,151.6 C278.18,151.6 272.7,121.02 272.7,83.3 C272.7,45.58 278.18,15 284.95,15 C291.72,15 297.2,45.58 297.2,83.3" style="stroke-width: 1; stroke: rgb(0, 0, 0); fill: none; fill-opacity: 1;"/></g><g/></g><g/><g/><g/></svg>
        <svg xmlns="http://www.w3.org/2000/svg" xmlns:xlink="http://www.w3.org/1999/xlink" width="315" height="186.796875" style="width:315px;height:186.796875px;font-family:Asana-Math, Asana;background:#FFF;"></svg>
</svg>
