<?xml version="1.0" encoding="UTF-8" standalone="no"?>
<svg
   x="0"
   y="0"
   width="702"
   height="337.1875"
   style="         width:702px;         height:337.1875px;         background: transparent;         fill: none; "
   version="1.1"
   id="svg54"
   sodipodi:docname="Dam Hatch.svg"
   inkscape:version="1.4.2 (ebf0e94, 2025-05-08)"
   xmlns:inkscape="http://www.inkscape.org/namespaces/inkscape"
   xmlns:sodipodi="http://sodipodi.sourceforge.net/DTD/sodipodi-0.dtd"
   xmlns="http://www.w3.org/2000/svg"
   xmlns:svg="http://www.w3.org/2000/svg">
  <defs
     id="defs54" />
  <sodipodi:namedview
     id="namedview54"
     pagecolor="#ffffff"
     bordercolor="#000000"
     borderopacity="0.25"
     inkscape:showpageshadow="2"
     inkscape:pageopacity="0.0"
     inkscape:pagecheckerboard="0"
     inkscape:deskcolor="#d1d1d1"
     inkscape:zoom="2.3933272"
     inkscape:cx="345.75298"
     inkscape:cy="215.39053"
     inkscape:window-width="1920"
     inkscape:window-height="1009"
     inkscape:window-x="-8"
     inkscape:window-y="-8"
     inkscape:window-maximized="1"
     inkscape:current-layer="svg54" />
  <svg
     class="role-diagram-draw-area"
     style="overflow: visible;"
     version="1.1"
     id="svg41">
    <g
       class="shapes-region"
       style="stroke: black; fill: none;"
       id="g38">
      <g
         class="arrow-line"
         id="g1">
        <path
           class="connection real"
           stroke-dasharray=""
           d="  M180,80 L210,80"
           style="stroke: rgb(0, 0, 0); stroke-width: 1; fill: none; fill-opacity: 1;"
           id="path1" />
      </g>
      <g
         class="arrow-line"
         id="g2">
        <path
           class="connection real"
           stroke-dasharray=""
           d="  M180,80 L170,140"
           style="stroke: rgb(0, 0, 0); stroke-width: 1; fill: none; fill-opacity: 1;"
           id="path2" />
      </g>
      <g
         class="arrow-line"
         id="g3">
        <path
           class="connection real"
           stroke-dasharray=""
           d="  M170,140 L210,140"
           style="stroke: rgb(0, 0, 0); stroke-width: 1; fill: none; fill-opacity: 1;"
           id="path3" />
      </g>
      <g
         class="arrow-line"
         id="g4">
        <path
           class="connection real"
           stroke-dasharray=""
           d="  M210,80 L210,140"
           style="stroke: rgb(0, 0, 0); stroke-width: 1; fill: none; fill-opacity: 1;"
           id="path4" />
      </g>
      <g
         class="arrow-line"
         id="g5">
        <path
           class="connection real"
           stroke-dasharray=""
           d="  M170,140 L140,310"
           style="stroke: rgb(0, 0, 0); stroke-width: 1; fill: none; fill-opacity: 1;"
           id="path5" />
      </g>
      <g
         class="arrow-line"
         id="g6">
        <path
           class="connection real"
           stroke-dasharray=""
           d="  M147,270 L210,270"
           style="stroke: rgb(0, 0, 0); stroke-width: 1; fill: none; fill-opacity: 1;"
           id="path6" />
      </g>
      <g
         class="composite-shape"
         id="g7">
        <path
           class="real"
           d=" M210,130 L220,130 L220,280 L210,280 Z"
           style="stroke-width: 1; stroke: rgb(0, 0, 0); fill: none; fill-opacity: 1;"
           id="path7" />
      </g>
      <g
         class="arrow-line"
         id="g8">
        <path
           class="connection real"
           stroke-dasharray=""
           d="  M140,310 L260,310"
           style="stroke: rgb(0, 0, 0); stroke-width: 1; fill: none; fill-opacity: 1;"
           id="path8" />
      </g>
      <g
         class="arrow-line"
         id="g9">
        <path
           class="connection real"
           stroke-dasharray=""
           d="  M210,280 L210,290"
           style="stroke: rgb(0, 0, 0); stroke-width: 1; fill: none; fill-opacity: 1;"
           id="path9" />
      </g>
      <g
         class="arrow-line"
         id="g10">
        <path
           class="connection real"
           stroke-dasharray=""
           d="  M260,290 L210,290"
           style="stroke: rgb(0, 0, 0); stroke-width: 1; fill: none; fill-opacity: 1;"
           id="path10" />
      </g>
      <g
         class="arrow-line"
         id="g11">
        <path
           class="connection real"
           stroke-dasharray=""
           d="  M260,290 C270.2,298.8 249.4,300.4 260,310"
           style="stroke: rgb(0, 0, 0); stroke-width: 1; fill: none; fill-opacity: 1;"
           id="path11" />
      </g>
      <g
         class="arrow-line"
         id="g12">
        <path
           class="connection real"
           stroke-dasharray=""
           d="  M210,90 L290,90"
           style="stroke: rgb(0, 0, 0); stroke-width: 1; fill: none; fill-opacity: 1;"
           id="path12" />
      </g>
      <g
         class="arrow-line"
         id="g13">
        <path
           class="connection real"
           stroke-dasharray=""
           d="  M350,130 L460,130"
           style="stroke: rgb(0, 0, 0); stroke-width: 1; fill: none; fill-opacity: 1;"
           id="path13" />
      </g>
      <g
         class="arrow-line"
         id="g14">
        <path
           class="connection real"
           stroke-dasharray=""
           d="  M350,280 L460,280"
           style="stroke: rgb(0, 0, 0); stroke-width: 1; fill: none; fill-opacity: 1;"
           id="path14" />
      </g>
      <g
         class="arrow-line"
         id="g15">
        <path
           class="connection real"
           stroke-dasharray=""
           d="  M460,130 L460,280"
           style="stroke: rgb(0, 0, 0); stroke-width: 1; fill: none; fill-opacity: 1;"
           id="path15" />
      </g>
      <g
         class="arrow-line"
         id="g16">
        <path
           class="connection real"
           stroke-dasharray=""
           d="  M350,130 L350,280"
           style="stroke: rgb(0, 0, 0); stroke-width: 1; fill: none; fill-opacity: 1;"
           id="path16" />
      </g>
      <g
         class="arrow-line"
         id="g17">
        <path
           class="connection real"
           stroke-dasharray=""
           d="  M350,280 L460,130"
           style="stroke: rgb(0, 0, 0); stroke-width: 1; fill: none; fill-opacity: 1;"
           id="path17" />
      </g>
      <g
         class="arrow-line"
         id="g18">
        <path
           class="connection real"
           stroke-dasharray=""
           d="  M460,280 L350,130"
           style="stroke: rgb(0, 0, 0); stroke-width: 1; fill: none; fill-opacity: 1;"
           id="path18" />
      </g>
      <g
         class="arrow-line"
         id="g19">
        <path
           class="connection real"
           stroke-dasharray=""
           d="  M230,290 L290,290"
           style="stroke: rgb(0, 0, 0); stroke-width: 1; fill: none; fill-opacity: 1;"
           id="path19" />
      </g>
      <g
         class="arrow-line"
         id="g20">
        <path
           class="connection real"
           stroke-dasharray=""
           d="  M230,130 L260,130"
           style="stroke: rgb(0, 0, 0); stroke-width: 1; fill: none; fill-opacity: 1;"
           id="path20" />
      </g>
      <g
         class="arrow-line"
         id="g21">
        <path
           class="connection real"
           stroke-dasharray=""
           d="  M290,90 C276.6,164 308.2,210.4 290,290"
           style="stroke: rgb(0, 0, 0); stroke-width: 1; fill: none; fill-opacity: 1;"
           id="path21" />
      </g>
      <g
         class="arrow-line"
         id="g22">
        <path
           class="connection real"
           stroke-dasharray=""
           d="  M230,280 L260,280"
           style="stroke: rgb(0, 0, 0); stroke-width: 1; fill: none; fill-opacity: 1;"
           id="path22" />
      </g>
      <g
         class="arrow-line"
         id="g26">
        <path
           class="connection real"
           stroke-dasharray=""
           d="  M250,92 L250,128"
           style="stroke: rgb(0, 0, 0); stroke-width: 1; fill: none; fill-opacity: 1;"
           id="path23" />
        <g
           stroke="#000"
           transform="matrix(-1.8369701987210297e-16,-1,1,-1.8369701987210297e-16,250,129.99999999999997)"
           style="stroke: rgb(0, 0, 0); stroke-width: 1;"
           id="g24">
          <path
             d=" M10.93,-3.29 Q4.96,-0.45 0,0 Q4.96,0.45 10.93,3.29"
             id="path24" />
        </g>
        <g
           stroke="#000"
           transform="matrix(6.123233995736766e-17,1,-1,6.123233995736766e-17,250,90)"
           style="stroke: rgb(0, 0, 0); stroke-width: 1;"
           id="g25">
          <path
             d=" M10.93,-3.29 Q4.96,-0.45 0,0 Q4.96,0.45 10.93,3.29"
             id="path25" />
        </g>
      </g>
      <g
         class="arrow-line"
         id="g29">
        <path
           class="connection real"
           stroke-dasharray=""
           d="  M250,132 L250,278"
           style="stroke: rgb(0, 0, 0); stroke-width: 1; fill: none; fill-opacity: 1;"
           id="path26" />
        <g
           stroke="#000"
           transform="matrix(-1.8369701987210297e-16,-1,1,-1.8369701987210297e-16,250,279.99999999999994)"
           style="stroke: rgb(0, 0, 0); stroke-width: 1;"
           id="g27">
          <path
             d=" M10.93,-3.29 Q4.96,-0.45 0,0 Q4.96,0.45 10.93,3.29"
             id="path27" />
        </g>
        <g
           stroke="#000"
           transform="matrix(6.123233995736766e-17,1,-1,6.123233995736766e-17,250,129.99999999999997)"
           style="stroke: rgb(0, 0, 0); stroke-width: 1;"
           id="g28">
          <path
             d=" M10.93,-3.29 Q4.96,-0.45 0,0 Q4.96,0.45 10.93,3.29"
             id="path28" />
        </g>
      </g>
      <g
         class="arrow-line"
         id="g30">
        <path
           class="connection real"
           stroke-dasharray=""
           d="  M350,290 L350,320"
           style="stroke: rgb(0, 0, 0); stroke-width: 1; fill: none; fill-opacity: 1;"
           id="path29" />
      </g>
      <g
         class="arrow-line"
         id="g31">
        <path
           class="connection real"
           stroke-dasharray=""
           d="  M460,290 L460,320"
           style="stroke: rgb(0, 0, 0); stroke-width: 1; fill: none; fill-opacity: 1;"
           id="path30" />
      </g>
      <g
         class="arrow-line"
         id="g34">
        <path
           class="connection real"
           stroke-dasharray=""
           d="  M458,310 L352,310"
           style="stroke: rgb(0, 0, 0); stroke-width: 1; fill: none; fill-opacity: 1;"
           id="path31" />
        <g
           stroke="#000"
           transform="matrix(1,-2.4492935982947064e-16,2.4492935982947064e-16,1,350,310)"
           style="stroke: rgb(0, 0, 0); stroke-width: 1;"
           id="g32">
          <path
             d=" M10.93,-3.29 Q4.96,-0.45 0,0 Q4.96,0.45 10.93,3.29"
             id="path32" />
        </g>
        <g
           stroke="#000"
           transform="matrix(-1,1.2246467991473532e-16,-1.2246467991473532e-16,-1,459.99999999999994,310.00000000000006)"
           style="stroke: rgb(0, 0, 0); stroke-width: 1;"
           id="g33">
          <path
             d=" M10.93,-4.9 Q4.96,-1 0,0 Q4.96,1 10.93,4.9"
             id="path33" />
        </g>
      </g>
      <g
         class="arrow-line"
         id="g35">
        <path
           class="connection real"
           stroke-dasharray=""
           d="  M480,90 L300,90"
           style="stroke: rgb(0, 0, 0); stroke-width: 1; fill: none; fill-opacity: 1;"
           id="path34" />
      </g>
      <g
         class="arrow-line"
         id="g36">
        <path
           class="connection real"
           stroke-dasharray=""
           d="  M482.4,204.8 L302.4,204.8"
           style="stroke: rgb(0, 0, 0); stroke-width: 1; fill: none; fill-opacity: 1;"
           id="path35" />
      </g>
      <g
         id="g37" />
    </g>
    <g
       id="g39" />
    <g
       id="g40" />
    <g
       id="g41" />
  </svg>
  <svg
     width="700"
     height="335.1875"
     style="width:700px;height:335.1875px;font-family:Asana-Math, Asana;background:transparent;"
     version="1.1"
     id="svg53">
    <g
       id="g45">
      <g
         id="g44">
        <g
           id="g43">
          <g
             transform="matrix(1,0,0,1,252,117)"
             id="g42">
            <path
               transform="matrix(0.017,0,0,-0.017,0,0)"
               d="M16 23L16 -3C203 -3 203 0 239 0C275 0 275 -3 468 -3L468 82C353 77 307 81 122 77L304 270C401 373 431 428 431 503C431 618 353 689 226 689C154 689 105 669 56 619L39 483L68 483L81 529C97 587 133 612 200 612C286 612 341 558 341 473C341 398 299 324 186 204ZM1229 103L1203 86C1174 67 1152 56 1142 56C1135 56 1129 65 1129 76C1129 86 1131 95 1136 116L1211 413C1215 430 1218 446 1218 454C1218 471 1208 482 1192 482C1163 482 1125 464 1064 421C1001 376 966 341 917 272L947 409C951 429 954 444 954 451C954 470 944 482 928 482C898 482 852 460 797 418C753 384 733 363 668 275L701 408C705 424 707 439 707 451C707 470 698 482 684 482C663 482 625 461 551 408L523 388L530 368C567 391 602 414 609 414C620 414 627 404 627 389C627 338 586 145 545 2L548 -9L616 6L638 108C662 219 689 278 744 338C786 384 831 414 859 414C866 414 870 406 870 393C870 358 848 244 807 69L791 2L796 -9L865 6L886 113C902 194 936 269 980 318C1035 379 1085 414 1117 414C1125 414 1130 405 1130 389C1130 365 1127 351 1105 264C1065 105 1049 84 1049 31C1049 6 1060 -9 1079 -9C1105 -9 1141 12 1239 85Z"
               stroke="rgb(0,0,0)"
               stroke-opacity="1"
               stroke-width="8"
               fill="rgb(0,0,0)"
               fill-opacity="1"
               id="path41" />
          </g>
        </g>
      </g>
    </g>
    <g
       id="g49">
      <g
         id="g48">
        <g
           id="g47">
          <g
             transform="matrix(1,0,0,1,254,207)"
             id="g46">
            <path
               transform="matrix(0.017,0,0,-0.017,0,0)"
               d="M462 224C462 345 355 366 308 374C388 436 418 482 418 541C418 630 344 689 233 689C165 689 120 670 72 622L43 498L74 498L92 554C103 588 166 622 218 622C283 622 336 569 336 506C336 431 277 368 206 368C198 368 187 369 174 370L159 371L147 318L154 312C192 329 211 334 238 334C321 334 369 281 369 190C369 88 308 21 215 21C169 21 128 36 98 64C74 86 61 109 42 163L15 153C36 92 44 56 50 6C103 -12 147 -20 184 -20C307 -20 462 87 462 224ZM623 111C593 111 566 83 566 53C566 23 593 -5 622 -5C654 -5 682 22 682 53C682 83 654 111 623 111ZM1207 253C1207 366 1126 446 1012 446C964 446 928 443 875 396L875 605L1180 604L1180 689L823 690L823 322L843 316C890 363 917 377 966 377C1062 377 1122 309 1122 201C1122 90 1058 25 949 25C895 25 845 43 831 69L785 151L761 137C784 80 796 48 810 4C838 -11 878 -20 921 -20C1049 -20 1207 89 1207 253ZM1977 103L1951 86C1922 67 1900 56 1890 56C1883 56 1877 65 1877 76C1877 86 1879 95 1884 116L1959 413C1963 430 1966 446 1966 454C1966 471 1956 482 1940 482C1911 482 1873 464 1812 421C1749 376 1714 341 1665 272L1695 409C1699 429 1702 444 1702 451C1702 470 1692 482 1676 482C1646 482 1600 460 1545 418C1501 384 1481 363 1416 275L1449 408C1453 424 1455 439 1455 451C1455 470 1446 482 1432 482C1411 482 1373 461 1299 408L1271 388L1278 368C1315 391 1350 414 1357 414C1368 414 1375 404 1375 389C1375 338 1334 145 1293 2L1296 -9L1364 6L1386 108C1410 219 1437 278 1492 338C1534 384 1579 414 1607 414C1614 414 1618 406 1618 393C1618 358 1596 244 1555 69L1539 2L1544 -9L1613 6L1634 113C1650 194 1684 269 1728 318C1783 379 1833 414 1865 414C1873 414 1878 405 1878 389C1878 365 1875 351 1853 264C1813 105 1797 84 1797 31C1797 6 1808 -9 1827 -9C1853 -9 1889 12 1987 85Z"
               stroke="rgb(0,0,0)"
               stroke-opacity="1"
               stroke-width="8"
               fill="rgb(0,0,0)"
               fill-opacity="1"
               id="path45" />
          </g>
        </g>
      </g>
    </g>
    <g
       id="g53">
      <g
         id="g52">
        <g
           id="g51">
          <g
             transform="matrix(1,0,0,1,396,307)"
             id="g50">
            <path
               transform="matrix(0.017,0,0,-0.017,0,0)"
               d="M16 23L16 -3C203 -3 203 0 239 0C275 0 275 -3 468 -3L468 82C353 77 307 81 122 77L304 270C401 373 431 428 431 503C431 618 353 689 226 689C154 689 105 669 56 619L39 483L68 483L81 529C97 587 133 612 200 612C286 612 341 558 341 473C341 398 299 324 186 204ZM623 111C593 111 566 83 566 53C566 23 593 -5 622 -5C654 -5 682 22 682 53C682 83 654 111 623 111ZM1207 253C1207 366 1126 446 1012 446C964 446 928 443 875 396L875 605L1180 604L1180 689L823 690L823 322L843 316C890 363 917 377 966 377C1062 377 1122 309 1122 201C1122 90 1058 25 949 25C895 25 845 43 831 69L785 151L761 137C784 80 796 48 810 4C838 -11 878 -20 921 -20C1049 -20 1207 89 1207 253ZM1977 103L1951 86C1922 67 1900 56 1890 56C1883 56 1877 65 1877 76C1877 86 1879 95 1884 116L1959 413C1963 430 1966 446 1966 454C1966 471 1956 482 1940 482C1911 482 1873 464 1812 421C1749 376 1714 341 1665 272L1695 409C1699 429 1702 444 1702 451C1702 470 1692 482 1676 482C1646 482 1600 460 1545 418C1501 384 1481 363 1416 275L1449 408C1453 424 1455 439 1455 451C1455 470 1446 482 1432 482C1411 482 1373 461 1299 408L1271 388L1278 368C1315 391 1350 414 1357 414C1368 414 1375 404 1375 389C1375 338 1334 145 1293 2L1296 -9L1364 6L1386 108C1410 219 1437 278 1492 338C1534 384 1579 414 1607 414C1614 414 1618 406 1618 393C1618 358 1596 244 1555 69L1539 2L1544 -9L1613 6L1634 113C1650 194 1684 269 1728 318C1783 379 1833 414 1865 414C1873 414 1878 405 1878 389C1878 365 1875 351 1853 264C1813 105 1797 84 1797 31C1797 6 1808 -9 1827 -9C1853 -9 1889 12 1987 85Z"
               stroke="rgb(0,0,0)"
               stroke-opacity="1"
               stroke-width="8"
               fill="rgb(0,0,0)"
               fill-opacity="1"
               id="path49" />
          </g>
        </g>
      </g>
    </g>
  </svg>
  <path
     style="fill:#3f97b4;fill-opacity:1;stroke:none;stroke-width:0.591829"
     d="m 210.65534,285.10855 v -4.13629 h 5.02263 5.02264 V 205.0418 129.11133 h -5.02264 -5.02263 v -19.2042 -19.204202 h 19.25115 19.25115 l -0.41182,1.920421 c -0.22651,1.056231 -0.91226,3.249942 -1.5239,4.874913 -1.32058,3.508438 -1.35004,3.840838 -0.34039,3.840838 0.42475,0 1.06123,-0.73123 1.41439,-1.624969 0.49668,-1.256948 0.65098,1.051559 0.6813,10.192999 0.0365,10.99411 -0.0246,11.70015 -0.8765,10.12784 -1.51716,-2.80026 -2.21828,-0.99972 -0.91033,2.3378 0.62458,1.59375 1.32272,3.76191 1.55142,4.81814 l 0.41583,1.92042 h -9.79677 c -8.31432,0 -9.79678,0.13413 -9.79678,0.88635 0,0.75223 1.48246,0.88635 9.79678,0.88635 h 9.79677 l -0.41583,1.92042 c -0.2287,1.05623 -0.92684,3.2244 -1.55142,4.81814 -1.30795,3.33752 -0.60683,5.13806 0.91033,2.33781 0.83158,-1.53486 0.91571,4.44437 0.91571,65.0814 0,59.52354 -0.0957,66.59515 -0.88157,65.14657 -0.86034,-1.58586 -2.02561,-2.19331 -2.02561,-1.05595 0,0.31296 0.49877,1.84191 1.10837,3.39766 0.6096,1.55576 1.29549,3.69284 1.52419,4.74907 l 0.41583,1.92042 h -9.79677 c -8.31432,0 -9.79678,0.13412 -9.79678,0.88635 0,0.76513 2.10097,0.88634 15.36336,0.88634 13.26239,0 15.36336,-0.12121 15.36336,-0.88634 0,-0.71418 -0.92042,-0.88635 -4.73844,-0.88635 h -4.73845 l 0.38733,-1.62497 c 0.21303,-0.89374 0.88272,-2.9545 1.48821,-4.57947 0.60548,-1.62497 1.10101,-3.28687 1.10117,-3.69311 5.8e-4,-1.4289 -1.24782,-0.71728 -2.07324,1.18179 -0.72516,1.66841 -0.8314,-6.91957 -0.80962,-65.44201 0.0223,-59.96427 0.12102,-67.14244 0.89867,-65.35929 0.60841,1.39507 1.06135,1.81539 1.49212,1.38463 0.43076,-0.43076 0.26582,-1.57696 -0.54335,-3.77584 -0.63902,-1.73653 -1.33723,-3.88856 -1.55158,-4.7823 l -0.38971,-1.62497 h 4.73845 c 3.81802,0 4.73844,-0.17217 4.73844,-0.88635 0,-0.71418 -0.92042,-0.88635 -4.73844,-0.88635 h -4.73845 l 0.38971,-1.62497 c 0.21435,-0.89373 0.91256,-3.04576 1.55158,-4.78229 0.80917,-2.19888 0.97411,-3.34508 0.54335,-3.77585 -0.43077,-0.43076 -0.88371,-0.0104 -1.49212,1.38463 -0.80758,1.85178 -0.87549,1.06545 -0.89867,-10.40572 -0.0226,-11.18815 0.057,-12.219947 0.80962,-10.488448 0.82542,1.899078 2.07382,2.610698 2.07324,1.181798 -1.6e-4,-0.40624 -0.49569,-2.068146 -1.10117,-3.693117 -0.60549,-1.624971 -1.27518,-3.685729 -1.48821,-4.579463 l -0.38733,-1.624972 h 19.08602 19.08601 l -1.00676,6.943059 c -3.39961,23.445263 -2.88436,43.506933 2.14361,83.464423 4.62551,36.75903 5.57967,51.26201 4.52933,68.844 -0.83877,14.04045 -2.82447,29.12693 -4.8798,37.07456 l -0.57304,2.21587 h -39.27198 -39.27197 z m 49.95778,-78.8581 c 1.58892,-1.58891 1.89797,-3.9939 0.66165,-5.1488 -0.6088,-0.5687 -0.6425,-1.125 -0.14773,-2.4384 0.56243,-1.493 0.47,-1.84018 -0.75396,-2.83189 -1.78923,-1.44972 -3.32467,-1.43327 -4.80945,0.0515 -1.25729,1.25729 -1.58608,2.95449 -0.57236,2.95449 0.3352,0 0.7625,-0.39885 0.94957,-0.88634 0.18707,-0.48749 0.99493,-0.88635 1.79525,-0.88635 1.17103,0 1.41826,0.25957 1.2663,1.32952 -0.10385,0.73124 -0.78711,1.59201 -1.51834,1.91282 -1.78412,0.78273 -1.67587,1.3665 0.29545,1.59332 1.26492,0.14555 1.66554,0.53821 1.8081,1.7722 0.27504,2.38068 -1.64042,3.20166 -3.69649,1.58434 -1.88245,-1.48073 -2.33991,-1.21799 -1.54044,0.88477 0.81485,2.14323 4.16975,2.20152 6.26245,0.10881 z m 5.19289,-0.66095 c -0.17795,-0.46373 -0.7023,-0.84315 -1.16522,-0.84315 -1.17145,0 -1.7412,1.78474 -0.76278,2.38943 1.02908,0.63601 2.3568,-0.42884 1.928,-1.54628 z m 7.13393,0.78182 c 2.31118,-2.06511 2.54826,-4.20826 0.67295,-6.08357 -1.16861,-1.16861 -1.92923,-1.47181 -3.01108,-1.20028 -1.1781,0.29569 -1.44752,0.14125 -1.44752,-0.82975 0,-1.02005 0.38557,-1.19305 2.65905,-1.19305 2.26511,0 2.65904,-0.17508 2.65904,-1.1818 0,-1.05049 -0.39393,-1.1818 -3.54539,-1.1818 h -3.54539 v 3.52773 3.52772 l 2.13277,-0.13006 c 2.53955,-0.15486 3.89379,1.2688 2.82724,2.97217 -0.861,1.37509 -3.67204,1.70285 -4.14024,0.48274 -0.48408,-1.26148 -1.41067,-1.17104 -1.41067,0.1377 0,2.66572 3.68305,3.35585 6.14924,1.15225 z m 4.34635,0.5909 c 0.32726,-0.40624 0.77374,-1.57524 0.99219,-2.59777 0.21844,-1.02254 0.95451,-2.35206 1.63569,-2.9545 1.37475,-1.21582 1.36814,-1.58642 0.082,4.59734 -0.29058,1.39718 -0.19213,1.78749 0.40096,1.5898 0.43236,-0.14412 0.96139,-0.64506 1.17563,-1.11321 1.73802,-3.79792 2.75105,-5.53112 3.34362,-5.72065 0.51684,-0.16532 0.49729,0.52448 -0.0765,2.69956 -0.97866,3.70994 -0.42671,4.82955 1.69542,3.43909 1.67528,-1.09769 2.09645,-2.50022 0.57554,-1.9166 -0.7301,0.28017 -0.85268,0.12266 -0.52562,-0.6754 0.71553,-1.746 1.0746,-6.06341 0.50429,-6.06341 -0.29495,0 -1.14453,0.42604 -1.88796,0.94675 -1.25188,0.87686 -1.409,0.86838 -2.12799,-0.11489 -0.72837,-0.99612 -0.86854,-1.00122 -2.27048,-0.0826 -1.30635,0.85595 -1.53688,0.8678 -1.83372,0.0942 -0.29991,-0.78154 -0.54763,-0.77718 -2.12284,0.0374 -1.84165,0.95236 -2.52958,2.48645 -0.82098,1.8308 0.80175,-0.30767 0.90035,-0.0717 0.5909,1.41402 -0.20429,0.98082 -0.53762,2.58102 -0.74075,3.55601 -0.38297,1.83826 0.33731,2.3663 1.41053,1.03407 z m -16.99548,-90.5552 c 0,-0.66017 -0.69774,-0.88635 -2.7343,-0.88635 h -2.7343 l 2.4744,-2.68441 c 1.99862,-2.16824 2.43916,-3.04524 2.29113,-4.56103 -0.37838,-3.87446 -6.04299,-4.58278 -7.03293,-0.87942 -0.32376,1.21117 -0.22167,1.62497 0.40088,1.62497 0.45938,0 0.83524,-0.41651 0.83524,-0.92559 0,-0.66114 0.46428,-0.87218 1.62497,-0.73863 2.58677,0.29764 2.36079,2.17534 -0.71084,5.90643 -1.47775,1.79501 -2.68683,3.43617 -2.68683,3.64701 0,0.21085 1.86133,0.38336 4.13629,0.38336 3.28277,0 4.13629,-0.18289 4.13629,-0.88634 z m 3.12813,-1.58005 c 0.28134,-1.18961 1.05969,-2.65028 1.72967,-3.24594 1.21261,-1.07807 1.21628,-1.07224 0.80772,1.28059 -0.22574,1.29998 -0.55489,2.85337 -0.73144,3.45199 -0.64166,2.17561 1.66657,0.72225 2.44134,-1.53716 1.31847,-3.84501 3.66854,-5.69249 2.62861,-2.06645 -1.199,4.18067 -0.36516,5.62276 2.14418,3.70824 0.92544,-0.70607 0.99205,-0.97721 0.34484,-1.40366 -0.63221,-0.41657 -0.67676,-1.11654 -0.21028,-3.30373 0.69623,-3.26441 -0.0442,-3.97097 -2.4852,-2.37156 -1.38527,0.90767 -1.52499,0.91178 -1.52499,0.0449 0,-1.20607 -1.13059,-1.21987 -2.82301,-0.0345 -1.18862,0.83254 -1.31328,0.83254 -1.31328,0 0,-1.17651 -1.14731,-1.17371 -2.8329,0.007 -1.28539,0.90033 -1.27465,2.4449 0.0115,1.65003 0.63434,-0.39205 0.50914,0.86313 -0.4787,4.79898 -0.33871,1.34956 -0.2292,1.57125 0.68885,1.39445 0.6967,-0.13417 1.27663,-0.99266 1.60311,-2.37315 z"
     id="path71" />
  <path
     style="fill:#ceceba;fill-opacity:1;stroke:none;stroke-width:0.418486"
     d="m 175.67846,110.20223 4.85583,-29.143525 14.29441,-0.109942 14.2944,-0.109942 v 29.253469 29.25347 h -19.15024 -19.15023 z"
     id="path74" />
  <path
     style="fill:#ceceba;fill-opacity:1;stroke:none;stroke-width:0.418486"
     d="m 141.01719,308.87963 c 1.1e-4,-0.51504 6.02406,-34.9559 6.50422,-37.18673 l 0.24732,-1.14903 h 30.67719 30.67718 v 9.77427 c 0,8.52741 0.0843,9.80661 0.66092,10.02788 0.3635,0.13949 11.7194,0.25362 25.23533,0.25362 h 24.57442 l 1.29677,1.47693 c 0.71322,0.81232 1.29677,1.85578 1.29677,2.31881 0,1.06545 -0.97917,2.97866 -1.92209,3.7556 -0.39804,0.32797 -1.44456,1.5063 -2.32561,2.61851 -1.88559,2.38033 -2.11985,4.5447 -0.76543,7.07175 l 0.83647,1.56067 h -58.49679 c -46.51893,0 -58.49676,-0.10694 -58.49667,-0.52228 z"
     id="path75" />
  <path
     style="fill:#646438;fill-opacity:1;stroke:none;stroke-width:0.418486"
     d="m 210.79442,204.94482 v -74.37345 h 4.17828 4.17828 v 74.37345 74.37345 h -4.17828 -4.17828 z"
     id="path76" />
  <path
     style="fill:#646438;fill-opacity:0.70212764;stroke:none;stroke-width:0.418486"
     d="m 378.19819,167.19316 -26.67751,-36.41288 26.78197,-0.10753 c 14.73008,-0.0591 38.79652,-0.0591 53.48099,0 l 26.69903,0.10753 -26.48323,36.11438 c -14.56578,19.86291 -26.62735,36.24871 -26.80349,36.41288 -0.17614,0.16417 -12.32513,-16.0873 -26.99776,-36.11438 z"
     id="path77" />
  <path
     style="fill:#646438;fill-opacity:0.70212764;stroke:none;stroke-width:0.418486"
     d="m 350.76692,168.30127 c 0,-20.71439 0.15543,-35.64058 0.36873,-35.41095 0.2028,0.21831 11.04372,14.9687 24.09094,32.77863 13.04722,17.80994 24.72807,33.74487 25.95745,35.41096 l 2.23523,3.02925 H 377.0931 350.76692 Z"
     id="path78" />
  <path
     style="fill:#646438;fill-opacity:0.70212764;stroke:none;stroke-width:0.418486"
     d="m 350.76692,241.38542 v -36.02277 h 26.5136 26.51359 l -25.9415,35.41095 c -14.26783,19.47603 -26.19895,35.68628 -26.5136,36.02278 -0.48454,0.51819 -0.57209,-4.90089 -0.57209,-35.41096 z"
     id="path79" />
  <path
     style="fill:#646438;fill-opacity:0.70212764;stroke:none;stroke-width:0.418486"
     d="m 351.89519,278.76107 c 1.00342,-1.67332 52.90881,-72.14336 53.13191,-72.13525 0.14653,0.005 9.80197,13.0259 21.45653,28.93461 11.65456,15.90871 23.63912,32.26234 26.63237,36.34139 l 5.44226,7.41645 h -53.4986 c -44.47531,0 -53.44225,-0.094 -53.16447,-0.5572 z"
     id="path80" />
  <path
     style="fill:#646438;fill-opacity:0.70212764;stroke:none;stroke-width:0.418486"
     d="m 432.78093,241.59294 -26.41246,-36.02138 26.3745,-0.1076 c 14.50597,-0.0592 26.43964,-0.0425 26.51925,0.0372 0.0796,0.0796 0.0967,16.33765 0.0379,36.12897 l -0.10678,35.98423 z"
     id="path81" />
  <path
     style="fill:#646438;fill-opacity:0.70212764;stroke:none;stroke-width:0.418486"
     d="m 406.99909,203.63591 c 0.16087,-0.26029 11.18599,-15.32527 24.50027,-33.47772 13.31427,-18.15246 25.03919,-34.14707 26.05536,-35.54359 l 1.84758,-2.53912 v 36.01684 36.01684 h -26.34785 c -19.51604,0 -26.272,-0.12271 -26.05536,-0.47325 z"
     id="path82" />
</svg>
