<?xml version="1.0" encoding="UTF-8" standalone="no"?>
<svg
   width="66.574242mm"
   height="62.593388mm"
   viewBox="0 0 786.30996 739.292"
   version="1.2"
   id="svg31"
   sodipodi:docname="Flow in a pipe 2.svg"
   inkscape:version="1.4.2 (ebf0e94, 2025-05-08)"
   xmlns:inkscape="http://www.inkscape.org/namespaces/inkscape"
   xmlns:sodipodi="http://sodipodi.sourceforge.net/DTD/sodipodi-0.dtd"
   xmlns="http://www.w3.org/2000/svg"
   xmlns:svg="http://www.w3.org/2000/svg">
  <sodipodi:namedview
     id="namedview31"
     pagecolor="#ffffff"
     bordercolor="#000000"
     borderopacity="0.25"
     inkscape:showpageshadow="2"
     inkscape:pageopacity="0.0"
     inkscape:pagecheckerboard="0"
     inkscape:deskcolor="#d1d1d1"
     inkscape:document-units="mm"
     inkscape:zoom="0.98897062"
     inkscape:cx="171.39033"
     inkscape:cy="127.91078"
     inkscape:window-width="1920"
     inkscape:window-height="1009"
     inkscape:window-x="-8"
     inkscape:window-y="-8"
     inkscape:window-maximized="1"
     inkscape:current-layer="svg31" />
  <defs
     id="defs1" />
  <g
     fill="none"
     stroke="#000000"
     stroke-opacity="1"
     stroke-width="1"
     stroke-linecap="square"
     stroke-linejoin="bevel"
     font-family="Arial"
     font-size="12px"
     font-weight="400"
     font-style="normal"
     id="g2"
     style="fill-rule:evenodd"
     transform="translate(-1114.24,-875.368)" />
  <g
     fill="#000000"
     fill-opacity="1"
     stroke="#000000"
     stroke-opacity="1"
     stroke-width="1"
     stroke-linecap="butt"
     stroke-linejoin="miter"
     stroke-miterlimit="2"
     font-family="Arial"
     font-size="12px"
     font-weight="400"
     font-style="normal"
     id="g3"
     style="fill-rule:evenodd"
     transform="translate(-1114.24,-875.368)" />
  <g
     fill="#000000"
     fill-opacity="1"
     stroke="#000000"
     stroke-opacity="1"
     stroke-width="5"
     stroke-linecap="round"
     stroke-linejoin="bevel"
     font-family="Arial"
     font-size="12px"
     font-weight="400"
     font-style="normal"
     id="g6"
     style="fill-rule:evenodd"
     transform="translate(-1114.24,-875.368)">
    <polyline
       fill="none"
       vector-effect="none"
       points="1190.56,956.626 1824.23,956.626 "
       id="polyline3" />
    <polyline
       fill="none"
       vector-effect="none"
       points="1824.23,956.626 1822.42,956.698 1820.61,956.911 1818.8,957.266 1817,957.764 1815.19,958.403 1813.4,959.183 1811.61,960.104 1809.83,961.165 1808.06,962.366 1806.29,963.706 1804.54,965.183 1802.8,966.798 1801.07,968.549 1799.36,970.435 1797.66,972.455 1795.98,974.608 1794.32,976.892 1792.67,979.306 1791.04,981.849 1789.43,984.519 1787.85,987.314 1786.28,990.234 1784.74,993.275 1783.22,996.437 1781.73,999.717 1780.26,1003.11 1778.81,1006.62 1777.4,1010.25 1776.01,1013.98 1774.66,1017.82 1773.33,1021.76 1772.03,1025.81 1770.77,1029.96 1769.53,1034.21 1768.33,1038.55 1767.17,1042.99 1766.04,1047.52 1764.94,1052.13 1763.88,1056.83 1762.85,1061.61 1761.86,1066.47 1760.91,1071.41 1760,1076.41 1759.13,1081.49 1758.29,1086.64 1757.5,1091.85 1756.74,1097.12 1756.03,1102.45 1755.36,1107.83 1754.73,1113.27 1754.14,1118.75 1753.59,1124.28 1753.09,1129.84 1752.62,1135.45 1752.21,1141.09 1751.83,1146.76 1751.5,1152.46 1751.21,1158.19 1750.97,1163.93 1750.77,1169.69 1750.61,1175.47 1750.5,1181.26 1750.43,1187.05 1750.41,1192.85 1750.43,1198.64 1750.5,1204.44 1750.61,1210.22 1750.77,1216 1750.97,1221.76 1751.21,1227.51 1751.5,1233.23 1751.83,1238.93 1752.21,1244.6 1752.62,1250.24 1753.09,1255.85 1753.59,1261.42 1754.14,1266.94 1754.73,1272.43 1755.36,1277.86 1756.03,1283.24 1756.74,1288.57 1757.5,1293.84 1758.29,1299.05 1759.13,1304.2 1760,1309.28 1760.91,1314.29 1761.86,1319.22 1762.85,1324.08 1763.88,1328.86 1764.94,1333.56 1766.04,1338.18 1767.17,1342.7 1768.33,1347.14 1769.53,1351.48 1770.77,1355.73 1772.03,1359.88 1773.33,1363.93 1774.66,1367.87 1776.01,1371.72 1777.4,1375.45 1778.81,1379.07 1780.26,1382.58 1781.73,1385.98 1783.22,1389.26 1784.74,1392.42 1786.28,1395.46 1787.85,1398.38 1789.43,1401.17 1791.04,1403.84 1792.67,1406.39 1794.32,1408.8 1795.98,1411.09 1797.66,1413.24 1799.36,1415.26 1801.07,1417.14 1802.8,1418.9 1804.54,1420.51 1806.29,1421.99 1808.06,1423.33 1809.83,1424.53 1811.61,1425.59 1813.4,1426.51 1815.19,1427.29 1817,1427.93 1818.8,1428.43 1820.61,1428.78 1822.42,1429 1824.23,1429.07 1826.04,1429 1827.85,1428.78 1829.66,1428.43 1831.47,1427.93 1833.27,1427.29 1835.06,1426.51 1836.85,1425.59 1838.63,1424.53 1840.4,1423.33 1842.17,1421.99 1843.92,1420.51 1845.66,1418.9 1847.39,1417.14 1849.1,1415.26 1850.8,1413.24 1852.48,1411.09 1854.15,1408.8 1855.79,1406.39 1857.42,1403.84 1859.03,1401.17 1860.62,1398.38 1862.18,1395.46 1863.72,1392.42 1865.24,1389.26 1866.74,1385.98 1868.2,1382.58 1869.65,1379.07 1871.06,1375.45 1872.45,1371.72 1873.8,1367.87 1875.13,1363.93 1876.43,1359.88 1877.69,1355.73 1878.93,1351.48 1880.13,1347.14 1881.29,1342.7 1882.43,1338.18 1883.52,1333.56 1884.58,1328.86 1885.61,1324.08 1886.6,1319.22 1887.55,1314.29 1888.46,1309.28 1889.33,1304.2 1890.17,1299.05 1890.96,1293.84 1891.72,1288.57 1892.43,1283.24 1893.1,1277.86 1893.73,1272.43 1894.32,1266.94 1894.87,1261.42 1895.38,1255.85 1895.84,1250.24 1896.26,1244.6 1896.63,1238.93 1896.96,1233.23 1897.25,1227.51 1897.49,1221.76 1897.69,1216 1897.85,1210.22 1897.96,1204.44 1898.03,1198.64 1898.05,1192.85 1898.03,1187.05 1897.96,1181.26 1897.85,1175.47 1897.69,1169.69 1897.49,1163.93 1897.25,1158.19 1896.96,1152.46 1896.63,1146.76 1896.26,1141.09 1895.84,1135.45 1895.38,1129.84 1894.87,1124.28 1894.32,1118.75 1893.73,1113.27 1893.1,1107.83 1892.43,1102.45 1891.72,1097.12 1890.96,1091.85 1890.17,1086.64 1889.33,1081.49 1888.46,1076.41 1887.55,1071.41 1886.6,1066.47 1885.61,1061.61 1884.58,1056.83 1883.52,1052.13 1882.43,1047.52 1881.29,1042.99 1880.13,1038.55 1878.93,1034.21 1877.69,1029.96 1876.43,1025.81 1875.13,1021.76 1873.8,1017.82 1872.45,1013.98 1871.06,1010.25 1869.65,1006.62 1868.2,1003.11 1866.74,999.717 1865.24,996.437 1863.72,993.275 1862.18,990.234 1860.62,987.314 1859.03,984.519 1857.42,981.849 1855.79,979.306 1854.15,976.892 1852.48,974.608 1850.8,972.455 1849.1,970.435 1847.39,968.549 1845.66,966.798 1843.92,965.183 1842.17,963.706 1840.4,962.366 1838.63,961.165 1836.85,960.104 1835.06,959.183 1833.27,958.403 1831.47,957.764 1829.66,957.266 1827.85,956.911 1826.04,956.698 1824.23,956.626 "
       id="polyline4" />
    <polyline
       fill="none"
       vector-effect="none"
       points="1190.56,1429.07 1824.23,1429.07 "
       id="polyline5" />
    <polyline
       fill="none"
       vector-effect="none"
       points="1190.56,956.626 1188.75,956.698 1186.94,956.911 1185.13,957.266 1183.32,957.764 1181.52,958.403 1179.73,959.183 1177.94,960.104 1176.16,961.165 1174.38,962.366 1172.62,963.706 1170.87,965.183 1169.13,966.798 1167.4,968.549 1165.69,970.435 1163.99,972.455 1162.31,974.608 1160.64,976.892 1159,979.306 1157.37,981.849 1155.76,984.519 1154.17,987.314 1152.61,990.234 1151.07,993.275 1149.55,996.437 1148.05,999.717 1146.58,1003.11 1145.14,1006.62 1143.73,1010.25 1142.34,1013.98 1140.98,1017.82 1139.66,1021.76 1138.36,1025.81 1137.1,1029.96 1135.86,1034.21 1134.66,1038.55 1133.5,1042.99 1132.36,1047.52 1131.27,1052.13 1130.21,1056.83 1129.18,1061.61 1128.19,1066.47 1127.24,1071.41 1126.33,1076.41 1125.46,1081.49 1124.62,1086.64 1123.83,1091.85 1123.07,1097.12 1122.36,1102.45 1121.69,1107.83 1121.05,1113.27 1120.47,1118.75 1119.92,1124.28 1119.41,1129.84 1118.95,1135.45 1118.53,1141.09 1118.16,1146.76 1117.83,1152.46 1117.54,1158.19 1117.29,1163.93 1117.1,1169.69 1116.94,1175.47 1116.83,1181.26 1116.76,1187.05 1116.74,1192.85 1116.76,1198.64 1116.83,1204.44 1116.94,1210.22 1117.1,1216 1117.29,1221.76 1117.54,1227.51 1117.83,1233.23 1118.16,1238.93 1118.53,1244.6 1118.95,1250.24 1119.41,1255.85 1119.92,1261.42 1120.47,1266.94 1121.05,1272.43 1121.69,1277.86 1122.36,1283.24 1123.07,1288.57 1123.83,1293.84 1124.62,1299.05 1125.46,1304.2 1126.33,1309.28 1127.24,1314.29 1128.19,1319.22 1129.18,1324.08 1130.21,1328.86 1131.27,1333.56 1132.36,1338.18 1133.5,1342.7 1134.66,1347.14 1135.86,1351.48 1137.1,1355.73 1138.36,1359.88 1139.66,1363.93 1140.98,1367.87 1142.34,1371.72 1143.73,1375.45 1145.14,1379.07 1146.58,1382.58 1148.05,1385.98 1149.55,1389.26 1151.07,1392.42 1152.61,1395.46 1154.17,1398.38 1155.76,1401.17 1157.37,1403.84 1159,1406.39 1160.64,1408.8 1162.31,1411.09 1163.99,1413.24 1165.69,1415.26 1167.4,1417.14 1169.13,1418.9 1170.87,1420.51 1172.62,1421.99 1174.38,1423.33 1176.16,1424.53 1177.94,1425.59 1179.73,1426.51 1181.52,1427.29 1183.32,1427.93 1185.13,1428.43 1186.94,1428.78 1188.75,1429 1190.56,1429.07 "
       id="polyline6" />
  </g>
  <g
     fill="#000000"
     fill-opacity="1"
     stroke="#000000"
     stroke-opacity="1"
     stroke-width="2"
     stroke-linecap="round"
     stroke-linejoin="bevel"
     font-family="Arial"
     font-size="12px"
     font-weight="400"
     font-style="normal"
     id="g10"
     style="fill-rule:evenodd"
     transform="translate(-1114.24,-875.368)">
    <polyline
       fill="none"
       vector-effect="none"
       points="1190.56,1447.82 1190.56,1613.66 "
       id="polyline7" />
    <polyline
       fill="none"
       vector-effect="none"
       points="1824.23,1447.82 1824.23,1613.66 "
       id="polyline8" />
    <polyline
       fill="none"
       vector-effect="none"
       points="1244.56,1589.66 1470.3,1589.66 "
       id="polyline9" />
    <polyline
       fill="none"
       vector-effect="none"
       points="1770.23,1589.66 1544.49,1589.66 "
       id="polyline10" />
  </g>
  <g
     fill="#000000"
     fill-opacity="1"
     stroke="#000000"
     stroke-opacity="1"
     stroke-width="3"
     stroke-linecap="round"
     stroke-linejoin="bevel"
     font-family="Arial"
     font-size="12px"
     font-weight="400"
     font-style="normal"
     id="g11"
     style="fill-rule:evenodd"
     transform="translate(-1114.24,-875.368)" />
  <g
     fill="#000000"
     fill-opacity="1"
     stroke="none"
     font-family="Arial"
     font-size="12px"
     font-weight="400"
     font-style="normal"
     id="g12"
     style="fill-rule:evenodd;stroke-width:1;stroke-linecap:square;stroke-linejoin:bevel"
     transform="translate(-1114.24,-875.368)">
    <path
       vector-effect="none"
       fill-rule="evenodd"
       d="m 1244.56,1598.66 -54,-9 54,-9 v 18"
       id="path11" />
  </g>
  <g
     fill="#000000"
     fill-opacity="1"
     stroke="#000000"
     stroke-opacity="1"
     stroke-width="3"
     stroke-linecap="round"
     stroke-linejoin="bevel"
     font-family="Arial"
     font-size="12px"
     font-weight="400"
     font-style="normal"
     id="g13"
     style="fill-rule:evenodd"
     transform="translate(-1114.24,-875.368)" />
  <g
     fill="#000000"
     fill-opacity="1"
     stroke="none"
     font-family="Arial"
     font-size="12px"
     font-weight="400"
     font-style="normal"
     id="g14"
     style="fill-rule:evenodd;stroke-width:1;stroke-linecap:square;stroke-linejoin:bevel"
     transform="translate(-1114.24,-875.368)">
    <path
       vector-effect="none"
       fill-rule="evenodd"
       d="m 1770.23,1580.66 54,9 -54,9 v -18"
       id="path13" />
  </g>
  <g
     fill="#000000"
     fill-opacity="1"
     stroke="#000000"
     stroke-opacity="1"
     stroke-width="3"
     stroke-linecap="round"
     stroke-linejoin="bevel"
     font-family="Arial"
     font-size="12px"
     font-weight="400"
     font-style="normal"
     id="g15"
     style="fill-rule:evenodd"
     transform="translate(-1114.24,-875.368)" />
  <g
     fill="#000000"
     fill-opacity="1"
     stroke="#000000"
     stroke-opacity="1"
     stroke-width="1"
     stroke-linecap="round"
     stroke-linejoin="bevel"
     font-family="Arial"
     font-size="12px"
     font-weight="400"
     font-style="normal"
     id="g16"
     style="fill-rule:evenodd"
     transform="translate(-1114.24,-875.368)" />
  <g
     fill="#000000"
     fill-opacity="1"
     stroke="none"
     font-family="Arial"
     font-size="12px"
     font-weight="400"
     font-style="normal"
     id="g17"
     style="fill-rule:evenodd;stroke-width:1;stroke-linecap:square;stroke-linejoin:bevel"
     transform="translate(-1114.24,-875.368)">
    <path
       vector-effect="none"
       fill-rule="evenodd"
       d="m 1497.55,1607.66 h 20.18 v -4.02 h -15.67 v -31.83 h -4.51 v 35.85"
       id="path16" />
  </g>
  <g
     fill="#000000"
     fill-opacity="1"
     stroke="#000000"
     stroke-opacity="1"
     stroke-width="1"
     stroke-linecap="round"
     stroke-linejoin="bevel"
     font-family="Arial"
     font-size="12px"
     font-weight="400"
     font-style="normal"
     id="g18"
     style="fill-rule:evenodd"
     transform="translate(-1114.24,-875.368)" />
  <g
     fill="#000000"
     fill-opacity="1"
     stroke="none"
     font-family="Arial"
     font-size="12px"
     font-weight="400"
     font-style="normal"
     id="g19"
     style="fill-rule:evenodd;stroke-width:1;stroke-linecap:square;stroke-linejoin:bevel"
     transform="translate(-1114.24,-875.368)">
    <path
       vector-effect="none"
       fill-rule="evenodd"
       d="m 1142.18,903.825 2.48,-0.227 2.2,-0.681 1.9,-1.164 1.61,-1.631 1.27,-2.023 0.91,-2.391 0.55,-2.759 0.19,-3.127 -0.19,-3.121 -0.55,-2.74 -0.91,-2.385 -1.27,-2.005 -1.6,-1.587 -1.88,-1.135 -2.19,-0.699 -2.47,-0.233 -1.31,0.062 -1.23,0.184 -1.15,0.306 -1.07,0.429 -1,0.567 -0.94,0.721 -0.88,0.873 -0.81,1.027 h -0.2 l -0.59,-3.678 h -3.62 V 915.4 h 4.41 v -11.06 l -0.05,-1.6 -0.15,-1.809 -0.09,-1.005 h 0.29 l 0.76,0.919 0.85,0.797 0.92,0.675 1,0.551 2.24,0.718 2.57,0.239 m -0.74,-24.205 1.64,0.166 1.43,0.497 1.25,0.821 1.05,1.14 0.84,1.447 0.58,1.741 0.37,2.03 0.12,2.311 -0.12,2.317 -0.37,2.048 -0.58,1.778 -0.84,1.508 -1.05,1.202 -1.23,0.858 -1.4,0.515 -1.59,0.172 -1.89,-0.147 -1.62,-0.442 -1.35,-0.76 -1.03,-1.079 -0.79,-1.41 -0.58,-1.778 -0.33,-2.176 -0.11,-2.557 v -0.858 l 0.13,-2.244 0.34,-1.925 0.57,-1.625 0.77,-1.293 1.01,-0.981 1.32,-0.712 1.59,-0.423 1.87,-0.141"
       id="path18" />
  </g>
  <g
     fill="#000000"
     fill-opacity="1"
     stroke="#000000"
     stroke-opacity="1"
     stroke-width="1"
     stroke-linecap="round"
     stroke-linejoin="bevel"
     font-family="Arial"
     font-size="12px"
     font-weight="400"
     font-style="normal"
     id="g20"
     style="fill-rule:evenodd"
     transform="translate(-1114.24,-875.368)" />
  <g
     fill="#000000"
     fill-opacity="1"
     stroke="none"
     font-family="Arial"
     font-size="12px"
     font-weight="400"
     font-style="normal"
     id="g21"
     style="fill-rule:evenodd;stroke-width:1;stroke-linecap:square;stroke-linejoin:bevel"
     transform="translate(-1114.24,-875.368)">
    <path
       vector-effect="none"
       fill-rule="evenodd"
       d="m 1166.98,926.204 v -23.902 h -2.44 l -6.47,5.02 1.53,1.978 1.9,-1.562 1.75,-1.446 0.98,-0.916 -0.1,1.978 -0.03,2.142 v 16.708 h 2.88"
       id="path20" />
  </g>
  <g
     fill="#000000"
     fill-opacity="1"
     stroke="#000000"
     stroke-opacity="1"
     stroke-width="1"
     stroke-linecap="round"
     stroke-linejoin="bevel"
     font-family="Arial"
     font-size="12px"
     font-weight="400"
     font-style="normal"
     id="g22"
     style="fill-rule:evenodd"
     transform="translate(-1114.24,-875.368)" />
  <g
     fill="#000000"
     fill-opacity="1"
     stroke="none"
     font-family="Arial"
     font-size="12px"
     font-weight="400"
     font-style="normal"
     id="g23"
     style="fill-rule:evenodd;stroke-width:1;stroke-linecap:square;stroke-linejoin:bevel"
     transform="translate(-1114.24,-875.368)">
    <path
       vector-effect="none"
       fill-rule="evenodd"
       d="m 1815.67,903.276 2.49,-0.227 2.2,-0.681 1.89,-1.165 1.61,-1.63 1.27,-2.024 0.92,-2.391 0.55,-2.759 0.18,-3.126 -0.18,-3.121 -0.55,-2.74 -0.92,-2.385 -1.27,-2.005 -1.59,-1.588 -1.89,-1.134 -2.18,-0.699 -2.48,-0.233 -1.31,0.061 -1.23,0.184 -1.15,0.307 -1.06,0.429 -1,0.567 -0.94,0.721 -0.88,0.873 -0.81,1.027 h -0.2 l -0.59,-3.678 h -3.63 v 38.991 h 4.42 v -11.06 l -0.05,-1.6 -0.15,-1.808 -0.1,-1.006 h 0.3 l 0.76,0.92 0.84,0.797 0.92,0.674 1.01,0.552 2.24,0.717 2.56,0.24 m -0.73,-24.205 1.63,0.166 1.43,0.496 1.25,0.822 1.06,1.14 0.83,1.447 0.59,1.741 0.37,2.029 0.12,2.312 -0.12,2.317 -0.37,2.048 -0.59,1.778 -0.83,1.508 -1.05,1.202 -1.23,0.858 -1.4,0.515 -1.59,0.172 -1.9,-0.148 -1.61,-0.441 -1.35,-0.76 -1.03,-1.079 -0.8,-1.41 -0.57,-1.778 -0.33,-2.177 -0.11,-2.556 v -0.859 l 0.12,-2.243 0.34,-1.925 0.57,-1.625 0.78,-1.294 1.01,-0.981 1.32,-0.711 1.59,-0.423 1.87,-0.141"
       id="path22" />
  </g>
  <g
     fill="#000000"
     fill-opacity="1"
     stroke="#000000"
     stroke-opacity="1"
     stroke-width="1"
     stroke-linecap="round"
     stroke-linejoin="bevel"
     font-family="Arial"
     font-size="12px"
     font-weight="400"
     font-style="normal"
     id="g24"
     style="fill-rule:evenodd"
     transform="translate(-1114.24,-875.368)" />
  <g
     fill="#000000"
     fill-opacity="1"
     stroke="none"
     font-family="Arial"
     font-size="12px"
     font-weight="400"
     font-style="normal"
     id="g25"
     style="fill-rule:evenodd;stroke-width:1;stroke-linecap:square;stroke-linejoin:bevel"
     transform="translate(-1114.24,-875.368)">
    <path
       vector-effect="none"
       fill-rule="evenodd"
       d="m 1847.37,925.9 v -2.681 h -12.08 v -0.131 l 4.99,-4.921 1.25,-1.245 1.06,-1.105 0.86,-0.963 0.67,-0.823 1,-1.504 0.71,-1.471 0.43,-1.496 0.15,-1.545 -0.13,-1.394 -0.36,-1.238 -0.62,-1.084 -0.86,-0.927 -1.06,-0.744 -1.24,-0.532 -1.4,-0.331 -1.58,-0.11 -1.95,0.176 -1.87,0.527 -1.79,0.879 -1.71,1.23 1.57,1.978 0.8,-0.595 0.76,-0.496 0.72,-0.395 0.68,-0.296 1.36,-0.368 1.43,-0.122 0.93,0.069 0.82,0.209 0.72,0.327 0.62,0.457 0.49,0.589 0.35,0.687 0.22,0.788 0.07,0.896 -0.11,1.279 -0.35,1.189 -0.56,1.165 -0.79,1.206 -0.58,0.715 -0.82,0.92 -1.05,1.124 -1.3,1.328 -6.26,6.327 v 2.452 h 15.81"
       id="path24" />
  </g>
  <g
     fill="#000000"
     fill-opacity="1"
     stroke="#000000"
     stroke-opacity="1"
     stroke-width="1"
     stroke-linecap="round"
     stroke-linejoin="bevel"
     font-family="Arial"
     font-size="12px"
     font-weight="400"
     font-style="normal"
     id="g26"
     style="fill-rule:evenodd"
     transform="translate(-1114.24,-875.368)" />
  <g
     fill="#000000"
     fill-opacity="1"
     stroke="#000000"
     stroke-opacity="1"
     stroke-width="3"
     stroke-linecap="round"
     stroke-linejoin="bevel"
     font-family="Arial"
     font-size="12px"
     font-weight="400"
     font-style="normal"
     id="g27"
     style="fill-rule:evenodd"
     transform="translate(-1114.24,-875.368)" />
  <g
     fill="#000000"
     fill-opacity="1"
     stroke="none"
     font-family="Arial"
     font-size="12px"
     font-weight="400"
     font-style="normal"
     id="g28"
     style="fill-rule:evenodd;stroke-width:1;stroke-linecap:square;stroke-linejoin:bevel"
     transform="translate(-1114.24,-875.368)">
    <path
       vector-effect="none"
       fill-rule="evenodd"
       d="m 1770.23,1183.85 54,9 -54,9 v -18"
       id="path27" />
  </g>
  <g
     fill="#000000"
     fill-opacity="1"
     stroke="#000000"
     stroke-opacity="1"
     stroke-width="3"
     stroke-linecap="round"
     stroke-linejoin="bevel"
     font-family="Arial"
     font-size="12px"
     font-weight="400"
     font-style="normal"
     id="g29"
     style="fill-rule:evenodd"
     transform="translate(-1114.24,-875.368)">
    <polyline
       fill="none"
       vector-effect="none"
       points="1824.23,1192.85 1471.9,1192.85 1417.9,1192.85 "
       id="polyline28" />
  </g>
  <g
     fill="none"
     stroke="#000000"
     stroke-opacity="1"
     stroke-width="1"
     stroke-linecap="square"
     stroke-linejoin="bevel"
     font-family="Arial"
     font-size="12px"
     font-weight="400"
     font-style="normal"
     id="g30"
     style="fill-rule:evenodd"
     transform="translate(-1114.24,-875.368)" />
</svg>
