<?xml version="1.0" encoding="UTF-8" standalone="no"?>
<svg
   x="0"
   y="0"
   width="314.93948"
   height="111"
   style="fill:none"
   version="1.1"
   id="svg16"
   sodipodi:docname="Fluid in a pipe.svg"
   inkscape:version="1.4.2 (ebf0e94, 2025-05-08)"
   xmlns:inkscape="http://www.inkscape.org/namespaces/inkscape"
   xmlns:sodipodi="http://sodipodi.sourceforge.net/DTD/sodipodi-0.dtd"
   xmlns:xlink="http://www.w3.org/1999/xlink"
   xmlns="http://www.w3.org/2000/svg"
   xmlns:svg="http://www.w3.org/2000/svg">
  <defs
     id="defs16">
    <linearGradient
       id="linearGradient16"
       inkscape:collect="always">
      <stop
         style="stop-color:#247cc0;stop-opacity:1;"
         offset="0"
         id="stop16" />
      <stop
         style="stop-color:#247cc0;stop-opacity:0;"
         offset="1"
         id="stop17" />
    </linearGradient>
    <linearGradient
       inkscape:collect="always"
       xlink:href="#linearGradient16"
       id="linearGradient17"
       x1="261.31555"
       y1="8.2222252"
       x2="261.31555"
       y2="304.59399"
       gradientUnits="userSpaceOnUse"
       gradientTransform="translate(-97.490396,-89.5)" />
  </defs>
  <sodipodi:namedview
     id="namedview16"
     pagecolor="#ffffff"
     bordercolor="#000000"
     borderopacity="0.25"
     inkscape:showpageshadow="2"
     inkscape:pageopacity="0.0"
     inkscape:pagecheckerboard="0"
     inkscape:deskcolor="#d1d1d1"
     showgrid="false"
     inkscape:zoom="2.1283988"
     inkscape:cx="233.74379"
     inkscape:cy="61.783534"
     inkscape:window-width="1920"
     inkscape:window-height="1009"
     inkscape:window-x="-8"
     inkscape:window-y="-8"
     inkscape:window-maximized="1"
     inkscape:current-layer="svg16" />
  <g
     class="arrow-line"
     id="g1"
     style="fill:none;stroke:#000000"
     transform="translate(-97.490396,-89.5)">
    <path
       class="connection real"
       stroke-dasharray="none"
       d="M 100,90 H 410"
       style="fill:none;fill-opacity:1;stroke:#000000;stroke-width:1"
       id="path1" />
  </g>
  <g
     class="arrow-line"
     id="g2"
     style="fill:none;stroke:#000000"
     transform="translate(-97.490396,-89.5)">
    <path
       class="connection real"
       stroke-dasharray="none"
       d="M 100,110 H 397.5"
       style="fill:none;fill-opacity:1;stroke:#000000;stroke-width:1"
       id="path2" />
  </g>
  <g
     class="arrow-line"
     id="g3"
     style="fill:none;stroke:#000000"
     transform="translate(-97.490396,-89.5)">
    <path
       class="connection real"
       stroke-dasharray="none"
       d="M 112.5,180 H 410"
       style="fill:none;fill-opacity:1;stroke:#000000;stroke-width:1"
       id="path3" />
  </g>
  <g
     class="arrow-line"
     id="g4"
     style="fill:none;stroke:#000000"
     transform="translate(-97.490396,-89.5)">
    <path
       class="connection real"
       stroke-dasharray="none"
       d="M 100,200 H 410"
       style="fill:none;fill-opacity:1;stroke:#000000;stroke-width:1"
       id="path4" />
  </g>
  <g
     class="arrow-line"
     id="g5"
     style="fill:none;stroke:#000000"
     transform="translate(-97.490396,-89.5)">
    <path
       class="connection real"
       stroke-dasharray="none"
       d="m 100,90 c -12.5,24.31 39,66.31 0,110"
       style="fill:none;fill-opacity:1;stroke:#000000;stroke-width:1"
       id="path5" />
  </g>
  <g
     class="arrow-line"
     id="g6"
     style="fill:none;stroke:#000000"
     transform="translate(-97.490396,-89.5)">
    <path
       class="connection real"
       stroke-dasharray="none"
       d="m 410,200 c 12.11,-24.51 -38.29,-65.69 0,-110"
       style="fill:none;fill-opacity:1;stroke:#000000;stroke-width:1"
       id="path6" />
  </g>
  <g
     class="arrow-line"
     id="g7"
     style="fill:none;stroke:#000000"
     transform="translate(-97.490396,-89.5)">
    <path
       class="connection real"
       stroke-dasharray="none"
       d="m 112.5,146.31 c 30.5,-15.5 48.5,-16.97 76.5,-8.48 28,8.48 33.5,17.98 64.03,13.19 30.52,-4.8 40.92,-19.76 70.95,-6.48 30.02,13.27 63.95,3.45 73.52,-3.73"
       style="fill:none;fill-opacity:1;stroke:#000000;stroke-width:1"
       id="path7" />
  </g>
  <g
     id="g10"
     style="fill:none;stroke:#000000"
     transform="translate(-97.490396,-89.5)" />
  <g
     id="g12"
     transform="translate(-97.490396,-89.5)" />
  <g
     id="g13"
     transform="translate(-97.490396,-89.5)" />
  <g
     id="g14"
     transform="translate(-97.490396,-89.5)" />
  <svg
     width="660"
     height="300"
     style="font-family:Asana-Math, Asana"
     version="1.1"
     id="svg15"
     transform="translate(-97.490396,-89.5)" />
  <path
     style="fill:url(#linearGradient17);stroke:#ab6262;stroke-width:0.470577"
     d="m 15.955684,88.92051 c 2.09293,-5.44648 2.54641,-19.87702 0.86485,-27.52111 l -0.9122,-4.14672 2.61752,-1.31611 c 8.85836,-4.45403 21.50863,-9.06541 29.00029,-10.57142 5.4232,-1.0902 13.99578,-1.57504 19.83718,-1.12193 12.22576,0.94833 23.37525,4.0212 43.414216,11.96524 6.14428,2.43577 13.4385,4.99972 16.20937,5.69767 4.63098,1.16647 5.77805,1.26795 14.19977,1.25623 13.48473,-0.0188 20.69858,-1.39822 39.93612,-7.63665 13.63786,-4.42254 16.3649,-5.00386 23.25692,-4.95763 7.13623,0.0479 11.47027,1.06664 21.57739,5.07208 12.61141,4.99789 20.43598,6.51863 33.39351,6.49016 13.63423,-0.03 25.35238,-2.3821 35.81622,-7.1893 l 3.86732,-1.77669 0.52332,1.96237 c 1.18201,4.4323 3.54092,11.37771 6.65049,19.58125 1.8121,4.78059 3.78494,10.11911 4.3841,11.86338 l 1.08937,3.1714 H 163.66058 c -140.779376,0 -148.005396,-0.0402 -147.704896,-0.82222 z"
     id="path16" />
  <path
     style="fill:#d3dbce;fill-opacity:1;stroke:#ab6262;stroke-width:0.470577"
     d="M 2.9094437,19.38467 C 1.3771327,16.69417 0.93268972,6.110533 2.2287537,3.175302 l 0.77797,-1.761888 H 156.66731 c 95.70228,0 153.6606,0.166756 153.6606,0.442108 0,0.24316 -0.21482,0.574873 -0.47737,0.737141 -1.05174,0.650009 -5.42339,7.707015 -7.61015,12.284807 l -2.32137,4.85958 H 151.51457 c -81.622446,0 -148.4947563,-0.15857 -148.6051263,-0.35238 z"
     id="path21" />
  <path
     style="fill:#d3dbce;fill-opacity:1;stroke:#ab6262;stroke-width:0.470577"
     d="m 4.4641837,109.6724 c 0,-0.15032 0.71561,-1.15459 1.59025,-2.23172 2.65478,-3.26942 6.0395303,-8.80709 7.6584503,-12.52975 l 1.53243,-3.52378 148.400106,-0.11819 148.40011,-0.11819 0.59027,2.46738 c 1.08044,4.51636 1.19899,9.92948 0.29092,13.28414 l -0.82381,3.04342 H 158.28354 c -84.600646,0 -153.8193563,-0.12299 -153.8193563,-0.27331 z"
     id="path22" />
</svg>
