<?xml version="1.0" encoding="UTF-8" standalone="no"?>
<svg
   width="211.10312mm"
   height="213.50603mm"
   viewBox="0 0 2493.3459 2521.722"
   version="1.2"
   id="svg220"
   sodipodi:docname="Gyroscopic Couple.svg"
   inkscape:version="1.3.2 (091e20e, 2023-11-25, custom)"
   xmlns:inkscape="http://www.inkscape.org/namespaces/inkscape"
   xmlns:sodipodi="http://sodipodi.sourceforge.net/DTD/sodipodi-0.dtd"
   xmlns="http://www.w3.org/2000/svg"
   xmlns:svg="http://www.w3.org/2000/svg">
  <sodipodi:namedview
     id="namedview220"
     pagecolor="#ffffff"
     bordercolor="#666666"
     borderopacity="1.0"
     inkscape:showpageshadow="2"
     inkscape:pageopacity="0.0"
     inkscape:pagecheckerboard="0"
     inkscape:deskcolor="#d1d1d1"
     inkscape:document-units="mm"
     showgrid="false"
     inkscape:zoom="0.36211834"
     inkscape:cx="167.07246"
     inkscape:cy="481.88667"
     inkscape:window-width="1920"
     inkscape:window-height="1009"
     inkscape:window-x="-8"
     inkscape:window-y="-8"
     inkscape:window-maximized="1"
     inkscape:current-layer="svg220" />
  <defs
     id="defs1" />
  <g
     fill="none"
     stroke="#000000"
     stroke-opacity="1"
     stroke-width="1"
     stroke-linecap="square"
     stroke-linejoin="bevel"
     font-family="Arial"
     font-size="12px"
     font-weight="400"
     font-style="normal"
     id="g2"
     style="fill-rule:evenodd"
     transform="translate(2.6309586,-963.93802)" />
  <g
     fill="#000000"
     fill-opacity="1"
     stroke="#000000"
     stroke-opacity="1"
     stroke-width="1"
     stroke-linecap="butt"
     stroke-linejoin="miter"
     stroke-miterlimit="2"
     font-family="Arial"
     font-size="12px"
     font-weight="400"
     font-style="normal"
     id="g3"
     style="fill-rule:evenodd"
     transform="translate(2.6309586,-963.93802)" />
  <g
     fill="none"
     stroke="#000000"
     stroke-opacity="1"
     stroke-width="1"
     stroke-linecap="square"
     stroke-linejoin="bevel"
     font-family="Arial"
     font-size="12px"
     font-weight="400"
     font-style="normal"
     id="g219"
     style="fill-rule:evenodd"
     transform="translate(2.6309586,-963.93802)" />
  <g
     id="g222"
     transform="translate(-1321.2316,-169.99807)">
    <g
       fill="#000000"
       fill-opacity="1"
       stroke="#000000"
       stroke-opacity="1"
       stroke-width="5"
       stroke-linecap="round"
       stroke-linejoin="bevel"
       font-family="Arial"
       font-size="12px"
       font-weight="400"
       font-style="normal"
       id="g6"
       style="fill-rule:evenodd"
       transform="translate(3.505849)">
      <polyline
         fill="none"
         vector-effect="none"
         points="3299.29,1866.84 3298.84,1829.68 3297.49,1792.54 3295.25,1755.45 3292.1,1718.42 3288.06,1681.47 3283.12,1644.64 3277.29,1607.94 3270.58,1571.39 3262.98,1535.01 3254.51,1498.83 3245.16,1462.86 3234.94,1427.13 3223.86,1391.66 3211.92,1356.47 3199.14,1321.57 3185.51,1287 3171.05,1252.76 3155.77,1218.89 3139.67,1185.4 3122.76,1152.3 3105.06,1119.63 3086.57,1087.39 3067.31,1055.61 3047.28,1024.31 3026.5,993.5 3004.98,963.203 2982.73,933.437 2959.76,904.218 2936.1,875.563 2911.75,847.491 2886.73,820.016 2861.05,793.155 2834.72,766.924 2807.77,741.338 2780.2,716.413 2752.05,692.162 2723.31,668.601 2694.01,645.742 2664.16,623.6 2633.79,602.187 2602.91,581.516 2571.53,561.599 2539.68,542.447 "
         id="polyline3" />
      <polyline
         fill="none"
         vector-effect="none"
         points="3488.69,2183.18 3728.06,2262.03 "
         id="polyline4" />
      <polyline
         fill="none"
         vector-effect="none"
         points="3728.06,2262.03 3634.08,2099.24 "
         id="polyline5" />
      <polyline
         fill="none"
         vector-effect="none"
         points="2994.25,747.933 3000.36,744.217 3006.3,740.226 3012.05,735.97 3017.6,731.456 3022.93,726.694 3028.05,721.694 3032.93,716.467 3037.57,711.023 3041.96,705.373 3046.08,699.53 3049.93,693.505 3053.51,687.311 3056.8,680.96 3059.8,674.466 3062.5,667.843 3064.89,661.103 3066.98,654.262 3068.75,647.332 3070.21,640.329 3071.34,633.267 3072.16,626.161 3072.64,619.025 3072.81,611.875 "
         id="polyline6" />
    </g>
    <g
       fill="#000000"
       fill-opacity="1"
       stroke="#000000"
       stroke-opacity="1"
       stroke-width="2"
       stroke-linecap="round"
       stroke-linejoin="bevel"
       font-family="Arial"
       font-size="12px"
       font-weight="400"
       font-style="normal"
       id="g17"
       style="fill-rule:evenodd"
       transform="matrix(0.66786546,0,0,0.66786546,1056.5151,644.22807)">
      <polyline
         fill="none"
         vector-effect="none"
         points="3171.43,1940.66 3225.99,1972.16 "
         id="polyline7" />
      <polyline
         fill="none"
         vector-effect="none"
         points="3238.77,1979.54 3251.56,1986.92 "
         id="polyline8" />
      <polyline
         fill="none"
         vector-effect="none"
         points="3264.35,1994.3 3328.28,2031.21 "
         id="polyline9" />
      <polyline
         fill="none"
         vector-effect="none"
         points="3341.06,2038.6 3353.85,2045.98 "
         id="polyline10" />
      <polyline
         fill="none"
         vector-effect="none"
         points="3366.64,2053.36 3430.57,2090.27 "
         id="polyline11" />
      <polyline
         fill="none"
         vector-effect="none"
         points="3443.35,2097.65 3456.14,2105.03 "
         id="polyline12" />
      <polyline
         fill="none"
         vector-effect="none"
         points="3468.93,2112.42 3532.86,2149.33 "
         id="polyline13" />
      <polyline
         fill="none"
         vector-effect="none"
         points="3545.64,2156.71 3558.43,2164.09 "
         id="polyline14" />
      <polyline
         fill="none"
         vector-effect="none"
         points="3571.22,2171.47 3635.15,2208.38 "
         id="polyline15" />
      <polyline
         fill="none"
         vector-effect="none"
         points="3647.93,2215.77 3660.72,2223.15 "
         id="polyline16" />
      <polyline
         fill="none"
         vector-effect="none"
         points="3673.51,2230.53 3728.06,2262.03 "
         id="polyline17" />
    </g>
    <g
       fill="#000000"
       fill-opacity="1"
       stroke="#000000"
       stroke-opacity="1"
       stroke-width="5"
       stroke-linecap="round"
       stroke-linejoin="bevel"
       font-family="Arial"
       font-size="12px"
       font-weight="400"
       font-style="normal"
       id="g19"
       style="fill-rule:evenodd"
       transform="translate(3.505849)">
      <polyline
         fill="none"
         vector-effect="none"
         points="3043.57,2309.77 3054.8,2303.09 3065.85,2296.13 3076.73,2288.89 3087.41,2281.38 3097.9,2273.59 3108.19,2265.54 3118.26,2257.23 3128.13,2248.66 3137.77,2239.85 3147.18,2230.79 3156.36,2221.49 3165.29,2211.97 3173.98,2202.21 3182.42,2192.24 3190.6,2182.06 3198.52,2171.67 3206.17,2161.08 3213.55,2150.3 3220.65,2139.34 3227.47,2128.2 3234,2116.88 3240.24,2105.41 3246.19,2093.78 3251.83,2082 3257.18,2070.08 3262.22,2058.03 3266.94,2045.85 3271.36,2033.55 3275.46,2021.15 3279.24,2008.65 3282.7,1996.05 3285.84,1983.37 3288.65,1970.62 3291.14,1957.79 3293.3,1944.91 3295.13,1931.98 3296.63,1919 3297.79,1905.99 3298.63,1892.95 3299.13,1879.9 3299.29,1866.84 "
         id="polyline18" />
      <polyline
         fill="none"
         vector-effect="none"
         points="1814.25,747.935 1839.31,761.999 1864.71,775.448 1890.42,788.275 1916.44,800.473 1942.75,812.032 1969.33,822.948 1996.17,833.214 2023.25,842.822 2050.56,851.769 2078.08,860.047 2105.79,867.654 2133.68,874.583 2161.73,880.831 2189.92,886.394 2218.24,891.269 2246.67,895.453 2275.19,898.943 2303.79,901.738 2332.45,903.835 2361.16,905.234 2389.88,905.934 2418.62,905.934 2447.35,905.234 2476.05,903.835 2504.71,901.737 2533.31,898.942 2561.83,895.452 2590.26,891.267 2618.58,886.392 2646.78,880.829 2674.82,874.581 2702.71,867.651 2730.42,860.045 2757.94,851.766 2785.25,842.819 2812.33,833.211 2839.17,822.945 2865.75,812.029 2892.06,800.469 2918.08,788.272 2943.8,775.444 2969.19,761.995 2994.25,747.931 "
         id="polyline19" />
    </g>
    <g
       fill="#000000"
       fill-opacity="1"
       stroke="#000000"
       stroke-opacity="1"
       stroke-width="2"
       stroke-linecap="round"
       stroke-linejoin="bevel"
       font-family="Arial"
       font-size="12px"
       font-weight="400"
       font-style="normal"
       id="g48"
       style="fill-rule:evenodd"
       transform="translate(3.505849)">
      <polyline
         fill="none"
         vector-effect="none"
         points="1637.08,1054.8 1720.19,1102.79 "
         id="polyline20" />
      <polyline
         fill="none"
         vector-effect="none"
         points="1732.98,1110.17 1745.76,1117.55 "
         id="polyline21" />
      <polyline
         fill="none"
         vector-effect="none"
         points="1758.55,1124.93 1822.48,1161.84 "
         id="polyline22" />
      <polyline
         fill="none"
         vector-effect="none"
         points="1835.27,1169.23 1848.05,1176.61 "
         id="polyline23" />
      <polyline
         fill="none"
         vector-effect="none"
         points="1860.84,1183.99 1924.77,1220.9 "
         id="polyline24" />
      <polyline
         fill="none"
         vector-effect="none"
         points="1937.56,1228.28 1950.34,1235.67 "
         id="polyline25" />
      <polyline
         fill="none"
         vector-effect="none"
         points="1963.13,1243.05 2027.06,1279.96 "
         id="polyline26" />
      <polyline
         fill="none"
         vector-effect="none"
         points="2039.85,1287.34 2052.63,1294.72 "
         id="polyline27" />
      <polyline
         fill="none"
         vector-effect="none"
         points="2065.42,1302.11 2129.35,1339.02 "
         id="polyline28" />
      <polyline
         fill="none"
         vector-effect="none"
         points="2142.14,1346.4 2154.92,1353.78 "
         id="polyline29" />
      <polyline
         fill="none"
         vector-effect="none"
         points="2167.71,1361.16 2231.64,1398.07 "
         id="polyline30" />
      <polyline
         fill="none"
         vector-effect="none"
         points="2244.43,1405.45 2257.21,1412.84 "
         id="polyline31" />
      <polyline
         fill="none"
         vector-effect="none"
         points="2270,1420.22 2333.93,1457.13 "
         id="polyline32" />
      <polyline
         fill="none"
         vector-effect="none"
         points="2346.72,1464.51 2359.5,1471.89 "
         id="polyline33" />
      <polyline
         fill="none"
         vector-effect="none"
         points="2372.29,1479.28 2436.22,1516.19 "
         id="polyline34" />
      <polyline
         fill="none"
         vector-effect="none"
         points="2449.01,1523.57 2461.8,1530.95 "
         id="polyline35" />
      <polyline
         fill="none"
         vector-effect="none"
         points="2474.58,1538.33 2538.51,1575.24 "
         id="polyline36" />
      <polyline
         fill="none"
         vector-effect="none"
         points="2551.3,1582.63 2564.09,1590.01 "
         id="polyline37" />
      <polyline
         fill="none"
         vector-effect="none"
         points="2576.87,1597.39 2640.8,1634.3 "
         id="polyline38" />
      <polyline
         fill="none"
         vector-effect="none"
         points="2653.59,1641.68 2666.38,1649.07 "
         id="polyline39" />
      <polyline
         fill="none"
         vector-effect="none"
         points="2679.16,1656.45 2743.09,1693.36 "
         id="polyline40" />
      <polyline
         fill="none"
         vector-effect="none"
         points="2755.88,1700.74 2768.67,1708.12 "
         id="polyline41" />
      <polyline
         fill="none"
         vector-effect="none"
         points="2781.45,1715.5 2845.38,1752.42 "
         id="polyline42" />
      <polyline
         fill="none"
         vector-effect="none"
         points="2858.17,1759.8 2870.96,1767.18 "
         id="polyline43" />
      <polyline
         fill="none"
         vector-effect="none"
         points="2883.74,1774.56 2947.67,1811.47 "
         id="polyline44" />
      <polyline
         fill="none"
         vector-effect="none"
         points="2960.46,1818.85 2973.25,1826.24 "
         id="polyline45" />
      <polyline
         fill="none"
         vector-effect="none"
         points="2986.03,1833.62 3049.96,1870.53 "
         id="polyline46" />
      <polyline
         fill="none"
         vector-effect="none"
         points="3062.75,1877.91 3075.54,1885.29 "
         id="polyline47" />
      <polyline
         fill="none"
         vector-effect="none"
         points="3088.32,1892.68 3171.43,1940.66 "
         id="polyline48" />
    </g>
    <g
       fill="#000000"
       fill-opacity="1"
       stroke="#000000"
       stroke-opacity="1"
       stroke-width="5"
       stroke-linecap="round"
       stroke-linejoin="bevel"
       font-family="Arial"
       font-size="12px"
       font-weight="400"
       font-style="normal"
       id="g50"
       style="fill-rule:evenodd"
       transform="translate(3.505849)">
      <polyline
         fill="none"
         vector-effect="none"
         points="2787.85,2457.41 3043.57,2309.77 "
         id="polyline49" />
      <polyline
         fill="none"
         vector-effect="none"
         points="1814.25,475.822 1808.14,479.538 1802.21,483.529 1796.46,487.785 1790.91,492.299 1785.57,497.061 1780.46,502.06 1775.58,507.288 1770.94,512.732 1766.55,518.381 1762.43,524.224 1758.57,530.249 1755,536.444 1751.7,542.794 1748.71,549.288 1746.01,555.911 1743.61,562.651 1741.53,569.492 1739.75,576.422 1738.3,583.424 1737.16,590.486 1736.35,597.592 1735.86,604.728 1735.7,611.879 1735.86,619.029 1736.35,626.165 1737.16,633.271 1738.3,640.333 1739.75,647.336 1741.53,654.265 1743.61,661.106 1746.01,667.846 1748.71,674.469 1751.7,680.963 1755,687.314 1758.57,693.508 1762.43,699.533 1766.55,705.376 1770.94,711.025 1775.58,716.469 1780.46,721.697 1785.57,726.696 1790.91,731.458 1796.46,735.972 1802.21,740.228 1808.14,744.219 1814.25,747.935 "
         id="polyline50" />
    </g>
    <g
       fill="#000000"
       fill-opacity="1"
       stroke="#000000"
       stroke-opacity="1"
       stroke-width="2"
       stroke-linecap="round"
       stroke-linejoin="bevel"
       font-family="Arial"
       font-size="12px"
       font-weight="400"
       font-style="normal"
       id="g103"
       style="fill-rule:evenodd"
       transform="matrix(0.76694998,0,0,0.76694998,666.32121,289.82514)">
      <polyline
         fill="none"
         vector-effect="none"
         points="922.008,2353.51 982.815,2318.4 "
         id="polyline51" />
      <polyline
         fill="none"
         vector-effect="none"
         points="995.601,2311.02 1008.39,2303.64 "
         id="polyline52" />
      <polyline
         fill="none"
         vector-effect="none"
         points="1021.17,2296.26 1085.1,2259.34 "
         id="polyline53" />
      <polyline
         fill="none"
         vector-effect="none"
         points="1097.89,2251.96 1110.68,2244.58 "
         id="polyline54" />
      <polyline
         fill="none"
         vector-effect="none"
         points="1123.46,2237.2 1187.39,2200.29 "
         id="polyline55" />
      <polyline
         fill="none"
         vector-effect="none"
         points="1200.18,2192.9 1212.97,2185.52 "
         id="polyline56" />
      <polyline
         fill="none"
         vector-effect="none"
         points="1225.75,2178.14 1289.69,2141.23 "
         id="polyline57" />
      <polyline
         fill="none"
         vector-effect="none"
         points="1302.47,2133.85 1315.26,2126.47 "
         id="polyline58" />
      <polyline
         fill="none"
         vector-effect="none"
         points="1328.04,2119.08 1391.98,2082.17 "
         id="polyline59" />
      <polyline
         fill="none"
         vector-effect="none"
         points="1404.76,2074.79 1417.55,2067.41 "
         id="polyline60" />
      <polyline
         fill="none"
         vector-effect="none"
         points="1430.33,2060.03 1494.27,2023.12 "
         id="polyline61" />
      <polyline
         fill="none"
         vector-effect="none"
         points="1507.05,2015.73 1519.84,2008.35 "
         id="polyline62" />
      <polyline
         fill="none"
         vector-effect="none"
         points="1532.62,2000.97 1596.56,1964.06 "
         id="polyline63" />
      <polyline
         fill="none"
         vector-effect="none"
         points="1609.34,1956.68 1622.13,1949.29 "
         id="polyline64" />
      <polyline
         fill="none"
         vector-effect="none"
         points="1634.91,1941.91 1698.85,1905 "
         id="polyline65" />
      <polyline
         fill="none"
         vector-effect="none"
         points="1711.63,1897.62 1724.42,1890.24 "
         id="polyline66" />
      <polyline
         fill="none"
         vector-effect="none"
         points="1737.2,1882.85 1801.14,1845.94 "
         id="polyline67" />
      <polyline
         fill="none"
         vector-effect="none"
         points="1813.92,1838.56 1826.71,1831.18 "
         id="polyline68" />
      <polyline
         fill="none"
         vector-effect="none"
         points="1839.49,1823.8 1903.43,1786.89 "
         id="polyline69" />
      <polyline
         fill="none"
         vector-effect="none"
         points="1916.21,1779.5 1929,1772.12 "
         id="polyline70" />
      <polyline
         fill="none"
         vector-effect="none"
         points="1941.78,1764.74 2005.72,1727.83 "
         id="polyline71" />
      <polyline
         fill="none"
         vector-effect="none"
         points="2018.5,1720.45 2031.29,1713.06 "
         id="polyline72" />
      <polyline
         fill="none"
         vector-effect="none"
         points="2044.07,1705.68 2108.01,1668.77 "
         id="polyline73" />
      <polyline
         fill="none"
         vector-effect="none"
         points="2120.79,1661.39 2133.58,1654.01 "
         id="polyline74" />
      <polyline
         fill="none"
         vector-effect="none"
         points="2146.36,1646.63 2210.3,1609.71 "
         id="polyline75" />
      <polyline
         fill="none"
         vector-effect="none"
         points="2223.08,1602.33 2235.87,1594.95 "
         id="polyline76" />
      <polyline
         fill="none"
         vector-effect="none"
         points="2248.66,1587.57 2312.59,1550.66 "
         id="polyline77" />
      <polyline
         fill="none"
         vector-effect="none"
         points="2325.37,1543.28 2338.16,1535.89 "
         id="polyline78" />
      <polyline
         fill="none"
         vector-effect="none"
         points="2350.95,1528.51 2414.88,1491.6 "
         id="polyline79" />
      <polyline
         fill="none"
         vector-effect="none"
         points="2427.66,1484.22 2440.45,1476.84 "
         id="polyline80" />
      <polyline
         fill="none"
         vector-effect="none"
         points="2453.24,1469.45 2517.17,1432.54 "
         id="polyline81" />
      <polyline
         fill="none"
         vector-effect="none"
         points="2529.95,1425.16 2542.74,1417.78 "
         id="polyline82" />
      <polyline
         fill="none"
         vector-effect="none"
         points="2555.53,1410.4 2619.46,1373.49 "
         id="polyline83" />
      <polyline
         fill="none"
         vector-effect="none"
         points="2632.24,1366.1 2645.03,1358.72 "
         id="polyline84" />
      <polyline
         fill="none"
         vector-effect="none"
         points="2657.82,1351.34 2721.75,1314.43 "
         id="polyline85" />
      <polyline
         fill="none"
         vector-effect="none"
         points="2734.53,1307.05 2747.32,1299.66 "
         id="polyline86" />
      <polyline
         fill="none"
         vector-effect="none"
         points="2760.11,1292.28 2824.04,1255.37 "
         id="polyline87" />
      <polyline
         fill="none"
         vector-effect="none"
         points="2836.82,1247.99 2849.61,1240.61 "
         id="polyline88" />
      <polyline
         fill="none"
         vector-effect="none"
         points="2862.4,1233.22 2926.33,1196.31 "
         id="polyline89" />
      <polyline
         fill="none"
         vector-effect="none"
         points="2939.11,1188.93 2951.9,1181.55 "
         id="polyline90" />
      <polyline
         fill="none"
         vector-effect="none"
         points="2964.69,1174.17 3028.62,1137.26 "
         id="polyline91" />
      <polyline
         fill="none"
         vector-effect="none"
         points="3041.4,1129.87 3054.19,1122.49 "
         id="polyline92" />
      <polyline
         fill="none"
         vector-effect="none"
         points="3066.98,1115.11 3130.91,1078.2 "
         id="polyline93" />
      <polyline
         fill="none"
         vector-effect="none"
         points="3143.69,1070.82 3156.48,1063.44 "
         id="polyline94" />
      <polyline
         fill="none"
         vector-effect="none"
         points="3169.27,1056.05 3233.2,1019.14 "
         id="polyline95" />
      <polyline
         fill="none"
         vector-effect="none"
         points="3245.98,1011.76 3258.77,1004.38 "
         id="polyline96" />
      <polyline
         fill="none"
         vector-effect="none"
         points="3271.56,996.996 3335.49,960.085 "
         id="polyline97" />
      <polyline
         fill="none"
         vector-effect="none"
         points="3348.27,952.703 3361.06,945.321 "
         id="polyline98" />
      <polyline
         fill="none"
         vector-effect="none"
         points="3373.85,937.939 3437.78,901.028 "
         id="polyline99" />
      <polyline
         fill="none"
         vector-effect="none"
         points="3450.56,893.646 3463.35,886.264 "
         id="polyline100" />
      <polyline
         fill="none"
         vector-effect="none"
         points="3476.14,878.881 3540.07,841.971 "
         id="polyline101" />
      <polyline
         fill="none"
         vector-effect="none"
         points="3552.85,834.588 3565.64,827.206 "
         id="polyline102" />
      <polyline
         fill="none"
         vector-effect="none"
         points="3578.43,819.824 3639.23,784.718 "
         id="polyline103" />
    </g>
    <g
       fill="#000000"
       fill-opacity="1"
       stroke="#000000"
       stroke-opacity="1"
       stroke-width="5"
       stroke-linecap="round"
       stroke-linejoin="bevel"
       font-family="Arial"
       font-size="12px"
       font-weight="400"
       font-style="normal"
       id="g108"
       style="fill-rule:evenodd"
       transform="translate(3.505849)">
      <polyline
         fill="none"
         vector-effect="none"
         points="2276.4,2457.41 2287.79,2463.79 2299.35,2469.89 2311.05,2475.68 2322.9,2481.18 2334.89,2486.37 2347.01,2491.25 2359.24,2495.82 2371.59,2500.08 2384.05,2504.02 2396.6,2507.65 2409.24,2510.95 2421.96,2513.92 2434.75,2516.57 2447.6,2518.9 2460.51,2520.89 2473.47,2522.55 2486.46,2523.89 2499.49,2524.89 2512.53,2525.55 2525.59,2525.89 2538.65,2525.89 2551.71,2525.55 2564.76,2524.89 2577.78,2523.89 2590.78,2522.55 2603.73,2520.89 2616.64,2518.9 2629.5,2516.57 2642.29,2513.92 2655.01,2510.95 2667.65,2507.65 2680.2,2504.02 2692.65,2500.08 2705,2495.82 2717.24,2491.25 2729.35,2486.37 2741.34,2481.18 2753.19,2475.68 2764.9,2469.89 2776.45,2463.79 2787.85,2457.41 2799.08,2450.73 2810.13,2443.77 2821,2436.53 2831.69,2429.02 2842.18,2421.23 2852.46,2413.18 2862.54,2404.87 2872.4,2396.3 2882.04,2387.49 2891.46,2378.43 2900.63,2369.13 2909.57,2359.61 2918.26,2349.85 2926.7,2339.88 2934.88,2329.7 2942.8,2319.31 2950.45,2308.72 2957.83,2297.94 2964.93,2286.98 2971.75,2275.84 2978.28,2264.53 2984.52,2253.05 2990.47,2241.42 2996.11,2229.64 3001.46,2217.72 3006.49,2205.67 3011.22,2193.49 3015.64,2181.2 3019.74,2168.79 3023.52,2156.29 3026.98,2143.69 3030.12,2131.01 3032.93,2118.26 3035.42,2105.43 3037.58,2092.55 3039.41,2079.62 3040.91,2066.64 3042.07,2053.63 3042.91,2040.59 3043.41,2027.54 3043.57,2014.48 "
         id="polyline104" />
      <polyline
         fill="none"
         vector-effect="none"
         points="1509.22,1128.62 1509.68,1165.98 1511.04,1203.32 1513.31,1240.62 1516.5,1277.85 1520.58,1314.99 1525.57,1352.02 1531.46,1388.92 1538.25,1425.67 1545.93,1462.23 1554.5,1498.6 1563.95,1534.75 1574.28,1570.66 1585.48,1606.31 1597.54,1641.68 1610.46,1676.74 1624.24,1711.47 1638.85,1745.86 1654.3,1779.88 1670.57,1813.52 1687.65,1846.75 1705.54,1879.56 1724.23,1911.92 1743.69,1943.81 1763.93,1975.22 1784.92,2006.13 1806.66,2036.52 1829.14,2066.37 1852.33,2095.67 1876.24,2124.39 1900.83,2152.52 1926.1,2180.04 1952.04,2206.94 1978.62,2233.2 2005.83,2258.81 2033.66,2283.74 2062.09,2307.99 2091.1,2331.54 2120.67,2354.38 2150.8,2376.49 2181.45,2397.86 2212.61,2418.48 2244.27,2438.33 2276.4,2457.41 "
         id="polyline105" />
      <polyline
         fill="none"
         vector-effect="none"
         points="2358.32,411.511 2450.19,411.511 "
         id="polyline106" />
      <polyline
         fill="none"
         vector-effect="none"
         points="2404.25,238.06 2358.32,411.511 "
         id="polyline107" />
      <polyline
         fill="none"
         vector-effect="none"
         points="2450.19,411.511 2404.25,238.06 "
         id="polyline108" />
    </g>
    <g
       fill="#000000"
       fill-opacity="1"
       stroke="#000000"
       stroke-opacity="1"
       stroke-width="2"
       stroke-linecap="round"
       stroke-linejoin="bevel"
       font-family="Arial"
       font-size="12px"
       font-weight="400"
       font-style="normal"
       id="g157"
       style="fill-rule:evenodd"
       transform="matrix(1,0,0,0.78070223,3.505849,233.21216)">
      <polyline
         fill="none"
         vector-effect="none"
         points="2404.25,238.06 2404.25,312.618 "
         id="polyline109" />
      <polyline
         fill="none"
         vector-effect="none"
         points="2404.25,327.382 2404.25,342.146 "
         id="polyline110" />
      <polyline
         fill="none"
         vector-effect="none"
         points="2404.25,356.91 2404.25,430.732 "
         id="polyline111" />
      <polyline
         fill="none"
         vector-effect="none"
         points="2404.25,445.496 2404.25,460.261 "
         id="polyline112" />
      <polyline
         fill="none"
         vector-effect="none"
         points="2404.25,475.025 2404.25,548.846 "
         id="polyline113" />
      <polyline
         fill="none"
         vector-effect="none"
         points="2404.25,563.611 2404.25,578.375 "
         id="polyline114" />
      <polyline
         fill="none"
         vector-effect="none"
         points="2404.25,593.139 2404.25,666.961 "
         id="polyline115" />
      <polyline
         fill="none"
         vector-effect="none"
         points="2404.25,681.725 2404.25,696.49 "
         id="polyline116" />
      <polyline
         fill="none"
         vector-effect="none"
         points="2404.25,711.254 2404.25,785.075 "
         id="polyline117" />
      <polyline
         fill="none"
         vector-effect="none"
         points="2404.25,799.84 2404.25,814.604 "
         id="polyline118" />
      <polyline
         fill="none"
         vector-effect="none"
         points="2404.25,829.368 2404.25,903.19 "
         id="polyline119" />
      <polyline
         fill="none"
         vector-effect="none"
         points="2404.25,917.954 2404.25,932.719 "
         id="polyline120" />
      <polyline
         fill="none"
         vector-effect="none"
         points="2404.25,947.483 2404.25,1021.3 "
         id="polyline121" />
      <polyline
         fill="none"
         vector-effect="none"
         points="2404.25,1036.07 2404.25,1050.83 "
         id="polyline122" />
      <polyline
         fill="none"
         vector-effect="none"
         points="2404.25,1065.6 2404.25,1139.42 "
         id="polyline123" />
      <polyline
         fill="none"
         vector-effect="none"
         points="2404.25,1154.18 2404.25,1168.95 "
         id="polyline124" />
      <polyline
         fill="none"
         vector-effect="none"
         points="2404.25,1183.71 2404.25,1257.53 "
         id="polyline125" />
      <polyline
         fill="none"
         vector-effect="none"
         points="2404.25,1272.3 2404.25,1287.06 "
         id="polyline126" />
      <polyline
         fill="none"
         vector-effect="none"
         points="2404.25,1301.83 2404.25,1375.65 "
         id="polyline127" />
      <polyline
         fill="none"
         vector-effect="none"
         points="2404.25,1390.41 2404.25,1405.18 "
         id="polyline128" />
      <polyline
         fill="none"
         vector-effect="none"
         points="2404.25,1419.94 2404.25,1493.76 "
         id="polyline129" />
      <polyline
         fill="none"
         vector-effect="none"
         points="2404.25,1508.53 2404.25,1523.29 "
         id="polyline130" />
      <polyline
         fill="none"
         vector-effect="none"
         points="2404.25,1538.06 2404.25,1611.88 "
         id="polyline131" />
      <polyline
         fill="none"
         vector-effect="none"
         points="2404.25,1626.64 2404.25,1641.41 "
         id="polyline132" />
      <polyline
         fill="none"
         vector-effect="none"
         points="2404.25,1656.17 2404.25,1729.99 "
         id="polyline133" />
      <polyline
         fill="none"
         vector-effect="none"
         points="2404.25,1744.76 2404.25,1759.52 "
         id="polyline134" />
      <polyline
         fill="none"
         vector-effect="none"
         points="2404.25,1774.28 2404.25,1848.11 "
         id="polyline135" />
      <polyline
         fill="none"
         vector-effect="none"
         points="2404.25,1862.87 2404.25,1877.63 "
         id="polyline136" />
      <polyline
         fill="none"
         vector-effect="none"
         points="2404.25,1892.4 2404.25,1966.22 "
         id="polyline137" />
      <polyline
         fill="none"
         vector-effect="none"
         points="2404.25,1980.98 2404.25,1995.75 "
         id="polyline138" />
      <polyline
         fill="none"
         vector-effect="none"
         points="2404.25,2010.51 2404.25,2084.33 "
         id="polyline139" />
      <polyline
         fill="none"
         vector-effect="none"
         points="2404.25,2099.1 2404.25,2113.86 "
         id="polyline140" />
      <polyline
         fill="none"
         vector-effect="none"
         points="2404.25,2128.63 2404.25,2202.45 "
         id="polyline141" />
      <polyline
         fill="none"
         vector-effect="none"
         points="2404.25,2217.21 2404.25,2231.98 "
         id="polyline142" />
      <polyline
         fill="none"
         vector-effect="none"
         points="2404.25,2246.74 2404.25,2320.56 "
         id="polyline143" />
      <polyline
         fill="none"
         vector-effect="none"
         points="2404.25,2335.33 2404.25,2350.09 "
         id="polyline144" />
      <polyline
         fill="none"
         vector-effect="none"
         points="2404.25,2364.86 2404.25,2438.68 "
         id="polyline145" />
      <polyline
         fill="none"
         vector-effect="none"
         points="2404.25,2453.44 2404.25,2468.21 "
         id="polyline146" />
      <polyline
         fill="none"
         vector-effect="none"
         points="2404.25,2482.97 2404.25,2556.79 "
         id="polyline147" />
      <polyline
         fill="none"
         vector-effect="none"
         points="2404.25,2571.56 2404.25,2586.32 "
         id="polyline148" />
      <polyline
         fill="none"
         vector-effect="none"
         points="2404.25,2601.09 2404.25,2674.91 "
         id="polyline149" />
      <polyline
         fill="none"
         vector-effect="none"
         points="2404.25,2689.67 2404.25,2704.44 "
         id="polyline150" />
      <polyline
         fill="none"
         vector-effect="none"
         points="2404.25,2719.2 2404.25,2793.02 "
         id="polyline151" />
      <polyline
         fill="none"
         vector-effect="none"
         points="2404.25,2807.79 2404.25,2822.55 "
         id="polyline152" />
      <polyline
         fill="none"
         vector-effect="none"
         points="2404.25,2837.31 2404.25,2911.14 "
         id="polyline153" />
      <polyline
         fill="none"
         vector-effect="none"
         points="2404.25,2925.9 2404.25,2940.66 "
         id="polyline154" />
      <polyline
         fill="none"
         vector-effect="none"
         points="2404.25,2955.43 2404.25,3029.25 "
         id="polyline155" />
      <polyline
         fill="none"
         vector-effect="none"
         points="2404.25,3044.01 2404.25,3058.78 "
         id="polyline156" />
      <polyline
         fill="none"
         vector-effect="none"
         points="2404.25,3073.54 2404.25,3148.1 "
         id="polyline157" />
    </g>
    <g
       fill="#000000"
       fill-opacity="1"
       stroke="#000000"
       stroke-opacity="1"
       stroke-width="5"
       stroke-linecap="round"
       stroke-linejoin="bevel"
       font-family="Arial"
       font-size="12px"
       font-weight="400"
       font-style="normal"
       id="g162"
       style="fill-rule:evenodd"
       transform="translate(3.505849)">
      <polyline
         fill="none"
         vector-effect="none"
         points="2606.44,1285.28 2592.67,1265.84 2578.45,1246.73 2563.8,1227.96 2548.7,1209.54 2533.19,1191.47 2517.26,1173.76 2500.91,1156.43 2484.17,1139.49 2467.04,1122.94 2449.53,1106.8 2431.65,1091.06 2413.41,1075.75 2394.81,1060.87 2375.88,1046.42 2356.61,1032.42 2337.02,1018.87 2317.12,1005.78 2296.93,993.154 2276.44,981.005 "
         id="polyline158" />
      <polyline
         fill="none"
         vector-effect="none"
         points="3043.57,2014.48 3043.12,1977.11 3041.75,1939.77 3039.48,1902.48 3036.3,1865.25 3032.21,1828.11 3027.22,1791.07 3021.33,1754.18 3014.54,1717.43 3006.86,1680.86 2998.3,1644.49 2988.85,1608.34 2978.52,1572.43 2967.32,1536.78 2955.25,1501.42 2942.33,1466.36 2928.56,1431.62 2913.94,1397.23 2898.5,1363.21 2882.23,1329.57 2865.14,1296.34 2847.25,1263.54 2828.57,1231.18 2809.1,1199.28 2788.87,1167.87 2767.87,1136.96 2746.13,1106.57 2723.66,1076.72 2700.46,1047.43 2676.56,1018.71 2651.96,990.575 2626.69,963.052 2600.76,936.152 2574.18,909.892 2546.96,884.287 2519.13,859.352 2490.7,835.102 2461.69,811.552 2432.12,788.715 2402,766.605 2371.35,745.235 2340.18,724.617 2308.53,704.765 2276.4,685.69 "
         id="polyline159" />
      <polyline
         fill="none"
         vector-effect="none"
         points="1764.95,1276.26 1765.25,1301.17 1766.16,1326.06 1767.68,1350.93 1769.8,1375.75 1772.52,1400.51 1775.85,1425.2 1779.77,1449.8 1784.3,1474.29 1789.42,1498.67 1795.13,1522.92 1801.43,1547.02 1808.32,1570.96 1815.78,1594.72 1823.83,1618.3 1832.44,1641.67 1841.62,1664.83 1851.37,1687.76 1861.66,1710.44 1872.51,1732.86 1883.9,1755.02 1895.83,1776.89 1908.28,1798.46 1921.26,1819.72 1934.75,1840.67 1948.75,1861.27 1963.24,1881.53 1978.22,1901.43 1993.69,1920.96 2009.62,1940.11 2026.02,1958.86 2042.87,1977.21 2060.16,1995.15 2077.88,2012.65 2096.02,2029.72 2114.57,2046.35 2133.53,2062.51 2152.87,2078.21 2172.58,2093.44 2192.66,2108.18 2213.1,2122.42 2233.87,2136.17 2254.98,2149.4 2276.4,2162.12 "
         id="polyline160" />
      <polyline
         fill="none"
         vector-effect="none"
         points="3054.33,537.957 3019.7,611.875 "
         id="polyline161" />
      <polyline
         fill="none"
         vector-effect="none"
         points="2276.4,980.976 2267.08,975.792 2257.61,970.901 2248,966.309 2238.24,962.02 2228.35,958.037 2218.35,954.366 2208.23,951.009 2198.02,947.97 2187.71,945.252 2177.33,942.857 2166.87,940.788 2156.36,939.047 2145.79,937.635 2135.19,936.554 2124.56,935.805 2113.91,935.388 2103.25,935.305 2092.59,935.555 2081.95,936.138 2071.33,937.053 2060.75,938.299 2050.21,939.876 2039.72,941.782 2029.3,944.014 2018.95,946.571 2008.69,949.45 1998.52,952.648 1988.46,956.162 1978.51,959.99 1968.69,964.126 1959,968.567 1949.46,973.309 1940.07,978.347 1930.84,983.676 1921.78,989.291 1912.9,995.187 1904.21,1001.36 1895.71,1007.8 1887.43,1014.5 1879.35,1021.45 1871.5,1028.66 1863.87,1036.11 1856.49,1043.79 1849.34,1051.7 1842.45,1059.83 1835.81,1068.17 1829.44,1076.71 1823.34,1085.45 1817.51,1094.37 1811.97,1103.48 1806.71,1112.75 1801.75,1122.18 1797.08,1131.76 1792.71,1141.48 1788.66,1151.34 1784.91,1161.32 1781.47,1171.4 1778.35,1181.6 1775.55,1191.88 1773.08,1202.25 1770.93,1212.69 1769.1,1223.19 1767.61,1233.74 1766.44,1244.33 1765.61,1254.96 1765.11,1265.61 1764.95,1276.26 "
         id="polyline162" />
    </g>
    <g
       fill="#000000"
       fill-opacity="1"
       stroke="#000000"
       stroke-opacity="1"
       stroke-width="2"
       stroke-linecap="round"
       stroke-linejoin="bevel"
       font-family="Arial"
       font-size="12px"
       font-weight="400"
       font-style="normal"
       id="g173"
       style="fill-rule:evenodd"
       transform="matrix(0.61419966,0,0,0.61419966,635.47767,407.328)">
      <polyline
         fill="none"
         vector-effect="none"
         points="1637.08,1054.8 1601.05,1034 "
         id="polyline163" />
      <polyline
         fill="none"
         vector-effect="none"
         points="1588.26,1026.62 1575.48,1019.24 "
         id="polyline164" />
      <polyline
         fill="none"
         vector-effect="none"
         points="1562.69,1011.86 1498.76,974.945 "
         id="polyline165" />
      <polyline
         fill="none"
         vector-effect="none"
         points="1485.97,967.563 1473.19,960.181 "
         id="polyline166" />
      <polyline
         fill="none"
         vector-effect="none"
         points="1460.4,952.799 1396.47,915.888 "
         id="polyline167" />
      <polyline
         fill="none"
         vector-effect="none"
         points="1383.68,908.506 1370.9,901.124 "
         id="polyline168" />
      <polyline
         fill="none"
         vector-effect="none"
         points="1358.11,893.742 1294.18,856.831 "
         id="polyline169" />
      <polyline
         fill="none"
         vector-effect="none"
         points="1281.39,849.449 1268.61,842.067 "
         id="polyline170" />
      <polyline
         fill="none"
         vector-effect="none"
         points="1255.82,834.685 1191.89,797.774 "
         id="polyline171" />
      <polyline
         fill="none"
         vector-effect="none"
         points="1179.1,790.392 1166.32,783.01 "
         id="polyline172" />
      <polyline
         fill="none"
         vector-effect="none"
         points="1153.53,775.627 1117.5,754.825 "
         id="polyline173" />
    </g>
    <polyline
       fill="none"
       vector-effect="none"
       points="2276.4,685.69 2265,679.303 2253.45,673.21 2241.74,667.414 2229.89,661.918 2217.9,656.727 2205.79,651.844 2193.55,647.272 2181.2,643.014 2168.75,639.073 2156.2,635.451 2143.56,632.15 2130.84,629.174 2118.05,626.523 2105.19,624.2 2092.28,622.206 2079.33,620.543 2066.33,619.21 2053.31,618.21 2040.26,617.543 2027.2,617.21 2014.14,617.21 2001.08,617.543 1988.04,618.21 1975.01,619.21 1962.02,620.543 1949.06,622.206 1936.15,624.2 1923.3,626.523 1910.5,629.174 1897.79,632.15 1885.15,635.451 1872.6,639.073 1860.14,643.014 1847.79,647.272 1835.56,651.844 1823.44,656.727 1811.45,661.918 1799.6,667.414 1787.9,673.21 1776.34,679.303 1764.95,685.69 1753.72,692.365 1742.66,699.325 1731.79,706.565 1721.11,714.08 1710.62,721.866 1700.33,729.917 1690.25,738.228 1680.39,746.794 1670.75,755.609 1661.34,764.667 1652.16,773.962 1643.22,783.489 1634.53,793.241 1626.09,803.212 1617.91,813.395 1609.99,823.784 1602.34,834.372 1594.96,845.151 1587.86,856.116 1581.04,867.258 1574.51,878.571 1568.27,890.047 1562.33,901.678 1556.68,913.458 1551.34,925.377 1546.3,937.43 1541.57,949.607 1537.16,961.901 1533.06,974.304 1529.27,986.807 1525.81,999.403 1522.67,1012.08 1519.86,1024.84 1517.37,1037.66 1515.21,1050.55 1513.39,1063.48 1511.89,1076.46 1510.72,1089.47 1509.89,1102.5 1509.39,1115.56 1509.22,1128.62 "
       id="polyline174"
       transform="translate(3.505849)"
       style="font-style:normal;font-weight:400;font-size:12px;font-family:Arial;fill-opacity:1;fill-rule:evenodd;stroke:#000000;stroke-width:5;stroke-linecap:round;stroke-linejoin:bevel;stroke-opacity:1" />
    <polyline
       fill="none"
       vector-effect="none"
       points="2539.68,542.447 2528.49,535.918 2517.13,529.675 2505.62,523.722 2493.96,518.062 2482.16,512.7 2470.23,507.638 2458.17,502.88 2446,498.429 2433.72,494.288 2421.34,490.459 2408.86,486.945 2396.3,483.749 2383.66,480.872 2370.96,478.316 2358.19,476.082 2345.37,474.173 2332.51,472.589 2319.61,471.332 2306.68,470.402 2293.73,469.8 2280.78,469.526 2267.82,469.58 2254.86,469.963 2241.92,470.673 2229,471.712 2216.11,473.077 2203.26,474.769 2190.46,476.785 2177.71,479.126 2165.03,481.788 2152.42,484.771 2139.88,488.073 2127.44,491.691 2115.09,495.623 2102.84,499.867 2090.71,504.42 2078.69,509.279 2066.8,514.44 2055.05,519.901 2043.44,525.659 2031.98,531.708 2020.67,538.046 "
       id="polyline175"
       transform="translate(3.505849)"
       style="font-style:normal;font-weight:400;font-size:12px;font-family:Arial;fill-opacity:1;fill-rule:evenodd;stroke:#000000;stroke-width:5;stroke-linecap:round;stroke-linejoin:bevel;stroke-opacity:1" />
    <polyline
       fill="none"
       vector-effect="none"
       points="1764.94,685.69 2020.69,538.035 "
       id="polyline176"
       transform="translate(3.505849)"
       style="font-style:normal;font-weight:400;font-size:12px;font-family:Arial;fill-opacity:1;fill-rule:evenodd;stroke:#000000;stroke-width:5;stroke-linecap:round;stroke-linejoin:bevel;stroke-opacity:1" />
    <polyline
       fill="none"
       vector-effect="none"
       points="2466.42,1243.18 2593.93,1169.56 "
       id="polyline177"
       transform="translate(3.505849)"
       style="font-style:normal;font-weight:400;font-size:12px;font-family:Arial;fill-opacity:1;fill-rule:evenodd;stroke:#000000;stroke-width:5;stroke-linecap:round;stroke-linejoin:bevel;stroke-opacity:1" />
    <polyline
       fill="none"
       vector-effect="none"
       points="2606.67,1287.43 2466.42,1243.18 "
       id="polyline178"
       transform="translate(3.505849)"
       style="font-style:normal;font-weight:400;font-size:12px;font-family:Arial;fill-opacity:1;fill-rule:evenodd;stroke:#000000;stroke-width:5;stroke-linecap:round;stroke-linejoin:bevel;stroke-opacity:1" />
    <polyline
       fill="none"
       vector-effect="none"
       points="2593.93,1169.56 2606.67,1287.43 "
       id="polyline179"
       transform="translate(3.505849)"
       style="font-style:normal;font-weight:400;font-size:12px;font-family:Arial;fill-opacity:1;fill-rule:evenodd;stroke:#000000;stroke-width:5;stroke-linecap:round;stroke-linejoin:bevel;stroke-opacity:1" />
    <g
       id="g221"
       style="fill:#00ffff;fill-opacity:1"
       transform="translate(-99.242494,38.83402)">
      <polyline
         fill="none"
         vector-effect="none"
         points="3480.66,810.475 3639.23,902.025 "
         id="polyline180"
         transform="translate(3.505849)"
         style="font-style:normal;font-weight:400;font-size:12px;font-family:Arial;fill:#00ffff;fill-opacity:1;fill-rule:evenodd;stroke:#000000;stroke-width:5;stroke-linecap:round;stroke-linejoin:bevel;stroke-opacity:1" />
      <polyline
         fill="none"
         vector-effect="none"
         points="3639.23,784.718 3480.66,810.475 "
         id="polyline181"
         transform="translate(3.505849)"
         style="font-style:normal;font-weight:400;font-size:12px;font-family:Arial;fill:#00ffff;fill-opacity:1;fill-rule:evenodd;stroke:#000000;stroke-width:5;stroke-linecap:round;stroke-linejoin:bevel;stroke-opacity:1" />
      <polyline
         fill="none"
         vector-effect="none"
         points="3639.23,902.025 3639.23,784.718 "
         id="polyline182"
         transform="translate(3.505849)"
         style="font-style:normal;font-weight:400;font-size:12px;font-family:Arial;fill:#00ffff;fill-opacity:1;fill-rule:evenodd;stroke:#000000;stroke-width:5;stroke-linecap:round;stroke-linejoin:bevel;stroke-opacity:1" />
    </g>
    <polyline
       fill="none"
       vector-effect="none"
       points="3634.08,2099.24 3488.69,2183.18 "
       id="polyline183"
       transform="translate(3.505849)"
       style="font-style:normal;font-weight:400;font-size:12px;font-family:Arial;fill-opacity:1;fill-rule:evenodd;stroke:#000000;stroke-width:5;stroke-linecap:round;stroke-linejoin:bevel;stroke-opacity:1" />
    <polyline
       fill="none"
       vector-effect="none"
       points="3019.7,611.875 3123.86,611.875 "
       id="polyline184"
       transform="translate(3.505849)"
       style="font-style:normal;font-weight:400;font-size:12px;font-family:Arial;fill-opacity:1;fill-rule:evenodd;stroke:#000000;stroke-width:5;stroke-linecap:round;stroke-linejoin:bevel;stroke-opacity:1" />
    <polyline
       fill="none"
       vector-effect="none"
       points="3123.86,611.875 3054.33,537.957 "
       id="polyline185"
       transform="translate(3.505849)"
       style="font-style:normal;font-weight:400;font-size:12px;font-family:Arial;fill-opacity:1;fill-rule:evenodd;stroke:#000000;stroke-width:5;stroke-linecap:round;stroke-linejoin:bevel;stroke-opacity:1" />
    <polyline
       fill="none"
       vector-effect="none"
       points="2410.16,238.06 2410,236.698 2409.53,235.41 2408.78,234.264 2407.78,233.323 2406.59,232.638 2405.28,232.244 2403.91,232.165 2402.56,232.403 2401.3,232.946 2400.2,233.765 2399.32,234.815 2398.71,236.04 2398.39,237.375 2398.39,238.746 2398.71,240.08 2399.32,241.306 2400.2,242.356 2401.3,243.175 2402.56,243.718 2403.91,243.956 2405.28,243.876 2406.59,243.483 2407.78,242.797 2408.78,241.856 2409.53,240.711 2410,239.422 2410.16,238.06 "
       id="polyline187"
       transform="translate(3.505849)"
       style="font-style:normal;font-weight:400;font-size:12px;font-family:Arial;fill-opacity:1;fill-rule:evenodd;stroke:#000000;stroke-width:5;stroke-linecap:round;stroke-linejoin:bevel;stroke-opacity:1" />
    <polyline
       fill="none"
       vector-effect="none"
       points="3645.14,784.718 3644.98,783.356 3644.51,782.067 3643.76,780.921 3642.76,779.98 3641.57,779.295 3640.26,778.902 3638.89,778.822 3637.54,779.06 3636.28,779.603 3635.18,780.422 3634.3,781.472 3633.68,782.698 3633.37,784.032 3633.37,785.403 3633.68,786.737 3634.3,787.963 3635.18,789.013 3636.28,789.832 3637.54,790.375 3638.89,790.613 3640.26,790.534 3641.57,790.14 3642.76,789.455 3643.76,788.514 3644.51,787.368 3644.98,786.079 3645.14,784.718 "
       id="polyline188"
       transform="translate(-95.736645,38.83402)"
       style="font-style:normal;font-weight:400;font-size:12px;font-family:Arial;fill-opacity:1;fill-rule:evenodd;stroke:#000000;stroke-width:5;stroke-linecap:round;stroke-linejoin:bevel;stroke-opacity:1" />
    <polyline
       fill="none"
       vector-effect="none"
       points="2410.16,238.06 2410,236.698 2409.53,235.41 2408.78,234.264 2407.78,233.323 2406.59,232.638 2405.28,232.244 2403.91,232.165 2402.56,232.403 2401.3,232.946 2400.2,233.765 2399.32,234.815 2398.71,236.04 2398.39,237.375 2398.39,238.746 2398.71,240.08 2399.32,241.306 2400.2,242.356 2401.3,243.175 2402.56,243.718 2403.91,243.956 2405.28,243.876 2406.59,243.483 2407.78,242.797 2408.78,241.856 2409.53,240.711 2410,239.422 2410.16,238.06 "
       id="polyline189"
       transform="translate(3.505849)"
       style="font-style:normal;font-weight:400;font-size:12px;font-family:Arial;fill-opacity:1;fill-rule:evenodd;stroke:#000000;stroke-width:5;stroke-linecap:round;stroke-linejoin:bevel;stroke-opacity:1" />
    <polyline
       fill="none"
       vector-effect="none"
       points="3645.14,784.718 3644.98,783.356 3644.51,782.067 3643.76,780.921 3642.76,779.98 3641.57,779.295 3640.26,778.902 3638.89,778.822 3637.54,779.06 3636.28,779.603 3635.18,780.422 3634.3,781.472 3633.68,782.698 3633.37,784.032 3633.37,785.403 3633.68,786.737 3634.3,787.963 3635.18,789.013 3636.28,789.832 3637.54,790.375 3638.89,790.613 3640.26,790.534 3641.57,790.14 3642.76,789.455 3643.76,788.514 3644.51,787.368 3644.98,786.079 3645.14,784.718 "
       id="polyline190"
       transform="translate(-95.736645,38.83402)"
       style="font-style:normal;font-weight:400;font-size:12px;font-family:Arial;fill-opacity:1;fill-rule:evenodd;stroke:#000000;stroke-width:5;stroke-linecap:round;stroke-linejoin:bevel;stroke-opacity:1" />
    <polyline
       fill="none"
       vector-effect="none"
       points="2364.22,411.511 2364.07,410.149 2363.6,408.861 2362.84,407.715 2361.85,406.774 2360.66,406.089 2359.34,405.695 2357.98,405.616 2356.63,405.854 2355.37,406.397 2354.27,407.216 2353.38,408.266 2352.77,409.492 2352.45,410.826 2352.45,412.197 2352.77,413.531 2353.38,414.757 2354.27,415.807 2355.37,416.626 2356.63,417.169 2357.98,417.407 2359.34,417.327 2360.66,416.934 2361.85,416.249 2362.84,415.308 2363.6,414.162 2364.07,412.873 2364.22,411.511 "
       id="polyline191"
       transform="translate(3.505849)"
       style="font-style:normal;font-weight:400;font-size:12px;font-family:Arial;fill-opacity:1;fill-rule:evenodd;stroke:#000000;stroke-width:5;stroke-linecap:round;stroke-linejoin:bevel;stroke-opacity:1" />
    <polyline
       fill="none"
       vector-effect="none"
       points="2612.58,1287.43 2612.42,1286.06 2611.95,1284.78 2611.2,1283.63 2610.2,1282.69 2609.01,1282 2607.7,1281.61 2606.33,1281.53 2604.98,1281.77 2603.72,1282.31 2602.62,1283.13 2601.74,1284.18 2601.12,1285.41 2600.81,1286.74 2600.81,1288.11 2601.12,1289.45 2601.74,1290.67 2602.62,1291.72 2603.72,1292.54 2604.98,1293.08 2606.33,1293.32 2607.7,1293.24 2609.01,1292.85 2610.2,1292.16 2611.2,1291.22 2611.95,1290.08 2612.42,1288.79 2612.58,1287.43 "
       id="polyline192"
       transform="translate(3.505849)"
       style="font-style:normal;font-weight:400;font-size:12px;font-family:Arial;fill-opacity:1;fill-rule:evenodd;stroke:#000000;stroke-width:5;stroke-linecap:round;stroke-linejoin:bevel;stroke-opacity:1" />
    <polyline
       fill="none"
       vector-effect="none"
       points="3639.98,2099.24 3639.82,2097.88 3639.35,2096.59 3638.6,2095.44 3637.6,2094.5 3636.41,2093.81 3635.1,2093.42 3633.73,2093.34 3632.38,2093.58 3631.12,2094.12 3630.02,2094.94 3629.14,2095.99 3628.53,2097.22 3628.21,2098.55 3628.21,2099.92 3628.53,2101.26 3629.14,2102.48 3630.02,2103.53 3631.12,2104.35 3632.38,2104.9 3633.73,2105.13 3635.1,2105.05 3636.41,2104.66 3637.6,2103.97 3638.6,2103.03 3639.35,2101.89 3639.82,2100.6 3639.98,2099.24 "
       id="polyline193"
       transform="translate(3.505849)"
       style="font-style:normal;font-weight:400;font-size:12px;font-family:Arial;fill-opacity:1;fill-rule:evenodd;stroke:#000000;stroke-width:5;stroke-linecap:round;stroke-linejoin:bevel;stroke-opacity:1" />
    <polyline
       fill="none"
       vector-effect="none"
       points="2456.1,411.511 2455.94,410.149 2455.47,408.861 2454.71,407.715 2453.72,406.774 2452.53,406.089 2451.22,405.695 2449.85,405.616 2448.5,405.854 2447.24,406.397 2446.14,407.216 2445.26,408.266 2444.64,409.492 2444.33,410.826 2444.33,412.197 2444.64,413.531 2445.26,414.757 2446.14,415.807 2447.24,416.626 2448.5,417.169 2449.85,417.407 2451.22,417.327 2452.53,416.934 2453.72,416.249 2454.71,415.308 2455.47,414.162 2455.94,412.873 2456.1,411.511 "
       id="polyline194"
       transform="translate(3.505849)"
       style="font-style:normal;font-weight:400;font-size:12px;font-family:Arial;fill-opacity:1;fill-rule:evenodd;stroke:#000000;stroke-width:5;stroke-linecap:round;stroke-linejoin:bevel;stroke-opacity:1" />
    <polyline
       fill="none"
       vector-effect="none"
       points="2612.58,1287.43 2612.42,1286.06 2611.95,1284.78 2611.2,1283.63 2610.2,1282.69 2609.01,1282 2607.7,1281.61 2606.33,1281.53 2604.98,1281.77 2603.72,1282.31 2602.62,1283.13 2601.74,1284.18 2601.12,1285.41 2600.81,1286.74 2600.81,1288.11 2601.12,1289.45 2601.74,1290.67 2602.62,1291.72 2603.72,1292.54 2604.98,1293.08 2606.33,1293.32 2607.7,1293.24 2609.01,1292.85 2610.2,1292.16 2611.2,1291.22 2611.95,1290.08 2612.42,1288.79 2612.58,1287.43 "
       id="polyline195"
       transform="translate(3.505849)"
       style="font-style:normal;font-weight:400;font-size:12px;font-family:Arial;fill-opacity:1;fill-rule:evenodd;stroke:#000000;stroke-width:5;stroke-linecap:round;stroke-linejoin:bevel;stroke-opacity:1" />
    <polyline
       fill="none"
       vector-effect="none"
       points="3639.98,2099.24 3639.82,2097.88 3639.35,2096.59 3638.6,2095.44 3637.6,2094.5 3636.41,2093.81 3635.1,2093.42 3633.73,2093.34 3632.38,2093.58 3631.12,2094.12 3630.02,2094.94 3629.14,2095.99 3628.53,2097.22 3628.21,2098.55 3628.21,2099.92 3628.53,2101.26 3629.14,2102.48 3630.02,2103.53 3631.12,2104.35 3632.38,2104.9 3633.73,2105.13 3635.1,2105.05 3636.41,2104.66 3637.6,2103.97 3638.6,2103.03 3639.35,2101.89 3639.82,2100.6 3639.98,2099.24 "
       id="polyline196"
       transform="translate(3.505849)"
       style="font-style:normal;font-weight:400;font-size:12px;font-family:Arial;fill-opacity:1;fill-rule:evenodd;stroke:#000000;stroke-width:5;stroke-linecap:round;stroke-linejoin:bevel;stroke-opacity:1" />
    <polyline
       fill="none"
       vector-effect="none"
       points="2599.84,1169.56 2599.68,1168.2 2599.21,1166.91 2598.46,1165.76 2597.46,1164.82 2596.27,1164.14 2594.96,1163.74 2593.59,1163.66 2592.24,1163.9 2590.98,1164.45 2589.88,1165.26 2589,1166.31 2588.38,1167.54 2588.07,1168.87 2588.07,1170.25 2588.38,1171.58 2589,1172.81 2589.88,1173.86 2590.98,1174.67 2592.24,1175.22 2593.59,1175.46 2594.96,1175.38 2596.27,1174.98 2597.46,1174.3 2598.46,1173.36 2599.21,1172.21 2599.68,1170.92 2599.84,1169.56 "
       id="polyline197"
       transform="translate(3.505849)"
       style="font-style:normal;font-weight:400;font-size:12px;font-family:Arial;fill-opacity:1;fill-rule:evenodd;stroke:#000000;stroke-width:5;stroke-linecap:round;stroke-linejoin:bevel;stroke-opacity:1" />
    <polyline
       fill="none"
       vector-effect="none"
       points="3645.14,902.025 3644.98,900.663 3644.51,899.375 3643.76,898.229 3642.76,897.288 3641.57,896.603 3640.26,896.209 3638.89,896.13 3637.54,896.368 3636.28,896.911 3635.18,897.73 3634.3,898.78 3633.68,900.006 3633.37,901.34 3633.37,902.711 3633.68,904.045 3634.3,905.271 3635.18,906.321 3636.28,907.14 3637.54,907.683 3638.89,907.921 3640.26,907.841 3641.57,907.448 3642.76,906.763 3643.76,905.822 3644.51,904.676 3644.98,903.387 3645.14,902.025 "
       id="polyline199"
       transform="translate(-95.736645,38.83402)"
       style="font-style:normal;font-weight:400;font-size:12px;font-family:Arial;fill-opacity:1;fill-rule:evenodd;stroke:#000000;stroke-width:5;stroke-linecap:round;stroke-linejoin:bevel;stroke-opacity:1" />
    <polyline
       fill="none"
       vector-effect="none"
       points="3733.97,2262.03 3733.81,2260.67 3733.34,2259.38 3732.59,2258.23 3731.59,2257.29 3730.4,2256.61 3729.09,2256.21 3727.72,2256.13 3726.37,2256.37 3725.11,2256.91 3724.01,2257.73 3723.13,2258.78 3722.51,2260.01 3722.2,2261.34 3722.2,2262.71 3722.51,2264.05 3723.13,2265.27 3724.01,2266.32 3725.11,2267.14 3726.37,2267.69 3727.72,2267.92 3729.09,2267.84 3730.4,2267.45 3731.59,2266.77 3732.59,2265.82 3733.34,2264.68 3733.81,2263.39 3733.97,2262.03 "
       id="polyline200"
       transform="translate(3.505849)"
       style="font-style:normal;font-weight:400;font-size:12px;font-family:Arial;fill-opacity:1;fill-rule:evenodd;stroke:#000000;stroke-width:5;stroke-linecap:round;stroke-linejoin:bevel;stroke-opacity:1" />
    <polyline
       fill="none"
       vector-effect="none"
       points="3645.14,784.718 3644.98,783.356 3644.51,782.067 3643.76,780.921 3642.76,779.98 3641.57,779.295 3640.26,778.902 3638.89,778.822 3637.54,779.06 3636.28,779.603 3635.18,780.422 3634.3,781.472 3633.68,782.698 3633.37,784.032 3633.37,785.403 3633.68,786.737 3634.3,787.963 3635.18,789.013 3636.28,789.832 3637.54,790.375 3638.89,790.613 3640.26,790.534 3641.57,790.14 3642.76,789.455 3643.76,788.514 3644.51,787.368 3644.98,786.079 3645.14,784.718 "
       id="polyline201"
       transform="translate(-95.736645,38.83402)"
       style="font-style:normal;font-weight:400;font-size:12px;font-family:Arial;fill-opacity:1;fill-rule:evenodd;stroke:#000000;stroke-width:5;stroke-linecap:round;stroke-linejoin:bevel;stroke-opacity:1" />
    <polyline
       fill="none"
       vector-effect="none"
       points="3733.97,2262.03 3733.81,2260.67 3733.34,2259.38 3732.59,2258.23 3731.59,2257.29 3730.4,2256.61 3729.09,2256.21 3727.72,2256.13 3726.37,2256.37 3725.11,2256.91 3724.01,2257.73 3723.13,2258.78 3722.51,2260.01 3722.2,2261.34 3722.2,2262.71 3722.51,2264.05 3723.13,2265.27 3724.01,2266.32 3725.11,2267.14 3726.37,2267.69 3727.72,2267.92 3729.09,2267.84 3730.4,2267.45 3731.59,2266.77 3732.59,2265.82 3733.34,2264.68 3733.81,2263.39 3733.97,2262.03 "
       id="polyline202"
       transform="translate(3.505849)"
       style="font-style:normal;font-weight:400;font-size:12px;font-family:Arial;fill-opacity:1;fill-rule:evenodd;stroke:#000000;stroke-width:5;stroke-linecap:round;stroke-linejoin:bevel;stroke-opacity:1" />
    <polyline
       fill="none"
       vector-effect="none"
       points="2472.33,1243.18 2472.17,1241.82 2471.7,1240.53 2470.95,1239.38 2469.95,1238.44 2468.76,1237.75 2467.45,1237.36 2466.08,1237.28 2464.73,1237.52 2463.47,1238.06 2462.37,1238.88 2461.49,1239.93 2460.87,1241.16 2460.56,1242.49 2460.56,1243.86 2460.87,1245.2 2461.49,1246.42 2462.37,1247.47 2463.47,1248.29 2464.73,1248.83 2466.08,1249.07 2467.45,1248.99 2468.76,1248.6 2469.95,1247.91 2470.95,1246.97 2471.7,1245.83 2472.17,1244.54 2472.33,1243.18 "
       id="polyline203"
       transform="translate(3.505849)"
       style="font-style:normal;font-weight:400;font-size:12px;font-family:Arial;fill-opacity:1;fill-rule:evenodd;stroke:#000000;stroke-width:5;stroke-linecap:round;stroke-linejoin:bevel;stroke-opacity:1" />
    <polyline
       fill="none"
       vector-effect="none"
       points="3494.6,2183.18 3494.44,2181.81 3493.97,2180.53 3493.21,2179.38 3492.22,2178.44 3491.03,2177.75 3489.72,2177.36 3488.35,2177.28 3487,2177.52 3485.74,2178.06 3484.64,2178.88 3483.76,2179.93 3483.14,2181.16 3482.82,2182.49 3482.82,2183.86 3483.14,2185.2 3483.76,2186.42 3484.64,2187.47 3485.74,2188.29 3487,2188.83 3488.35,2189.07 3489.72,2188.99 3491.03,2188.6 3492.22,2187.91 3493.21,2186.97 3493.97,2185.83 3494.44,2184.54 3494.6,2183.18 "
       id="polyline204"
       transform="translate(3.505849)"
       style="font-style:normal;font-weight:400;font-size:12px;font-family:Arial;fill-opacity:1;fill-rule:evenodd;stroke:#000000;stroke-width:5;stroke-linecap:round;stroke-linejoin:bevel;stroke-opacity:1" />
    <polyline
       fill="none"
       vector-effect="none"
       points="3733.97,2262.03 3733.81,2260.67 3733.34,2259.38 3732.59,2258.23 3731.59,2257.29 3730.4,2256.61 3729.09,2256.21 3727.72,2256.13 3726.37,2256.37 3725.11,2256.91 3724.01,2257.73 3723.13,2258.78 3722.51,2260.01 3722.2,2261.34 3722.2,2262.71 3722.51,2264.05 3723.13,2265.27 3724.01,2266.32 3725.11,2267.14 3726.37,2267.69 3727.72,2267.92 3729.09,2267.84 3730.4,2267.45 3731.59,2266.77 3732.59,2265.82 3733.34,2264.68 3733.81,2263.39 3733.97,2262.03 "
       id="polyline205"
       transform="translate(3.505849)"
       style="font-style:normal;font-weight:400;font-size:12px;font-family:Arial;fill-opacity:1;fill-rule:evenodd;stroke:#000000;stroke-width:5;stroke-linecap:round;stroke-linejoin:bevel;stroke-opacity:1" />
    <polyline
       fill="none"
       vector-effect="none"
       points="2472.33,1243.18 2472.17,1241.82 2471.7,1240.53 2470.95,1239.38 2469.95,1238.44 2468.76,1237.75 2467.45,1237.36 2466.08,1237.28 2464.73,1237.52 2463.47,1238.06 2462.37,1238.88 2461.49,1239.93 2460.87,1241.16 2460.56,1242.49 2460.56,1243.86 2460.87,1245.2 2461.49,1246.42 2462.37,1247.47 2463.47,1248.29 2464.73,1248.83 2466.08,1249.07 2467.45,1248.99 2468.76,1248.6 2469.95,1247.91 2470.95,1246.97 2471.7,1245.83 2472.17,1244.54 2472.33,1243.18 "
       id="polyline206"
       transform="translate(3.505849)"
       style="font-style:normal;font-weight:400;font-size:12px;font-family:Arial;fill-opacity:1;fill-rule:evenodd;stroke:#000000;stroke-width:5;stroke-linecap:round;stroke-linejoin:bevel;stroke-opacity:1" />
    <polyline
       fill="none"
       vector-effect="none"
       points="2410.16,238.06 2410,236.698 2409.53,235.41 2408.78,234.264 2407.78,233.323 2406.59,232.638 2405.28,232.244 2403.91,232.165 2402.56,232.403 2401.3,232.946 2400.2,233.765 2399.32,234.815 2398.71,236.04 2398.39,237.375 2398.39,238.746 2398.71,240.08 2399.32,241.306 2400.2,242.356 2401.3,243.175 2402.56,243.718 2403.91,243.956 2405.28,243.876 2406.59,243.483 2407.78,242.797 2408.78,241.856 2409.53,240.711 2410,239.422 2410.16,238.06 "
       id="polyline207"
       transform="translate(3.505849)"
       style="font-style:normal;font-weight:400;font-size:12px;font-family:Arial;fill-opacity:1;fill-rule:evenodd;stroke:#000000;stroke-width:5;stroke-linecap:round;stroke-linejoin:bevel;stroke-opacity:1" />
    <polyline
       fill="none"
       vector-effect="none"
       points="3494.6,2183.18 3494.44,2181.81 3493.97,2180.53 3493.21,2179.38 3492.22,2178.44 3491.03,2177.75 3489.72,2177.36 3488.35,2177.28 3487,2177.52 3485.74,2178.06 3484.64,2178.88 3483.76,2179.93 3483.14,2181.16 3482.82,2182.49 3482.82,2183.86 3483.14,2185.2 3483.76,2186.42 3484.64,2187.47 3485.74,2188.29 3487,2188.83 3488.35,2189.07 3489.72,2188.99 3491.03,2188.6 3492.22,2187.91 3493.21,2186.97 3493.97,2185.83 3494.44,2184.54 3494.6,2183.18 "
       id="polyline208"
       transform="translate(3.505849)"
       style="font-style:normal;font-weight:400;font-size:12px;font-family:Arial;fill-opacity:1;fill-rule:evenodd;stroke:#000000;stroke-width:5;stroke-linecap:round;stroke-linejoin:bevel;stroke-opacity:1" />
    <polyline
       fill="none"
       vector-effect="none"
       points="3645.14,784.718 3644.98,783.356 3644.51,782.067 3643.76,780.921 3642.76,779.98 3641.57,779.295 3640.26,778.902 3638.89,778.822 3637.54,779.06 3636.28,779.603 3635.18,780.422 3634.3,781.472 3633.68,782.698 3633.37,784.032 3633.37,785.403 3633.68,786.737 3634.3,787.963 3635.18,789.013 3636.28,789.832 3637.54,790.375 3638.89,790.613 3640.26,790.534 3641.57,790.14 3642.76,789.455 3643.76,788.514 3644.51,787.368 3644.98,786.079 3645.14,784.718 "
       id="polyline209"
       transform="translate(-95.736645,38.83402)"
       style="font-style:normal;font-weight:400;font-size:12px;font-family:Arial;fill-opacity:1;fill-rule:evenodd;stroke:#000000;stroke-width:5;stroke-linecap:round;stroke-linejoin:bevel;stroke-opacity:1" />
    <polyline
       fill="none"
       vector-effect="none"
       points="2456.1,411.511 2455.94,410.149 2455.47,408.861 2454.71,407.715 2453.72,406.774 2452.53,406.089 2451.22,405.695 2449.85,405.616 2448.5,405.854 2447.24,406.397 2446.14,407.216 2445.26,408.266 2444.64,409.492 2444.33,410.826 2444.33,412.197 2444.64,413.531 2445.26,414.757 2446.14,415.807 2447.24,416.626 2448.5,417.169 2449.85,417.407 2451.22,417.327 2452.53,416.934 2453.72,416.249 2454.71,415.308 2455.47,414.162 2455.94,412.873 2456.1,411.511 "
       id="polyline210"
       transform="translate(3.505849)"
       style="font-style:normal;font-weight:400;font-size:12px;font-family:Arial;fill-opacity:1;fill-rule:evenodd;stroke:#000000;stroke-width:5;stroke-linecap:round;stroke-linejoin:bevel;stroke-opacity:1" />
    <polyline
       fill="none"
       vector-effect="none"
       points="2599.84,1169.56 2599.68,1168.2 2599.21,1166.91 2598.46,1165.76 2597.46,1164.82 2596.27,1164.14 2594.96,1163.74 2593.59,1163.66 2592.24,1163.9 2590.98,1164.45 2589.88,1165.26 2589,1166.31 2588.38,1167.54 2588.07,1168.87 2588.07,1170.25 2588.38,1171.58 2589,1172.81 2589.88,1173.86 2590.98,1174.67 2592.24,1175.22 2593.59,1175.46 2594.96,1175.38 2596.27,1174.98 2597.46,1174.3 2598.46,1173.36 2599.21,1172.21 2599.68,1170.92 2599.84,1169.56 "
       id="polyline211"
       transform="translate(3.505849)"
       style="font-style:normal;font-weight:400;font-size:12px;font-family:Arial;fill-opacity:1;fill-rule:evenodd;stroke:#000000;stroke-width:5;stroke-linecap:round;stroke-linejoin:bevel;stroke-opacity:1" />
    <polyline
       fill="none"
       vector-effect="none"
       points="2410.16,238.06 2410,236.698 2409.53,235.41 2408.78,234.264 2407.78,233.323 2406.59,232.638 2405.28,232.244 2403.91,232.165 2402.56,232.403 2401.3,232.946 2400.2,233.765 2399.32,234.815 2398.71,236.04 2398.39,237.375 2398.39,238.746 2398.71,240.08 2399.32,241.306 2400.2,242.356 2401.3,243.175 2402.56,243.718 2403.91,243.956 2405.28,243.876 2406.59,243.483 2407.78,242.797 2408.78,241.856 2409.53,240.711 2410,239.422 2410.16,238.06 "
       id="polyline213"
       transform="translate(3.505849)"
       style="font-style:normal;font-weight:400;font-size:12px;font-family:Arial;fill-opacity:1;fill-rule:evenodd;stroke:#000000;stroke-width:5;stroke-linecap:round;stroke-linejoin:bevel;stroke-opacity:1" />
    <polyline
       fill="none"
       vector-effect="none"
       points="3486.57,810.475 3486.41,809.113 3485.94,807.825 3485.19,806.679 3484.19,805.738 3483,805.052 3481.69,804.659 3480.32,804.579 3478.97,804.818 3477.71,805.361 3476.61,806.179 3475.73,807.23 3475.11,808.455 3474.8,809.79 3474.8,811.161 3475.11,812.495 3475.73,813.72 3476.61,814.771 3477.71,815.59 3478.97,816.133 3480.32,816.371 3481.69,816.291 3483,815.898 3484.19,815.212 3485.19,814.271 3485.94,813.126 3486.41,811.837 3486.57,810.475 "
       id="polyline215"
       transform="translate(-95.736645,38.83402)"
       style="font-style:normal;font-weight:400;font-size:12px;font-family:Arial;fill-opacity:1;fill-rule:evenodd;stroke:#000000;stroke-width:5;stroke-linecap:round;stroke-linejoin:bevel;stroke-opacity:1" />
    <polyline
       fill="none"
       vector-effect="none"
       points="2364.22,411.511 2364.07,410.149 2363.6,408.861 2362.84,407.715 2361.85,406.774 2360.66,406.089 2359.34,405.695 2357.98,405.616 2356.63,405.854 2355.37,406.397 2354.27,407.216 2353.38,408.266 2352.77,409.492 2352.45,410.826 2352.45,412.197 2352.77,413.531 2353.38,414.757 2354.27,415.807 2355.37,416.626 2356.63,417.169 2357.98,417.407 2359.34,417.327 2360.66,416.934 2361.85,416.249 2362.84,415.308 2363.6,414.162 2364.07,412.873 2364.22,411.511 "
       id="polyline216"
       transform="translate(3.505849)"
       style="font-style:normal;font-weight:400;font-size:12px;font-family:Arial;fill-opacity:1;fill-rule:evenodd;stroke:#000000;stroke-width:5;stroke-linecap:round;stroke-linejoin:bevel;stroke-opacity:1" />
    <polyline
       fill="none"
       vector-effect="none"
       points="3645.14,902.025 3644.98,900.663 3644.51,899.375 3643.76,898.229 3642.76,897.288 3641.57,896.603 3640.26,896.209 3638.89,896.13 3637.54,896.368 3636.28,896.911 3635.18,897.73 3634.3,898.78 3633.68,900.006 3633.37,901.34 3633.37,902.711 3633.68,904.045 3634.3,905.271 3635.18,906.321 3636.28,907.14 3637.54,907.683 3638.89,907.921 3640.26,907.841 3641.57,907.448 3642.76,906.763 3643.76,905.822 3644.51,904.676 3644.98,903.387 3645.14,902.025 "
       id="polyline217"
       transform="translate(-95.736645,38.83402)"
       style="font-style:normal;font-weight:400;font-size:12px;font-family:Arial;fill-opacity:1;fill-rule:evenodd;stroke:#000000;stroke-width:5;stroke-linecap:round;stroke-linejoin:bevel;stroke-opacity:1" />
    <polyline
       fill="none"
       vector-effect="none"
       points="3486.57,810.475 3486.41,809.113 3485.94,807.825 3485.19,806.679 3484.19,805.738 3483,805.052 3481.69,804.659 3480.32,804.579 3478.97,804.818 3477.71,805.361 3476.61,806.179 3475.73,807.23 3475.11,808.455 3474.8,809.79 3474.8,811.161 3475.11,812.495 3475.73,813.72 3476.61,814.771 3477.71,815.59 3478.97,816.133 3480.32,816.371 3481.69,816.291 3483,815.898 3484.19,815.212 3485.19,814.271 3485.94,813.126 3486.41,811.837 3486.57,810.475 "
       id="polyline218"
       transform="translate(-95.736645,38.83402)"
       style="font-style:normal;font-weight:400;font-size:12px;font-family:Arial;fill-opacity:1;fill-rule:evenodd;stroke:#000000;stroke-width:5;stroke-linecap:round;stroke-linejoin:bevel;stroke-opacity:1" />
    <text
       xml:space="preserve"
       style="font-style:normal;font-weight:normal;font-size:125px;line-height:1.25;font-family:sans-serif;fill:#000000;fill-opacity:1;stroke:none;stroke-width:3.125"
       x="3123.9812"
       y="522.09869"
       id="text220"><tspan
         sodipodi:role="line"
         id="tspan220"
         style="stroke-width:3.125"
         x="3123.9812"
         y="522.09869"></tspan></text>
    <text
       xml:space="preserve"
       style="font-style:normal;font-weight:normal;font-size:125px;line-height:1.25;font-family:sans-serif;fill:#000000;fill-opacity:1;stroke:none;stroke-width:3.125"
       x="3583.9292"
       y="834.73047"
       id="text220-0"><tspan
         sodipodi:role="line"
         id="tspan220-1"
         style="stroke-width:3.125"
         x="3583.9292"
         y="834.73047">x</tspan></text>
    <text
       xml:space="preserve"
       style="font-style:normal;font-weight:normal;font-size:125px;line-height:1.25;font-family:sans-serif;fill:#000000;fill-opacity:1;stroke:none;stroke-width:3.125"
       x="3753.8474"
       y="2202.4604"
       id="text220-0-1"><tspan
         sodipodi:role="line"
         id="tspan220-1-39"
         style="stroke-width:3.125"
         x="3753.8474"
         y="2202.4604">z</tspan></text>
    <text
       xml:space="preserve"
       style="font-style:normal;font-weight:normal;font-size:125px;line-height:1.25;font-family:sans-serif;fill:#000000;fill-opacity:1;stroke:none;stroke-width:3.125"
       x="2442.0476"
       y="238.1712"
       id="text220-0-8"><tspan
         sodipodi:role="line"
         id="tspan220-1-3"
         style="stroke-width:3.125"
         x="2442.0476"
         y="238.1712">y</tspan></text>
    <text
       xml:space="preserve"
       style="font-style:normal;font-weight:normal;font-size:47.9812px;line-height:1.25;font-family:sans-serif;fill:#000000;fill-opacity:1;stroke:none;stroke-width:1.19953"
       x="3224.7039"
       y="531.94904"
       id="text221"><tspan
         sodipodi:role="line"
         id="tspan221"
         style="stroke-width:1.19953"
         x="3224.7039"
         y="531.94904">y</tspan></text>
    <text
       xml:space="preserve"
       style="font-style:normal;font-weight:normal;font-size:125px;line-height:1.25;font-family:sans-serif;fill:#000000;fill-opacity:1;stroke:none;stroke-width:3.125"
       x="2468.1292"
       y="1358.9968"
       id="text220-5"><tspan
         sodipodi:role="line"
         id="tspan220-9"
         style="stroke-width:3.125"
         x="2468.1292"
         y="1358.9968"></tspan></text>
    <text
       xml:space="preserve"
       style="font-style:normal;font-weight:normal;font-size:47.9812px;line-height:1.25;font-family:sans-serif;fill:#000000;fill-opacity:1;stroke:none;stroke-width:1.19953"
       x="2568.8518"
       y="1368.8472"
       id="text221-8"><tspan
         sodipodi:role="line"
         id="tspan221-2"
         style="stroke-width:1.19953"
         x="2568.8518"
         y="1368.8472">x</tspan></text>
  </g>
</svg>
