<?xml version="1.0" encoding="UTF-8" standalone="no"?>
<svg
   width="64.415398mm"
   height="82.412537mm"
   viewBox="0 0 760.81097 973.37793"
   version="1.2"
   id="svg41"
   sodipodi:docname="manometer1.svg"
   inkscape:version="1.4.2 (ebf0e94, 2025-05-08)"
   xmlns:inkscape="http://www.inkscape.org/namespaces/inkscape"
   xmlns:sodipodi="http://sodipodi.sourceforge.net/DTD/sodipodi-0.dtd"
   xmlns="http://www.w3.org/2000/svg"
   xmlns:svg="http://www.w3.org/2000/svg">
  <sodipodi:namedview
     id="namedview41"
     pagecolor="#ffffff"
     bordercolor="#000000"
     borderopacity="0.25"
     inkscape:showpageshadow="2"
     inkscape:pageopacity="0.0"
     inkscape:pagecheckerboard="0"
     inkscape:deskcolor="#d1d1d1"
     inkscape:document-units="mm"
     showgrid="false"
     inkscape:zoom="1.0168867"
     inkscape:cx="276.82534"
     inkscape:cy="154.88452"
     inkscape:window-width="1920"
     inkscape:window-height="1009"
     inkscape:window-x="1912"
     inkscape:window-y="-8"
     inkscape:window-maximized="1"
     inkscape:current-layer="svg41" />
  <defs
     id="defs1" />
  <g
     fill="none"
     stroke="#000000"
     stroke-opacity="1"
     stroke-width="1"
     stroke-linecap="square"
     stroke-linejoin="bevel"
     font-family="Arial"
     font-size="12px"
     font-weight="400"
     font-style="normal"
     id="g2"
     transform="translate(-888.17797,-755.532)"
     style="fill-rule:evenodd" />
  <g
     fill="#000000"
     fill-opacity="1"
     stroke="#000000"
     stroke-opacity="1"
     stroke-width="1"
     stroke-linecap="butt"
     stroke-linejoin="miter"
     stroke-miterlimit="2"
     font-family="Arial"
     font-size="12px"
     font-weight="400"
     font-style="normal"
     id="g3"
     transform="translate(-888.17797,-755.532)"
     style="fill-rule:evenodd" />
  <g
     fill="#000000"
     fill-opacity="1"
     stroke="#000000"
     stroke-opacity="1"
     stroke-width="5"
     stroke-linecap="round"
     stroke-linejoin="bevel"
     font-family="Arial"
     font-size="12px"
     font-weight="400"
     font-style="normal"
     id="g14"
     transform="translate(-888.17797,-755.532)"
     style="fill-rule:evenodd">
    <polyline
       fill="none"
       vector-effect="none"
       points="890.677,758.032 890.677,1348.51 "
       id="polyline3" />
    <polyline
       fill="none"
       vector-effect="none"
       points="1646.49,1348.51 1646.49,758.032 "
       id="polyline4" />
    <polyline
       fill="none"
       vector-effect="none"
       points="1634.68,1348.51 1634.68,758.032 "
       id="polyline5" />
    <polyline
       fill="none"
       vector-effect="none"
       points="1646.49,758.032 1634.68,758.032 "
       id="polyline6" />
    <polyline
       fill="none"
       vector-effect="none"
       points="1268.58,1726.41 1279.78,1726.25 1290.97,1725.75 1302.14,1724.92 1313.28,1723.76 1324.38,1722.27 1335.43,1720.45 1346.42,1718.31 1357.35,1715.84 1368.19,1713.05 1378.95,1709.94 1389.61,1706.51 1400.17,1702.76 1410.61,1698.71 1420.92,1694.35 1431.11,1689.68 1441.14,1684.71 1451.03,1679.45 1460.76,1673.9 1470.32,1668.06 1479.7,1661.94 1488.89,1655.55 1497.89,1648.89 1506.7,1641.96 1515.29,1634.78 1523.66,1627.34 1531.81,1619.66 1539.73,1611.74 1547.41,1603.59 1554.85,1595.21 1562.03,1586.62 1568.96,1577.82 1575.62,1568.82 1582.02,1559.62 1588.14,1550.24 1593.97,1540.68 1599.53,1530.96 1604.79,1521.07 1609.75,1511.03 1614.42,1500.85 1618.78,1490.54 1622.84,1480.1 1626.58,1469.54 1630.01,1458.88 1633.12,1448.12 1635.91,1437.27 1638.38,1426.35 1640.53,1415.36 1642.35,1404.3 1643.83,1393.2 1644.99,1382.06 1645.82,1370.9 1646.32,1359.71 1646.49,1348.51 "
       id="polyline7" />
    <polyline
       fill="none"
       vector-effect="none"
       points="1268.58,1714.6 1279.64,1714.44 1290.69,1713.94 1301.71,1713.1 1312.71,1711.93 1323.67,1710.44 1334.57,1708.61 1345.42,1706.45 1356.19,1703.97 1366.89,1701.16 1377.5,1698.03 1388,1694.58 1398.4,1690.81 1408.68,1686.74 1418.83,1682.35 1428.85,1677.66 1438.72,1672.67 1448.43,1667.38 1457.98,1661.81 1467.35,1655.94 1476.55,1649.8 1485.55,1643.38 1494.36,1636.69 1502.96,1629.74 1511.35,1622.53 1519.51,1615.08 1527.45,1607.38 1535.15,1599.44 1542.61,1591.27 1549.82,1582.89 1556.77,1574.29 1563.45,1565.48 1569.87,1556.47 1576.02,1547.28 1581.88,1537.9 1587.46,1528.35 1592.74,1518.64 1597.73,1508.77 1602.42,1498.76 1606.81,1488.61 1610.89,1478.33 1614.65,1467.93 1618.1,1457.42 1621.23,1446.82 1624.04,1436.12 1626.52,1425.35 1628.68,1414.5 1630.51,1403.59 1632.01,1392.64 1633.18,1381.64 1634.01,1370.61 1634.51,1359.57 1634.68,1348.51 "
       id="polyline8" />
    <polyline
       fill="none"
       vector-effect="none"
       points="1575.63,758.032 1563.82,758.032 "
       id="polyline9" />
    <polyline
       fill="none"
       vector-effect="none"
       points="890.677,1348.51 890.843,1359.71 891.341,1370.9 892.17,1382.06 893.33,1393.2 894.819,1404.3 896.637,1415.36 898.781,1426.35 901.25,1437.27 904.042,1448.12 907.154,1458.88 910.583,1469.54 914.327,1480.1 918.382,1490.54 922.744,1500.85 927.411,1511.03 932.376,1521.07 937.638,1530.96 943.19,1540.68 949.027,1550.24 955.146,1559.62 961.539,1568.82 968.203,1577.82 975.13,1586.62 982.315,1595.21 989.751,1603.59 997.433,1611.74 1005.35,1619.66 1013.5,1627.34 1021.88,1634.78 1030.47,1641.96 1039.27,1648.89 1048.27,1655.55 1057.47,1661.94 1066.85,1668.06 1076.41,1673.9 1086.13,1679.45 1096.02,1684.71 1106.06,1689.68 1116.24,1694.35 1126.56,1698.71 1137,1702.76 1147.55,1706.51 1158.21,1709.94 1168.97,1713.05 1179.82,1715.84 1190.74,1718.31 1201.73,1720.45 1212.79,1722.27 1223.89,1723.76 1235.03,1724.92 1246.19,1725.75 1257.38,1726.25 1268.58,1726.41 "
       id="polyline10" />
    <polyline
       fill="none"
       vector-effect="none"
       points="902.487,1348.51 902.654,1359.57 903.155,1370.61 903.989,1381.64 905.156,1392.64 906.655,1403.59 908.484,1414.5 910.641,1425.35 913.125,1436.12 915.933,1446.82 919.063,1457.42 922.512,1467.93 926.277,1478.33 930.354,1488.61 934.74,1498.76 939.43,1508.77 944.421,1518.64 949.707,1528.35 955.285,1537.9 961.148,1547.28 967.292,1556.47 973.71,1565.48 980.398,1574.29 987.349,1582.89 994.556,1591.27 1002.01,1599.44 1009.71,1607.38 1017.65,1615.08 1025.82,1622.53 1034.2,1629.74 1042.8,1636.69 1051.61,1643.38 1060.62,1649.8 1069.81,1655.94 1079.19,1661.81 1088.74,1667.38 1098.45,1672.67 1108.32,1677.66 1118.33,1682.35 1128.48,1686.74 1138.76,1690.81 1149.16,1694.58 1159.67,1698.03 1170.27,1701.16 1180.97,1703.97 1191.75,1706.45 1202.59,1708.61 1213.5,1710.44 1224.45,1711.93 1235.45,1713.1 1246.48,1713.94 1257.52,1714.44 1268.58,1714.6 "
       id="polyline11" />
    <polyline
       fill="none"
       vector-effect="none"
       points="973.344,758.032 961.535,758.032 "
       id="polyline12" />
    <polyline
       fill="none"
       vector-effect="none"
       points="902.487,758.032 902.487,1348.51 "
       id="polyline13" />
    <polyline
       fill="none"
       vector-effect="none"
       points="902.487,758.032 890.677,758.032 "
       id="polyline14" />
  </g>
  <g
     fill="#000000"
     fill-opacity="1"
     stroke="#000000"
     stroke-opacity="1"
     stroke-width="2"
     stroke-linecap="round"
     stroke-linejoin="bevel"
     font-family="Arial"
     font-size="12px"
     font-weight="400"
     font-style="normal"
     id="g15"
     transform="translate(-888.17797,-755.532)"
     style="fill-rule:evenodd">
    <polyline
       fill="none"
       vector-effect="none"
       points="1575.63,1209.54 1576.27,1212.59 "
       id="polyline15" />
  </g>
  <g
     fill="#000000"
     fill-opacity="1"
     stroke="#000000"
     stroke-opacity="1"
     stroke-width="5"
     stroke-linecap="round"
     stroke-linejoin="bevel"
     font-family="Arial"
     font-size="12px"
     font-weight="400"
     font-style="normal"
     id="g16"
     transform="translate(-888.17797,-755.532)"
     style="fill-rule:evenodd">
    <polyline
       fill="none"
       vector-effect="none"
       points="973.344,1348.51 973.509,1358.37 974.003,1368.23 974.827,1378.06 975.978,1387.86 977.457,1397.62 979.26,1407.32 981.387,1416.95 983.834,1426.51 986.599,1435.98 989.68,1445.35 993.072,1454.62 996.771,1463.77 1000.77,1472.78 1005.08,1481.66 1009.67,1490.39 1014.56,1498.97 1019.73,1507.37 1025.18,1515.6 1030.89,1523.64 1036.88,1531.48 1043.12,1539.12 1049.62,1546.55 1056.36,1553.76 1063.33,1560.73 1070.54,1567.47 1077.97,1573.97 1085.61,1580.21 1093.45,1586.2 1101.49,1591.92 1109.72,1597.36 1118.12,1602.53 1126.7,1607.42 1135.43,1612.01 1144.31,1616.32 1153.32,1620.32 1162.47,1624.02 1171.74,1627.41 1181.11,1630.49 1190.58,1633.26 1200.14,1635.7 1209.77,1637.83 1219.48,1639.63 1229.23,1641.11 1239.03,1642.26 1248.86,1643.09 1258.72,1643.58 1268.58,1643.75 "
       id="polyline16" />
  </g>
  <g
     fill="#000000"
     fill-opacity="1"
     stroke="#000000"
     stroke-opacity="1"
     stroke-width="2"
     stroke-linecap="round"
     stroke-linejoin="bevel"
     font-family="Arial"
     font-size="12px"
     font-weight="400"
     font-style="normal"
     id="g17"
     transform="translate(-888.17797,-755.532)"
     style="fill-rule:evenodd">
    <polyline
       fill="none"
       vector-effect="none"
       points="1634.68,1209.54 1633.8,1212.53 "
       id="polyline17" />
  </g>
  <g
     fill="#000000"
     fill-opacity="1"
     stroke="#000000"
     stroke-opacity="1"
     stroke-width="5"
     stroke-linecap="round"
     stroke-linejoin="bevel"
     font-family="Arial"
     font-size="12px"
     font-weight="400"
     font-style="normal"
     id="g21"
     transform="translate(-888.17797,-755.532)"
     style="fill-rule:evenodd">
    <polyline
       fill="none"
       vector-effect="none"
       points="1563.82,1348.51 1563.82,758.032 "
       id="polyline18" />
    <polyline
       fill="none"
       vector-effect="none"
       points="973.344,758.032 973.344,1348.51 "
       id="polyline19" />
    <polyline
       fill="none"
       vector-effect="none"
       points="1575.63,1209.54 1575.78,1210.23 1575.92,1210.83 1576.07,1211.33 1576.22,1211.74 1576.61,1212.35 1577.15,1212.73 1577.93,1212.94 1578.44,1213.01 1579.03,1213.07 1579.72,1213.12 1580.5,1213.17 1581.37,1213.22 1582.33,1213.26 1584.49,1213.34 1586.92,1213.41 1589.6,1213.47 1592.47,1213.52 1595.51,1213.56 1598.66,1213.59 1605.17,1213.61 1611.67,1213.59 1614.81,1213.56 1617.83,1213.52 1620.69,1213.47 1623.34,1213.41 1625.75,1213.34 1627.88,1213.25 1628.82,1213.21 1629.68,1213.16 1630.44,1213.1 1631.11,1213.05 1631.69,1212.98 1632.18,1212.91 1632.95,1212.67 1633.51,1212.28 1633.93,1211.67 1634.29,1210.78 1634.48,1210.2 1634.68,1209.54 "
       id="polyline20" />
    <polyline
       fill="none"
       vector-effect="none"
       points="1268.58,1643.75 1278.45,1643.58 1288.3,1643.09 1298.13,1642.26 1307.93,1641.11 1317.69,1639.63 1327.39,1637.83 1337.02,1635.7 1346.58,1633.26 1356.05,1630.49 1365.43,1627.41 1374.69,1624.02 1383.84,1620.32 1392.86,1616.32 1401.74,1612.01 1410.47,1607.42 1419.04,1602.53 1427.44,1597.36 1435.67,1591.92 1443.71,1586.2 1451.56,1580.21 1459.2,1573.97 1466.62,1567.47 1473.83,1560.73 1480.81,1553.76 1487.55,1546.55 1494.04,1539.12 1500.28,1531.48 1506.27,1523.64 1511.99,1515.6 1517.44,1507.37 1522.61,1498.97 1527.49,1490.39 1532.09,1481.66 1536.39,1472.78 1540.39,1463.77 1544.09,1454.62 1547.48,1445.35 1550.56,1435.98 1553.33,1426.51 1555.78,1416.95 1557.9,1407.32 1559.71,1397.62 1561.19,1387.86 1562.34,1378.06 1563.16,1368.23 1563.66,1358.37 1563.82,1348.51 "
       id="polyline21" />
  </g>
  <g
     fill="#000000"
     fill-opacity="1"
     stroke="#000000"
     stroke-opacity="1"
     stroke-width="2"
     stroke-linecap="round"
     stroke-linejoin="bevel"
     font-family="Arial"
     font-size="12px"
     font-weight="400"
     font-style="normal"
     id="g22"
     transform="translate(-888.17797,-755.532)"
     style="fill-rule:evenodd">
    <polyline
       fill="none"
       vector-effect="none"
       points="902.487,838.633 903.186,841.676 "
       id="polyline22" />
  </g>
  <g
     fill="#000000"
     fill-opacity="1"
     stroke="#000000"
     stroke-opacity="1"
     stroke-width="5"
     stroke-linecap="round"
     stroke-linejoin="bevel"
     font-family="Arial"
     font-size="12px"
     font-weight="400"
     font-style="normal"
     id="g24"
     transform="translate(-888.17797,-755.532)"
     style="fill-rule:evenodd">
    <polyline
       fill="none"
       vector-effect="none"
       points="1575.63,1348.51 1575.63,758.032 "
       id="polyline23" />
    <polyline
       fill="none"
       vector-effect="none"
       points="961.535,758.032 961.535,1348.51 "
       id="polyline24" />
  </g>
  <g
     fill="#000000"
     fill-opacity="1"
     stroke="#000000"
     stroke-opacity="1"
     stroke-width="2"
     stroke-linecap="round"
     stroke-linejoin="bevel"
     font-family="Arial"
     font-size="12px"
     font-weight="400"
     font-style="normal"
     id="g25"
     transform="translate(-888.17797,-755.532)"
     style="fill-rule:evenodd">
    <polyline
       fill="none"
       vector-effect="none"
       points="961.535,838.633 960.663,841.631 "
       id="polyline25" />
  </g>
  <g
     fill="#000000"
     fill-opacity="1"
     stroke="#000000"
     stroke-opacity="1"
     stroke-width="5"
     stroke-linecap="round"
     stroke-linejoin="bevel"
     font-family="Arial"
     font-size="12px"
     font-weight="400"
     font-style="normal"
     id="g28"
     transform="translate(-888.17797,-755.532)"
     style="fill-rule:evenodd">
    <polyline
       fill="none"
       vector-effect="none"
       points="1268.58,1655.56 1278.63,1655.39 1288.66,1654.9 1298.68,1654.08 1308.66,1652.93 1318.6,1651.46 1328.48,1649.66 1338.31,1647.54 1348.05,1645.09 1357.71,1642.33 1367.28,1639.26 1376.74,1635.88 1386.08,1632.18 1395.3,1628.19 1404.39,1623.89 1413.32,1619.3 1422.11,1614.42 1430.72,1609.25 1439.17,1603.81 1447.43,1598.09 1455.5,1592.11 1463.37,1585.86 1471.03,1579.36 1478.48,1572.61 1485.7,1565.62 1492.69,1558.4 1499.43,1550.96 1505.93,1543.3 1512.18,1535.43 1518.16,1527.36 1523.88,1519.1 1529.33,1510.65 1534.49,1502.03 1539.37,1493.25 1543.96,1484.31 1548.26,1475.23 1552.26,1466.01 1555.95,1456.67 1559.33,1447.21 1562.41,1437.64 1565.17,1427.98 1567.61,1418.23 1569.73,1408.41 1571.53,1398.53 1573,1388.59 1574.15,1378.6 1574.97,1368.59 1575.47,1358.55 1575.63,1348.51 "
       id="polyline26" />
    <polyline
       fill="none"
       vector-effect="none"
       points="961.535,1348.51 961.699,1358.55 962.192,1368.59 963.013,1378.6 964.161,1388.59 965.636,1398.53 967.434,1408.41 969.556,1418.23 971.997,1427.98 974.756,1437.64 977.829,1447.21 981.214,1456.67 984.907,1466.01 988.904,1475.23 993.199,1484.31 997.79,1493.25 1002.67,1502.03 1007.84,1510.65 1013.28,1519.1 1019,1527.36 1024.98,1535.43 1031.23,1543.3 1037.73,1550.96 1044.48,1558.4 1051.47,1565.62 1058.69,1572.61 1066.13,1579.36 1073.79,1585.86 1081.66,1592.11 1089.73,1598.09 1098,1603.81 1106.44,1609.25 1115.06,1614.42 1123.84,1619.3 1132.78,1623.89 1141.86,1628.19 1151.08,1632.18 1160.42,1635.88 1169.88,1639.26 1179.45,1642.33 1189.11,1645.09 1198.86,1647.54 1208.68,1649.66 1218.57,1651.46 1228.5,1652.93 1238.49,1654.08 1248.5,1654.9 1258.54,1655.39 1268.58,1655.56 "
       id="polyline27" />
    <polyline
       fill="none"
       vector-effect="none"
       points="902.487,838.633 902.649,839.324 902.799,839.914 903.105,840.823 903.484,841.433 904.016,841.812 904.783,842.032 905.278,842.104 905.862,842.162 906.544,842.215 907.323,842.265 908.193,842.313 909.151,842.358 911.307,842.441 913.748,842.513 916.435,842.575 919.325,842.626 922.378,842.667 925.552,842.696 932.101,842.722 938.643,842.704 941.808,842.677 944.848,842.639 947.721,842.589 950.387,842.528 952.805,842.454 954.932,842.369 955.875,842.321 956.729,842.271 957.491,842.218 958.154,842.161 958.72,842.099 959.197,842.023 959.931,841.795 960.444,841.41 960.824,840.8 961.158,839.897 961.336,839.315 961.535,838.633 "
       id="polyline28" />
  </g>
  <g
     fill="#000000"
     fill-opacity="1"
     stroke="#000000"
     stroke-opacity="1"
     stroke-width="2"
     stroke-linecap="round"
     stroke-linejoin="bevel"
     font-family="Arial"
     font-size="12px"
     font-weight="400"
     font-style="normal"
     id="g31"
     transform="translate(-888.17797,-755.532)"
     style="fill-rule:evenodd">
    <polyline
       fill="none"
       vector-effect="none"
       points="968.915,838.633 1296.07,838.633 "
       id="polyline29" />
    <polyline
       fill="none"
       vector-effect="none"
       points="1568.25,1209.54 1266.54,1209.54 "
       id="polyline30" />
    <polyline
       fill="none"
       vector-effect="none"
       points="1281.3,868.157 1281.3,1180.01 "
       id="polyline31" />
  </g>
  <g
     fill="#000000"
     fill-opacity="1"
     stroke="#000000"
     stroke-opacity="1"
     stroke-width="3"
     stroke-linecap="round"
     stroke-linejoin="bevel"
     font-family="Arial"
     font-size="12px"
     font-weight="400"
     font-style="normal"
     id="g32"
     transform="translate(-888.17797,-755.532)"
     style="fill-rule:evenodd" />
  <g
     fill="#000000"
     fill-opacity="1"
     stroke="none"
     font-family="Arial"
     font-size="12px"
     font-weight="400"
     font-style="normal"
     id="g33"
     transform="translate(-888.17797,-755.532)"
     style="fill-rule:evenodd;stroke-width:1;stroke-linecap:square;stroke-linejoin:bevel">
    <path
       vector-effect="none"
       fill-rule="evenodd"
       d="m 1276.38,868.157 4.92,-29.524 4.92,29.524 h -9.84"
       id="path32" />
  </g>
  <g
     fill="#000000"
     fill-opacity="1"
     stroke="#000000"
     stroke-opacity="1"
     stroke-width="3"
     stroke-linecap="round"
     stroke-linejoin="bevel"
     font-family="Arial"
     font-size="12px"
     font-weight="400"
     font-style="normal"
     id="g34"
     transform="translate(-888.17797,-755.532)"
     style="fill-rule:evenodd" />
  <g
     fill="#000000"
     fill-opacity="1"
     stroke="none"
     font-family="Arial"
     font-size="12px"
     font-weight="400"
     font-style="normal"
     id="g35"
     transform="translate(-888.17797,-755.532)"
     style="fill-rule:evenodd;stroke-width:1;stroke-linecap:square;stroke-linejoin:bevel">
    <path
       vector-effect="none"
       fill-rule="evenodd"
       d="m 1286.22,1180.01 -4.92,29.53 -4.92,-29.53 h 9.84"
       id="path34" />
  </g>
  <g
     fill="#000000"
     fill-opacity="1"
     stroke="#000000"
     stroke-opacity="1"
     stroke-width="3"
     stroke-linecap="round"
     stroke-linejoin="bevel"
     font-family="Arial"
     font-size="12px"
     font-weight="400"
     font-style="normal"
     id="g36"
     transform="translate(-888.17797,-755.532)"
     style="fill-rule:evenodd" />
  <g
     fill="#000000"
     fill-opacity="1"
     stroke="#000000"
     stroke-opacity="1"
     stroke-width="1"
     stroke-linecap="round"
     stroke-linejoin="bevel"
     font-family="Arial"
     font-size="12px"
     font-weight="400"
     font-style="normal"
     id="g37"
     transform="translate(-888.17797,-755.532)"
     style="fill-rule:evenodd" />
  <g
     fill="#000000"
     fill-opacity="1"
     stroke="none"
     font-family="Arial"
     font-size="12px"
     font-weight="400"
     font-style="normal"
     id="g38"
     transform="translate(-888.17797,-755.532)"
     style="fill-rule:evenodd;stroke-width:1;stroke-linecap:square;stroke-linejoin:bevel">
    <path
       vector-effect="none"
       fill-rule="evenodd"
       d="m 1273.92,1015.78 v -5.01 h -20.13 l -2.75,0.18 -2.34,0.55 -1.95,0.88 -1.55,1.23 -1.18,1.61 -0.84,1.94 -0.51,2.29 -0.17,2.64 0.08,1.55 0.24,1.47 0.39,1.38 0.56,1.31 0.7,1.2 0.82,1.05 0.93,0.91 1.07,0.76 v 0.33 l -1.99,-0.21 -2.35,-0.07 h -12.84 v 5.07 h 43.81 v -5.07 h -15.96 l -2.8,-0.13 -2.35,-0.4 -1.96,-0.68 -1.54,-0.96 -1.13,-1.25 -0.81,-1.56 -0.5,-1.88 -0.17,-2.2 0.12,-1.67 0.35,-1.43 0.57,-1.18 0.81,-0.96 1.05,-0.74 1.29,-0.53 1.51,-0.32 1.76,-0.1 h 19.76"
       id="path37" />
  </g>
  <g
     fill="#000000"
     fill-opacity="1"
     stroke="#000000"
     stroke-opacity="1"
     stroke-width="1"
     stroke-linecap="round"
     stroke-linejoin="bevel"
     font-family="Arial"
     font-size="12px"
     font-weight="400"
     font-style="normal"
     id="g39"
     transform="translate(-888.17797,-755.532)"
     style="fill-rule:evenodd" />
  <g
     fill="none"
     stroke="#000000"
     stroke-opacity="1"
     stroke-width="1"
     stroke-linecap="square"
     stroke-linejoin="bevel"
     font-family="Arial"
     font-size="12px"
     font-weight="400"
     font-style="normal"
     id="g40"
     transform="translate(-888.17797,-755.532)"
     style="fill-rule:evenodd" />
  <path
     style="fill:#63dbce;fill-opacity:1;stroke:#ab6262;stroke-width:3.07795"
     d="M 320.84586,949.88508 C 176.63373,923.77023 64.012207,818.91794 28.977371,678.15119 18.523262,636.14762 16.901697,590.53574 16.874728,337.727 l -0.025,-246.617106 H 42.971174 69.092622 V 353.45827 c 0,280.91307 0.384313,289.09077 15.833181,336.90816 17.249587,53.39102 56.115657,109.39636 100.740257,145.16501 92.99755,74.54183 226.74595,88.91314 332.9668,35.77746 34.5338,-17.27512 57.91878,-34.54668 85.39017,-63.06701 27.18607,-28.22413 37.38865,-42.59981 54.68949,-77.05893 26.5896,-52.96002 34.14815,-98.83315 34.19521,-207.53279 l 0.025,-60.69391 h 24.58488 24.58488 v 78.14193 c 0,42.97807 -1.48303,88.80461 -3.29566,101.83682 -13.04968,93.82387 -66.79113,183.28666 -145.7502,242.62882 -24.95122,18.75225 -80.2134,45.74301 -112.51261,54.95255 -50.64861,14.44162 -111.85571,18.03228 -159.69816,9.3687 z"
     id="path41" />
</svg>
