<?xml version="1.0" encoding="UTF-8" standalone="no"?>
<!-- Created with Inkscape (http://www.inkscape.org/) -->

<svg
   width="113.17319mm"
   height="62.959248mm"
   viewBox="0 0 113.17319 62.959248"
   version="1.1"
   id="svg5"
   inkscape:version="1.2.2 (732a01da63, 2022-12-09)"
   sodipodi:docname="manometer.svg"
   xmlns:inkscape="http://www.inkscape.org/namespaces/inkscape"
   xmlns:sodipodi="http://sodipodi.sourceforge.net/DTD/sodipodi-0.dtd"
   xmlns="http://www.w3.org/2000/svg"
   xmlns:svg="http://www.w3.org/2000/svg">
  <sodipodi:namedview
     id="namedview7"
     pagecolor="#ffffff"
     bordercolor="#666666"
     borderopacity="1.0"
     inkscape:showpageshadow="2"
     inkscape:pageopacity="0.0"
     inkscape:pagecheckerboard="0"
     inkscape:deskcolor="#d1d1d1"
     inkscape:document-units="mm"
     showgrid="false"
     inkscape:zoom="2.0888418"
     inkscape:cx="177.84975"
     inkscape:cy="143.14152"
     inkscape:window-width="1920"
     inkscape:window-height="1009"
     inkscape:window-x="1432"
     inkscape:window-y="-8"
     inkscape:window-maximized="1"
     inkscape:current-layer="layer1" />
  <defs
     id="defs2">
    <marker
       style="overflow:visible"
       id="Arrow1L"
       refX="0"
       refY="0"
       orient="auto-start-reverse"
       inkscape:stockid="Arrow1L"
       markerWidth="8.75"
       markerHeight="5"
       viewBox="0 0 8.75 5"
       inkscape:isstock="true"
       inkscape:collect="always"
       preserveAspectRatio="xMidYMid">
      <path
         style="fill:context-stroke;fill-rule:evenodd;stroke:none"
         d="M 0,0 5,-5 -12.5,0 5,5 Z"
         id="arrow1L"
         transform="scale(-0.5)" />
    </marker>
    <clipPath
       clipPathUnits="userSpaceOnUse"
       id="clipEmfPath1">
      <path
         d="m 364.04075,142.45073 h 78.18003 v 23.50197 h -78.18003 z"
         id="path1222" />
    </clipPath>
    <clipPath
       clipPathUnits="userSpaceOnUse"
       id="clipEmfPath2">
      <path
         d="m 273.39029,185.93737 h 146.28778 v 23.34209 H 273.39029 Z"
         id="path1225" />
    </clipPath>
    <pattern
       id="EMFhbasepattern"
       patternUnits="userSpaceOnUse"
       width="6"
       height="6"
       x="0"
       y="0" />
    <clipPath
       clipPathUnits="userSpaceOnUse"
       id="clipEmfPath1-1">
      <path
         d="m 364.04075,142.45073 h 78.18003 v 23.50197 h -78.18003 z"
         id="path2863" />
    </clipPath>
    <clipPath
       clipPathUnits="userSpaceOnUse"
       id="clipEmfPath2-0">
      <path
         d="m 273.39029,185.93737 h 146.28778 v 23.34209 H 273.39029 Z"
         id="path2866" />
    </clipPath>
    <pattern
       id="EMFhbasepattern-2"
       patternUnits="userSpaceOnUse"
       width="6"
       height="6"
       x="0"
       y="0" />
    <pattern
       id="EMFhbasepattern-3"
       patternUnits="userSpaceOnUse"
       width="6"
       height="6"
       x="0"
       y="0" />
    <pattern
       id="EMFhbasepattern-37"
       patternUnits="userSpaceOnUse"
       width="6"
       height="6"
       x="0"
       y="0" />
  </defs>
  <g
     inkscape:label="Layer 1"
     inkscape:groupmode="layer"
     id="layer1"
     transform="translate(-40.966117,-30.553122)">
    <path
       style="fill:none;stroke:#212830;stroke-width:0.316;stroke-linecap:round;stroke-linejoin:round;stroke-miterlimit:4;stroke-dasharray:none;stroke-opacity:1"
       d="M 41.124117,30.711122 H 75.516556"
       id="path4691" />
    <path
       style="fill:none;stroke:#212830;stroke-width:0.316;stroke-linecap:round;stroke-linejoin:round;stroke-miterlimit:4;stroke-dasharray:none;stroke-opacity:1"
       d="m 75.516556,30.711122 15.794355,6.777413"
       id="path4693" />
    <path
       style="fill:none;stroke:#212830;stroke-width:0.316;stroke-linecap:round;stroke-linejoin:round;stroke-miterlimit:4;stroke-dasharray:none;stroke-opacity:1"
       d="m 91.310911,37.488535 h 6.869144"
       id="path4695" />
    <path
       style="fill:none;stroke:#212830;stroke-width:0.316;stroke-linecap:round;stroke-linejoin:round;stroke-miterlimit:4;stroke-dasharray:none;stroke-opacity:1"
       d="M 98.180055,37.488535 113.98999,30.726667"
       id="path4697" />
    <path
       style="fill:none;stroke:#212830;stroke-width:0.316;stroke-linecap:round;stroke-linejoin:round;stroke-miterlimit:4;stroke-dasharray:none;stroke-opacity:1"
       d="m 113.98999,30.726667 h 34.37686"
       id="path4699" />
    <path
       style="fill:none;stroke:#212830;stroke-width:0.316;stroke-linecap:round;stroke-linejoin:round;stroke-miterlimit:4;stroke-dasharray:none;stroke-opacity:1"
       d="m 91.310911,47.779011 h 1.713392"
       id="path4701" />
    <path
       style="fill:none;stroke:#212830;stroke-width:0.316;stroke-linecap:round;stroke-linejoin:round;stroke-miterlimit:4;stroke-dasharray:none;stroke-opacity:1"
       d="M 41.124117,54.556424 H 59.457406"
       id="path4703" />
    <path
       style="fill:none;stroke:#212830;stroke-width:0.316;stroke-linecap:round;stroke-linejoin:round;stroke-miterlimit:4;stroke-dasharray:none;stroke-opacity:1"
       d="M 75.516556,54.556424 91.310911,47.779011"
       id="path4705" />
    <path
       style="fill:none;stroke:#212830;stroke-width:0.316;stroke-linecap:round;stroke-linejoin:round;stroke-miterlimit:4;stroke-dasharray:none;stroke-opacity:1"
       d="m 91.310911,47.779011 h 1.713392"
       id="path4707" />
    <path
       style="fill:none;stroke:#212830;stroke-width:0.316;stroke-linecap:round;stroke-linejoin:round;stroke-miterlimit:4;stroke-dasharray:none;stroke-opacity:1"
       d="m 98.180055,47.779011 15.809935,6.761868"
       id="path4709" />
    <path
       style="fill:none;stroke:#212830;stroke-width:0.316;stroke-linecap:round;stroke-linejoin:round;stroke-miterlimit:4;stroke-dasharray:none;stroke-opacity:1"
       d="m 113.98999,54.540879 h 34.37686"
       id="path4711" />
    <path
       style="fill:none;stroke:#212830;stroke-width:0.316;stroke-linecap:round;stroke-linejoin:round;stroke-miterlimit:4;stroke-dasharray:none;stroke-opacity:1"
       d="M 59.457406,54.556424 V 73.940446"
       id="path4713" />
    <path
       style="fill:none;stroke:#212830;stroke-width:0.316;stroke-linecap:round;stroke-linejoin:round;stroke-miterlimit:4;stroke-dasharray:none;stroke-opacity:1"
       d="M 62.899765,54.556424 V 73.940446"
       id="path4715" />
    <path
       style="fill:none;stroke:#212830;stroke-width:0.316;stroke-linecap:round;stroke-linejoin:round;stroke-miterlimit:4;stroke-dasharray:none;stroke-opacity:1"
       d="M 93.024303,47.779011 V 73.940446"
       id="path4717" />
    <path
       style="fill:none;stroke:#212830;stroke-width:0.316;stroke-linecap:round;stroke-linejoin:round;stroke-miterlimit:4;stroke-dasharray:none;stroke-opacity:1"
       d="M 96.466664,47.779011 V 73.940446"
       id="path4719" />
    <path
       style="fill:none;stroke:#212830;stroke-width:0.316;stroke-linecap:round;stroke-linejoin:round;stroke-miterlimit:4;stroke-dasharray:none;stroke-opacity:1"
       d="m 62.899765,73.940446 0.01558,0.730594 0.06231,0.746136 0.07788,0.730594 0.140186,0.730591 0.155763,0.71505 0.202492,0.715047 0.233645,0.699503 0.264796,0.683961 0.29595,0.668414 0.327102,0.668414 0.373831,0.637326 0.389407,0.621781 0.420559,0.606235 0.451713,0.575149 0.498441,0.559601 0.498441,0.54406 0.54517,0.497425 0.560748,0.497425 0.57632,0.450791 0.607476,0.419701 0.623051,0.388615 0.638628,0.373067 0.669782,0.326435 0.669779,0.295347 0.685356,0.264255 0.700934,0.233169 0.71651,0.202079 0.716508,0.155445 0.732086,0.139901 0.732086,0.07772 0.74766,0.06218 0.732086,0.01554 0.732086,-0.01554 0.747662,-0.06218 0.732084,-0.07772 0.732086,-0.139901 0.71651,-0.155445 0.716508,-0.202079 0.700934,-0.233169 0.685355,-0.264255 0.669782,-0.295347 0.66978,-0.326435 0.638627,-0.373067 0.623052,-0.388615 0.607475,-0.419701 0.576324,-0.450791 0.560744,-0.497425 0.545172,-0.497425 0.49844,-0.54406 0.498441,-0.559601 0.451712,-0.575149 0.420561,-0.606235 0.389408,-0.621781 0.37383,-0.637326 0.327102,-0.668414 0.295949,-0.668414 0.264798,-0.683961 0.233643,-0.699503 0.202494,-0.715047 0.155763,-0.71505 0.140184,-0.730591 0.07788,-0.730594 0.06231,-0.746136 0.01558,-0.730594"
       id="path4721" />
    <path
       style="fill:none;stroke:#212830;stroke-width:0.316;stroke-linecap:round;stroke-linejoin:round;stroke-miterlimit:4;stroke-dasharray:none;stroke-opacity:1"
       d="m 59.472982,73.940446 0.01558,0.82386 0.06231,0.82386 0.09346,0.823859 0.12461,0.82386 0.171339,0.808315 0.202492,0.808315 0.233644,0.792771 0.280374,0.777227 0.311526,0.777227 0.342678,0.746138 0.373831,0.746136 0.404983,0.715049 0.436136,0.699503 0.482865,0.683959 0.498441,0.668414 0.529594,0.637326 0.560746,0.606237 0.591899,0.590693 0.607475,0.559601 0.638628,0.528514 0.654204,0.497424 0.685356,0.466336 0.700934,0.450792 0.732086,0.404159 0.732083,0.373068 0.747663,0.341979 0.778814,0.310891 0.778814,0.279802 0.794391,0.233167 0.809968,0.202078 0.809967,0.170989 0.825542,0.124357 0.825545,0.09327 0.825542,0.06218 0.825543,0.01554 0.825545,-0.01554 0.825542,-0.06218 0.825542,-0.09327 0.825545,-0.124357 0.809967,-0.170989 0.809966,-0.202078 0.79439,-0.233167 0.778815,-0.279802 0.778814,-0.310891 0.747662,-0.341979 0.732086,-0.373068 0.732084,-0.404159 0.700934,-0.450792 0.685356,-0.466336 0.654206,-0.497424 0.638627,-0.528514 0.607475,-0.559601 0.591897,-0.590693 0.560748,-0.606237 0.529592,-0.637326 0.498443,-0.668414 0.482865,-0.683959 0.436137,-0.699503 0.404981,-0.715049 0.373833,-0.746136 0.342678,-0.746138 0.311525,-0.777227 0.280374,-0.777227 0.233643,-0.792771 0.202493,-0.808315 0.171339,-0.808315 0.124608,-0.82386 0.09346,-0.823859 0.0623,-0.82386 0.01558,-0.82386"
       id="path4723" />
    <path
       style="fill:none;stroke:#212830;stroke-width:0.316;stroke-linecap:round;stroke-linejoin:round;stroke-miterlimit:4;stroke-dasharray:none;stroke-opacity:1"
       d="M 62.899765,54.556424 H 75.516556"
       id="path4725" />
    <path
       style="fill:none;stroke:#212830;stroke-width:0.316;stroke-linecap:round;stroke-linejoin:round;stroke-miterlimit:4;stroke-dasharray:none;stroke-opacity:1"
       d="m 96.466664,47.779011 h 1.713391"
       id="path4727" />
    <path
       style="fill:none;stroke:#212830;stroke-width:0.316;stroke-linecap:round;stroke-linejoin:round;stroke-miterlimit:4;stroke-dasharray:none;stroke-opacity:1"
       d="m 96.466664,47.779011 h 1.713391"
       id="path4729" />
    <text
       xml:space="preserve"
       style="font-style:normal;font-weight:normal;font-size:10.5833px;line-height:1.25;font-family:sans-serif;fill:#000000;fill-opacity:1;stroke:none;stroke-width:0.264583"
       x="78.532356"
       y="46.486088"
       id="text4810"><tspan
         sodipodi:role="line"
         id="tspan4808"
         style="stroke-width:0.264583"
         x="78.532356"
         y="46.486088">Throat</tspan></text>
    <text
       xml:space="preserve"
       style="font-style:normal;font-weight:normal;font-size:4.69876px;line-height:1.25;font-family:sans-serif;fill:#000000;fill-opacity:1;stroke:none;stroke-width:0.117469"
       x="43.194447"
       y="41.929081"
       id="text4810-1"><tspan
         sodipodi:role="line"
         id="tspan4808-1"
         style="stroke-width:0.117469"
         x="43.194447"
         y="41.929081">Fluid Flow</tspan></text>
    <text
       xml:space="preserve"
       style="font-style:normal;font-weight:normal;font-size:10.5833px;line-height:1.25;font-family:sans-serif;fill:#000000;fill-opacity:1;stroke:none;stroke-width:0.264583"
       x="94.11216"
       y="93.352173"
       id="text4864"><tspan
         sodipodi:role="line"
         id="tspan4862"
         style="stroke-width:0.264583"
         x="94.11216"
         y="93.352173">Manometer</tspan></text>
    <path
       style="fill:none;stroke:#000000;stroke-width:0.264583px;stroke-linecap:butt;stroke-linejoin:miter;stroke-opacity:1"
       d="m 59.45922,65.164357 c 0.0579,-0.02087 0.157075,0.01291 0.221664,0 0.04268,-0.0085 0.08374,-0.0245 0.126665,-0.03166 0.02082,-0.0035 0.04445,0.0094 0.06333,0 0.0094,-0.0047 0,-0.02111 0,-0.03167 0.02111,-0.01056 0.04094,-0.02421 0.06333,-0.03166 0.01001,-0.0033 0.02165,0.0033 0.03167,0 0.02239,-0.0075 0.04222,-0.02111 0.06333,-0.03167 0.02111,-0.01056 0.04664,-0.01498 0.06333,-0.03167 0.02691,-0.02691 0.03642,-0.06809 0.06333,-0.095 0.0075,-0.0075 0.0242,0.0075 0.03167,0 0.115253,-0.115253 -0.03367,-0.02225 0.06333,-0.095 0.03045,-0.02283 0.06455,-0.0405 0.095,-0.06333 0.0097,-0.0072 0.09098,-0.08696 0.095,-0.095 0.0047,-0.0094 0,-0.02111 0,-0.03167 0.01055,-0.02111 0.0175,-0.04445 0.03167,-0.06333 0.01791,-0.02389 0.04677,-0.03849 0.06333,-0.06333 0.01401,-0.02101 -0.02689,-0.095 0.03167,-0.095 0.01056,0 0,0.02111 0,0.03167 0,0.01656 -0.0042,0.118337 0,0.126664 0.0067,0.01336 0.02111,0.02111 0.03167,0.03167 0.06996,0.06996 0.0096,0.03836 0.03167,0.126664 0.0057,0.02289 0.02594,0.04043 0.03167,0.06333 0.0051,0.02048 -0.0051,0.04285 0,0.06333 0.0057,0.02291 0.0229,0.04142 0.03167,0.06333 0.0124,0.03099 0.01674,0.06514 0.03167,0.095 0.0067,0.01336 0.02499,0.01831 0.03167,0.03167 0.07758,0.232743 -0.01036,0.01614 0.06333,0.126663 0.01309,0.01963 0.01857,0.04369 0.03167,0.06333 0.0083,0.01241 0.02111,0.02111 0.03167,0.03167 0.02266,0.02265 0.02839,0.04332 0.06333,0.03167 0.114799,-0.03827 0.02254,-0.01503 0.095,-0.06333 0.01964,-0.0131 0.04664,-0.01498 0.06333,-0.03167 0.0075,-0.0075 -0.0075,-0.02421 0,-0.03167 0.01129,-0.07779 0.06723,-0.01315 0.095,-0.03166 0.03726,-0.02484 0.05774,-0.07016 0.095,-0.095 0.0681,-0.04541 0.156191,-0.0459 0.221663,-0.095 0.02388,-0.01791 0.03945,-0.04542 0.06333,-0.06333 0.206775,-0.155083 -0.149521,0.181186 0.158331,-0.126667 0.01056,-0.01056 0.02499,-0.01831 0.03167,-0.03167 0.0094,-0.01889 -0.0094,-0.04445 0,-0.06333 0.0067,-0.01336 0.02499,-0.01831 0.03167,-0.03167 0.0095,-0.01892 -0.02085,-0.06333 0.03167,-0.06333 0.01055,0 -0.0026,0.02143 0,0.03167 0.0081,0.03238 0.01927,0.06401 0.03167,0.095 0.0088,0.02191 0.0229,0.04142 0.03167,0.06333 0.0124,0.03099 0.01674,0.06515 0.03167,0.095 0.0067,0.01336 0.02111,0.02111 0.03167,0.03167 0.01056,0.04222 0.0155,0.08626 0.03167,0.126664 0.0055,0.01386 0.02499,0.01831 0.03167,0.03167 0.0047,0.0094 -0.0033,0.02164 0,0.03167 0.01249,0.03748 0.07693,0.140263 0.095,0.158332 0.0075,0.0075 0.0242,-0.0075 0.03167,0 0.06552,0.06552 -0.100121,-0.0026 0.03167,0.06333 0.0094,0.0047 0.02222,-0.0047 0.03167,0 0.01335,0.0067 0.01831,0.025 0.03167,0.03167 0.0094,0.0047 0.02222,-0.0047 0.03167,0 0.03404,0.01701 0.05966,0.0492 0.095,0.06333 0.0196,0.0078 0.04285,-0.0051 0.06333,0 0.0229,0.0057 0.04094,0.02421 0.06333,0.03167 0.02003,0.0067 0.04222,0 0.06333,0 0.04222,0 0.08444,0 0.126665,0 0.01055,0 0.02111,0 0.03167,0 0.01056,0 0.02222,0.0047 0.03167,0 0.01335,-0.0067 0.02111,-0.02111 0.03167,-0.03167 0.01056,-0.01056 0.02499,-0.01831 0.03167,-0.03167 0.0047,-0.0094 -0.0047,-0.02222 0,-0.03167 0.0067,-0.01336 0.02499,-0.01831 0.03167,-0.03167 0.04659,-0.09319 -0.07336,0.04169 0.03167,-0.06333"
       id="path893" />
    <path
       style="fill:#00ffff;stroke:#000000;stroke-width:0.264583px;stroke-linecap:butt;stroke-linejoin:miter;stroke-opacity:1"
       d="m 92.993802,55.189482 c 0.04222,0 0.08502,0.0069 0.126666,0 0.02328,-0.0039 0.04176,-0.02208 0.06333,-0.03167 0.256222,-0.113876 0.162179,-0.03551 0.284996,-0.158331 0.02111,-0.02111 0.03849,-0.04677 0.06333,-0.06333 0.01963,-0.01309 0.04664,-0.01498 0.06333,-0.03167 0.0167,-0.01669 0.01857,-0.04369 0.03167,-0.06333 0.0089,-0.01342 0.0819,-0.08845 0.095,-0.095 0.06534,-0.03267 0.01339,0.09987 0.095,-0.06333 0.0094,-0.01888 -0.0051,-0.04285 0,-0.06333 0.03823,-0.152915 0.01505,0.0016 0.06333,-0.095 0.0047,-0.0094 -0.0047,-0.02222 0,-0.03167 0.0067,-0.01335 0.02498,-0.01832 0.03167,-0.03167 0.0094,-0.01888 -0.01492,-0.04841 0,-0.06333 0.0075,-0.0075 0.02111,0 0.03167,0 0.118475,0 0.06791,0.0069 0.126664,0.095 0.01056,0.01056 0.02111,0.02111 0.03167,0.03167 0.01056,0 0.02421,-0.0075 0.03166,0 0.123584,0.123585 -0.0073,0.01701 0.03167,0.095 0.0067,0.01335 0.02498,0.01831 0.03167,0.03167 0.0047,0.0094 -0.0047,0.02222 0,0.03167 0.0067,0.01335 0.02498,0.01832 0.03167,0.03167 0.0047,0.0094 0,0.02111 0,0.03167 0.01056,0.02111 0.01752,0.04445 0.03167,0.06333 0.01791,0.02388 0.04542,0.03945 0.06333,0.06333 0.01416,0.01888 0.01953,0.04309 0.03167,0.06333 0.01958,0.03263 0.04631,0.06096 0.06333,0.095 0.03988,0.07977 -0.120272,-0.0274 0.06333,0.095 0.0088,0.0059 0.02111,0 0.03167,0 0.01056,0 0.02111,0 0.03167,0 0.05278,0 0.106577,0.01035 0.15833,0 0.02315,-0.0046 0.04094,-0.0242 0.06333,-0.03167 0.01,-0.0033 0.02421,0.0075 0.03167,0 0.02691,-0.02691 0.0405,-0.06455 0.06333,-0.095 0.009,-0.01194 0.02111,-0.02111 0.03167,-0.03167 0.02111,-0.02111 0.03945,-0.04542 0.06333,-0.06333 0.01889,-0.01416 0.04222,-0.02111 0.06333,-0.03167 0.04222,-0.02111 0.08444,-0.04222 0.126664,-0.06333 0.02111,-0.01056 0.0437,-0.01857 0.06333,-0.03167 0.01241,-0.0083 0.01831,-0.02499 0.03167,-0.03167 0.0094,-0.0047 0.02222,0.0047 0.03167,0 0.01625,-0.0081 0.140449,-0.0909 0.15833,-0.126665 0.0047,-0.0094 -0.0075,-0.0242 0,-0.03167 0.01669,-0.01669 0.04664,-0.01498 0.06333,-0.03167 0.123584,-0.123585 -0.0073,-0.01701 0.03167,-0.095 0.01701,-0.03404 0.0492,-0.05966 0.06333,-0.095 0.0078,-0.0196 -0.0094,-0.04445 0,-0.06333 0.0047,-0.0094 0.02421,-0.0075 0.03167,0 0.0075,0.0075 -0.0047,0.02222 0,0.03167 0.0067,0.01335 0.02111,0.02111 0.03167,0.03167 0.01056,0.03167 0.01675,0.06514 0.03167,0.095 0.0067,0.01335 0.02695,0.0175 0.03167,0.03167 0.0067,0.02003 -0.0051,0.04285 0,0.06333 0.0057,0.0229 0.02111,0.04222 0.03167,0.06333 0.01056,0.02111 0.01857,0.04369 0.03167,0.06333 0.0083,0.01242 0.025,0.01832 0.03167,0.03167 0.0047,0.0094 -0.0075,0.0242 0,0.03167 0.01669,0.01669 0.05024,0.01203 0.06333,0.03167 0.01172,0.01757 -0.01172,0.04577 0,0.06333 0.0131,0.01964 0.04664,0.01498 0.06333,0.03167 0.0075,0.0075 -0.0058,0.02288 0,0.03167 0.02111,0.02111 0.04222,0.04222 0.06333,0.06333 0.01056,0 0.02421,-0.0075 0.03166,0 0.0075,0.0075 -0.0047,0.02222 0,0.03167 0.0067,0.01335 0.02111,0.02111 0.03167,0.03167 0.01056,0.01056 0.01831,0.02499 0.03167,0.03167 0.0094,0.0047 0.02111,0 0.03166,0 0.02111,0 0.04222,0 0.06333,0 0.07389,0 0.147775,0 0.221663,0 0.02111,0 0.04577,0.01171 0.06333,0 0.01963,-0.01309 0.01498,-0.04664 0.03167,-0.06333 0.0075,-0.0075 0.02421,0.0075 0.03167,0 0.0075,-0.0075 -0.0075,-0.0242 0,-0.03167 0.04222,-0.04222 0.03167,0.05278 0.03167,-0.03167"
       id="path895" />
    <path
       style="fill:#00ffff;stroke:#000003;stroke-width:0.571767"
       d="m 133.32747,232.63613 c -31.17044,-3.28619 -55.453344,-25.83142 -61.587203,-57.18005 -0.581195,-2.97034 -0.795239,-8.28871 -0.953731,-23.69734 l -0.204354,-19.86747 1.639839,-1.02106 1.63984,-1.02106 0.519757,1.14075 c 0.624865,1.37143 0.865332,1.39358 2.613804,0.24078 1.344369,-0.88637 1.364679,-0.8844 2.491593,0.24252 0.624897,0.62489 1.452555,1.13617 1.839242,1.13617 0.603672,0 0.732873,2.82563 0.913905,19.98716 0.225681,21.39424 0.296221,22.10739 2.976496,30.09179 4.948885,14.74248 16.979482,27.82977 31.215092,33.95686 16.18067,6.96424 34.16638,6.49798 49.59097,-1.2856 5.34696,-2.69819 10.0705,-6.21138 14.96417,-11.12977 8.49164,-8.53452 13.65583,-18.62546 15.78743,-30.84897 0.57886,-3.3194 0.70354,-10.72825 0.70354,-41.80667 0,-34.277393 0.0713,-37.799678 0.77059,-38.068023 0.70153,-0.269202 1.34261,-0.289457 4.25612,-0.134473 0.5266,0.02801 1.71049,-0.134896 2.63086,-0.36202 1.04633,-0.258205 2.07647,-0.226366 2.74899,0.08496 l 1.07559,0.497917 0.004,36.282989 c 0.002,21.74166 -0.195,38.1461 -0.49214,40.93177 -1.77029,16.59634 -9.09114,31.45409 -21.20424,43.03429 -9.72153,9.29385 -22.66212,15.79608 -35.98092,18.07928 -5.33203,0.91405 -13.12825,1.22456 -17.95897,0.71527 z"
       id="path1035"
       transform="matrix(0.26458333,0,0,0.26458333,40.966117,30.553122)" />
    <path
       style="fill:none;stroke:#000000;stroke-width:0.265;stroke-linecap:butt;stroke-linejoin:miter;stroke-opacity:1;stroke-dasharray:none;marker-end:url(#Arrow1L)"
       d="M 48.312692,42.966301 H 68.579105"
       id="path1102" />
  </g>
</svg>
