<?xml version="1.0" encoding="UTF-8" standalone="no"?>
<svg
   x="0"
   y="0"
   width="735.92236"
   height="288.2963"
   style="fill:none"
   version="1.1"
   id="svg48"
   sodipodi:docname="Parallel Axis.svg"
   inkscape:version="1.4.2 (ebf0e94, 2025-05-08)"
   xmlns:inkscape="http://www.inkscape.org/namespaces/inkscape"
   xmlns:sodipodi="http://sodipodi.sourceforge.net/DTD/sodipodi-0.dtd"
   xmlns="http://www.w3.org/2000/svg"
   xmlns:svg="http://www.w3.org/2000/svg">
  <defs
     id="defs48">
    <rect
       x="377.96777"
       y="17.962826"
       width="35.1772"
       height="28.815367"
       id="rect48" />
  </defs>
  <sodipodi:namedview
     id="namedview48"
     pagecolor="#ffffff"
     bordercolor="#000000"
     borderopacity="0.25"
     inkscape:showpageshadow="2"
     inkscape:pageopacity="0.0"
     inkscape:pagecheckerboard="0"
     inkscape:deskcolor="#d1d1d1"
     inkscape:zoom="0.94476022"
     inkscape:cx="428.15097"
     inkscape:cy="88.382214"
     inkscape:window-width="1920"
     inkscape:window-height="1009"
     inkscape:window-x="1912"
     inkscape:window-y="-8"
     inkscape:window-maximized="1"
     inkscape:current-layer="svg48"
     showguides="true">
    <sodipodi:guide
       position="334.75348,192.1927"
       orientation="0,-1"
       id="guide48"
       inkscape:locked="false" />
  </sodipodi:namedview>
  <g
     id="g48"
     transform="matrix(1.8591125,0,0,1.8591125,-148.08562,-90.609425)">
    <svg
       class="role-diagram-draw-area"
       version="1.1"
       id="svg24"
       width="100%"
       height="100%">
      <g
         class="shapes-region"
         style="fill:none;stroke:#000000"
         id="g21">
        <g
           class="composite-shape"
           id="g1">
          <path
             class="real"
             d="m 85,109.8 h 390 v 30 H 85 Z"
             style="fill:none;fill-opacity:1;stroke:#000000;stroke-width:1"
             id="path1" />
        </g>
        <g
           class="composite-shape"
           id="g2">
          <path
             class="real"
             d="m 278,124.8 c 0,-1.1 0.9,-2 2,-2 1.1,0 2,0.9 2,2 0,1.1 -0.9,2 -2,2 -1.1,0 -2,-0.9 -2,-2 z"
             style="fill:none;fill-opacity:1;stroke:#000000;stroke-width:1"
             id="path2" />
        </g>
        <g
           class="arrow-line"
           id="g5">
          <path
             class="connection real"
             stroke-dasharray="none"
             d="M 310,150 283.49,126.14"
             style="fill:none;fill-opacity:1;stroke:#000000;stroke-width:1"
             id="path3" />
          <g
             stroke="#000"
             transform="rotate(41.99,-21.599968,429.81339)"
             style="stroke:#000000;stroke-width:1"
             id="g4">
            <path
               d="M 10.93,-3.29 Q 4.96,-0.45 0,0 4.96,0.45 10.93,3.29"
               id="path4" />
          </g>
        </g>
        <g
           class="arrow-line"
           id="g6">
          <path
             class="connection real"
             stroke-dasharray="1.125, 3.35"
             d="M 280,50 V 170"
             style="fill:none;fill-opacity:1;stroke:#9b9b9b;stroke-width:1;stroke-opacity:1"
             id="path5" />
        </g>
        <g
           class="arrow-line"
           id="g7">
          <path
             class="connection real"
             stroke-dasharray="1.125, 3.35"
             d="M 90,50 V 170"
             style="fill:none;fill-opacity:1;stroke:#9b9b9b;stroke-width:1;stroke-opacity:1"
             id="path6" />
        </g>
        <g
           class="arrow-line"
           id="g9">
          <path
             class="connection real"
             stroke-dasharray="none"
             d="m 270,60 c 8.04,7.71 14.47,3.27 18.29,0.94"
             style="fill:none;fill-opacity:1;stroke:#000000;stroke-width:1"
             id="path7" />
          <g
             stroke="#000"
             transform="rotate(157.44,139.0163,58.921227)"
             style="stroke:#000000;stroke-width:1"
             id="g8">
            <path
               d="M 10.93,-3.29 Q 4.96,-0.45 0,0 4.96,0.45 10.93,3.29"
               id="path8" />
          </g>
        </g>
        <g
           class="arrow-line"
           id="g12">
          <path
             class="connection real"
             stroke-dasharray="none"
             d="M 92,90 H 278"
             style="fill:none;fill-opacity:1;stroke:#000000;stroke-width:1"
             id="path9" />
          <g
             stroke="#000"
             transform="rotate(180,140,45)"
             style="stroke:#000000;stroke-width:1"
             id="g10">
            <path
               d="M 10.93,-3.29 Q 4.96,-0.45 0,0 4.96,0.45 10.93,3.29"
               id="path10" />
          </g>
          <g
             stroke="#000"
             transform="translate(90,90)"
             style="stroke:#000000;stroke-width:1"
             id="g11">
            <path
               d="M 10.93,-3.29 Q 4.96,-0.45 0,0 4.96,0.45 10.93,3.29"
               id="path11" />
          </g>
        </g>
        <g
           class="arrow-line"
           id="g14">
          <path
             class="connection real"
             stroke-dasharray="none"
             d="m 80,60 c 8.04,7.71 14.47,3.27 18.29,0.94"
             style="fill:none;fill-opacity:1;stroke:#000000;stroke-width:1"
             id="path12" />
          <g
             stroke="#000"
             transform="rotate(157.44,44.016298,39.972837)"
             style="stroke:#000000;stroke-width:1"
             id="g13">
            <path
               d="M 10.93,-3.29 Q 4.96,-0.45 0,0 4.96,0.45 10.93,3.29"
               id="path13" />
          </g>
        </g>
        <g
           class="arrow-line"
           id="g17">
          <path
             class="connection real"
             stroke-dasharray="none"
             d="M 87,199.81 H 472.6"
             style="fill:none;fill-opacity:1;stroke:#000000;stroke-width:1"
             id="path14" />
          <g
             stroke="#000"
             transform="rotate(180,237.3,99.90625)"
             style="stroke:#000000;stroke-width:1"
             id="g15">
            <path
               d="M 10.93,-3.29 Q 4.96,-0.45 0,0 4.96,0.45 10.93,3.29"
               id="path15" />
          </g>
          <g
             stroke="#000"
             transform="translate(85,199.8125)"
             style="stroke:#000000;stroke-width:1"
             id="g16">
            <path
               d="M 10.93,-3.29 Q 4.96,-0.45 0,0 4.96,0.45 10.93,3.29"
               id="path16" />
          </g>
        </g>
        <g
           class="arrow-line"
           id="g18">
          <path
             class="connection real"
             stroke-dasharray="none"
             d="m 85,145.01 v 58.8"
             style="fill:none;fill-opacity:1;stroke:#000000;stroke-width:1"
             id="path17" />
        </g>
        <g
           class="arrow-line"
           id="g19">
          <path
             class="connection real"
             stroke-dasharray="none"
             d="m 475,143.81 v 58.8"
             style="fill:none;fill-opacity:1;stroke:#000000;stroke-width:1"
             id="path18" />
        </g>
        <g
           id="g20" />
      </g>
      <g
         id="g22" />
      <g
         id="g23" />
      <g
         id="g24" />
    </svg>
    <svg
       width="660"
       height="300"
       style="font-family:Asana-Math, Asana"
       version="1.1"
       id="svg47">
      <g
         id="g27">
        <g
           id="g26">
          <g
             id="g25">
            <text
               x="296"
               y="150"
               style="font-style:normal;font-weight:400;font-size:12px;font-family:Arial, Helvetica, sans-serif;text-decoration:none;text-decoration-line:none;dominant-baseline:text-before-edge;white-space:pre;fill:#000000;fill-opacity:1;stroke:none"
               id="text24">Centre of Mass</text>
          </g>
        </g>
      </g>
      <g
         id="g31">
        <g
           id="g30">
          <g
             id="g29">
            <g
               transform="translate(283,58.5)"
               id="g28">
              <path
                 transform="scale(0.0085,-0.0085)"
                 d="m 105,664 56,-2 c 24,-1 35,-9 35,-27 0,-14 -4,-46 -9,-76 L 112,125 C 96,34 94,32 54,28 L 13,25 9,-3 51,-2 c 47,2 66,2 90,2 l 97,-3 h 26 l 3,28 -49,3 c -27,2 -36,10 -36,30 0,9 1,18 4,35 l 101,555 c 29,6 49,8 76,8 87,0 133,-39 133,-113 0,-95 -78,-165 -182,-165 h -44 l -3,-11 C 401,172 432,124 507,-3 c 0,0 85,3 85,3 1,0 15,-1 34,-3 h 13 v 27 c -40,5 -51,13 -80,55 L 375,354 c 55,10 84,22 120,48 58,42 89,97 89,158 0,86 -64,133 -175,131 H 108 Z M 683,152 c 0,-106 45,-163 128,-163 55,0 115,26 160,68 62,59 106,173 106,274 0,94 -50,151 -133,151 C 840,482 683,382 683,152 Z m 224,292 c 61,0 94,-45 94,-129 0,-96 -31,-202 -75,-255 -18,-21 -44,-33 -75,-33 -58,0 -92,45 -92,124 0,113 39,236 88,276 13,11 36,17 60,17 z m 327,-54 -56,-283 c -1,-8 -13,-46 -13,-76 0,-25 11,-40 30,-40 35,0 70,20 148,83 l 31,25 -10,18 -45,-31 c -29,-20 -49,-30 -60,-30 -9,0 -14,8 -14,20 0,26 14,107 43,252 l 13,62 h 107 l 11,50 c -38,-4 -72,-6 -110,-6 16,94 27,143 45,197 l -11,15 c -20,-12 -47,-24 -78,-36 l -25,-170 c -44,-21 -70,-32 -88,-37 l -2,-13 z M 1712,204 1683,77 c -4,-17 -6,-35 -6,-51 0,-22 9,-35 24,-35 23,0 64,26 146,94 l -7,21 c -24,-20 -53,-47 -75,-47 -9,0 -15,9 -15,23 0,5 0,8 1,11 l 92,379 -10,9 -33,-18 c -41,15 -58,19 -85,19 -28,0 -48,-5 -75,-18 -62,-31 -95,-61 -120,-110 -44,-89 -75,-209 -75,-287 0,-44 15,-78 34,-78 37,0 117,52 233,215 z m 48,210 C 1738,305 1719,253 1685,201 1628,117 1567,59 1535,59 c -12,0 -18,13 -18,40 0,64 28,181 63,261 24,55 47,73 95,73 23,0 41,-4 85,-19 z m 249,-24 -56,-283 c -1,-8 -13,-46 -13,-76 0,-25 11,-40 30,-40 35,0 70,20 148,83 l 31,25 -10,18 -45,-31 c -29,-20 -49,-30 -60,-30 -9,0 -14,8 -14,20 0,26 14,107 43,252 l 13,62 h 107 l 11,50 c -38,-4 -72,-6 -110,-6 16,94 27,143 45,197 l -11,15 c -20,-12 -47,-24 -78,-36 l -25,-170 c -44,-21 -70,-32 -88,-37 l -2,-13 z m 241,-2 7,-20 32,21 c 37,23 40,25 47,25 10,0 18,-10 18,-23 0,-7 -4,-30 -8,-44 l -66,-240 c -8,-31 -13,-58 -13,-77 0,-24 11,-39 30,-39 26,0 62,21 160,94 l -10,18 -26,-17 c -29,-19 -52,-30 -61,-30 -7,0 -13,10 -13,20 0,10 2,19 7,40 l 77,304 c 4,17 6,28 6,36 0,17 -9,26 -25,26 -22,0 -59,-21 -134,-74 z m 194,324 c -29,0 -58,-33 -58,-67 0,-25 15,-41 39,-41 31,0 55,29 55,67 0,24 -15,41 -36,41 z m 73,-324 7,-20 32,21 c 37,23 40,25 47,25 11,0 18,-10 18,-25 0,-51 -41,-244 -82,-387 l 7,-11 c 25,7 48,13 70,17 19,126 40,191 86,260 54,84 129,146 174,146 11,0 17,-9 17,-24 0,-18 -3,-39 -11,-71 l -52,-212 c -9,-37 -13,-60 -13,-76 0,-25 11,-40 30,-40 26,0 62,21 160,94 l -10,18 -26,-17 c -29,-19 -51,-30 -61,-30 -7,0 -13,9 -13,20 0,5 1,16 2,20 l 66,276 c 7,29 11,57 11,74 0,23 -11,36 -31,36 -42,0 -111,-38 -170,-93 -38,-35 -66,-69 -118,-142 l 38,161 c 4,18 6,30 6,41 0,21 -8,33 -23,33 -21,0 -60,-22 -133,-74 z m 806,94 c -67,0 -220,-63 -220,-223 0,-77 45,-123 122,-123 8,0 19,0 30,1 l -41,-38 c -16,-15 -27,-33 -27,-47 0,-10 7,-21 21,-33 -69,-23 -197,-67 -197,-178 0,-71 70,-117 179,-117 129,0 242,72 242,155 0,36 -21,72 -64,107 l -60,49 c -34,27 -47,46 -47,65 0,14 15,28 27,46 98,24 169,107 169,196 0,15 -3,34 -4,38 17,-2 25,-2 34,-2 17,0 27,1 50,4 l 9,45 -3,6 c -28,-7 -48,-9 -102,-9 0,1 -24,58 -118,58 z m -99,-481 77,-59 c 46,-36 65,-63 65,-96 0,-52 -69,-94 -152,-94 -82,0 -139,42 -139,103 0,102 110,134 149,146 z m 74,447 c 58,0 87,-36 87,-107 0,-103 -48,-173 -118,-173 -61,0 -93,41 -93,120 0,95 51,160 124,160 z M 4067,204 4038,77 c -4,-17 -6,-35 -6,-51 0,-22 9,-35 24,-35 23,0 64,26 146,94 l -7,21 c -24,-20 -53,-47 -75,-47 -9,0 -15,9 -15,23 0,5 0,8 1,11 l 92,379 -10,9 -33,-18 c -41,15 -58,19 -85,19 -28,0 -48,-5 -75,-18 -62,-31 -95,-61 -120,-110 -44,-89 -75,-209 -75,-287 0,-44 15,-78 34,-78 37,0 117,52 233,215 z m 48,210 C 4093,305 4074,253 4040,201 3983,117 3922,59 3890,59 c -12,0 -18,13 -18,40 0,64 28,181 63,261 24,55 47,73 95,73 23,0 41,-4 85,-19 z m 492,-49 c 3,38 8,70 16,111 -11,5 -15,6 -20,6 -31,0 -62,-24 -98,-75 -39,-56 -78,-116 -94,-151 l 32,152 c 4,17 6,30 6,42 0,20 -8,32 -23,32 -21,0 -59,-21 -133,-74 l -28,-20 7,-20 32,21 c 28,18 39,23 48,23 10,0 17,-9 17,-22 0,-58 -43,-264 -83,-392 l 10,-7 c 15,5 31,8 54,13 l 13,2 26,120 c 18,83 41,136 85,193 34,44 61,65 83,65 15,0 25,-5 36,-19 z m 37,-213 c 0,-106 45,-163 128,-163 55,0 115,26 160,68 62,59 106,173 106,274 0,94 -50,151 -133,151 -104,0 -261,-100 -261,-330 z m 224,292 c 61,0 94,-45 94,-129 0,-96 -31,-202 -75,-255 -18,-21 -44,-33 -75,-33 -58,0 -92,45 -92,124 0,113 39,236 88,276 13,11 36,17 60,17 z m 694,29 -7,9 -68,-17 -10,-51 c -15,-78 -40,-146 -71,-193 -59,-91 -137,-162 -177,-162 -8,0 -13,9 -13,26 0,14 2,27 7,52 l 57,271 c 3,16 5,30 5,43 0,19 -9,31 -23,31 -20,0 -58,-21 -132,-74 l -28,-20 7,-20 32,21 c 28,18 39,23 48,23 9,0 17,-9 17,-20 0,-4 -1,-14 -2,-18 L 5141,77 c -2,-9 -4,-33 -4,-47 0,-23 15,-41 35,-41 63,0 184,112 268,250 L 5403,97 c -7,-24 -11,-51 -11,-66 0,-25 11,-40 30,-40 26,0 62,21 160,94 l -10,18 -26,-17 c -24,-16 -50,-27 -61,-27 -8,0 -13,7 -13,17 0,36 75,340 90,397 z m 87,-85 7,-20 32,21 c 37,23 40,25 47,25 11,0 18,-10 18,-25 0,-51 -41,-244 -82,-387 l 7,-11 c 25,7 48,13 70,17 19,126 40,191 86,260 54,84 129,146 174,146 11,0 17,-9 17,-24 0,-18 -3,-39 -11,-71 l -52,-212 c -9,-37 -13,-60 -13,-76 0,-25 11,-40 30,-40 26,0 62,21 160,94 l -10,18 -26,-17 c -29,-19 -51,-30 -61,-30 -7,0 -13,9 -13,20 0,5 1,16 2,20 l 66,276 c 7,29 11,57 11,74 0,23 -11,36 -31,36 -42,0 -111,-38 -170,-93 -38,-35 -66,-69 -118,-142 l 38,161 c 4,18 6,30 6,41 0,21 -8,33 -23,33 -21,0 -60,-22 -133,-74 z m 1014,334 -12,11 c -52,-26 -88,-35 -160,-42 l -4,-21 h 48 c 24,0 34,-7 34,-24 0,-8 -1,-17 -2,-24 l -28,-154 c -30,9 -57,14 -82,14 -69,0 -163,-72 -209,-159 -31,-58 -51,-153 -51,-237 0,-65 15,-97 44,-97 27,0 64,17 98,44 54,44 87,83 154,184 l -23,-91 c -11,-44 -16,-76 -16,-102 0,-21 9,-33 26,-33 17,0 41,12 75,37 l 81,60 -10,19 -44,-31 c -14,-10 -30,-17 -39,-17 -8,0 -14,9 -14,23 0,8 1,17 8,46 z M 6294,59 c -16,0 -25,14 -25,39 0,126 46,282 95,320 13,10 32,15 59,15 44,0 73,-6 106,-23 l -12,-59 C 6480,171 6339,59 6294,59 Z m 679,225 c 0,-194 107,-302 298,-302 96,0 167,23 257,85 0,0 10,36 10,36 0,0 -10,7 -10,7 -94,-57 -146,-75 -224,-75 -157,0 -243,96 -243,274 0,138 57,344 285,344 71,0 123,-14 179,-50 v -84 h 27 c 5,57 13,100 27,146 -76,29 -133,41 -195,41 -180,0 -411,-128 -411,-422 z m 659,-132 c 0,-106 45,-163 128,-163 55,0 115,26 160,68 62,59 106,173 106,274 0,94 -50,151 -133,151 -104,0 -261,-100 -261,-330 z m 224,292 c 61,0 94,-45 94,-129 0,-96 -31,-202 -75,-255 -18,-21 -44,-33 -75,-33 -58,0 -92,45 -92,124 0,113 39,236 88,276 13,11 36,17 60,17 z m 1139,220 13,31 c -28,4 -175,6 -177,-3 L 8746,536 8500,114 8350,692 c -23,-6 -146,-2 -167,0 l -3,-28 26,-2 c 52,-4 70,-14 70,-40 0,-6 -146,-522 -148,-529 -16,-52 -31,-65 -86,-70 l -3,-26 39,1 c 34,1 59,2 73,2 14,0 40,-1 75,-2 l 35,-1 3,28 -38,3 c -32,2 -49,12 -49,27 0,10 2,23 7,41 l 124,464 149,-578 h 23 l 57,104 239,414 52,87 -37,-520 c -4,-28 -16,-35 -67,-39 l -31,-3 -3,-28 47,1 c 42,1 72,2 87,2 16,0 46,-1 87,-2 l 46,-1 3,28 -37,3 c -36,3 -54,14 -54,35 l 1,37 41,531 c 2,19 17,29 46,31 z M 9531,204 9502,77 c -4,-17 -6,-35 -6,-51 0,-22 9,-35 24,-35 23,0 64,26 146,94 l -7,21 c -24,-20 -53,-47 -75,-47 -9,0 -15,9 -15,23 0,5 0,8 1,11 l 92,379 -10,9 -33,-18 c -41,15 -58,19 -85,19 -28,0 -48,-5 -75,-18 -62,-31 -95,-61 -120,-110 -44,-89 -75,-209 -75,-287 0,-44 15,-78 34,-78 37,0 117,52 233,215 z m 48,210 C 9557,305 9538,253 9504,201 9447,117 9386,59 9354,59 c -12,0 -18,13 -18,40 0,64 28,181 63,261 24,55 47,73 95,73 23,0 41,-4 85,-19 z M 9712,1 c 15,-8 31,-12 43,-12 33,0 72,29 103,76 l 76,117 11,-69 c 13,-85 36,-124 72,-124 22,0 54,17 86,46 l 49,44 -9,19 c -36,-30 -61,-45 -77,-45 -15,0 -28,10 -38,30 -9,19 -20,56 -25,85 l -18,101 35,49 c 47,65 74,88 105,88 16,0 28,-8 33,-23 l 14,4 15,85 c -12,7 -21,10 -30,10 -40,0 -80,-36 -142,-128 l -37,-55 -6,48 c -12,99 -39,135 -98,135 -26,0 -48,-8 -57,-21 l -58,-83 17,-10 c 30,34 50,48 69,48 33,0 55,-41 72,-139 l 11,-62 -40,-62 c -43,-67 -77,-99 -105,-99 -15,0 -26,4 -28,9 l -11,28 -20,-3 c 0,-35 -8,-61 -12,-87 z m 524,387 7,-20 32,21 c 37,23 40,25 47,25 10,0 18,-10 18,-23 0,-7 -4,-30 -8,-44 l -66,-240 c -8,-31 -13,-58 -13,-77 0,-24 11,-39 30,-39 26,0 62,21 160,94 l -10,18 -26,-17 c -29,-19 -52,-30 -61,-30 -7,0 -13,10 -13,20 0,10 2,19 7,40 l 77,304 c 4,17 6,28 6,36 0,17 -9,26 -25,26 -22,0 -59,-21 -134,-74 z m 194,324 c -29,0 -58,-33 -58,-67 0,-25 15,-41 39,-41 31,0 55,29 55,67 0,24 -15,41 -36,41 z m 80,-564 c -5,-51 -11,-86 -22,-132 38,-18 72,-27 107,-27 49,0 95,18 146,58 51,40 72,77 72,127 0,54 -32,83 -106,97 l -43,8 c -60,11 -79,28 -79,69 0,53 45,94 102,94 41,0 79,-18 95,-45 v -55 h 23 c 4,35 8,62 19,113 -39,19 -67,27 -100,27 -52,0 -113,-30 -161,-78 -26,-27 -37,-52 -37,-88 0,-56 31,-88 97,-101 l 63,-12 c 44,-8 60,-26 60,-65 0,-65 -46,-109 -117,-109 -35,0 -66,11 -94,35 v 84 z"
                 stroke="#000000"
                 stroke-opacity="1"
                 stroke-width="8"
                 fill="#000000"
                 fill-opacity="1"
                 id="path27" />
            </g>
          </g>
        </g>
      </g>
      <g
         id="g35">
        <g
           id="g34">
          <g
             id="g33">
            <g
               transform="translate(178,87)"
               id="g32">
              <path
                 transform="scale(0.017,-0.017)"
                 d="m 483,722 -12,11 C 419,707 383,698 311,691 l -4,-21 h 48 c 24,0 34,-7 34,-24 0,-8 -1,-17 -2,-24 L 359,468 c -30,9 -57,14 -82,14 C 208,482 114,410 68,323 37,265 17,170 17,86 c 0,-65 15,-97 44,-97 27,0 64,17 98,44 54,44 87,83 154,184 L 290,126 C 279,82 274,50 274,24 c 0,-21 9,-33 26,-33 17,0 41,12 75,37 l 81,60 -10,19 -44,-31 C 388,66 372,59 363,59 c -8,0 -14,9 -14,23 0,8 1,17 8,46 z M 114,59 c -16,0 -25,14 -25,39 0,126 46,282 95,320 13,10 32,15 59,15 44,0 73,-6 106,-23 L 337,351 C 300,171 159,59 114,59 Z"
                 stroke="#000000"
                 stroke-opacity="1"
                 stroke-width="8"
                 fill="#000000"
                 fill-opacity="1"
                 id="path31" />
            </g>
          </g>
        </g>
      </g>
      <g
         id="g39">
        <g
           id="g38">
          <g
             id="g37">
            <g
               transform="translate(82,57)"
               id="g36">
              <path
                 transform="scale(0.017,-0.017)"
                 d="M 31,148 C 26,97 20,62 9,16 47,-2 81,-11 116,-11 c 49,0 95,18 146,58 51,40 72,77 72,127 0,54 -32,83 -106,97 l -43,8 c -60,11 -79,28 -79,69 0,53 45,94 102,94 41,0 79,-18 95,-45 v -55 h 23 c 4,35 8,62 19,113 -39,19 -67,27 -100,27 C 193,482 132,452 84,404 58,377 47,352 47,316 47,260 78,228 144,215 l 63,-12 c 44,-8 60,-26 60,-65 C 267,73 221,29 150,29 115,29 84,40 56,64 v 84 z"
                 stroke="#000000"
                 stroke-opacity="1"
                 stroke-width="8"
                 fill="#000000"
                 fill-opacity="1"
                 id="path35" />
            </g>
          </g>
        </g>
      </g>
      <g
         id="g43">
        <g
           id="g42">
          <g
             id="g41">
            <g
               transform="translate(92,57.5)"
               id="g40">
              <path
                 transform="scale(0.0085,-0.0085)"
                 d="m 105,664 56,-2 c 24,-1 35,-9 35,-27 0,-14 -4,-46 -9,-76 L 112,125 C 96,34 94,32 54,28 L 13,25 9,-3 51,-2 c 47,2 66,2 90,2 l 97,-3 h 26 l 3,28 -49,3 c -27,2 -36,10 -36,30 0,9 1,18 4,35 l 101,555 c 29,6 49,8 76,8 87,0 133,-39 133,-113 0,-95 -78,-165 -182,-165 h -44 l -3,-11 C 401,172 432,124 507,-3 c 0,0 85,3 85,3 1,0 15,-1 34,-3 h 13 v 27 c -40,5 -51,13 -80,55 L 375,354 c 55,10 84,22 120,48 58,42 89,97 89,158 0,86 -64,133 -175,131 H 108 Z M 683,152 c 0,-106 45,-163 128,-163 55,0 115,26 160,68 62,59 106,173 106,274 0,94 -50,151 -133,151 C 840,482 683,382 683,152 Z m 224,292 c 61,0 94,-45 94,-129 0,-96 -31,-202 -75,-255 -18,-21 -44,-33 -75,-33 -58,0 -92,45 -92,124 0,113 39,236 88,276 13,11 36,17 60,17 z m 327,-54 -56,-283 c -1,-8 -13,-46 -13,-76 0,-25 11,-40 30,-40 35,0 70,20 148,83 l 31,25 -10,18 -45,-31 c -29,-20 -49,-30 -60,-30 -9,0 -14,8 -14,20 0,26 14,107 43,252 l 13,62 h 107 l 11,50 c -38,-4 -72,-6 -110,-6 16,94 27,143 45,197 l -11,15 c -20,-12 -47,-24 -78,-36 l -25,-170 c -44,-21 -70,-32 -88,-37 l -2,-13 z M 1712,204 1683,77 c -4,-17 -6,-35 -6,-51 0,-22 9,-35 24,-35 23,0 64,26 146,94 l -7,21 c -24,-20 -53,-47 -75,-47 -9,0 -15,9 -15,23 0,5 0,8 1,11 l 92,379 -10,9 -33,-18 c -41,15 -58,19 -85,19 -28,0 -48,-5 -75,-18 -62,-31 -95,-61 -120,-110 -44,-89 -75,-209 -75,-287 0,-44 15,-78 34,-78 37,0 117,52 233,215 z m 48,210 C 1738,305 1719,253 1685,201 1628,117 1567,59 1535,59 c -12,0 -18,13 -18,40 0,64 28,181 63,261 24,55 47,73 95,73 23,0 41,-4 85,-19 z m 249,-24 -56,-283 c -1,-8 -13,-46 -13,-76 0,-25 11,-40 30,-40 35,0 70,20 148,83 l 31,25 -10,18 -45,-31 c -29,-20 -49,-30 -60,-30 -9,0 -14,8 -14,20 0,26 14,107 43,252 l 13,62 h 107 l 11,50 c -38,-4 -72,-6 -110,-6 16,94 27,143 45,197 l -11,15 c -20,-12 -47,-24 -78,-36 l -25,-170 c -44,-21 -70,-32 -88,-37 l -2,-13 z m 241,-2 7,-20 32,21 c 37,23 40,25 47,25 10,0 18,-10 18,-23 0,-7 -4,-30 -8,-44 l -66,-240 c -8,-31 -13,-58 -13,-77 0,-24 11,-39 30,-39 26,0 62,21 160,94 l -10,18 -26,-17 c -29,-19 -52,-30 -61,-30 -7,0 -13,10 -13,20 0,10 2,19 7,40 l 77,304 c 4,17 6,28 6,36 0,17 -9,26 -25,26 -22,0 -59,-21 -134,-74 z m 194,324 c -29,0 -58,-33 -58,-67 0,-25 15,-41 39,-41 31,0 55,29 55,67 0,24 -15,41 -36,41 z m 73,-324 7,-20 32,21 c 37,23 40,25 47,25 11,0 18,-10 18,-25 0,-51 -41,-244 -82,-387 l 7,-11 c 25,7 48,13 70,17 19,126 40,191 86,260 54,84 129,146 174,146 11,0 17,-9 17,-24 0,-18 -3,-39 -11,-71 l -52,-212 c -9,-37 -13,-60 -13,-76 0,-25 11,-40 30,-40 26,0 62,21 160,94 l -10,18 -26,-17 c -29,-19 -51,-30 -61,-30 -7,0 -13,9 -13,20 0,5 1,16 2,20 l 66,276 c 7,29 11,57 11,74 0,23 -11,36 -31,36 -42,0 -111,-38 -170,-93 -38,-35 -66,-69 -118,-142 l 38,161 c 4,18 6,30 6,41 0,21 -8,33 -23,33 -21,0 -60,-22 -133,-74 z m 806,94 c -67,0 -220,-63 -220,-223 0,-77 45,-123 122,-123 8,0 19,0 30,1 l -41,-38 c -16,-15 -27,-33 -27,-47 0,-10 7,-21 21,-33 -69,-23 -197,-67 -197,-178 0,-71 70,-117 179,-117 129,0 242,72 242,155 0,36 -21,72 -64,107 l -60,49 c -34,27 -47,46 -47,65 0,14 15,28 27,46 98,24 169,107 169,196 0,15 -3,34 -4,38 17,-2 25,-2 34,-2 17,0 27,1 50,4 l 9,45 -3,6 c -28,-7 -48,-9 -102,-9 0,1 -24,58 -118,58 z m -99,-481 77,-59 c 46,-36 65,-63 65,-96 0,-52 -69,-94 -152,-94 -82,0 -139,42 -139,103 0,102 110,134 149,146 z m 74,447 c 58,0 87,-36 87,-107 0,-103 -48,-173 -118,-173 -61,0 -93,41 -93,120 0,95 51,160 124,160 z M 4067,204 4038,77 c -4,-17 -6,-35 -6,-51 0,-22 9,-35 24,-35 23,0 64,26 146,94 l -7,21 c -24,-20 -53,-47 -75,-47 -9,0 -15,9 -15,23 0,5 0,8 1,11 l 92,379 -10,9 -33,-18 c -41,15 -58,19 -85,19 -28,0 -48,-5 -75,-18 -62,-31 -95,-61 -120,-110 -44,-89 -75,-209 -75,-287 0,-44 15,-78 34,-78 37,0 117,52 233,215 z m 48,210 C 4093,305 4074,253 4040,201 3983,117 3922,59 3890,59 c -12,0 -18,13 -18,40 0,64 28,181 63,261 24,55 47,73 95,73 23,0 41,-4 85,-19 z m 492,-49 c 3,38 8,70 16,111 -11,5 -15,6 -20,6 -31,0 -62,-24 -98,-75 -39,-56 -78,-116 -94,-151 l 32,152 c 4,17 6,30 6,42 0,20 -8,32 -23,32 -21,0 -59,-21 -133,-74 l -28,-20 7,-20 32,21 c 28,18 39,23 48,23 10,0 17,-9 17,-22 0,-58 -43,-264 -83,-392 l 10,-7 c 15,5 31,8 54,13 l 13,2 26,120 c 18,83 41,136 85,193 34,44 61,65 83,65 15,0 25,-5 36,-19 z m 37,-213 c 0,-106 45,-163 128,-163 55,0 115,26 160,68 62,59 106,173 106,274 0,94 -50,151 -133,151 -104,0 -261,-100 -261,-330 z m 224,292 c 61,0 94,-45 94,-129 0,-96 -31,-202 -75,-255 -18,-21 -44,-33 -75,-33 -58,0 -92,45 -92,124 0,113 39,236 88,276 13,11 36,17 60,17 z m 694,29 -7,9 -68,-17 -10,-51 c -15,-78 -40,-146 -71,-193 -59,-91 -137,-162 -177,-162 -8,0 -13,9 -13,26 0,14 2,27 7,52 l 57,271 c 3,16 5,30 5,43 0,19 -9,31 -23,31 -20,0 -58,-21 -132,-74 l -28,-20 7,-20 32,21 c 28,18 39,23 48,23 9,0 17,-9 17,-20 0,-4 -1,-14 -2,-18 L 5141,77 c -2,-9 -4,-33 -4,-47 0,-23 15,-41 35,-41 63,0 184,112 268,250 L 5403,97 c -7,-24 -11,-51 -11,-66 0,-25 11,-40 30,-40 26,0 62,21 160,94 l -10,18 -26,-17 c -24,-16 -50,-27 -61,-27 -8,0 -13,7 -13,17 0,36 75,340 90,397 z m 87,-85 7,-20 32,21 c 37,23 40,25 47,25 11,0 18,-10 18,-25 0,-51 -41,-244 -82,-387 l 7,-11 c 25,7 48,13 70,17 19,126 40,191 86,260 54,84 129,146 174,146 11,0 17,-9 17,-24 0,-18 -3,-39 -11,-71 l -52,-212 c -9,-37 -13,-60 -13,-76 0,-25 11,-40 30,-40 26,0 62,21 160,94 l -10,18 -26,-17 c -29,-19 -51,-30 -61,-30 -7,0 -13,9 -13,20 0,5 1,16 2,20 l 66,276 c 7,29 11,57 11,74 0,23 -11,36 -31,36 -42,0 -111,-38 -170,-93 -38,-35 -66,-69 -118,-142 l 38,161 c 4,18 6,30 6,41 0,21 -8,33 -23,33 -21,0 -60,-22 -133,-74 z m 1014,334 -12,11 c -52,-26 -88,-35 -160,-42 l -4,-21 h 48 c 24,0 34,-7 34,-24 0,-8 -1,-17 -2,-24 l -28,-154 c -30,9 -57,14 -82,14 -69,0 -163,-72 -209,-159 -31,-58 -51,-153 -51,-237 0,-65 15,-97 44,-97 27,0 64,17 98,44 54,44 87,83 154,184 l -23,-91 c -11,-44 -16,-76 -16,-102 0,-21 9,-33 26,-33 17,0 41,12 75,37 l 81,60 -10,19 -44,-31 c -14,-10 -30,-17 -39,-17 -8,0 -14,9 -14,23 0,8 1,17 8,46 z M 6294,59 c -16,0 -25,14 -25,39 0,126 46,282 95,320 13,10 32,15 59,15 44,0 73,-6 106,-23 l -12,-59 C 6480,171 6339,59 6294,59 Z m 905,145 -29,-127 c -4,-17 -6,-35 -6,-51 0,-22 9,-35 24,-35 23,0 64,26 146,94 l -7,21 c -24,-20 -53,-47 -75,-47 -9,0 -15,9 -15,23 0,5 0,8 1,11 l 92,379 -10,9 -33,-18 c -41,15 -58,19 -85,19 -28,0 -48,-5 -75,-18 -62,-31 -95,-61 -120,-110 -44,-89 -75,-209 -75,-287 0,-44 15,-78 34,-78 37,0 117,52 233,215 z m 48,210 C 7225,305 7206,253 7172,201 7115,117 7054,59 7022,59 c -12,0 -18,13 -18,40 0,64 28,181 63,261 24,55 47,73 95,73 23,0 41,-4 85,-19 z m 549,-425 c 56,0 171,73 214,136 41,61 75,171 75,246 0,67 -23,111 -59,111 -42,0 -95,-26 -147,-73 -41,-35 -61,-61 -97,-120 l 24,119 c 3,17 5,32 5,44 0,19 -8,30 -22,30 -21,0 -59,-21 -133,-74 l -28,-20 7,-20 32,21 c 28,18 39,23 48,23 10,0 17,-9 17,-23 0,-8 -2,-28 -4,-38 L 7670,8 c -10,-60 -29,-151 -49,-241 l -8,-37 7,-6 c 21,7 41,12 73,17 l 42,262 c 21,-7 43,-14 61,-14 z m -33,176 c 22,128 129,259 212,259 26,0 38,-22 38,-68 0,-81 -40,-200 -93,-276 -20,-29 -52,-44 -93,-44 -31,0 -56,7 -82,23 z m 627,39 -29,-127 c -4,-17 -6,-35 -6,-51 0,-22 9,-35 24,-35 23,0 64,26 146,94 l -7,21 c -24,-20 -53,-47 -75,-47 -9,0 -15,9 -15,23 0,5 0,8 1,11 l 92,379 -10,9 -33,-18 c -41,15 -58,19 -85,19 -28,0 -48,-5 -75,-18 -62,-31 -95,-61 -120,-110 -44,-89 -75,-209 -75,-287 0,-44 15,-78 34,-78 37,0 117,52 233,215 z m 48,210 C 8416,305 8397,253 8363,201 8306,117 8245,59 8213,59 c -12,0 -18,13 -18,40 0,64 28,181 63,261 24,55 47,73 95,73 23,0 41,-4 85,-19 z m 492,-49 c 3,38 8,70 16,111 -11,5 -15,6 -20,6 -31,0 -62,-24 -98,-75 -39,-56 -78,-116 -94,-151 l 32,152 c 4,17 6,30 6,42 0,20 -8,32 -23,32 -21,0 -59,-21 -133,-74 l -28,-20 7,-20 32,21 c 28,18 39,23 48,23 10,0 17,-9 17,-22 0,-58 -43,-264 -83,-392 l 10,-7 c 15,5 31,8 54,13 l 13,2 26,120 c 18,83 41,136 85,193 34,44 61,65 83,65 15,0 25,-5 36,-19 z M 9221,204 9192,77 c -4,-17 -6,-35 -6,-51 0,-22 9,-35 24,-35 23,0 64,26 146,94 l -7,21 c -24,-20 -53,-47 -75,-47 -9,0 -15,9 -15,23 0,5 0,8 1,11 l 92,379 -10,9 -33,-18 c -41,15 -58,19 -85,19 -28,0 -48,-5 -75,-18 -62,-31 -95,-61 -120,-110 -44,-89 -75,-209 -75,-287 0,-44 15,-78 34,-78 37,0 117,52 233,215 z m 48,210 C 9247,305 9228,253 9194,201 9137,117 9076,59 9044,59 c -12,0 -18,13 -18,40 0,64 28,181 63,261 24,55 47,73 95,73 23,0 41,-4 85,-19 z m 375,308 -12,11 c -52,-26 -88,-35 -160,-42 l -4,-21 h 48 c 24,0 34,-7 34,-22 0,-3 0,-8 -3,-26 -11,-55 -84,-440 -99,-490 -13,-50 -19,-80 -19,-101 0,-25 11,-40 30,-40 26,0 62,21 160,94 l -10,18 -26,-17 c -29,-19 -51,-30 -61,-30 -7,0 -13,10 -13,20 0,6 1,13 4,28 z m 277,0 -12,11 c -52,-26 -88,-35 -160,-42 l -4,-21 h 48 c 24,0 34,-7 34,-22 0,-3 0,-8 -3,-26 -11,-55 -84,-440 -99,-490 -13,-50 -19,-80 -19,-101 0,-25 11,-40 30,-40 26,0 62,21 160,94 l -10,18 -26,-17 c -29,-19 -51,-30 -61,-30 -7,0 -13,10 -13,20 0,6 1,13 4,28 z m 354,-611 -24,-17 c -53,-38 -101,-58 -137,-58 -47,0 -76,37 -76,97 0,25 3,52 8,81 17,4 126,34 151,45 85,37 124,83 124,145 0,47 -34,78 -84,78 -68,14 -178,-59 -215,-133 -30,-50 -60,-169 -60,-236 0,-78 44,-124 116,-124 57,0 113,28 205,103 z m -215,163 c 17,69 37,112 66,138 18,16 49,28 73,28 29,0 48,-20 48,-52 0,-44 -35,-91 -87,-116 -28,-14 -64,-25 -109,-35 z m 526,448 -12,11 c -52,-26 -88,-35 -160,-42 l -4,-21 h 48 c 24,0 34,-7 34,-22 0,-3 0,-8 -3,-26 -11,-55 -84,-440 -99,-490 -13,-50 -19,-80 -19,-101 0,-25 11,-40 30,-40 26,0 62,21 160,94 l -10,18 -26,-17 c -29,-19 -51,-30 -61,-30 -7,0 -13,10 -13,20 0,6 1,13 4,28 z m 546,-518 -29,-127 c -4,-17 -6,-35 -6,-51 0,-22 9,-35 24,-35 23,0 64,26 146,94 l -7,21 c -24,-20 -53,-47 -75,-47 -9,0 -15,9 -15,23 0,5 0,8 1,11 l 92,379 -10,9 -33,-18 c -41,15 -58,19 -85,19 -28,0 -48,-5 -75,-18 -62,-31 -95,-61 -120,-110 -44,-89 -75,-209 -75,-287 0,-44 15,-78 34,-78 37,0 117,52 233,215 z m 48,210 c -22,-109 -41,-161 -75,-213 -57,-84 -118,-142 -150,-142 -12,0 -18,13 -18,40 0,64 28,181 63,261 24,55 47,73 95,73 23,0 41,-4 85,-19 z M 11313,1 c 15,-8 31,-12 43,-12 33,0 72,29 103,76 l 76,117 11,-69 c 13,-85 36,-124 72,-124 22,0 54,17 86,46 l 49,44 -9,19 c -36,-30 -61,-45 -77,-45 -15,0 -28,10 -38,30 -9,19 -20,56 -25,85 l -18,101 35,49 c 47,65 74,88 105,88 16,0 28,-8 33,-23 l 14,4 15,85 c -12,7 -21,10 -30,10 -40,0 -80,-36 -142,-128 l -37,-55 -6,48 c -12,99 -39,135 -98,135 -26,0 -48,-8 -57,-21 l -58,-83 17,-10 c 30,34 50,48 69,48 33,0 55,-41 72,-139 l 11,-62 -40,-62 c -43,-67 -77,-99 -105,-99 -15,0 -26,4 -28,9 l -11,28 -20,-3 c 0,-35 -8,-61 -12,-87 z m 524,387 7,-20 32,21 c 37,23 40,25 47,25 10,0 18,-10 18,-23 0,-7 -4,-30 -8,-44 l -66,-240 c -8,-31 -13,-58 -13,-77 0,-24 11,-39 30,-39 26,0 62,21 160,94 l -10,18 -26,-17 c -29,-19 -52,-30 -61,-30 -7,0 -13,10 -13,20 0,10 2,19 7,40 l 77,304 c 4,17 6,28 6,36 0,17 -9,26 -25,26 -22,0 -59,-21 -134,-74 z m 194,324 c -29,0 -58,-33 -58,-67 0,-25 15,-41 39,-41 31,0 55,29 55,67 0,24 -15,41 -36,41 z m 80,-564 c -5,-51 -11,-86 -22,-132 38,-18 72,-27 107,-27 49,0 95,18 146,58 51,40 72,77 72,127 0,54 -32,83 -106,97 l -43,8 c -60,11 -79,28 -79,69 0,53 45,94 102,94 41,0 79,-18 95,-45 v -55 h 23 c 4,35 8,62 19,113 -39,19 -67,27 -100,27 -52,0 -113,-30 -161,-78 -26,-27 -37,-52 -37,-88 0,-56 31,-88 97,-101 l 63,-12 c 44,-8 60,-26 60,-65 0,-65 -46,-109 -117,-109 -35,0 -66,11 -94,35 v 84 z"
                 stroke="#000000"
                 stroke-opacity="1"
                 stroke-width="8"
                 fill="#000000"
                 fill-opacity="1"
                 id="path39" />
            </g>
          </g>
        </g>
      </g>
      <g
         id="g47">
        <g
           id="g46">
          <g
             id="g45">
            <g
               transform="translate(278,197)"
               id="g44">
              <path
                 transform="scale(0.017,-0.017)"
                 d="m 349,664 3,28 -114,-3 c -16,0 -34,0 -77,1 l -64,2 -3,-28 47,-2 c 24,-1 35,-9 35,-27 L 81,55 C 77,37 65,30 21,23 l -5,-26 41,1 c 31,1 93,2 113,2 0,0 297,-1 297,-1 0,0 33,1 33,1 -1,25 10,103 23,165 H 492 L 475,103 C 466,71 457,54 448,49 435,44 371,39 304,39 c -49,0 -76,1 -142,7 3,18 94,559 94,567 7,38 14,45 51,48 z"
                 stroke="#000000"
                 stroke-opacity="1"
                 stroke-width="8"
                 fill="#000000"
                 fill-opacity="1"
                 id="path43" />
            </g>
          </g>
        </g>
      </g>
    </svg>
  </g>
</svg>
