<?xml version="1.0" encoding="UTF-8" standalone="no"?>
<svg
   width="90.224968mm"
   height="88.423767mm"
   viewBox="0 0 1065.6501 1044.3741"
   version="1.2"
   id="svg24"
   sodipodi:docname="Pascal Law.svg"
   inkscape:version="1.4.2 (ebf0e94, 2025-05-08)"
   xmlns:inkscape="http://www.inkscape.org/namespaces/inkscape"
   xmlns:sodipodi="http://sodipodi.sourceforge.net/DTD/sodipodi-0.dtd"
   xmlns:xlink="http://www.w3.org/1999/xlink"
   xmlns="http://www.w3.org/2000/svg"
   xmlns:svg="http://www.w3.org/2000/svg">
  <sodipodi:namedview
     id="namedview24"
     pagecolor="#ffffff"
     bordercolor="#000000"
     borderopacity="0.25"
     inkscape:showpageshadow="2"
     inkscape:pageopacity="0.0"
     inkscape:pagecheckerboard="0"
     inkscape:deskcolor="#d1d1d1"
     inkscape:document-units="mm"
     inkscape:zoom="0.71889176"
     inkscape:cx="-239.25716"
     inkscape:cy="109.19585"
     inkscape:window-width="1920"
     inkscape:window-height="1009"
     inkscape:window-x="1912"
     inkscape:window-y="-8"
     inkscape:window-maximized="1"
     inkscape:current-layer="svg24" />
  <defs
     id="defs1">
    <rect
       x="407.57178"
       y="222.5648"
       width="540.41516"
       height="449.9982"
       id="rect42" />
    <marker
       style="overflow:visible"
       id="Triangle"
       refX="0"
       refY="0"
       orient="auto-start-reverse"
       inkscape:stockid="Triangle arrow"
       markerWidth="1"
       markerHeight="1"
       viewBox="0 0 1 1"
       inkscape:isstock="true"
       inkscape:collect="always"
       preserveAspectRatio="xMidYMid">
      <path
         transform="scale(0.5)"
         style="fill:context-stroke;fill-rule:evenodd;stroke:context-stroke;stroke-width:1pt"
         d="M 5.77,0 -2.88,5 V -5 Z"
         id="path135" />
    </marker>
    <linearGradient
       id="linearGradient29"
       inkscape:collect="always">
      <stop
         style="stop-color:#90a5cc;stop-opacity:1;"
         offset="0"
         id="stop29" />
      <stop
         style="stop-color:#d7d9e3;stop-opacity:0;"
         offset="1"
         id="stop30" />
    </linearGradient>
    <linearGradient
       id="linearGradient27"
       inkscape:collect="always">
      <stop
         style="stop-color:#90a5cc;stop-opacity:1;"
         offset="0"
         id="stop27" />
      <stop
         style="stop-color:#90a5cc;stop-opacity:0;"
         offset="1"
         id="stop28" />
    </linearGradient>
    <linearGradient
       inkscape:collect="always"
       xlink:href="#linearGradient27"
       id="linearGradient28"
       x1="662.82581"
       y1="581.5105"
       x2="662.82581"
       y2="395.11255"
       gradientUnits="userSpaceOnUse"
       gradientTransform="matrix(3.1250024,0,0,3.1250024,-1772.9609,-963.22265)" />
    <linearGradient
       inkscape:collect="always"
       xlink:href="#linearGradient29"
       id="linearGradient30"
       x1="662.53564"
       y1="480.21573"
       x2="662.53564"
       y2="294.59586"
       gradientUnits="userSpaceOnUse"
       gradientTransform="matrix(3.1250024,0,0,3.1250024,-1772.9609,-963.22265)" />
    <marker
       style="overflow:visible"
       id="Triangle-9"
       refX="0"
       refY="0"
       orient="auto-start-reverse"
       inkscape:stockid="Triangle arrow"
       markerWidth="1"
       markerHeight="1"
       viewBox="0 0 1 1"
       inkscape:isstock="true"
       inkscape:collect="always"
       preserveAspectRatio="xMidYMid">
      <path
         transform="scale(0.5)"
         style="fill:context-stroke;fill-rule:evenodd;stroke:context-stroke;stroke-width:1pt"
         d="M 5.77,0 -2.88,5 V -5 Z"
         id="path135-4" />
    </marker>
    <marker
       style="overflow:visible"
       id="Triangle-4"
       refX="0"
       refY="0"
       orient="auto-start-reverse"
       inkscape:stockid="Triangle arrow"
       markerWidth="1"
       markerHeight="1"
       viewBox="0 0 1 1"
       inkscape:isstock="true"
       inkscape:collect="always"
       preserveAspectRatio="xMidYMid">
      <path
         transform="scale(0.5)"
         style="fill:context-stroke;fill-rule:evenodd;stroke:context-stroke;stroke-width:1pt"
         d="M 5.77,0 -2.88,5 V -5 Z"
         id="path135-5" />
    </marker>
  </defs>
  <g
     fill="none"
     stroke="#000000"
     stroke-width="1"
     fill-rule="evenodd"
     stroke-linecap="square"
     stroke-linejoin="bevel"
     id="g24"
     transform="translate(-1774.4978,-961.68263)">
    <g
       fill="none"
       stroke="#000000"
       stroke-opacity="1"
       stroke-width="1"
       stroke-linecap="square"
       stroke-linejoin="bevel"
       font-family="Arial"
       font-size="12px"
       font-weight="400"
       font-style="normal"
       id="g2" />
    <g
       fill="#000000"
       fill-opacity="1"
       stroke="#000000"
       stroke-opacity="1"
       stroke-width="1"
       stroke-linecap="butt"
       stroke-linejoin="miter"
       stroke-miterlimit="2"
       font-family="Arial"
       font-size="12px"
       font-weight="400"
       font-style="normal"
       id="g3" />
    <g
       fill="#000000"
       fill-opacity="1"
       stroke="#000000"
       stroke-opacity="1"
       stroke-width="5"
       stroke-linecap="round"
       stroke-linejoin="bevel"
       font-family="Arial"
       font-size="12px"
       font-weight="400"
       font-style="normal"
       id="g22"
       transform="translate(1.4177534,-0.90451078)">
      <path
         id="polyline3"
         style="vector-effect:none;fill:none"
         d="m 2366.16,1532.02 h 236.23" />
      <path
         id="polyline4"
         style="vector-effect:none;fill:none"
         d="m 2366.16,1484.77 h 236.23" />
      <path
         id="polyline5"
         style="vector-effect:none;fill:none"
         d="m 2366.16,1083.18 -0.17,-3.99 -0.51,-3.98 -0.84,-3.98 -1.17,-3.96 -1.51,-3.94 -1.85,-3.92 -2.17,-3.9 -2.5,-3.86 -2.82,-3.83 -3.15,-3.78 -3.47,-3.74 -3.77,-3.7 -4.09,-3.64 -4.39,-3.58 -4.7,-3.52 -4.98,-3.45 -5.28,-3.39 -5.56,-3.31 -5.83,-3.24 -6.11,-3.15 -6.37,-3.07 -6.62,-2.99 -6.87,-2.89 -7.12,-2.797 -7.34,-2.699 -7.57,-2.599 -7.78,-2.495 -7.99,-2.389 -8.19,-2.279 -8.37,-2.167 -8.56,-2.053 -8.72,-1.937 -8.88,-1.817 -9.02,-1.696 -9.17,-1.574 -9.29,-1.448 -9.42,-1.323 -9.51,-1.194 -9.61,-1.065 -9.7,-0.935 -9.77,-0.803 -9.83,-0.671 -9.89,-0.537 -9.92,-0.404 -9.95,-0.269 -9.97,-0.135 h -9.98 l -9.97,0.135 -9.95,0.269 -9.92,0.404 -9.88,0.537 -9.84,0.671 -9.77,0.803 -9.69,0.935 -9.62,1.065 -9.51,1.194 -9.41,1.323 -9.3,1.448 -9.16,1.574 -9.03,1.696 -8.88,1.817 -8.72,1.937 -8.55,2.053 -8.38,2.167 -8.19,2.279 -7.99,2.389 -7.78,2.495 -7.57,2.599 -7.34,2.699 -7.11,2.797 -6.88,2.89 -6.62,2.99 -6.37,3.07 -6.1,3.15 -5.84,3.24 -5.56,3.31 -5.27,3.39 -4.99,3.45 -4.69,3.52 -4.4,3.58 -4.08,3.64 -3.78,3.7 -3.47,3.74 -3.14,3.78 -2.83,3.83 -2.5,3.86 -2.17,3.9 -1.84,3.92 -1.51,3.94 -1.18,3.96 -0.84,3.98 -0.51,3.98 -0.17,3.99 0.17,3.99 0.51,3.99 0.84,3.97 1.18,3.96 1.51,3.95 1.84,3.92 2.17,3.89 2.5,3.86 2.83,3.83 3.14,3.79 3.47,3.74 3.78,3.69 4.08,3.64 4.4,3.58 4.69,3.52 4.99,3.46 5.27,3.38 5.56,3.32 5.84,3.23 6.1,3.16 6.37,3.07 6.62,2.98 6.88,2.89 7.11,2.8 7.34,2.7 7.57,2.6 7.78,2.49 7.99,2.39 8.19,2.28 8.38,2.17 8.55,2.05 8.72,1.94 8.88,1.82 9.03,1.69 9.16,1.58 9.3,1.44 9.41,1.33 9.51,1.19 9.62,1.07 9.69,0.93 9.77,0.8 9.84,0.67 9.88,0.54 9.92,0.41 9.95,0.26 9.97,0.14 h 9.98 l 9.97,-0.14 9.95,-0.26 9.92,-0.41 9.89,-0.54 9.83,-0.67 9.77,-0.8 9.7,-0.93 9.61,-1.07 9.51,-1.19 9.42,-1.33 9.29,-1.44 9.17,-1.58 9.02,-1.69 8.88,-1.82 8.72,-1.94 8.56,-2.05 8.37,-2.17 8.19,-2.28 7.99,-2.39 7.78,-2.49 7.57,-2.6 7.34,-2.7 7.12,-2.8 6.87,-2.89 6.62,-2.98 6.37,-3.07 6.11,-3.16 5.83,-3.23 5.56,-3.32 5.28,-3.38 4.98,-3.46 4.7,-3.52 4.39,-3.58 4.09,-3.64 3.77,-3.69 3.47,-3.74 3.15,-3.79 2.82,-3.83 2.5,-3.86 2.17,-3.89 1.85,-3.92 1.51,-3.95 1.17,-3.96 0.84,-3.97 0.51,-3.99 0.17,-3.99" />
      <path
         id="polyline6"
         style="vector-effect:none;fill:none"
         d="m 2366.16,1484.77 -2.17,2.68 -1.9,2.87 -1.61,3.05 -1.31,3.19 -0.99,3.3 -0.67,3.38 -0.33,3.43 v 3.45 l 0.33,3.43 0.67,3.38 0.99,3.3 1.31,3.19 1.61,3.04 1.9,2.88 2.17,2.68" />
      <path
         id="polyline7"
         style="vector-effect:none;fill:none"
         d="m 2366.16,1532.02 v 212.6" />
      <path
         id="polyline8"
         style="vector-effect:none;fill:none"
         d="m 2366.16,1791.87 v 94.49" />
      <path
         id="polyline9"
         style="vector-effect:none;fill:none"
         d="m 2366.16,1744.62 h 236.23" />
      <path
         id="polyline10"
         style="vector-effect:none;fill:none"
         d="m 2366.16,1170.63 -0.17,-3.99 -0.51,-3.99 -0.84,-3.97 -1.17,-3.96 -1.51,-3.95 -1.85,-3.92 -2.17,-3.89 -2.5,-3.86 -2.82,-3.83 -3.15,-3.79 -3.47,-3.74 -3.77,-3.69 -4.09,-3.64 -4.39,-3.58 -4.7,-3.52 -4.98,-3.46 -5.28,-3.38 -5.56,-3.32 -5.83,-3.23 -6.11,-3.16 -6.37,-3.07 -6.62,-2.98 -6.87,-2.89 -7.12,-2.8 -7.34,-2.7 -7.57,-2.6 -7.78,-2.49 -7.99,-2.39 -8.19,-2.28 -8.37,-2.17 -8.56,-2.05 -8.72,-1.94 -8.88,-1.82 -9.02,-1.69 -9.17,-1.57 -9.29,-1.45 -9.42,-1.33 -9.51,-1.19 -9.61,-1.07 -9.7,-0.93 -9.77,-0.8 -9.83,-0.67 -9.89,-0.54 -9.92,-0.41 -9.95,-0.26 -9.97,-0.14 h -9.98 l -9.97,0.14 -9.95,0.26 -9.92,0.41 -9.88,0.54 -9.84,0.67 -9.77,0.8 -9.69,0.93 -9.62,1.07 -9.51,1.19 -9.41,1.33 -9.3,1.45 -9.16,1.57 -9.03,1.69 -8.88,1.82 -8.72,1.94 -8.55,2.05 -8.38,2.17 -8.19,2.28 -7.99,2.39 -7.78,2.49 -7.57,2.6 -7.34,2.7 -7.11,2.8 -6.88,2.89 -6.62,2.98 -6.37,3.07 -6.1,3.16 -5.84,3.23 -5.56,3.32 -5.27,3.38 -4.99,3.46 -4.69,3.52 -4.4,3.58 -4.08,3.64 -3.78,3.69 -3.47,3.74 -3.14,3.79 -2.83,3.83 -2.5,3.86 -2.17,3.89 -1.84,3.92 -1.51,3.95 -1.18,3.96 -0.84,3.97 -0.51,3.99 -0.17,3.99 0.17,3.99 0.51,3.98 0.84,3.98 1.18,3.96 1.51,3.94 1.84,3.92 2.17,3.9 2.5,3.86 2.83,3.83 3.14,3.78 3.47,3.75 3.78,3.69 4.08,3.64 4.4,3.58 4.69,3.52 4.99,3.45 5.27,3.39 5.56,3.31 5.84,3.24 6.1,3.15 6.37,3.07 6.62,2.99 6.88,2.89 7.11,2.8 7.34,2.7 7.57,2.6 7.78,2.49 7.99,2.39 8.19,2.28 8.38,2.17 8.55,2.05 8.72,1.93 8.88,1.82 9.03,1.7 9.16,1.57 9.3,1.45 9.41,1.32 9.51,1.2 9.62,1.06 9.69,0.94 9.77,0.8 9.84,0.67 9.88,0.54 9.92,0.4 9.95,0.27 9.97,0.14 h 9.98 l 9.97,-0.14 9.95,-0.27 9.92,-0.4 9.89,-0.54 9.83,-0.67 9.77,-0.8 9.7,-0.94 9.61,-1.06 9.51,-1.2 9.42,-1.32 9.29,-1.45 9.17,-1.57 9.02,-1.7 8.88,-1.82 8.72,-1.93 8.56,-2.05 8.37,-2.17 8.19,-2.28 7.99,-2.39 7.78,-2.49 7.57,-2.6 7.34,-2.7 7.12,-2.8 6.87,-2.89 6.62,-2.99 6.37,-3.07 6.11,-3.15 5.83,-3.24 5.56,-3.31 5.28,-3.39 4.98,-3.45 4.7,-3.52 4.39,-3.58 4.09,-3.64 3.77,-3.69 3.47,-3.75 3.15,-3.78 2.82,-3.83 2.5,-3.86 2.17,-3.9 1.85,-3.92 1.51,-3.94 1.17,-3.96 0.84,-3.98 0.51,-3.98 0.17,-3.99" />
      <path
         id="polyline11"
         style="vector-effect:none;fill:none"
         d="m 2366.16,1236.73 -2.17,2.68 -1.9,2.87 -1.61,3.05 -1.31,3.19 -0.99,3.3 -0.67,3.38 -0.33,3.43 v 3.45 l 0.33,3.43 0.67,3.38 0.99,3.3 1.31,3.19 1.61,3.04 1.9,2.88 2.17,2.68" />
      <path
         id="polyline12"
         style="vector-effect:none;fill:none"
         d="m 2366.16,1886.36 -0.17,-3.99 -0.51,-3.98 -0.84,-3.98 -1.17,-3.96 -1.51,-3.94 -1.85,-3.93 -2.17,-3.89 -2.5,-3.86 -2.82,-3.83 -3.15,-3.78 -3.47,-3.75 -3.77,-3.69 -4.09,-3.64 -4.39,-3.58 -4.7,-3.52 -4.98,-3.46 -5.28,-3.38 -5.56,-3.31 -5.83,-3.24 -6.11,-3.16 -6.37,-3.07 -6.62,-2.98 -6.87,-2.89 -7.12,-2.8 -7.34,-2.7 -7.57,-2.6 -7.78,-2.49 -7.99,-2.39 -8.19,-2.28 -8.37,-2.17 -8.56,-2.05 -8.72,-1.94 -8.88,-1.81 -9.02,-1.7 -9.17,-1.57 -9.29,-1.45 -9.42,-1.32 -9.51,-1.2 -9.61,-1.06 -9.7,-0.94 -9.77,-0.8 -9.83,-0.67 -9.89,-0.54 -9.92,-0.4 -9.95,-0.27 -9.97,-0.14 h -9.98 l -9.97,0.14 -9.95,0.27 -9.92,0.4 -9.88,0.54 -9.84,0.67 -9.77,0.8 -9.69,0.94 -9.62,1.06 -9.51,1.2 -9.41,1.32 -9.3,1.45 -9.16,1.57 -9.03,1.7 -8.88,1.81 -8.72,1.94 -8.55,2.05 -8.38,2.17 -8.19,2.28 -7.99,2.39 -7.78,2.49 -7.57,2.6 -7.34,2.7 -7.11,2.8 -6.88,2.89 -6.62,2.98 -6.37,3.07 -6.1,3.16 -5.84,3.24 -5.56,3.31 -5.27,3.38 -4.99,3.46 -4.69,3.52 -4.4,3.58 -4.08,3.64 -3.78,3.69 -3.47,3.75 -3.14,3.78 -2.83,3.83 -2.5,3.86 -2.17,3.89 -1.84,3.93 -1.51,3.94 -1.18,3.96 -0.84,3.98 -0.51,3.98 -0.17,3.99 0.17,3.99 0.51,3.98 0.84,3.98 1.18,3.96 1.51,3.95 1.84,3.92 2.17,3.89 2.5,3.86 2.83,3.83 3.14,3.79 3.47,3.74 3.78,3.69 4.08,3.64 4.4,3.58 4.69,3.52 4.99,3.46 5.27,3.38 5.56,3.32 5.84,3.23 6.1,3.16 6.37,3.07 6.62,2.98 6.88,2.89 7.11,2.8 7.34,2.7 7.57,2.6 7.78,2.49 7.99,2.39 8.19,2.28 8.38,2.17 8.55,2.05 8.72,1.94 8.88,1.81 9.03,1.7 9.16,1.57 9.3,1.45 9.41,1.32 9.51,1.2 9.62,1.06 9.69,0.94 9.77,0.8 9.84,0.67 9.88,0.54 9.92,0.4 9.95,0.27 9.97,0.14 h 9.98 l 9.97,-0.14 9.95,-0.27 9.92,-0.4 9.89,-0.54 9.83,-0.67 9.77,-0.8 9.7,-0.94 9.61,-1.06 9.51,-1.2 9.42,-1.32 9.29,-1.45 9.17,-1.57 9.02,-1.7 8.88,-1.81 8.72,-1.94 8.56,-2.05 8.37,-2.17 8.19,-2.28 7.99,-2.39 7.78,-2.49 7.57,-2.6 7.34,-2.7 7.12,-2.8 6.87,-2.89 6.62,-2.98 6.37,-3.07 6.11,-3.16 5.83,-3.23 5.56,-3.32 5.28,-3.38 4.98,-3.46 4.7,-3.52 4.39,-3.58 4.09,-3.64 3.77,-3.69 3.47,-3.74 3.15,-3.79 2.82,-3.83 2.5,-3.86 2.17,-3.89 1.85,-3.92 1.51,-3.95 1.17,-3.96 0.84,-3.98 0.51,-3.98 0.17,-3.99" />
      <path
         id="polyline13"
         style="vector-effect:none;fill:none"
         d="m 1775.58,1083.18 v 803.18" />
      <path
         id="polyline14"
         style="vector-effect:none;fill:none"
         d="m 2366.16,1283.98 h 236.23" />
      <path
         id="polyline15"
         style="vector-effect:none;fill:none"
         d="m 2836.23,1260.35 -0.17,-6.28 -0.5,-6.27 -0.84,-6.23 -1.16,-6.18 -1.49,-6.11 -1.82,-6.02 -2.13,-5.92 -2.45,-5.79 -2.75,-5.66 -3.04,-5.5 -3.34,-5.33 -3.61,-5.15 -3.89,-4.94 -4.14,-4.73 -4.39,-4.51 -4.62,-4.27 -4.84,-4.01 -5.05,-3.75 -5.24,-3.48 -5.41,-3.19 -5.58,-2.9 -5.73,-2.6 -5.86,-2.29 -5.97,-1.97 -6.06,-1.66 -6.15,-1.33 -6.21,-1 -6.25,-0.66 -6.28,-0.34 h -6.29 l -6.28,0.34 -6.25,0.66 -6.21,1 -6.15,1.33 -6.06,1.66 -5.97,1.97 -5.86,2.29 -5.73,2.6 -5.58,2.9 -5.42,3.19 -5.24,3.48 -5.04,3.75 -4.85,4.01 -4.62,4.27 -4.38,4.51 -4.14,4.73 -3.89,4.94 -3.61,5.15 -3.34,5.33 -3.05,5.5 -2.75,5.66 -2.44,5.79 -2.13,5.92 -1.82,6.02 -1.49,6.11 -1.17,6.18 -0.83,6.23 -0.5,6.27 -0.17,6.28 0.17,6.29 0.5,6.27 0.83,6.23 1.17,6.18 1.49,6.11 1.82,6.02 2.13,5.92 2.44,5.79 2.75,5.66 3.05,5.5 3.34,5.33 3.61,5.14 3.89,4.95 4.14,4.73 4.38,4.51 4.62,4.26 4.85,4.02 5.04,3.75 5.24,3.47 5.42,3.2 5.58,2.9 5.73,2.59 5.86,2.29 5.97,1.98 6.06,1.65 6.15,1.33 6.21,1 6.25,0.67 6.28,0.34 h 6.29 l 6.28,-0.34 6.25,-0.67 6.21,-1 6.15,-1.33 6.06,-1.65 5.97,-1.98 5.86,-2.29 5.73,-2.59 5.58,-2.9 5.41,-3.2 5.24,-3.47 5.05,-3.75 4.84,-4.02 4.62,-4.26 4.39,-4.51 4.14,-4.73 3.89,-4.95 3.61,-5.14 3.34,-5.33 3.04,-5.5 2.75,-5.66 2.45,-5.79 2.13,-5.92 1.82,-6.02 1.49,-6.11 1.16,-6.18 0.84,-6.23 0.5,-6.27 0.17,-6.29" />
      <path
         id="polyline16"
         style="vector-effect:none;fill:none"
         d="m 2366.16,1283.98 v 200.79" />
      <path
         id="polyline17"
         style="vector-effect:none;fill:none"
         d="m 2366.16,1744.62 -2.17,2.68 -1.9,2.88 -1.61,3.04 -1.31,3.19 -0.99,3.3 -0.67,3.38 -0.33,3.43 v 3.45 l 0.33,3.43 0.67,3.38 0.99,3.3 1.31,3.19 1.61,3.05 1.9,2.87 2.17,2.68" />
      <path
         id="polyline18"
         style="vector-effect:none;fill:none"
         d="m 2836.23,1768.25 -0.17,-6.29 -0.5,-6.27 -0.84,-6.23 -1.16,-6.18 -1.49,-6.11 -1.82,-6.02 -2.13,-5.92 -2.45,-5.79 -2.75,-5.66 -3.04,-5.5 -3.34,-5.33 -3.61,-5.14 -3.89,-4.95 -4.14,-4.73 -4.39,-4.51 -4.62,-4.26 -4.84,-4.02 -5.05,-3.75 -5.24,-3.47 -5.41,-3.2 -5.58,-2.9 -5.73,-2.59 -5.86,-2.29 -5.97,-1.98 -6.06,-1.65 -6.15,-1.33 -6.21,-1 -6.25,-0.67 -6.28,-0.34 h -6.29 l -6.28,0.34 -6.25,0.67 -6.21,1 -6.15,1.33 -6.06,1.65 -5.97,1.98 -5.86,2.29 -5.73,2.59 -5.58,2.9 -5.42,3.2 -5.24,3.47 -5.04,3.75 -4.85,4.02 -4.62,4.26 -4.38,4.51 -4.14,4.73 -3.89,4.95 -3.61,5.14 -3.34,5.33 -3.05,5.5 -2.75,5.66 -2.44,5.79 -2.13,5.92 -1.82,6.02 -1.49,6.11 -1.17,6.18 -0.83,6.23 -0.5,6.27 -0.17,6.29 0.17,6.28 0.5,6.27 0.83,6.23 1.17,6.18 1.49,6.11 1.82,6.02 2.13,5.92 2.44,5.79 2.75,5.66 3.05,5.5 3.34,5.33 3.61,5.15 3.89,4.94 4.14,4.73 4.38,4.51 4.62,4.27 4.85,4.01 5.04,3.75 5.24,3.48 5.42,3.19 5.58,2.9 5.73,2.6 5.86,2.29 5.97,1.97 6.06,1.66 6.15,1.33 6.21,1 6.25,0.66 6.28,0.34 h 6.29 l 6.28,-0.34 6.25,-0.66 6.21,-1 6.15,-1.33 6.06,-1.66 5.97,-1.97 5.86,-2.29 5.73,-2.6 5.58,-2.9 5.41,-3.19 5.24,-3.48 5.05,-3.75 4.84,-4.01 4.62,-4.27 4.39,-4.51 4.14,-4.73 3.89,-4.94 3.61,-5.15 3.34,-5.33 3.04,-5.5 2.75,-5.66 2.45,-5.79 2.13,-5.92 1.82,-6.02 1.49,-6.11 1.16,-6.18 0.84,-6.23 0.5,-6.27 0.17,-6.28" />
      <path
         id="polyline19"
         style="vector-effect:none;fill:none"
         d="m 2366.16,1083.18 v 153.55" />
      <path
         id="polyline20"
         style="vector-effect:none;fill:none"
         d="m 2836.23,1508.39 -0.17,-6.28 -0.5,-6.27 -0.84,-6.23 -1.16,-6.18 -1.49,-6.11 -1.82,-6.02 -2.13,-5.92 -2.45,-5.79 -2.75,-5.66 -3.04,-5.5 -3.34,-5.33 -3.61,-5.15 -3.89,-4.94 -4.14,-4.73 -4.39,-4.51 -4.62,-4.27 -4.84,-4.01 -5.05,-3.75 -5.24,-3.48 -5.41,-3.19 -5.58,-2.9 -5.73,-2.6 -5.86,-2.29 -5.97,-1.97 -6.06,-1.66 -6.15,-1.33 -6.21,-1 -6.25,-0.66 -6.28,-0.34 h -6.29 l -6.28,0.34 -6.25,0.66 -6.21,1 -6.15,1.33 -6.06,1.66 -5.97,1.97 -5.86,2.29 -5.73,2.6 -5.58,2.9 -5.42,3.19 -5.24,3.48 -5.04,3.75 -4.85,4.01 -4.62,4.27 -4.38,4.51 -4.14,4.73 -3.89,4.94 -3.61,5.15 -3.34,5.33 -3.05,5.5 -2.75,5.66 -2.44,5.79 -2.13,5.92 -1.82,6.02 -1.49,6.11 -1.17,6.18 -0.83,6.23 -0.5,6.27 -0.17,6.28 0.17,6.29 0.5,6.27 0.83,6.23 1.17,6.18 1.49,6.11 1.82,6.02 2.13,5.92 2.44,5.79 2.75,5.66 3.05,5.5 3.34,5.33 3.61,5.14 3.89,4.95 4.14,4.73 4.38,4.51 4.62,4.26 4.85,4.02 5.04,3.75 5.24,3.47 5.42,3.2 5.58,2.9 5.73,2.59 5.86,2.29 5.97,1.98 6.06,1.65 6.15,1.33 6.21,1 6.25,0.67 6.28,0.34 h 6.29 l 6.28,-0.34 6.25,-0.67 6.21,-1 6.15,-1.33 6.06,-1.65 5.97,-1.98 5.86,-2.29 5.73,-2.59 5.58,-2.9 5.41,-3.2 5.24,-3.47 5.05,-3.75 4.84,-4.02 4.62,-4.26 4.39,-4.51 4.14,-4.73 3.89,-4.95 3.61,-5.14 3.34,-5.33 3.04,-5.5 2.75,-5.66 2.45,-5.79 2.13,-5.92 1.82,-6.02 1.49,-6.11 1.16,-6.18 0.84,-6.23 0.5,-6.27 0.17,-6.29" />
      <path
         id="polyline21"
         style="vector-effect:none;fill:none"
         d="m 2366.16,1236.73 h 236.23" />
      <path
         id="polyline22"
         style="vector-effect:none;fill:none"
         d="m 2366.16,1791.87 h 236.23" />
    </g>
  </g>
  <path
     style="fill:#90a5cc;fill-opacity:1;stroke-width:4.34697"
     d="M 235.34023,1033.9425 C 119.49723,1023.8324 17.576833,977.71762 8.9043333,931.48932 c -7.8924,-42.0701 57.0286997,-88.4982 150.3638967,-107.5321 182.89,-37.2967 395.5871,5.6078 425.8671,85.9045 13.6725,36.2566 -31.2396,77.8073 -110.5299,102.25748 -63.3947,19.5486 -162.1352,28.5546 -239.2652,21.8233 z"
     id="path26" />
  <path
     style="fill:url(#linearGradient28);stroke-width:4.34697"
     d="m 581.85023,881.98572 c -9.1556,-14.7452 -54.1508,-41.1511 -90.681,-53.2172 -153.7558,-50.7859 -380.9352,-30.0533 -465.570397,42.4882 l -18.4745997,15.8347 v -322.5205 -322.5205 l 17.2591997,15.5928 c 74.4807,67.2887 273.974897,92.5542 430.478897,54.5191 48.3008,-11.7385 103.6835,-38.36 121.1218,-58.221 l 13.6343,-15.5287 v 16.6698 c 0,9.1683 -2.1778,18.8475 -4.8395,21.5092 -3.1135,3.1135 -3.7111,11.5628 -1.6758,23.691 5.4072,32.2192 7.3454,217.5475 2.3277,222.5652 -5.7677,5.7676 -5.8934,40.5199 -0.1594,44.0637 2.7057,1.6722 4.347,42.7048 4.347,108.6743 0,65.9694 -1.6413,107.0021 -4.347,108.6743 -5.712,3.5302 -5.5829,30.8644 0.1969,41.6639 2.499,4.6695 3.9661,21.221 3.2602,36.7811 -1.1385,25.0943 -1.9157,27.273 -6.8782,19.2806 z"
     id="path27" />
  <path
     style="fill:#90a5cc;fill-opacity:1;stroke-width:4.34697"
     d="m 222.13413,229.53592 c -67.0946,-7.0606 -151.198497,-34.0206 -182.407597,-58.4717 -8.6164,-6.7505 -8.597,-6.8922 2.1734,-15.8728 27.0559,-22.5596 97.189697,-45.8385 166.586297,-55.293503 48.3208,-6.5835 141.2258,-5.6885 191.1847,1.841803 51.5493,7.7701 115.0804,28.3797 143.3844,46.5141 19.396,12.4271 20.3426,13.858 13.8865,20.9919 -11.8528,13.0971 -60.9706,34.6929 -103.0741,45.3188 -71.7803,18.1157 -152.3752,23.3227 -231.7336,14.9714 z"
     id="path28" />
  <path
     style="fill:url(#linearGradient30);stroke-width:4.34697"
     d="m 204.91143,314.81432 c -79.5928,-11.3822 -145.130497,-36.4834 -176.090297,-67.4431 -23.8152997,-23.8154 -27.6448997,-45.0873 -11.9743,-66.512 5.4357,-7.4317 7.1548,-7.0217 31.1505,7.4277 30.1677,18.166 77.032297,34.1631 130.832297,44.6593 59.2314,11.5558 189.3982,10.4932 247.7817,-2.0227 57.4814,-12.3225 90.2851,-23.8977 120.6162,-42.5609 13.743,-8.4562 26.8929,-14.1971 29.2222,-12.7576 2.3293,1.4396 6.455,10.0266 9.1681,19.0823 14.2539,47.5752 -53.6333,93.8601 -169.8783,115.8216 -52.1376,9.85 -157.0712,11.9929 -210.8281,4.3054 z"
     id="path29" />
  <path
     style="fill:#d8dde4;fill-opacity:1;stroke-width:4.34697"
     d="m 204.91143,225.20262 c -57.9913,-8.3568 -167.358397,-47.938 -167.358397,-60.5689 0,-10.9303 48.6354,-33.1939 110.660197,-50.6566 34.5693,-9.7327 50.0578,-11.3202 128.4232,-13.1627 70.4308,-1.655903 97.7705,-0.5979 130.4092,5.0467 48.0619,8.3119 103.5726,26.5103 132.4042,43.4067 17.5854,10.3057 19.5024,12.7809 14.5619,18.8017 -15.7878,19.24 -100.7519,47.8701 -170.1023,57.3188 -39.469,5.3775 -141.1238,5.272 -178.998,-0.1856 z"
     id="path30" />
  <path
     style="fill:none;fill-rule:evenodd;stroke:#000000;stroke-width:3.12992;stroke-linecap:butt;stroke-linejoin:miter;stroke-dasharray:none;stroke-opacity:1;marker-start:url(#Triangle)"
     d="m 900.42709,345.21808 60.8576,-58.6841"
     id="path32"
     inkscape:connector-type="polyline"
     inkscape:connector-curvature="0" />
  <path
     style="fill:none;fill-rule:evenodd;stroke:#000000;stroke-width:3.12992;stroke-linecap:butt;stroke-linejoin:miter;stroke-dasharray:none;stroke-opacity:1;marker-start:url(#Triangle-9)"
     d="m 890.70029,767.45491 67.7015,50.6358"
     id="path32-8"
     inkscape:connector-type="polyline"
     inkscape:connector-curvature="0" />
  <path
     style="fill:none;fill-rule:evenodd;stroke:#000000;stroke-width:3.12992;stroke-linecap:butt;stroke-linejoin:miter;stroke-dasharray:none;stroke-opacity:1;marker-start:url(#Triangle-4)"
     d="m 875.78119,532.48039 81.6933,21.76421"
     id="path32-1"
     inkscape:connector-type="polyline"
     inkscape:connector-curvature="0" />
  <path
     style="fill:#d8dde4;fill-opacity:1;stroke-width:2.17691;stroke-dasharray:none"
     d="m 591.84773,311.63482 c -4.2377,-8.1947 -4.2377,-20.2764 0,-28.4712 l 3.3161,-6.4125 h 114.5956 114.5955 v 20.6481 20.6481 h -114.5955 -114.5956 z"
     id="path36" />
  <path
     style="fill:#d8dde4;fill-opacity:1;stroke-width:2.17691;stroke-dasharray:none"
     d="m 591.84773,559.41222 c -4.2377,-8.1947 -4.2377,-20.2764 0,-28.4712 l 3.3161,-6.4125 h 114.5956 114.5955 v 20.6481 20.6482 h -114.5955 -114.5956 z"
     id="path37" />
  <path
     style="fill:#d8dde4;fill-opacity:1;stroke-width:2.17691;stroke-dasharray:none"
     d="m 591.05403,818.93362 c -3.5793,-7.8558 -3.1238,-23.0669 0.8612,-28.7562 l 3.3834,-4.8305 h 114.5282 114.5281 v 19.5613 19.5614 h -115.3892 -115.3893 z"
     id="path38" />
  <text
     xml:space="preserve"
     style="font-size:37.5px;text-align:start;writing-mode:lr-tb;direction:ltr;text-anchor:start;fill:#000000;fill-opacity:1;stroke-width:3.12991;stroke-dasharray:none"
     x="883.79596"
     y="249.20952"
     id="text38"><tspan
       sodipodi:role="line"
       id="tspan38"
       style="fill:#000000;fill-opacity:1;stroke-width:3.12992"
       x="883.79596"
       y="249.20952">P<tspan
   style="font-size:65%;baseline-shift:sub"
   id="tspan40">1</tspan>=1</tspan></text>
  <text
     xml:space="preserve"
     style="font-size:37.5px;text-align:start;writing-mode:lr-tb;direction:ltr;text-anchor:start;fill:#000000;fill-opacity:1;stroke-width:3.12991;stroke-dasharray:none"
     x="892.89728"
     y="500.55853"
     id="text38-1"><tspan
       sodipodi:role="line"
       id="tspan38-6"
       style="fill:#000000;fill-opacity:1;stroke-width:3.12992"
       x="892.89728"
       y="500.55853">P<tspan
   style="font-size:65%;baseline-shift:sub"
   id="tspan41">2</tspan>=3</tspan></text>
  <text
     xml:space="preserve"
     style="font-size:37.5px;text-align:start;writing-mode:lr-tb;direction:ltr;text-anchor:start;fill:#000000;fill-opacity:1;stroke-width:3.12991;stroke-dasharray:none"
     x="901.96515"
     y="747.53632"
     id="text38-6"><tspan
       sodipodi:role="line"
       id="tspan38-1"
       style="fill:#000000;fill-opacity:1;stroke-width:3.12992"
       x="901.96515"
       y="747.53632">P<tspan
   style="font-size:65%;baseline-shift:sub"
   id="tspan42">3</tspan>=5</tspan></text>
  <text
     xml:space="preserve"
     transform="matrix(3.1250024,0,0,3.1250024,-1772.9609,-963.21953)"
     id="text42"
     style="text-align:start;writing-mode:lr-tb;direction:ltr;white-space:pre;shape-inside:url(#rect42);fill:#000000;fill-opacity:1;stroke-width:1.00157;stroke-dasharray:none" />
</svg>
