<svg width="500" height="348" xmlns="http://www.w3.org/2000/svg" version="1.2" baseProfile="tiny">
 <g id="Layer_1">
  <title>Layer 1</title>
  <g id="svg_1038" stroke="null">
   <g fill="#000000" stroke-width="5" stroke-linecap="round" stroke-linejoin="bevel" font-family="Arial" font-size="12" font-weight="400" font-style="normal" id="svg_28" stroke="#000000">
    <polyline fill="none" vector-effect="none" points="91.95858764648438,192.19219970703125 206.05780029296875,191.29644775390625 " id="svg_1" stroke="null"/>
    <polyline fill="none" vector-effect="none" points="206.05780029296875,191.29644775390625 206.05780029296875,212.87322998046875 " id="svg_2" stroke="null"/>
    <polyline fill="none" vector-effect="none" points="166.9013671875,212.87322998046875 166.84884643554688,211.7457275390625 166.69131469726562,210.6243896484375 166.43182373046875,209.52471923828125 166.073486328125,208.45281982421875 165.6163330078125,207.41802978515625 165.06646728515625,206.4326171875 164.42706298828125,205.499755859375 163.70730590820312,204.62860107421875 162.90725708007812,203.8316650390625 162.03616333007812,203.10882568359375 161.10635375976562,202.46942138671875 160.11785888671875,201.9195556640625 159.08303833007812,201.46234130859375 158.01116943359375,201.10406494140625 156.91143798828125,200.84454345703125 155.79013061523438,200.68701171875 154.66265869140625,200.63763427734375 153.53207397460938,200.68701171875 152.41384887695312,200.84454345703125 151.31414794921875,201.10406494140625 150.24227905273438,201.46234130859375 149.20745849609375,201.9195556640625 148.21893310546875,202.46942138671875 147.28610229492188,203.10882568359375 146.41806030273438,203.8316650390625 145.61801147460938,204.62860107421875 144.8951416015625,205.499755859375 144.2557373046875,206.4326171875 143.70587158203125,207.41802978515625 143.25180053710938,208.45281982421875 142.890380859375,209.52471923828125 142.63400268554688,210.6243896484375 142.47647094726562,211.7457275390625 142.42391967773438,212.87322998046875 142.47647094726562,214.00384521484375 142.63400268554688,215.1220703125 142.890380859375,216.22479248046875 143.25180053710938,217.29669189453125 143.70587158203125,218.32843017578125 144.2557373046875,219.31695556640625 144.8951416015625,220.24981689453125 145.61801147460938,221.1177978515625 146.41806030273438,221.91790771484375 147.28610229492188,222.64068603515625 148.21893310546875,223.2801513671875 149.20745849609375,223.8299560546875 150.24227905273438,224.28717041015625 151.31414794921875,224.6455078125 152.41384887695312,224.90496826171875 153.53207397460938,225.05938720703125 154.66265869140625,225.1119384765625 155.79013061523438,225.05938720703125 156.91143798828125,224.90496826171875 158.01116943359375,224.6455078125 159.08303833007812,224.28717041015625 160.11785888671875,223.8299560546875 161.10635375976562,223.2801513671875 162.03616333007812,222.64068603515625 162.90725708007812,221.91790771484375 163.70730590820312,221.1177978515625 164.42706298828125,220.24981689453125 165.06646728515625,219.31695556640625 165.6163330078125,218.32843017578125 166.073486328125,217.29669189453125 166.43182373046875,216.22479248046875 166.69131469726562,215.1220703125 166.84884643554688,214.00384521484375 166.9013671875,212.87322998046875 " id="svg_3" stroke="null"/>
    <polyline fill="none" vector-effect="none" points="76.4857177734375,164.05743408203125 75.79376220703125,165.22198486328125 75.19143676757812,166.43292236328125 74.67864990234375,167.68701171875 74.26162719726562,168.9720458984375 73.94345092773438,170.28802490234375 73.72103881835938,171.6224365234375 73.59747314453125,172.97235107421875 73.57586669921875,174.3253173828125 73.65310668945312,175.67523193359375 73.82916259765625,177.015869140625 74.107177734375,178.341064453125 74.48092651367188,179.64154052734375 74.95046997070312,180.9111328125 75.51266479492188,182.14056396484375 76.1644287109375,183.32672119140625 76.9027099609375,184.46044921875 77.72439575195312,185.53851318359375 78.62332153320312,186.5516357421875 79.59329223632812,187.49383544921875 80.63119506835938,188.36187744140625 81.72775268554688,189.15264892578125 82.883056640625,189.85693359375 84.0877685546875,190.4747314453125 85.33267211914062,191.0029296875 86.6146240234375,191.4354248046875 87.92745971679688,191.77520751953125 89.2587890625,192.0130615234375 90.60562133789062,192.15203857421875 91.95858764648438,192.19219970703125 " id="svg_4" stroke="null"/>
    <polyline fill="none" vector-effect="none" points="166.88589477539062,234.0484619140625 179.11224365234375,212.87322998046875 " id="svg_5" stroke="null"/>
    <polyline fill="none" vector-effect="none" points="206.05780029296875,234.453125 206.05780029296875,212.87322998046875 " id="svg_6" stroke="null"/>
    <polyline fill="none" vector-effect="none" points="179.11224365234375,212.87322998046875 166.88589477539062,191.7010498046875 " id="svg_7" stroke="null"/>
    <polyline fill="none" vector-effect="none" points="409.88690185546875,76.81729125976562 409.88690185546875,165.2467041015625 " id="svg_8" stroke="null"/>
    <polyline fill="none" vector-effect="none" points="91.95858764648438,233.55731201171875 206.05780029296875,234.453125 " id="svg_9" stroke="null"/>
    <polyline fill="none" vector-effect="none" points="395.405517578125,164.3570556640625 277.16705322265625,174.7979736328125 " id="svg_10" stroke="null"/>
    <polyline fill="none" vector-effect="none" points="409.88690185546875,165.2467041015625 405.2841796875,153.08831787109375 " id="svg_11" stroke="null"/>
    <polyline fill="none" vector-effect="none" points="448.39764404296875,212.87322998046875 448.34515380859375,210.630615234375 448.19073486328125,208.39105224609375 447.93121337890625,206.16387939453125 447.57293701171875,203.94903564453125 447.10955810546875,201.75274658203125 446.54736328125,199.57806396484375 445.8863525390625,197.434326171875 445.12335205078125,195.324462890625 444.2677001953125,193.2486572265625 443.31622314453125,191.21612548828125 442.2720947265625,189.2298583984375 441.13848876953125,187.29302978515625 439.91522216796875,185.41180419921875 438.60858154296875,183.58929443359375 437.218505859375,181.82550048828125 435.7481689453125,180.129638671875 434.2005615234375,178.5047607421875 432.5819091796875,176.95098876953125 430.8922119140625,175.47442626953125 429.13458251953125,174.0782470703125 427.31817626953125,172.7623291015625 425.4400634765625,171.5328369140625 423.5093994140625,170.389892578125 421.52630615234375,169.3365478515625 419.49676513671875,168.37896728515625 417.4271240234375,167.5140380859375 415.3204345703125,166.744873046875 413.1766357421875,166.07147216796875 411.0081787109375,165.5 408.8118896484375,165.03045654296875 406.60009765625,164.6597900390625 404.369873046875,164.39410400390625 402.1334228515625,164.23040771484375 399.8907470703125,164.16864013671875 397.64501953125,164.21185302734375 395.405517578125,164.3570556640625 " id="svg_12" stroke="null"/>
    <polyline fill="none" vector-effect="none" points="405.2841796875,153.08831787109375 414.489501953125,153.08831787109375 " id="svg_13" stroke="null"/>
    <polyline fill="none" vector-effect="none" points="402.457763671875,295.59716796875 410.59429931640625,304.197021484375 " id="svg_14" stroke="null"/>
    <polyline fill="none" vector-effect="none" points="223.1710205078125,268.3118896484375 217.70339965820312,272.9979248046875 212.211181640625,277.653076171875 206.70034790039062,282.24334716796875 203.94186401367188,284.50146484375 201.18331909179688,286.7286376953125 198.42794799804688,288.92181396484375 195.67254638671875,291.07489013671875 192.92019653320312,293.1846923828125 190.174072265625,295.24505615234375 187.43408203125,297.2529296875 184.70034790039062,299.20208740234375 181.97579956054688,301.0894775390625 179.260498046875,302.90582275390625 176.55453491210938,304.65423583984375 173.86398315429688,306.32537841796875 171.18585205078125,307.91619873046875 168.52001953125,309.4205322265625 165.87271118164062,310.832275390625 163.2408447265625,312.15130615234375 160.63064575195312,313.37139892578125 159.33016967773438,313.94293212890625 158.03585815429688,314.486572265625 156.74777221679688,315.00250244140625 155.4658203125,315.49365234375 154.18695068359375,315.95391845703125 152.9173583984375,316.3863525390625 151.65087890625,316.7879638671875 150.39053344726562,317.16168212890625 149.13641357421875,317.504638671875 147.888427734375,317.81353759765625 146.64971923828125,318.09149169921875 145.41412353515625,318.338623046875 144.18780517578125,318.5517578125 142.96450805664062,318.7340087890625 141.75363159179688,318.87921142578125 140.54583740234375,318.9903564453125 139.3472900390625,319.067626953125 138.15802001953125,319.1077880859375 136.97494506835938,319.11090087890625 135.79800415039062,319.076904296875 134.63034057617188,319.005859375 133.47195434570312,318.897705078125 132.31976318359375,318.74945068359375 131.179931640625,318.56414794921875 130.04623413085938,318.338623046875 128.92184448242188,318.06982421875 127.80361938476562,317.76092529296875 126.69775390625,317.41192626953125 125.60113525390625,317.02581787109375 124.51071166992188,316.59637451171875 123.42953491210938,316.12994384765625 122.357666015625,315.62646484375 121.29507446289062,315.08587646484375 120.23861694335938,314.51123046875 119.19140625,313.899658203125 118.15350341796875,313.25408935546875 117.12179565429688,312.5775146484375 116.09622192382812,311.86712646484375 115.0799560546875,311.12567138671875 114.06982421875,310.35345458984375 113.06900024414062,309.55029296875 112.07431030273438,308.7193603515625 111.08584594726562,307.860595703125 110.10354614257812,306.97406005859375 109.12741088867188,306.06280517578125 108.16055297851562,305.1268310546875 106.24227905273438,303.17767333984375 104.34869384765625,301.138916015625 102.47982788085938,299.013671875 100.63259887695312,296.81427001953125 98.80697631835938,294.540771484375 96.99990844726562,292.2054443359375 95.21444702148438,289.81146240234375 93.44442749023438,287.3680419921875 91.68984985351562,284.88140869140625 89.95382690429688,282.3607177734375 88.23016357421875,279.8092041015625 86.52194213867188,277.23297119140625 83.13946533203125,272.04339599609375 79.797119140625,266.84149169921875 76.4857177734375,261.68902587890625 " id="svg_15" stroke="null"/>
    <polyline fill="none" vector-effect="none" points="142.43630981445312,191.7010498046875 130.21307373046875,212.87322998046875 " id="svg_16" stroke="null"/>
    <polyline fill="none" vector-effect="none" points="410.59429931640625,304.197021484375 397.80877685546875,306.71148681640625 " id="svg_17" stroke="null"/>
    <polyline fill="none" vector-effect="none" points="223.1710205078125,157.4345703125 225.209716796875,159.124267578125 227.30718994140625,160.73980712890625 229.46331787109375,162.27813720703125 231.67202758789062,163.73614501953125 233.93313598632812,165.1138916015625 236.24371337890625,166.40814208984375 238.60067749023438,167.615966796875 240.99774169921875,168.74041748046875 243.43496704101562,169.77520751953125 245.90615844726562,170.72039794921875 248.41448974609375,171.57916259765625 250.94747924804688,172.3421630859375 253.50827026367188,173.01556396484375 256.09375,173.59326171875 258.69476318359375,174.0782470703125 261.3142395019531,174.4674072265625 263.94610595703125,174.76397705078125 266.587158203125,174.961669921875 269.23138427734375,175.0635986328125 271.88177490234375,175.0728759765625 274.5260009765625,174.9832763671875 277.16705322265625,174.7979736328125 " id="svg_18" stroke="null"/>
    <polyline fill="none" vector-effect="none" points="130.21307373046875,212.87322998046875 142.43630981445312,234.0484619140625 " id="svg_19" stroke="null"/>
    <polyline fill="none" vector-effect="none" points="223.1710205078125,157.4345703125 217.70339965820312,152.75164794921875 212.211181640625,148.096435546875 206.70034790039062,143.50616455078125 203.94186401367188,141.24810791015625 201.18331909179688,139.017822265625 198.42794799804688,136.8245849609375 195.67254638671875,134.67156982421875 192.92019653320312,132.56488037109375 190.174072265625,130.50445556640625 187.43408203125,128.49664306640625 184.70034790039062,126.54742431640625 181.97579956054688,124.6600341796875 179.260498046875,122.840576171875 176.55453491210938,121.0953369140625 173.86398315429688,119.4241943359375 171.18585205078125,117.83331298828125 168.52001953125,116.3289794921875 165.87271118164062,114.91729736328125 163.2408447265625,113.5982666015625 160.63064575195312,112.37811279296875 159.33016967773438,111.806640625 158.03585815429688,111.262939453125 156.74777221679688,110.7440185546875 155.4658203125,110.25592041015625 154.18695068359375,109.795654296875 152.9173583984375,109.36322021484375 151.65087890625,108.95855712890625 150.39053344726562,108.587890625 149.13641357421875,108.2449951171875 147.888427734375,107.93609619140625 146.64971923828125,107.655029296875 145.41412353515625,107.40789794921875 144.18780517578125,107.19476318359375 142.96450805664062,107.01556396484375 141.75363159179688,106.870361328125 140.54583740234375,106.7591552734375 139.3472900390625,106.68194580078125 138.15802001953125,106.64178466796875 136.97494506835938,106.63873291015625 135.79800415039062,106.66961669921875 134.63034057617188,106.7406005859375 133.47195434570312,106.85186767578125 132.31976318359375,106.9970703125 131.179931640625,107.18548583984375 130.04623413085938,107.41094970703125 128.92184448242188,107.6796875 127.80361938476562,107.98553466796875 126.69775390625,108.3345947265625 125.60113525390625,108.72381591796875 124.51071166992188,109.1531982421875 123.42953491210938,109.61962890625 122.357666015625,110.12310791015625 121.29507446289062,110.6636962890625 120.23861694335938,111.23828125 119.19140625,111.849853515625 118.15350341796875,112.4954833984375 117.12179565429688,113.1719970703125 116.09622192382812,113.8824462890625 115.0799560546875,114.62384033203125 114.06982421875,115.39605712890625 113.06900024414062,116.19921875 112.07431030273438,117.0301513671875 111.08584594726562,117.888916015625 110.10354614257812,118.77239990234375 109.12741088867188,119.68670654296875 108.16055297851562,120.6226806640625 106.24227905273438,122.57183837890625 104.34869384765625,124.61065673828125 102.47982788085938,126.7327880859375 100.63259887695312,128.935302734375 98.80697631835938,131.20880126953125 96.99990844726562,133.5440673828125 95.21444702148438,135.93499755859375 93.44442749023438,138.37841796875 91.68984985351562,140.86505126953125 89.95382690429688,143.3887939453125 88.23016357421875,145.9403076171875 86.52194213867188,148.5166015625 83.13946533203125,153.70611572265625 79.797119140625,158.9049072265625 76.4857177734375,164.05743408203125 " id="svg_20" stroke="null"/>
    <polyline fill="none" vector-effect="none" points="397.80877685546875,306.71148681640625 402.457763671875,295.59716796875 " id="svg_21" stroke="null"/>
    <polyline fill="none" vector-effect="none" points="277.16705322265625,250.95159912109375 274.5260009765625,250.7662353515625 271.88177490234375,250.67669677734375 269.23138427734375,250.682861328125 266.587158203125,250.787841796875 263.94610595703125,250.985595703125 261.3142395019531,251.27899169921875 258.69476318359375,251.67132568359375 256.09375,252.15631103515625 253.50827026367188,252.73394775390625 250.94747924804688,253.4073486328125 248.41448974609375,254.17034912109375 245.90615844726562,255.0260009765625 243.43496704101562,255.974365234375 240.99774169921875,257.0091552734375 238.60067749023438,258.133544921875 236.24371337890625,259.34136962890625 233.93313598632812,260.63568115234375 231.67202758789062,262.01336669921875 229.46331787109375,263.47137451171875 227.30718994140625,265.009765625 225.209716796875,266.6221923828125 223.1710205078125,268.3118896484375 " id="svg_22" stroke="null"/>
    <polyline fill="none" vector-effect="none" points="395.405517578125,261.3924560546875 397.64501953125,261.53765869140625 399.8907470703125,261.58087158203125 402.1334228515625,261.51910400390625 404.369873046875,261.35540771484375 406.60009765625,261.086669921875 408.8118896484375,260.71905517578125 411.0081787109375,260.2464599609375 413.1766357421875,259.67498779296875 415.3204345703125,259.004638671875 417.4271240234375,258.2354736328125 419.49676513671875,257.37054443359375 421.52630615234375,256.40985107421875 423.5093994140625,255.359619140625 425.4400634765625,254.2166748046875 427.31817626953125,252.98724365234375 429.13458251953125,251.67132568359375 430.8922119140625,250.27508544921875 432.5819091796875,248.79852294921875 434.2005615234375,247.2447509765625 435.7481689453125,245.61688232421875 437.218505859375,243.92095947265625 438.60858154296875,242.16021728515625 439.91522216796875,240.33770751953125 441.13848876953125,238.453369140625 442.2720947265625,236.5196533203125 443.31622314453125,234.533447265625 444.2677001953125,232.5008544921875 445.12335205078125,230.425048828125 445.8863525390625,228.31524658203125 446.54736328125,226.1683349609375 447.10955810546875,223.996826171875 447.57293701171875,221.800537109375 447.93121337890625,219.585693359375 448.19073486328125,217.35540771484375 448.34515380859375,215.11895751953125 448.39764404296875,212.87322998046875 " id="svg_23" stroke="null"/>
    <polyline fill="none" vector-effect="none" points="414.489501953125,153.08831787109375 409.88690185546875,165.2467041015625 " id="svg_24" stroke="null"/>
    <polyline fill="none" vector-effect="none" points="397.80877685546875,306.71148681640625 399.62518310546875,305.55316162109375 401.3828125,304.3082275390625 403.08172607421875,302.98614501953125 404.71588134765625,301.58062744140625 406.2789306640625,300.10101318359375 407.7708740234375,298.5472412109375 409.188720703125,296.92547607421875 410.52630615234375,295.23577880859375 411.78350830078125,293.4874267578125 412.9542236328125,291.68035888671875 414.03851318359375,289.817626953125 415.03314208984375,287.90863037109375 415.9351806640625,285.9532470703125 416.7445068359375,283.957763671875 417.45806884765625,281.9251708984375 418.07275390625,279.858642578125 418.588623046875,277.77044677734375 419.00567626953125,275.65447998046875 419.32073974609375,273.526123046875 419.53387451171875,271.38238525390625 419.64501953125,269.232421875 419.654296875,267.0762939453125 419.56170654296875,264.92633056640625 419.36395263671875,262.7794189453125 419.06744384765625,260.64801025390625 418.6689453125,258.5289306640625 418.171630859375,256.43463134765625 417.57232666015625,254.36492919921875 416.8773193359375,252.326171875 416.0865478515625,250.32452392578125 415.199951171875,248.35992431640625 414.22076416015625,246.44158935546875 413.1519775390625,244.57275390625 411.9967041015625,242.75640869140625 410.7548828125,240.99566650390625 409.43280029296875,239.29669189453125 " id="svg_25" stroke="null"/>
    <polyline fill="none" vector-effect="none" points="395.405517578125,261.3924560546875 277.16705322265625,250.95159912109375 " id="svg_26" stroke="null"/>
    <polyline fill="none" vector-effect="none" points="91.95858764648438,233.55731201171875 90.60562133789062,233.5943603515625 89.2587890625,233.7364501953125 87.92745971679688,233.97430419921875 86.6146240234375,234.31103515625 85.33267211914062,234.74658203125 84.0877685546875,235.271728515625 82.883056640625,235.8895263671875 81.72775268554688,236.59686279296875 80.63119506835938,237.38458251953125 79.59329223632812,238.25567626953125 78.62332153320312,239.1978759765625 77.72439575195312,240.2110595703125 76.9027099609375,241.2860107421875 76.1644287109375,242.41973876953125 75.51266479492188,243.60589599609375 74.95046997070312,244.83843994140625 74.48092651367188,246.10797119140625 74.107177734375,247.408447265625 73.82916259765625,248.733642578125 73.65310668945312,250.07427978515625 73.57586669921875,251.4241943359375 73.59747314453125,252.77716064453125 73.72103881835938,254.12396240234375 73.94345092773438,255.4615478515625 74.26162719726562,256.7744140625 74.67864990234375,258.0625 75.19143676757812,259.316650390625 75.79376220703125,260.527587890625 76.4857177734375,261.68902587890625 " id="svg_27" stroke="null"/>
   </g>
   <g fill="#000000" font-family="Arial" font-size="12" font-weight="400" font-style="normal" id="svg_30" stroke="null">
    <path vector-effect="none" fill-rule="evenodd" d="m46.98867,207.17708l0,-12.7175l-1.49818,0l0,7.1758l0.00309,0.33361l0.00927,0.42011l0.01853,0.50969l0.02162,0.59927l0.02471,0.57147l0.01853,0.44173l0.01545,0.30272l0.01236,0.17299l-0.07105,0l-2.21792,-3.45353l-4.17636,-6.45605l-0.38922,-0.6178l-1.85341,0l0,12.7175l1.47964,0l0,-7.10475l-0.00927,-0.61163l-0.01853,-0.66105l-0.03398,-0.71047l-0.04325,-0.76608l-0.04325,-0.7043l0.06796,0l6.81129,10.55827l1.87195,0" id="svg_29" stroke="null"/>
   </g>
   <g fill="#000000" font-family="Arial" font-size="12" font-weight="400" font-style="normal" id="svg_32" stroke="null">
    <path vector-effect="none" fill-rule="evenodd" d="m51.70251,197.62583l-1.58467,0l0,6.25527l0.0556,0.84948l0.16372,0.72592l0.27183,0.59618l0.37995,0.47262l0.48807,0.3645l0.59927,0.26257l0.7043,0.14827l0.80932,0.05251l0.50042,-0.02471l0.47262,-0.07105l0.43864,-0.11429l0.40775,-0.16372l0.36759,-0.20696l0.31817,-0.24712l0.28419,-0.2811l0.23785,-0.32744l0.07723,0l0.22859,1.26032l1.28503,0l0,-9.55125l-1.57231,0l0,4.97641l-0.04325,0.84948l-0.13283,0.72592l-0.20696,0.59l-0.28728,0.46953l-0.38922,0.36142l-0.48189,0.25639l-0.58691,0.15136l-0.68267,0.04942l-0.50969,-0.03398l-0.43864,-0.10503l-0.3645,-0.17299l-0.29655,-0.24403l-0.22859,-0.31817l-0.16372,-0.39539l-0.08958,-0.46644l-0.03089,-0.54367l0,-6.15024" id="svg_31" stroke="null"/>
   </g>
   <g fill="#000000" font-family="Arial" font-size="12" font-weight="400" font-style="normal" id="svg_34" stroke="null">
    <path vector-effect="none" fill-rule="evenodd" d="m64.42928,206.0743l-0.3367,-0.0278l-0.29964,-0.07723l-0.25021,-0.14209l-0.21932,-0.1977l-0.17299,-0.24403l-0.12356,-0.29655l-0.07105,-0.3367l-0.02471,-0.39231l0,-5.5139l2.7585,0l0,-1.22016l-2.7585,0l0,-2.19012l-0.9298,0l-0.62707,2.03566l-1.36535,0.62398l0,0.75063l1.3499,0l0,5.55715l0.04325,0.69503l0.12974,0.60236l0.21623,0.5066l0.30581,0.41393l0.39231,0.32126l0.48498,0.22859l0.56838,0.13592l0.66105,0.04634l0.92053,-0.09576l0.40157,-0.08958l0.27801,-0.09267l0,-1.20163l-0.25948,0.07414l-0.35833,0.06487l-0.38304,0.04634l-0.33053,0.01545" id="svg_33" stroke="null"/>
   </g>
   <g fill="#000000" font-family="Arial" font-size="12" font-weight="400" font-style="normal" id="svg_36" stroke="null">
    <path vector-effect="none" fill-rule="evenodd" d="m127.70787,220.10464l8.61837,3.35777l-9.23926,-0.37995l0.62089,-2.97782" id="svg_35" stroke="null"/>
   </g>
   <g fill="#000000" stroke-width="3" stroke-linecap="round" stroke-linejoin="bevel" font-family="Arial" font-size="12" font-weight="400" font-style="normal" id="svg_38" stroke="#000000">
    <polyline fill="none" vector-effect="none" points="136.32620239257812,223.46240234375 70.2335205078125,209.63287353515625 36.819580078125,209.63287353515625 " id="svg_37" stroke="null"/>
   </g>
   <g fill="#000000" font-family="Arial" font-size="12" font-weight="400" font-style="normal" id="svg_40" stroke="null">
    <path vector-effect="none" fill-rule="evenodd" d="m291.7843,216.84572l-0.02162,-0.42628l-0.06178,-0.39848l-0.10194,-0.3645l-0.14518,-0.33361l-0.4232,-0.60236l-0.60236,-0.52822l-0.39231,-0.24712l-0.48498,-0.2533l-0.57456,-0.25639l-0.66414,-0.25948l-0.54985,-0.21314l-0.47571,-0.1977l-0.39539,-0.18843l-0.31817,-0.17607l-0.47262,-0.35524l-0.32744,-0.39231l-0.18225,-0.46953l-0.06178,-0.57456l0.04016,-0.41084l0.11738,-0.3645l0.1977,-0.32126l0.2811,-0.26874l0.35215,-0.21314l0.41393,-0.15136l0.47262,-0.09267l0.5344,-0.03089l0.71974,0.04325l0.74754,0.12665l0.77534,0.21314l0.80315,0.29655l0.49733,-1.37461l-0.82168,-0.31199l-0.85566,-0.22241l-0.89582,-0.13592l-0.93288,-0.04325l-0.8711,0.0556l-0.78152,0.1699l-0.69503,0.27183l-0.60236,0.37995l-0.48807,0.48189l-0.34597,0.55602l-0.21005,0.62707l-0.06796,0.70121l0.04325,0.66414l0.13901,0.59927l0.23785,0.53131l0.3367,0.46953l0.43864,0.42011l0.56838,0.39231l0.69503,0.3645l0.81859,0.3367l0.58382,0.21932l0.50042,0.20696l0.42628,0.1977l0.34288,0.18534l0.52822,0.36759l0.34906,0.39539l0.19152,0.46953l0.07105,0.57456l-0.04634,0.45409l-0.13592,0.40775l-0.2255,0.34906l-0.31508,0.29346l-0.40775,0.24403l-0.49733,0.17607l-0.57456,0.09576l-0.66723,0.03398l-0.86801,-0.04942l-0.93288,-0.15136l-0.92053,-0.23785l-0.84639,-0.3089l0,1.52907l0.68267,0.26257l0.80932,0.18843l0.93906,0.1112l1.06571,0.04016l1.01011,-0.05869l0.89582,-0.17607l0.77534,-0.30272l0.65796,-0.42011l0.52513,-0.52204l0.37377,-0.60854l0.2255,-0.69812l0.07723,-0.79079" id="svg_39" stroke="null"/>
   </g>
   <g fill="#000000" font-family="Arial" font-size="12" font-weight="400" font-style="normal" id="svg_42" stroke="null">
    <path vector-effect="none" fill-rule="evenodd" d="m298.65737,220.42281l0.88037,-0.08031l0.78152,-0.24403l0.67032,-0.41084l0.57147,-0.58074l0.451,-0.71665l0.32435,-0.84948l0.19461,-0.97613l0.06487,-1.10896l-0.06487,-1.10896l-0.19461,-0.96995l-0.32435,-0.84639l-0.451,-0.71356l-0.56529,-0.5622l-0.67032,-0.40157l-0.77226,-0.24712l-0.88037,-0.0834l-0.46335,0.02162l-0.43555,0.06487l-0.40775,0.10812l-0.37995,0.15445l-0.35524,0.20079l-0.33053,0.2533l-0.31199,0.31199l-0.29037,0.3645l-0.06796,0l-0.21005,-1.30666l-1.28812,0l0,13.83264l1.56613,0l0,-3.92306l-0.01545,-0.56838l-0.05251,-0.64252l-0.03398,-0.35524l0.10194,0l0.27183,0.32435l0.29964,0.28419l0.32744,0.23785l0.35524,0.1977l0.79697,0.2533l0.90817,0.08649m-0.26257,-8.58748l0.58074,0.05869l0.5066,0.17607l0.44482,0.29346l0.37377,0.40157l0.29655,0.51587l0.20696,0.6178l0.13283,0.71974l0.04325,0.81859l-0.04325,0.82168l-0.13283,0.72592l-0.20696,0.63016l-0.29655,0.53749l-0.37068,0.42628l-0.43864,0.30272l-0.49424,0.18225l-0.56529,0.06178l-0.67341,-0.05251l-0.57147,-0.15754l-0.4788,-0.26874l-0.3645,-0.38304l-0.28419,-0.50042l-0.20388,-0.63016l-0.11738,-0.77226l-0.04016,-0.90508l0,-0.30581l0.04634,-0.79697l0.12047,-0.68267l0.20079,-0.57456l0.27801,-0.46026l0.35524,-0.34597l0.46953,-0.2533l0.56529,-0.15136l0.66105,-0.04942" id="svg_41" stroke="null"/>
   </g>
   <g fill="#000000" font-family="Arial" font-size="12" font-weight="400" font-style="normal" id="svg_44" stroke="null">
    <path vector-effect="none" fill-rule="evenodd" d="m310.99183,220.24673l1.13985,0l0,-6.50548l-0.0556,-0.77843l-0.16372,-0.66723l-0.25948,-0.54985l-0.3645,-0.44173l-0.48189,-0.33361l-0.59,-0.24094l-0.69812,-0.14209l-0.80623,-0.04634l-0.84021,0.05251l-0.84639,0.16372l-0.82168,0.25948l-0.75372,0.33979l0.4788,1.17383l1.26032,-0.50351l0.69812,-0.1699l0.73828,-0.0556l0.4788,0.03089l0.40775,0.09885l0.34597,0.16372l0.27183,0.22859l0.20388,0.29655l0.14518,0.3645l0.08958,0.43555l0.03089,0.50351l0,0.56529l-1.61865,0.06178l-1.07498,0.07723l-0.93288,0.16681l-0.79079,0.25021l-0.64561,0.33979l-0.50042,0.4232l-0.35833,0.5066l-0.21005,0.59927l-0.07105,0.67958l0.05251,0.63943l0.14827,0.5622l0.25021,0.48189l0.34906,0.40466l0.43864,0.32744l0.50969,0.22859l0.59618,0.13901l0.66723,0.04634l0.51587,-0.02162l0.46953,-0.05869l0.42011,-0.09576l0.37686,-0.13901l0.35833,-0.19461l0.35524,-0.26874l0.35524,-0.34288l0.35833,-0.41084l0.06796,0l0.30581,1.35608m-3.22803,-1.08734l-0.39231,-0.02162l-0.34597,-0.07414l-0.29964,-0.12665l-0.25021,-0.17607l-0.1977,-0.22241l-0.13901,-0.26566l-0.08649,-0.3089l-0.0278,-0.35215l0.04634,-0.46026l0.13592,-0.39231l0.23477,-0.33053l0.33053,-0.26874l0.43555,-0.20696l0.54367,-0.15445l0.65487,-0.10503l0.76608,-0.0556l1.41168,-0.06178l0,0.86184l-0.04942,0.61472l-0.14209,0.54058l-0.23785,0.46953l-0.32744,0.39231l-0.41084,0.31199l-0.48498,0.21932l-0.54985,0.12974l-0.6178,0.04325" id="svg_43" stroke="null"/>
   </g>
   <g fill="#000000" font-family="Arial" font-size="12" font-weight="400" font-style="normal" id="svg_46" stroke="null">
    <path vector-effect="none" fill-rule="evenodd" d="m321.59644,220.24673l1.5476,0l0,-6.2182l-0.0556,-0.83712l-0.16063,-0.71974l-0.26566,-0.60854l-0.37068,-0.48807l-0.48189,-0.37377l-0.59618,-0.26257l-0.71047,-0.16063l-0.82168,-0.0556l-0.47262,0.02471l-0.451,0.07414l-0.43246,0.12047l-0.40775,0.17299l-0.37995,0.21314l-0.33361,0.25639l-0.29037,0.28728l-0.24094,0.33053l-0.08649,0l-0.23477,-1.30666l-1.26341,0l0,9.55125l1.56613,0l0,-4.94861l0.04325,-0.84948l0.12356,-0.72592l0.20696,-0.59618l0.28728,-0.47262l0.38304,-0.35833l0.48807,-0.25021l0.58382,-0.15754l0.68576,-0.05251l0.51278,0.03707l0.44482,0.1112l0.3645,0.17607l0.29655,0.25021l0.22859,0.32435l0.16372,0.39848l0.09576,0.46335l0.03398,0.54367l0,6.10699" id="svg_45" stroke="null"/>
   </g>
   <g fill="#000000" font-family="Arial" font-size="12" font-weight="400" font-style="normal" id="svg_48" stroke="null">
    <path vector-effect="none" fill-rule="evenodd" d="m332.6088,220.24673l1.5476,0l0,-6.2182l-0.05251,-0.83712l-0.16372,-0.71974l-0.26257,-0.60854l-0.37377,-0.48807l-0.48189,-0.37377l-0.59618,-0.26257l-0.70739,-0.16063l-0.82477,-0.0556l-0.47262,0.02471l-0.451,0.07414l-0.42937,0.12047l-0.41084,0.17299l-0.37995,0.21314l-0.33361,0.25639l-0.29037,0.28728l-0.24094,0.33053l-0.08649,0l-0.23477,-1.30666l-1.26032,0l0,9.55125l1.56304,0l0,-4.94861l0.04325,-0.84948l0.12356,-0.72592l0.20696,-0.59618l0.28728,-0.47262l0.38304,-0.35833l0.48807,-0.25021l0.58382,-0.15754l0.68576,-0.05251l0.51278,0.03707l0.44482,0.1112l0.3645,0.17607l0.29655,0.25021l0.22859,0.32435l0.16372,0.39848l0.09576,0.46335l0.03398,0.54367l0,6.10699" id="svg_47" stroke="null"/>
   </g>
   <g fill="#000000" font-family="Arial" font-size="12" font-weight="400" font-style="normal" id="svg_50" stroke="null">
    <path vector-effect="none" fill-rule="evenodd" d="m341.17775,220.42281l0.88346,-0.03707l0.7599,-0.10194l0.71974,-0.19152l0.76917,-0.28728l0,-1.37461l-0.86493,0.32744l-0.74445,0.20079l-0.70739,0.09885l-0.74754,0.03398l-0.67958,-0.05251l-0.59927,-0.15754l-0.5066,-0.26257l-0.43246,-0.37068l-0.34597,-0.46953l-0.2533,-0.56838l-0.16063,-0.66723l-0.06487,-0.76608l6.53946,0l0,-0.94833l-0.06487,-0.93906l-0.20388,-0.83712l-0.33361,-0.7321l-0.46644,-0.63325l-0.58382,-0.5066l-0.67032,-0.36142l-0.76299,-0.22241l-0.85257,-0.07414l-0.92362,0.08649l-0.81859,0.26257l-0.71974,0.4232l-0.6178,0.59309l-0.50351,0.73828l-0.35833,0.85257l-0.21005,0.97304l-0.06796,1.09042l0.07723,1.07807l0.2255,0.9576l0.38304,0.83404l0.53131,0.71356l0.66723,0.56838l0.78461,0.40466l0.90508,0.24403l1.01938,0.08031m-0.39231,-8.62146l0.51587,0.04325l0.451,0.12974l0.39539,0.21932l0.33361,0.30272l0.26257,0.38922l0.19152,0.47262l0.11738,0.54676l0.04634,0.62707l-4.86212,0l0.09267,-0.60545l0.16063,-0.5344l0.2255,-0.46953l0.29655,-0.39848l0.35215,-0.31508l0.41084,-0.2255l0.47571,-0.13592l0.5344,-0.04634" id="svg_49" stroke="null"/>
   </g>
   <g fill="#000000" font-family="Arial" font-size="12" font-weight="400" font-style="normal" id="svg_52" stroke="null">
    <path vector-effect="none" fill-rule="evenodd" d="m351.61555,210.52249l-0.43555,0.03089l-0.41702,0.08958l-0.39231,0.15445l-0.38304,0.21314l-0.36142,0.27183l-0.3367,0.33053l-0.3089,0.38613l-0.28728,0.44482l-0.07105,0l-0.17299,-1.74839l-1.28812,0l0,9.55125l1.56613,0l0,-5.09688l0.09267,-0.85566l0.27183,-0.77226l0.20079,-0.34288l0.23477,-0.3089l0.27183,-0.27183l0.30272,-0.23168l0.33053,-0.18225l0.34906,-0.12974l0.35524,-0.08031l0.37377,-0.02471l0.51278,0.03089l0.52204,0.08958l0.19152,-1.44257l-0.52204,-0.08031l-0.59927,-0.02471" id="svg_51" stroke="null"/>
   </g>
   <g fill="#000000" font-family="Arial" font-size="12" font-weight="400" font-style="normal" id="svg_54" stroke="null">
    <path vector-effect="none" fill-rule="evenodd" d="m423.27465,95.5893l0,-5.39961l5.16793,0l0,-1.40242l-5.16793,0l0,-4.50379l5.50772,0l0,-1.41168l-7.10784,0l0,12.7175l1.60011,0" id="svg_53" stroke="null"/>
   </g>
   <g fill="#000000" font-family="Arial" font-size="12" font-weight="400" font-style="normal" id="svg_56" stroke="null">
    <path vector-effect="none" fill-rule="evenodd" d="m439.00086,90.79822l-0.07414,-1.07807l-0.22859,-0.9576l-0.37068,-0.8433l-0.51587,-0.72283l-0.64561,-0.57765l-0.74754,-0.41393l-0.85257,-0.25639l-0.9576,-0.0834l-0.99158,0.0834l-0.87728,0.24712l-0.7599,0.40466l-0.64252,0.56838l-0.50969,0.71665l-0.36759,0.8433l-0.21623,0.96995l-0.07105,1.09969l0.03398,0.72592l0.10194,0.67958l0.16681,0.63325l0.23785,0.58691l0.29655,0.5344l0.35524,0.46644l0.41393,0.40157l0.47262,0.3367l0.51587,0.26566l0.55602,0.18843l0.59309,0.1112l0.63325,0.03707l0.9854,-0.08031l0.87419,-0.24094l0.76299,-0.41393l0.64561,-0.57765l0.51896,-0.71974l0.37068,-0.84639l0.22241,-0.97922l0.07105,-1.10896m-7.20977,0l0.04016,-0.84948l0.12356,-0.73519l0.21932,-0.62089l0.30272,-0.50969l0.39231,-0.39539l0.4788,-0.28419l0.56529,-0.16681l0.65178,-0.05869l0.64561,0.05869l0.56529,0.17607l0.48498,0.28419l0.40157,0.39539l0.31199,0.50969l0.22859,0.62089l0.13592,0.7321l0.04634,0.8433l-0.04634,0.84948l-0.13592,0.74137l-0.22241,0.62707l-0.3089,0.52204l-0.39848,0.41084l-0.48189,0.29346l-0.55911,0.1699l-0.63943,0.0556l-0.65487,-0.0556l-0.56529,-0.1699l-0.4788,-0.29346l-0.39848,-0.41084l-0.31199,-0.52204l-0.21932,-0.62707l-0.12974,-0.74137l-0.04325,-0.84948" id="svg_55" stroke="null"/>
   </g>
   <g fill="#000000" font-family="Arial" font-size="12" font-weight="400" font-style="normal" id="svg_58" stroke="null">
    <path vector-effect="none" fill-rule="evenodd" d="m445.93571,85.86506l-0.43555,0.03089l-0.41702,0.08958l-0.39539,0.15445l-0.37995,0.21314l-0.36142,0.27183l-0.3367,0.33053l-0.31199,0.38613l-0.28419,0.44482l-0.07105,0l-0.17299,-1.74839l-1.28812,0l0,9.55125l1.56613,0l0,-5.09688l0.08958,-0.85257l0.27492,-0.77226l0.20079,-0.34597l0.23477,-0.3089l0.26874,-0.27183l0.30581,-0.23168l0.33053,-0.18225l0.34906,-0.12974l0.35524,-0.08031l0.37377,-0.02471l0.51278,0.03089l0.52204,0.08958l0.19152,-1.44257l-0.52513,-0.08031l-0.59618,-0.02471" id="svg_57" stroke="null"/>
   </g>
   <g fill="#000000" font-family="Arial" font-size="12" font-weight="400" font-style="normal" id="svg_60" stroke="null">
    <path vector-effect="none" fill-rule="evenodd" d="m452.66978,95.76537l0.7043,-0.03398l0.64561,-0.09576l0.58382,-0.16063l0.52513,-0.22241l0,-1.39315l-0.61163,0.24403l-0.61472,0.17299l-0.62398,0.10503l-0.62707,0.03398l-0.63634,-0.0556l-0.54676,-0.1699l-0.46953,-0.28419l-0.38304,-0.40157l-0.30581,-0.51278l-0.21623,-0.61163l-0.12356,-0.71356l-0.04325,-0.8155l0.04325,-0.8433l0.12356,-0.7321l0.21623,-0.62089l0.30581,-0.50969l0.38304,-0.39231l0.48807,-0.28728l0.58382,-0.17607l0.6765,-0.05869l0.44791,0.0278l0.49424,0.08649l0.53749,0.14209l0.58074,0.1977l0.4788,-1.30666l-0.50351,-0.20388l-0.62707,-0.16063l-0.68267,-0.1112l-0.69194,-0.03707l-0.52204,0.02162l-0.49424,0.06178l-0.46026,0.10194l-0.42937,0.14518l-0.39539,0.18225l-0.36759,0.22241l-0.33979,0.26566l-0.30581,0.30272l-0.50969,0.71974l-0.35833,0.85566l-0.21623,0.99158l-0.07105,1.13058l0.07105,1.11514l0.21623,0.98231l0.35833,0.83712l0.50042,0.70121l0.63325,0.55602l0.74137,0.39231l0.85875,0.23477l0.97922,0.08031" id="svg_59" stroke="null"/>
   </g>
   <g fill="#000000" font-family="Arial" font-size="12" font-weight="400" font-style="normal" id="svg_62" stroke="null">
    <path vector-effect="none" fill-rule="evenodd" d="m461.45495,95.76537l0.88346,-0.03707l0.7599,-0.10194l0.71974,-0.19152l0.76917,-0.28728l0,-1.37461l-0.86493,0.32744l-0.74445,0.20388l-0.70739,0.09576l-0.74754,0.03398l-0.67958,-0.05251l-0.59927,-0.15754l-0.5066,-0.26257l-0.43246,-0.37068l-0.34597,-0.46953l-0.2533,-0.56529l-0.16063,-0.67032l-0.06487,-0.76608l6.53946,0l0,-0.94833l-0.06487,-0.93906l-0.20388,-0.83404l-0.33361,-0.73519l-0.46644,-0.63325l-0.58382,-0.5066l-0.67032,-0.36142l-0.76299,-0.22241l-0.85257,-0.07414l-0.92362,0.08649l-0.81859,0.26257l-0.71974,0.4232l-0.6178,0.59309l-0.50351,0.73828l-0.35833,0.85257l-0.21005,0.97304l-0.06796,1.09042l0.07723,1.07807l0.2255,0.9576l0.38304,0.83404l0.53131,0.71356l0.66723,0.57147l0.78461,0.40466l0.90508,0.24094l1.01938,0.08031m-0.39231,-8.62146l0.51587,0.04325l0.451,0.12974l0.39539,0.21932l0.33361,0.30272l0.26257,0.38922l0.19152,0.47262l0.11738,0.54676l0.04634,0.62707l-4.86212,0l0.09267,-0.60545l0.16063,-0.5344l0.2255,-0.46953l0.29655,-0.39848l0.35215,-0.31508l0.41084,-0.2255l0.47571,-0.13592l0.5344,-0.04634" id="svg_61" stroke="null"/>
   </g>
   <g fill="#000000" stroke-width="2" stroke-linecap="round" stroke-linejoin="bevel" font-family="Arial" font-size="12" font-weight="400" font-style="normal" id="svg_66" stroke="#000000">
    <polyline fill="none" vector-effect="none" points="154.66265869140625,210.593505859375 154.66265869140625,51.255645751953125 " id="svg_63" stroke="null"/>
    <polyline fill="none" vector-effect="none" points="409.88690185546875,74.53759765625 409.88690185546875,51.255645751953125 " id="svg_64" stroke="null"/>
    <polyline fill="none" vector-effect="none" points="163.78451538085938,55.818115234375 400.7650146484375,55.818115234375 " id="svg_65" stroke="null"/>
   </g>
   <g fill="#000000" font-family="Arial" font-size="12" font-weight="400" font-style="normal" id="svg_68" stroke="null">
    <path vector-effect="none" fill-rule="evenodd" d="m163.78455,57.33795l-9.12188,-1.5198l9.12188,-1.5198l0,3.0396" id="svg_67" stroke="null"/>
   </g>
   <g fill="#000000" font-family="Arial" font-size="12" font-weight="400" font-style="normal" id="svg_70" stroke="null">
    <path vector-effect="none" fill-rule="evenodd" d="m400.76496,54.29835l9.12188,1.5198l-9.12188,1.5198l0,-3.0396" id="svg_69" stroke="null"/>
   </g>
   <g fill="#000000" font-family="Arial" font-size="12" font-weight="400" font-style="normal" id="svg_72" stroke="null">
    <path vector-effect="none" fill-rule="evenodd" d="m270.51948,41.83724l-0.0278,-0.72283l-0.07723,-0.67958l-0.12974,-0.63943l-0.18225,-0.59309l-0.23168,-0.55602l-0.28419,-0.50969l-0.33361,-0.47262l-0.38613,-0.42937l-0.43555,-0.38304l-0.47571,-0.33361l-0.51587,-0.27801l-0.55602,-0.23168l-0.59927,-0.17916l-0.63943,-0.12665l-0.67958,-0.07723l-0.71974,-0.02471l-3.91379,0l0,12.7175l3.54002,0l0.77843,-0.02471l0.7321,-0.07723l0.68576,-0.12974l0.63943,-0.17916l0.59,-0.23477l0.54676,-0.28728l0.49733,-0.3367l0.45409,-0.39231l0.40466,-0.44173l0.34906,-0.48498l0.29346,-0.53131l0.24094,-0.57765l0.19152,-0.62707l0.13592,-0.67341l0.08031,-0.71974l0.0278,-0.76299m-1.68969,0.05251l-0.01853,0.61472l-0.06178,0.57456l-0.10503,0.5344l-0.14518,0.49424l-0.17916,0.45409l-0.22241,0.41393l-0.26257,0.37377l-0.29964,0.33361l-0.34288,0.29655l-0.38304,0.25639l-0.42628,0.21623l-0.46644,0.17607l-0.50351,0.13901l-0.54367,0.09885l-0.58074,0.05869l-0.62398,0.01853l-1.73294,0l0,-9.97754l2.08818,0l0.58382,0.01853l0.54676,0.05869l0.5066,0.09885l0.46953,0.13592l0.43246,0.17607l0.39539,0.21623l0.35524,0.2533l0.32126,0.29346l0.2811,0.33361l0.24094,0.3645l0.20696,0.40466l0.16681,0.43864l0.13283,0.4788l0.09576,0.51587l0.0556,0.54985l0.01853,0.58691" id="svg_71" stroke="null"/>
   </g>
   <g fill="#000000" font-family="Arial" font-size="12" font-weight="400" font-style="normal" id="svg_74" stroke="null">
    <path vector-effect="none" fill-rule="evenodd" d="m274.68657,48.31801l0,-9.55125l-1.56613,0l0,9.55125l1.56613,0" id="svg_73" stroke="null"/>
   </g>
   <g fill="#000000" font-family="Arial" font-size="12" font-weight="400" font-style="normal" id="svg_76" stroke="null">
    <path vector-effect="none" fill-rule="evenodd" d="m272.99688,36.18125l0.06178,0.45409l0.20079,0.30272l0.29655,0.18534l0.3645,0.05869l0.33979,-0.05869l0.29346,-0.18534l0.21005,-0.30272l0.06796,-0.45409l-0.01545,-0.24094l-0.05251,-0.20079l-0.21005,-0.31508l-0.29346,-0.17299l-0.33979,-0.06178l-0.3645,0.06178l-0.29655,0.17299l-0.20079,0.31508l-0.06178,0.44173" id="svg_75" stroke="null"/>
   </g>
   <g fill="#000000" font-family="Arial" font-size="12" font-weight="400" font-style="normal" id="svg_78" stroke="null">
    <path vector-effect="none" fill-rule="evenodd" d="m283.93201,45.68307l-0.06796,-0.62398l-0.20079,-0.52513l-0.34597,-0.45409l-0.49733,-0.40775l-0.32435,-0.19461l-0.39848,-0.20388l-0.4788,-0.21005l-0.55602,-0.21932l-0.72283,-0.28728l-0.58074,-0.2533l-0.43555,-0.21932l-0.28728,-0.18534l-0.19152,-0.18534l-0.13901,-0.20696l-0.08031,-0.22859l-0.02471,-0.25021l0.02471,-0.2533l0.09576,-0.2255l0.16063,-0.19461l0.22241,-0.1699l0.2811,-0.13901l0.3367,-0.09576l0.40157,-0.05869l0.46026,-0.02162l0.59927,0.04016l0.63943,0.11429l0.67032,0.18843l0.71047,0.26874l0.52822,-1.24488l-0.71974,-0.2811l-0.75063,-0.20079l-0.77226,-0.12356l-0.80006,-0.04016l-0.79388,0.04634l-0.7043,0.12974l-0.60854,0.20696l-0.52204,0.29655l-0.42011,0.37068l-0.29964,0.43864l-0.17916,0.49115l-0.05869,0.55293l0.06487,0.61163l0.18843,0.50969l0.33361,0.43864l0.47571,0.39848l0.32435,0.19152l0.4232,0.21005l0.52513,0.23168l0.62398,0.2533l0.61163,0.24403l0.50969,0.23168l0.40775,0.21623l0.30581,0.20388l0.22859,0.20696l0.16372,0.22859l0.09885,0.25021l0.03089,0.27183l-0.03398,0.30581l-0.10503,0.27492l-0.16372,0.23785l-0.23477,0.20696l-0.31199,0.16681l-0.39539,0.12047l-0.46644,0.07105l-0.54985,0.02471l-0.73828,-0.04942l-0.75063,-0.14209l-0.76608,-0.24094l-0.78152,-0.33361l0,1.42713l0.60545,0.26257l0.70121,0.18843l0.80006,0.1112l0.89582,0.03707l0.85257,-0.04634l0.74754,-0.13592l0.65487,-0.22859l0.55293,-0.31817l0.43555,-0.40466l0.31199,-0.48498l0.19152,-0.55911l0.06178,-0.63016" id="svg_77" stroke="null"/>
   </g>
   <g fill="#000000" font-family="Arial" font-size="12" font-weight="400" font-style="normal" id="svg_80" stroke="null">
    <path vector-effect="none" fill-rule="evenodd" d="m289.43974,47.21214l-0.3367,-0.02471l-0.29964,-0.08031l-0.2533,-0.13901l-0.21623,-0.1977l-0.17299,-0.24403l-0.12356,-0.29655l-0.07105,-0.33979l-0.02471,-0.39231l0,-5.5139l2.7585,0l0,-1.21707l-2.7585,0l0,-2.1932l-0.9298,0l-0.62707,2.03566l-1.36535,0.62707l0,0.74754l1.3499,0l0,5.55715l0.04325,0.69503l0.12974,0.60236l0.21623,0.50969l0.30581,0.41393l0.39231,0.31817l0.48498,0.22859l0.56838,0.13592l0.65796,0.04634l0.92362,-0.09576l0.39848,-0.08958l0.2811,-0.09267l0,-1.20163l-0.25948,0.07414l-0.35833,0.06487l-0.38304,0.04634l-0.33053,0.01545" id="svg_79" stroke="null"/>
   </g>
   <g fill="#000000" font-family="Arial" font-size="12" font-weight="400" font-style="normal" id="svg_82" stroke="null">
    <path vector-effect="none" fill-rule="evenodd" d="m298.57397,48.31801l1.13676,0l0,-6.50857l-0.05251,-0.77843l-0.16372,-0.66414l-0.25948,-0.55293l-0.36759,-0.43864l-0.4788,-0.3367l-0.59,-0.23785l-0.69812,-0.14209l-0.80623,-0.04942l-0.84021,0.0556l-0.84948,0.16063l-0.81859,0.25948l-0.75372,0.34288l0.4788,1.17383l1.26032,-0.50351l0.69812,-0.1699l0.73828,-0.05869l0.47571,0.03398l0.41084,0.09885l0.34597,0.16063l0.27183,0.22859l0.20388,0.29655l0.14209,0.3645l0.09267,0.43555l0.03089,0.5066l0,0.56529l-1.61865,0.05869l-1.07498,0.08031l-0.93288,0.16372l-0.79079,0.2533l-0.64561,0.33979l-0.50351,0.4232l-0.35833,0.5066l-0.20696,0.59927l-0.07105,0.67958l0.04942,0.63943l0.15136,0.5622l0.25021,0.48189l0.34906,0.40466l0.43864,0.32435l0.50969,0.23168l0.59309,0.13592l0.66723,0.04634l0.51587,-0.01853l0.46953,-0.05869l0.4232,-0.09885l0.37686,-0.13592l0.35524,-0.1977l0.35833,-0.26874l0.35524,-0.33979l0.35524,-0.41393l0.07105,0l0.30581,1.35917m-3.22803,-1.08734l-0.39539,-0.02471l-0.34597,-0.07105l-0.29655,-0.12974l-0.25021,-0.17607l-0.1977,-0.22241l-0.14209,-0.26257l-0.0834,-0.3089l-0.0278,-0.35215l0.04325,-0.46335l0.13901,-0.38922l0.23477,-0.33053l0.33053,-0.27183l0.43246,-0.20388l0.54676,-0.15754l0.65487,-0.10503l0.76608,-0.0556l1.40859,-0.05869l0,0.85875l-0.04634,0.6178l-0.14518,0.54058l-0.23477,0.46644l-0.33053,0.39539l-0.41084,0.3089l-0.48498,0.21932l-0.54676,0.13283l-0.6178,0.04325" id="svg_81" stroke="null"/>
   </g>
   <g fill="#000000" font-family="Arial" font-size="12" font-weight="400" font-style="normal" id="svg_84" stroke="null">
    <path vector-effect="none" fill-rule="evenodd" d="m309.17549,48.31801l1.55069,0l0,-6.22129l-0.0556,-0.83712l-0.16372,-0.71974l-0.26257,-0.60854l-0.37068,-0.48807l-0.48498,-0.37068l-0.59618,-0.26257l-0.70739,-0.16372l-0.82168,-0.0556l-0.47262,0.02471l-0.451,0.07414l-0.43246,0.12356l-0.41084,0.1699l-0.37686,0.21314l-0.3367,0.25639l-0.28728,0.29037l-0.24403,0.32744l-0.08649,0l-0.23477,-1.30357l-1.26032,0l0,9.55125l1.56613,0l0,-4.9517l0.04016,-0.84948l0.12356,-0.72283l0.20696,-0.59927l0.29037,-0.47262l0.38304,-0.35524l0.48498,-0.2533l0.58382,-0.15445l0.68885,-0.05251l0.51278,0.03707l0.44173,0.1112l0.36759,0.17607l0.29346,0.25021l0.22859,0.32126l0.16372,0.39848l0.09885,0.46644l0.03089,0.54367l0,6.10699" id="svg_83" stroke="null"/>
   </g>
   <g fill="#000000" font-family="Arial" font-size="12" font-weight="400" font-style="normal" id="svg_86" stroke="null">
    <path vector-effect="none" fill-rule="evenodd" d="m317.50967,48.49099l0.7043,-0.03089l0.64561,-0.09576l0.58691,-0.16063l0.52513,-0.2255l0,-1.39315l-0.61163,0.24403l-0.6178,0.17607l-0.62089,0.10194l-0.62707,0.03707l-0.63634,-0.05869l-0.54676,-0.1699l-0.47262,-0.28419l-0.37995,-0.40157l-0.30581,-0.50969l-0.21623,-0.61163l-0.12665,-0.71356l-0.04016,-0.81859l0.04016,-0.84021l0.12665,-0.73519l0.21623,-0.62089l0.30581,-0.50969l0.37995,-0.38922l0.48807,-0.28728l0.58691,-0.17607l0.6765,-0.05869l0.44791,0.0278l0.49115,0.0834l0.53749,0.14209l0.58382,0.1977l0.4788,-1.30357l-0.5066,-0.20696l-0.62398,-0.16063l-0.68267,-0.1112l-0.69194,-0.03707l-0.52513,0.02162l-0.49115,0.06178l-0.46026,0.10503l-0.42937,0.14209l-0.39848,0.18225l-0.36759,0.22241l-0.3367,0.26566l-0.30581,0.30581l-0.50969,0.71974l-0.36142,0.85566l-0.21314,0.99158l-0.07414,1.13058l0.07414,1.11514l0.21314,0.97922l0.35833,0.83712l0.50351,0.7043l0.63016,0.55293l0.74445,0.39539l0.85875,0.23477l0.97613,0.07723" id="svg_85" stroke="null"/>
   </g>
   <g fill="#000000" font-family="Arial" font-size="12" font-weight="400" font-style="normal" id="svg_88" stroke="null">
    <path vector-effect="none" fill-rule="evenodd" d="m326.29484,48.49099l0.88655,-0.03398l0.7599,-0.10503l0.71974,-0.18843l0.76608,-0.29037l0,-1.37461l-0.86184,0.33053l-0.74754,0.20079l-0.70739,0.09885l-0.74445,0.03089l-0.67958,-0.05251l-0.59927,-0.15445l-0.50969,-0.26566l-0.42937,-0.37068l-0.34597,-0.46644l-0.2533,-0.56838l-0.16372,-0.66723l-0.06487,-0.76917l6.54255,0l0,-0.94833l-0.06796,-0.93906l-0.20079,-0.83404l-0.3367,-0.7321l-0.46335,-0.63325l-0.58382,-0.50969l-0.67032,-0.36142l-0.76608,-0.22241l-0.85257,-0.07414l-0.92053,0.08958l-0.81859,0.25948l-0.72283,0.4232l-0.6178,0.59618l-0.50042,0.73519l-0.35833,0.85566l-0.21005,0.97304l-0.06796,1.08734l0.07414,1.07807l0.22859,0.9576l0.37995,0.83712l0.5344,0.71356l0.66723,0.56838l0.78461,0.40466l0.90199,0.24094l1.01938,0.08031m-0.38922,-8.62146l0.51587,0.04325l0.44791,0.13283l0.39539,0.21623l0.3367,0.30581l0.25948,0.38922l0.19152,0.46953l0.12047,0.54676l0.04634,0.63016l-4.86212,0l0.09267,-0.60854l0.15754,-0.53131l0.2255,-0.46953l0.29655,-0.40157l0.35215,-0.31199l0.41393,-0.2255l0.47571,-0.13901l0.5344,-0.04634" id="svg_87" stroke="null"/>
   </g>
   <g fill="#000000" stroke-width="3" stroke-linecap="round" stroke-linejoin="bevel" font-family="Arial" font-size="12" font-weight="400" font-style="normal" id="svg_90" stroke="#000000">
    <polyline fill="none" vector-effect="none" points="258.51556396484375,53.53533935546875 330.68121337890625,53.53533935546875 " id="svg_89" stroke="null"/>
   </g>
  </g>
 </g>

</svg>