<?xml version="1.0" encoding="UTF-8" standalone="no"?>
<!-- Created with Inkscape (http://www.inkscape.org/) -->

<svg
   width="78.989662mm"
   height="67.021591mm"
   viewBox="0 0 78.989662 67.021591"
   version="1.1"
   id="svg1"
   inkscape:version="1.4.2 (ebf0e94, 2025-05-08)"
   sodipodi:docname="Winding Drum.svg"
   xmlns:inkscape="http://www.inkscape.org/namespaces/inkscape"
   xmlns:sodipodi="http://sodipodi.sourceforge.net/DTD/sodipodi-0.dtd"
   xmlns="http://www.w3.org/2000/svg"
   xmlns:svg="http://www.w3.org/2000/svg">
  <sodipodi:namedview
     id="namedview1"
     pagecolor="#ffffff"
     bordercolor="#000000"
     borderopacity="0.25"
     inkscape:showpageshadow="2"
     inkscape:pageopacity="0.0"
     inkscape:pagecheckerboard="0"
     inkscape:deskcolor="#d1d1d1"
     inkscape:document-units="mm"
     inkscape:zoom="1.4378367"
     inkscape:cx="131.09973"
     inkscape:cy="152.6599"
     inkscape:window-width="1920"
     inkscape:window-height="1009"
     inkscape:window-x="-8"
     inkscape:window-y="-8"
     inkscape:window-maximized="1"
     inkscape:current-layer="layer1" />
  <defs
     id="defs1">
    <pattern
       id="EMFhbasepattern"
       patternUnits="userSpaceOnUse"
       width="6"
       height="6"
       x="0"
       y="0" />
  </defs>
  <g
     inkscape:label="Layer 1"
     inkscape:groupmode="layer"
     id="layer1"
     transform="translate(0.9314307,-41.227209)">
    <g
       id="g6">
      <text
         xml:space="preserve"
         style="font-style:normal;font-variant:normal;font-weight:400;font-size:4.23333px;line-height:125%;font-family:Calibri;text-align:start;letter-spacing:0px;word-spacing:0px;text-anchor:start;fill:#000000;fill-opacity:1;stroke:none;stroke-width:0.264583"
         x="-0.9314307"
         y="45.028999"
         id="text2"><tspan
           sodipodi:role="line"
           x="-0.9314307"
           y="45.028999"
           id="tspan2"
           style="stroke-width:0.264583"><tspan
             dx="0"
             dy="0"
             style="font-style:normal;font-variant:normal;font-weight:400;font-size:4.23333px;font-family:Calibri;fill:#000000;stroke-width:0.264583"
             id="tspan1"> </tspan></tspan></text>
      <path
         style="fill:#000000;fill-opacity:1;fill-rule:nonzero;stroke:#000000;stroke-width:0.0290498px;stroke-linecap:butt;stroke-linejoin:bevel;stroke-miterlimit:4;stroke-dasharray:none;stroke-opacity:1"
         d="m 5.0561718,68.534298 h 1.4524883 v 0.18156 H 5.0561718 Z m 1.9971713,0 h 0.1815612 v 0.18156 H 7.0533431 Z m 0.7262442,0 h 1.4524883 v 0.18156 H 7.7795873 Z m 1.9971714,0 h 0.181561 v 0.18156 h -0.181561 z m 0.7262443,0 h 1.452488 v 0.18156 h -1.452488 z m 1.997172,0 h 0.18156 v 0.18156 h -0.18156 z m 0.726244,0 h 1.452488 v 0.18156 h -1.452488 z m 1.997171,0 h 0.181561 v 0.18156 H 15.22359 Z m 0.726244,0 h 1.452488 v 0.18156 h -1.452488 z m 1.997172,0 h 0.181561 v 0.18156 h -0.181561 z m 0.726243,0 h 1.452488 v 0.18156 h -1.452488 z m 1.997172,0 h 0.181561 v 0.18156 h -0.181561 z m 0.726244,0 h 1.452489 v 0.18156 h -1.452489 z m 1.997171,0 h 0.18156 v 0.18156 h -0.18156 z m 0.726244,0 h 1.452489 v 0.18156 H 24.12008 Z m 1.997171,0 h 0.181562 v 0.18156 h -0.181562 z m 0.726246,0 h 1.452487 v 0.18156 h -1.452487 z m 1.99717,0 h 0.181562 v 0.18156 h -0.181562 z m 0.726245,0 H 31.0194 v 0.18156 h -1.452488 z m 1.997171,0 h 0.181561 v 0.18156 h -0.181561 z m 0.726243,0 h 1.452489 v 0.18156 h -1.452489 z m 1.997172,0 h 0.181561 v 0.18156 h -0.181561 z m 0.726243,0 h 1.452489 v 0.18156 h -1.452489 z m 1.997172,0 h 0.181563 v 0.18156 h -0.181563 z m 0.726246,0 h 1.452487 v 0.18156 h -1.452487 z m 1.997169,0 h 0.181562 v 0.18156 h -0.181562 z m 0.726246,0 h 1.452489 v 0.18156 h -1.452489 z m 1.997171,0 h 0.18156 v 0.18156 h -0.18156 z m 0.726243,0 h 1.452489 v 0.18156 h -1.452489 z m 1.997172,0 h 0.181561 v 0.18156 H 45.18116 Z m 0.726243,0 h 1.452489 v 0.18156 h -1.452489 z m 1.997173,0 h 0.181562 v 0.18156 h -0.181562 z m 0.726244,0 h 1.452486 v 0.18156 H 48.63082 Z m 1.99717,0 h 0.181562 v 0.18156 H 50.62799 Z m 0.726245,0 h 1.452489 v 0.18156 h -1.452489 z m 1.997172,0 h 0.18156 v 0.18156 h -0.18156 z m 0.726244,0 h 1.452489 v 0.18156 h -1.452489 z m 1.997171,0 h 0.18156 v 0.18156 h -0.18156 z m 0.726243,0 h 1.452489 v 0.18156 h -1.452489 z m 1.997172,0 h 0.181562 v 0.18156 h -0.181562 z m 0.726245,0 h 1.452487 v 0.18156 h -1.452487 z m 1.99717,0 h 0.181563 v 0.18156 h -0.181563 z m 0.726245,0 h 1.452488 v 0.18156 h -1.452488 z m 1.997172,0 h 0.18156 v 0.18156 h -0.18156 z m 0.726243,0 H 66.4238 v 0.18156 h -1.452488 z m 1.997172,0 h 0.181561 v 0.18156 h -0.181561 z m 0.726244,0 h 1.452488 v 0.18156 h -1.452488 z m 1.99717,0 h 0.181563 v 0.18156 h -0.181563 z m 0.726246,0 h 1.452487 v 0.18156 h -1.452487 z m 1.997171,0 h 0.181561 v 0.18156 h -0.181561 z m 0.726244,0 h 1.452492 v 0.18156 h -1.452492 z m 1.997173,0 h 0.181561 v 0.18156 h -0.181561 z m 0.726243,0 h 1.452493 v 0.18156 h -1.452493 z m 1.997174,0 h 0.181561 v 0.18156 h -0.181561 z"
         id="path2" />
      <path
         style="fill:none;stroke:#000000;stroke-width:0.264381px;stroke-linecap:butt;stroke-linejoin:round;stroke-miterlimit:4;stroke-dasharray:none;stroke-opacity:1"
         d="M 18.048448,41.359399 V 95.893171"
         id="path3" />
      <path
         style="fill:none;stroke:#000000;stroke-width:0.264381px;stroke-linecap:butt;stroke-linejoin:round;stroke-miterlimit:4;stroke-dasharray:none;stroke-opacity:1"
         d="m 18.048448,95.998925 h 2.096538"
         id="path4" />
      <path
         style="fill:none;stroke:#000000;stroke-width:0.264381px;stroke-linecap:butt;stroke-linejoin:round;stroke-miterlimit:4;stroke-dasharray:none;stroke-opacity:1"
         d="m 20.144986,91.803204 v 4.195721"
         id="path5" />
      <path
         style="fill:none;stroke:#000000;stroke-width:0.264381px;stroke-linecap:butt;stroke-linejoin:round;stroke-miterlimit:4;stroke-dasharray:none;stroke-opacity:1"
         d="m 18.048448,41.359399 h 2.096538"
         id="path6" />
      <path
         style="fill:none;stroke:#000000;stroke-width:0.264381px;stroke-linecap:butt;stroke-linejoin:round;stroke-miterlimit:4;stroke-dasharray:none;stroke-opacity:1"
         d="m 20.144986,41.359399 v 4.195719"
         id="path7" />
      <path
         style="fill:none;stroke:#000000;stroke-width:0.264381px;stroke-linecap:butt;stroke-linejoin:round;stroke-miterlimit:4;stroke-dasharray:none;stroke-opacity:1"
         d="m 20.144986,45.555118 h 18.87677"
         id="path8" />
      <path
         style="fill:none;stroke:#000000;stroke-width:0.264381px;stroke-linecap:butt;stroke-linejoin:round;stroke-miterlimit:4;stroke-dasharray:none;stroke-opacity:1"
         d="m 39.021756,41.359399 v 4.195719"
         id="path9" />
      <path
         style="fill:none;stroke:#000000;stroke-width:0.264381px;stroke-linecap:butt;stroke-linejoin:round;stroke-miterlimit:4;stroke-dasharray:none;stroke-opacity:1"
         d="m 39.021756,41.359399 h 2.09918"
         id="path10" />
      <path
         style="fill:none;stroke:#000000;stroke-width:0.264381px;stroke-linecap:butt;stroke-linejoin:round;stroke-miterlimit:4;stroke-dasharray:none;stroke-opacity:1"
         d="M 41.120936,41.359399 V 95.893171"
         id="path11" />
      <path
         style="fill:none;stroke:#000000;stroke-width:0.264381px;stroke-linecap:butt;stroke-linejoin:round;stroke-miterlimit:4;stroke-dasharray:none;stroke-opacity:1"
         d="m 20.144986,91.803204 h 18.87677"
         id="path12" />
      <path
         style="fill:none;stroke:#000000;stroke-width:0.264381px;stroke-linecap:butt;stroke-linejoin:round;stroke-miterlimit:4;stroke-dasharray:none;stroke-opacity:1"
         d="m 39.021756,91.803204 v 4.195721"
         id="path13" />
      <path
         style="fill:none;stroke:#000000;stroke-width:0.264381px;stroke-linecap:butt;stroke-linejoin:round;stroke-miterlimit:4;stroke-dasharray:none;stroke-opacity:1"
         d="m 39.021756,95.998925 h 2.09918"
         id="path14" />
      <path
         style="fill:none;stroke:#000000;stroke-width:0.264381px;stroke-linecap:butt;stroke-linejoin:round;stroke-miterlimit:4;stroke-dasharray:none;stroke-opacity:1"
         d="M 20.144986,45.555118 V 91.697453"
         id="path15" />
      <path
         style="fill:none;stroke:#000000;stroke-width:0.264381px;stroke-linecap:butt;stroke-linejoin:round;stroke-miterlimit:4;stroke-dasharray:none;stroke-opacity:1"
         d="M 39.021756,45.555118 V 91.697453"
         id="path16" />
      <path
         style="fill:none;stroke:#000000;stroke-width:0.264381px;stroke-linecap:butt;stroke-linejoin:round;stroke-miterlimit:4;stroke-dasharray:none;stroke-opacity:1"
         d="M 41.120936,58.158138 H 59.997708"
         id="path17" />
      <path
         style="fill:none;stroke:#000000;stroke-width:0.264381px;stroke-linecap:butt;stroke-linejoin:round;stroke-miterlimit:4;stroke-dasharray:none;stroke-opacity:1"
         d="M 41.120936,79.165815 H 59.997708"
         id="path18" />
      <path
         style="fill:none;stroke:#000000;stroke-width:0.264381px;stroke-linecap:butt;stroke-linejoin:round;stroke-miterlimit:4;stroke-dasharray:none;stroke-opacity:1"
         d="M 59.997708,56.058957 V 81.227983"
         id="path19" />
      <path
         style="fill:none;stroke:#000000;stroke-width:0.264381px;stroke-linecap:butt;stroke-linejoin:round;stroke-miterlimit:4;stroke-dasharray:none;stroke-opacity:1"
         d="m 59.997708,56.058957 h 2.096537"
         id="path20" />
      <path
         style="fill:none;stroke:#000000;stroke-width:0.264381px;stroke-linecap:butt;stroke-linejoin:round;stroke-miterlimit:4;stroke-dasharray:none;stroke-opacity:1"
         d="m 59.997708,81.28086 h 2.096537"
         id="path21" />
      <path
         style="fill:none;stroke:#000000;stroke-width:0.264381px;stroke-linecap:butt;stroke-linejoin:round;stroke-miterlimit:4;stroke-dasharray:none;stroke-opacity:1"
         d="M 62.094245,56.058957 V 81.227983"
         id="path22" />
      <path
         style="fill:none;stroke:#000000;stroke-width:0.528761px;stroke-linecap:butt;stroke-linejoin:round;stroke-miterlimit:4;stroke-dasharray:none;stroke-opacity:1"
         d="M 24.340705,45.555118 22.244167,91.697453"
         id="path23" />
      <path
         style="fill:none;stroke:#000000;stroke-width:0.528761px;stroke-linecap:butt;stroke-linejoin:round;stroke-miterlimit:4;stroke-dasharray:none;stroke-opacity:1"
         d="M 28.536424,45.555118 26.437241,91.697453"
         id="path24" />
      <path
         style="fill:none;stroke:#000000;stroke-width:0.528761px;stroke-linecap:butt;stroke-linejoin:round;stroke-miterlimit:4;stroke-dasharray:none;stroke-opacity:1"
         d="M 32.729498,45.555118 30.632961,91.697453"
         id="path25" />
      <path
         style="fill:none;stroke:#000000;stroke-width:0.528761px;stroke-linecap:butt;stroke-linejoin:round;stroke-miterlimit:4;stroke-dasharray:none;stroke-opacity:1"
         d="M 36.925219,45.555118 34.828681,91.697453"
         id="path26" />
      <path
         style="fill:#000000;fill-opacity:1;fill-rule:nonzero;stroke:#000000;stroke-width:0.0423009px;stroke-linecap:butt;stroke-linejoin:bevel;stroke-miterlimit:4;stroke-dasharray:none;stroke-opacity:1"
         d="M 37.189598,91.803204 V 102.62694 H 36.660836 V 91.803204 Z m 0.793142,10.469466 -1.057521,2.11505 -1.057524,-2.11505 z"
         id="path27" />
      <path
         style="fill:none;stroke:#000000;stroke-width:0.528761px;stroke-linecap:butt;stroke-linejoin:round;stroke-miterlimit:4;stroke-dasharray:none;stroke-opacity:1"
         d="m 45.314013,58.158138 -2.09654,20.973308"
         id="path28" />
      <path
         style="fill:none;stroke:#000000;stroke-width:0.528761px;stroke-linecap:butt;stroke-linejoin:round;stroke-miterlimit:4;stroke-dasharray:none;stroke-opacity:1"
         d="M 49.509731,58.158138 47.413193,79.131446"
         id="path29" />
      <path
         style="fill:none;stroke:#000000;stroke-width:0.528761px;stroke-linecap:butt;stroke-linejoin:round;stroke-miterlimit:4;stroke-dasharray:none;stroke-opacity:1"
         d="M 53.705451,58.158138 51.606268,79.131446"
         id="path30" />
      <path
         style="fill:none;stroke:#000000;stroke-width:0.528761px;stroke-linecap:butt;stroke-linejoin:round;stroke-miterlimit:4;stroke-dasharray:none;stroke-opacity:1"
         d="M 57.898525,58.158138 55.801988,79.131446"
         id="path31" />
      <path
         style="fill:none;stroke:#000000;stroke-width:0.528761px;stroke-linecap:butt;stroke-linejoin:round;stroke-miterlimit:4;stroke-dasharray:none;stroke-opacity:1"
         d="m 47.413193,58.158138 -2.09918,20.973308"
         id="path32" />
      <path
         style="fill:none;stroke:#000000;stroke-width:0.528761px;stroke-linecap:butt;stroke-linejoin:round;stroke-miterlimit:4;stroke-dasharray:none;stroke-opacity:1"
         d="M 51.606268,58.158138 49.509731,79.131446"
         id="path33" />
      <path
         style="fill:none;stroke:#000000;stroke-width:0.528761px;stroke-linecap:butt;stroke-linejoin:round;stroke-miterlimit:4;stroke-dasharray:none;stroke-opacity:1"
         d="M 55.801988,58.158138 53.705451,79.131446"
         id="path34" />
      <path
         style="fill:#000000;fill-opacity:1;fill-rule:nonzero;stroke:#000000;stroke-width:0.0423009px;stroke-linecap:butt;stroke-linejoin:bevel;stroke-miterlimit:4;stroke-dasharray:none;stroke-opacity:1"
         d="m 58.162905,79.165815 v 23.408255 h -0.52876 V 79.165815 Z m 0.793144,23.053985 -1.057524,2.11504 -1.057521,-2.11504 z"
         id="path35" />
      <path
         style="fill:#000000;fill-opacity:1;fill-rule:nonzero;stroke:#000000;stroke-width:0.0423009px;stroke-linecap:butt;stroke-linejoin:bevel;stroke-miterlimit:4;stroke-dasharray:none;stroke-opacity:1"
         d="m 9.6596537,45.422928 h 0.26438 v 0.26438 h -0.26438 z m 0.5287613,0 h 0.26438 v 0.26438 h -0.26438 z m 0.528761,0 h 0.26438 v 0.26438 h -0.26438 z m 0.528761,0 h 0.264381 v 0.26438 h -0.264381 z m 0.528761,0 h 0.264381 v 0.26438 h -0.264381 z m 0.528761,0 h 0.264381 v 0.26438 h -0.264381 z m 0.528761,0 h 0.264381 v 0.26438 H 12.83222 Z m 0.528761,0 h 0.264381 v 0.26438 h -0.264381 z m 0.528761,0 h 0.264381 v 0.26438 h -0.264381 z m 0.528761,0 h 0.264381 v 0.26438 h -0.264381 z m 0.528761,0 h 0.264381 v 0.26438 h -0.264381 z m 0.528761,0 h 0.264381 v 0.26438 h -0.264381 z m 0.528761,0 h 0.264381 v 0.26438 h -0.264381 z m 0.528761,0 h 0.264381 v 0.26438 h -0.264381 z m 0.528762,0 h 0.26438 v 0.26438 h -0.26438 z m 0.528761,0 h 0.26438 v 0.26438 h -0.26438 z"
         id="path36" />
      <path
         style="fill:#000000;fill-opacity:1;fill-rule:nonzero;stroke:#000000;stroke-width:0.0423009px;stroke-linecap:butt;stroke-linejoin:bevel;stroke-miterlimit:4;stroke-dasharray:none;stroke-opacity:1"
         d="m 9.6596537,91.671013 h 0.26438 v 0.264383 h -0.26438 z m 0.5287613,0 h 0.26438 v 0.264383 h -0.26438 z m 0.528761,0 h 0.26438 v 0.264383 h -0.26438 z m 0.528761,0 h 0.264381 v 0.264383 h -0.264381 z m 0.528761,0 h 0.264381 v 0.264383 h -0.264381 z m 0.528761,0 h 0.264381 v 0.264383 h -0.264381 z m 0.528761,0 h 0.264381 v 0.264383 H 12.83222 Z m 0.528761,0 h 0.264381 v 0.264383 h -0.264381 z m 0.528761,0 h 0.264381 v 0.264383 h -0.264381 z m 0.528761,0 h 0.264381 v 0.264383 h -0.264381 z m 0.528761,0 h 0.264381 v 0.264383 h -0.264381 z m 0.528761,0 h 0.264381 v 0.264383 h -0.264381 z m 0.528761,0 h 0.264381 v 0.264383 h -0.264381 z m 0.528761,0 h 0.264381 v 0.264383 h -0.264381 z m 0.528762,0 h 0.26438 v 0.264383 h -0.26438 z m 0.528761,0 h 0.26438 v 0.264383 h -0.26438 z"
         id="path37" />
      <path
         style="fill:#000000;fill-opacity:1;fill-rule:nonzero;stroke:#000000;stroke-width:0.0423009px;stroke-linecap:butt;stroke-linejoin:bevel;stroke-miterlimit:4;stroke-dasharray:none;stroke-opacity:1"
         d="m 62.094245,58.025948 h 0.26438 v 0.264381 h -0.26438 z m 0.528759,0 h 0.264383 v 0.264381 h -0.264383 z m 0.528762,0 h 0.26438 v 0.264381 h -0.26438 z m 0.528762,0 h 0.26438 v 0.264381 h -0.26438 z m 0.528759,0 h 0.264383 v 0.264381 h -0.264383 z m 0.528762,0 h 0.264382 v 0.264381 h -0.264382 z m 0.528762,0 h 0.26438 v 0.264381 h -0.26438 z m 0.528762,0 h 0.26438 v 0.264381 h -0.26438 z m 0.528759,0 h 0.264382 v 0.264381 h -0.264382 z m 0.528762,0 h 0.26438 v 0.264381 h -0.26438 z m 0.528762,0 h 0.264379 v 0.264381 h -0.264379 z m 0.528759,0 h 0.264382 v 0.264381 h -0.264382 z m 0.528762,0 h 0.26438 v 0.264381 h -0.26438 z m 0.528762,0 h 0.264379 v 0.264381 h -0.264379 z m 0.528759,0 h 0.264382 v 0.264381 h -0.264382 z m 0.528762,0 h 0.264382 v 0.264381 H 70.02566 Z"
         id="path38" />
      <path
         style="fill:#000000;fill-opacity:1;fill-rule:nonzero;stroke:#000000;stroke-width:0.0423009px;stroke-linecap:butt;stroke-linejoin:bevel;stroke-miterlimit:4;stroke-dasharray:none;stroke-opacity:1"
         d="m 62.094245,79.033624 h 0.26438 v 0.264383 h -0.26438 z m 0.528759,0 h 0.264383 v 0.264383 h -0.264383 z m 0.528762,0 h 0.26438 v 0.264383 h -0.26438 z m 0.528762,0 h 0.26438 v 0.264383 h -0.26438 z m 0.528759,0 h 0.264383 v 0.264383 h -0.264383 z m 0.528762,0 h 0.264382 v 0.264383 h -0.264382 z m 0.528762,0 h 0.26438 v 0.264383 h -0.26438 z m 0.528762,0 h 0.26438 v 0.264383 h -0.26438 z m 0.528759,0 h 0.264382 v 0.264383 h -0.264382 z m 0.528762,0 h 0.26438 v 0.264383 h -0.26438 z m 0.528762,0 h 0.264379 v 0.264383 h -0.264379 z m 0.528759,0 h 0.264382 v 0.264383 h -0.264382 z m 0.528762,0 h 0.26438 v 0.264383 h -0.26438 z m 0.528762,0 h 0.264379 v 0.264383 h -0.264379 z m 0.528759,0 h 0.264382 v 0.264383 h -0.264382 z m 0.528762,0 h 0.264382 v 0.264383 H 70.02566 Z"
         id="path39" />
      <path
         style="fill:#000000;fill-opacity:1;fill-rule:nonzero;stroke:#000000;stroke-width:0.0423009px;stroke-linecap:butt;stroke-linejoin:bevel;stroke-miterlimit:4;stroke-dasharray:none;stroke-opacity:1"
         d="M 70.660173,59.918913 V 77.368027 H 70.308547 V 59.918913 Z m -1.234657,0.354269 1.057524,-2.115044 1.057521,2.115044 z m 2.115045,16.743219 -1.057521,2.115045 -1.057524,-2.115045 z"
         id="path40" />
      <path
         style="fill:#000000;fill-opacity:1;fill-rule:nonzero;stroke:#000000;stroke-width:0.0423009px;stroke-linecap:butt;stroke-linejoin:bevel;stroke-miterlimit:4;stroke-dasharray:none;stroke-opacity:1"
         d="M 9.8341447,47.318536 V 89.936678 H 9.4825187 V 47.318536 Z m -1.2320135,0.351626 1.0575225,-2.115044 1.0575223,2.115044 z M 10.717176,89.582408 9.6596537,91.697453 8.6021312,89.582408 Z"
         id="path41" />
      <text
         xml:space="preserve"
         style="font-size:3.175px;text-align:start;writing-mode:lr-tb;direction:ltr;text-anchor:start;fill:#000000;stroke-width:0.264583"
         x="6.4405203"
         y="67.901482"
         id="text3"><tspan
           sodipodi:role="line"
           id="tspan3"
           style="stroke-width:0.264583"
           x="6.4405203"
           y="67.901482">D</tspan></text>
      <text
         xml:space="preserve"
         style="font-size:3.175px;text-align:start;writing-mode:lr-tb;direction:ltr;text-anchor:start;fill:#000000;stroke-width:0.264583"
         x="71.7658"
         y="66.797401"
         id="text4"><tspan
           sodipodi:role="line"
           id="tspan4"
           style="stroke-width:0.264583"
           x="71.7658"
           y="66.797401">d</tspan></text>
      <text
         xml:space="preserve"
         style="font-size:3.175px;text-align:start;writing-mode:lr-tb;direction:ltr;text-anchor:start;fill:#000000;stroke-width:0.264583"
         x="31.098513"
         y="107.68027"
         id="text5"><tspan
           sodipodi:role="line"
           id="tspan5"
           style="stroke-width:0.264583"
           x="31.098513"
           y="107.68027">Effort E</tspan></text>
      <text
         xml:space="preserve"
         style="font-size:3.175px;text-align:start;writing-mode:lr-tb;direction:ltr;text-anchor:start;fill:#000000;stroke-width:0.264583"
         x="52.260223"
         y="107.64869"
         id="text6"><tspan
           sodipodi:role="line"
           id="tspan6"
           style="stroke-width:0.264583"
           x="52.260223"
           y="107.64869">Load W</tspan></text>
    </g>
  </g>
</svg>
